<svg width="146" height="145" viewBox="0 0 146 145" fill="none" xmlns="http://www.w3.org/2000/svg">
<path fill-rule="evenodd" clip-rule="evenodd" d="M143.687 2.45505C138.626 3.12296 133.615 4.02447 128.67 5.15241L128.143 3.04544L127.173 3.28797L127.696 5.37781C122.742 6.53954 117.856 7.92883 113.051 9.53844L112.143 7.04546L111.204 7.38748L112.103 9.85906C107.1 11.5691 102.187 13.5186 97.3809 15.6993L96.3429 13.4734L95.4366 13.896L96.4715 16.1153C91.6436 18.3415 86.9253 20.8018 82.3336 23.4878L80.9524 21.146L80.0911 21.654L81.472 23.9953C76.926 26.692 72.5061 29.6109 68.2292 32.7438L66.4491 30.441L65.658 31.0526L67.424 33.3374C63.2131 36.4616 59.1429 39.7946 55.2297 43.3284L53.1434 41.0454L52.4052 41.72L54.4896 44.0009C52.6805 45.6548 50.9055 47.352 49.1662 49.0916C47.3459 50.9123 45.572 52.7721 43.8456 54.6693L41.9263 52.8384L41.236 53.562L43.1746 55.4112C40.0061 58.936 37.0001 62.5875 34.1624 66.3537L32.081 64.8196L31.4877 65.6246L33.563 67.1542C30.3898 71.4195 27.431 75.8298 24.6949 80.368L22.2131 78.9166L21.7083 79.7799L24.1812 81.226C21.4596 85.8031 18.9636 90.5083 16.7015 95.3245L14.1434 94.0454L13.6962 94.9399L16.279 96.2313C14.0748 100.999 12.0991 105.875 10.36 110.841L8.14337 110.045L7.80569 110.987L10.0323 111.786C8.32385 116.761 6.85233 121.826 5.62583 126.964L2.78679 126.241L2.5401 127.21L5.39656 127.937C4.2625 132.819 3.34937 137.766 2.66409 142.764L0.179745 142.31L0 143.293L2.5311 143.756C2.48979 144.071 2.44938 144.387 2.40988 144.703L4.39444 144.951C8.86219 109.21 25.1138 75.9775 50.5806 50.5056C76.0474 25.0337 109.277 8.77545 145.017 4.30051L144.768 2.31601C144.739 2.31974 144.709 2.32349 144.679 2.32724L144.386 0L143.394 0.124729L143.687 2.45505Z" fill="#9FA9AB"/>
</svg>
