<svg width="78" height="79" viewBox="0 0 78 79" fill="none" xmlns="http://www.w3.org/2000/svg">
<path fill-rule="evenodd" clip-rule="evenodd" d="M21.8871 24.8296C33.3295 12.9806 48.2293 5.05826 64.451 2.19794L77.967 78.8512L64.7629 4.17379C48.9585 6.96826 34.4444 14.6944 23.3008 26.2448C12.1656 37.7866 4.96716 52.5548 2.73524 68.4358L0.754639 68.1574C3.0471 51.8458 10.4446 36.6785 21.8871 24.8296Z" fill="#9FA9AB"/>
<line x1="0.047486" y1="66.4202" x2="2.03845" y2="66.6102" stroke="#9FA9AB"/>
<line x1="3.04295" y1="53.743" x2="5.20432" y2="54.3162" stroke="#9FA9AB"/>
<line x1="8.21921" y1="41.5657" x2="10.2192" y2="42.5657" stroke="#9FA9AB"/>
<line x1="15.3767" y1="30.4559" x2="17.1957" y2="31.7565" stroke="#9FA9AB"/>
<line x1="24.3492" y1="20.6594" x2="25.9401" y2="22.2504" stroke="#9FA9AB"/>
<line x1="35.4217" y1="11.7513" x2="36.5729" y2="13.6261" stroke="#9FA9AB"/>
<line x1="48.4646" y1="4.8396" x2="49.2446" y2="6.95007" stroke="#9FA9AB"/>
<line x1="62.5462" y1="0.908358" x2="62.9128" y2="2.87448" stroke="#9FA9AB"/>
</svg>
