<svg width="200" height="200" viewBox="0 0 200 200" fill="none" xmlns="http://www.w3.org/2000/svg">
<path fill-rule="evenodd" clip-rule="evenodd" d="M138.771 52.1793C158.183 44.1385 178.988 40 200 40V160C194.747 160 189.546 161.035 184.693 163.045C179.84 165.055 175.43 168.001 171.716 171.716C168.001 175.43 165.055 179.84 163.045 184.693C161.035 189.546 160 194.747 160 200H40C40 178.989 44.1385 158.183 52.1793 138.771C60.22 119.359 72.0055 101.72 86.8629 86.8629C101.72 72.0055 119.359 60.22 138.771 52.1793Z" fill="#646262"/>
<path fill-rule="evenodd" clip-rule="evenodd" d="M183.927 161.197C189.023 159.086 194.484 158 200 158V159C194.616 159 189.284 160.06 184.31 162.121C179.336 164.181 174.816 167.201 171.009 171.009C167.201 174.816 164.181 179.336 162.121 184.31C160.06 189.284 159 194.616 159 200H158C158 194.484 159.086 189.023 161.197 183.927C163.308 178.832 166.401 174.202 170.302 170.302C174.202 166.401 178.832 163.308 183.927 161.197Z" fill="#F7F7F7"/>
<path fill-rule="evenodd" clip-rule="evenodd" d="M139.153 53.1032C158.444 45.1127 179.12 41 200 41V42C179.251 42 158.705 46.0868 139.536 54.027C120.367 61.9673 102.949 73.6055 88.2771 88.2771C73.6055 102.949 61.9673 120.367 54.027 139.536C46.0868 158.705 42 179.251 42 200H41C41 179.12 45.1127 158.444 53.1032 139.153C61.0937 119.863 72.8055 102.335 87.57 87.57C102.335 72.8055 119.863 61.0937 139.153 53.1032Z" fill="#F7F7F7"/>
<path fill-rule="evenodd" clip-rule="evenodd" d="M196.988 129C194.72 129.095 192.462 129.299 190.22 129.61L190.357 130.601C192.568 130.294 194.794 130.093 197.03 129.999L196.988 129ZM163.756 138.868C165.67 137.733 167.638 136.688 169.655 135.736L170.082 136.64C168.094 137.579 166.153 138.61 164.266 139.728L163.756 138.868ZM183.39 131.93C181.111 132.485 178.858 133.156 176.641 133.94L176.308 132.997C178.556 132.202 180.841 131.522 183.153 130.958L183.39 131.93ZM157.762 142.847C155.923 144.206 154.149 145.655 152.446 147.19L153.116 147.933C154.795 146.42 156.544 144.991 158.357 143.651L157.762 142.847ZM142.849 157.771C144.256 155.866 145.759 154.03 147.352 152.27L148.094 152.941C146.522 154.676 145.041 156.487 143.654 158.365L142.849 157.771ZM138.875 163.769C137.647 165.843 136.524 167.982 135.511 170.177L136.419 170.596C137.418 168.432 138.525 166.323 139.736 164.278L138.875 163.769ZM130.867 183.644C131.408 181.351 132.062 179.085 132.83 176.853L133.775 177.178C133.019 179.378 132.373 181.613 131.84 183.873L130.867 183.644ZM130 197.981C130.066 195.593 130.255 193.213 130.565 190.85L129.573 190.721C129.259 193.117 129.068 195.53 129 197.953L130 197.981Z" fill="#F7F7F7"/>
<path fill-rule="evenodd" clip-rule="evenodd" d="M196.975 69L196.997 69.9997C194.674 70.0531 192.355 70.1688 190.042 70.3461L189.966 69.3491C192.296 69.1703 194.633 69.0538 196.975 69ZM182.813 71.1044L182.681 70.1132C180.287 70.4322 177.902 70.8173 175.531 71.268L175.717 72.2504C178.071 71.8032 180.437 71.421 182.813 71.1044ZM168.696 73.7867L168.456 72.8161C166.084 73.4041 163.728 74.0587 161.391 74.7793L161.686 75.7349C164.005 75.0198 166.343 74.3702 168.696 73.7867ZM154.726 78.098L154.377 77.1606C152.86 77.7243 151.351 78.3165 149.853 78.9372C149.081 79.2569 148.312 79.5839 147.547 79.918L147.948 80.8344C148.707 80.5028 149.469 80.1784 150.235 79.8611C151.722 79.2452 153.219 78.6574 154.726 78.098ZM134.327 86.6067C136.465 85.3685 138.639 84.1903 140.846 83.0736L141.298 83.9659C139.107 85.074 136.95 86.2433 134.829 87.4721L134.327 86.6067ZM128.575 91.3344L128.025 90.4988C125.907 91.8911 123.83 93.3448 121.796 94.8581L122.392 95.6605C124.411 94.1587 126.473 92.7161 128.575 91.3344ZM110.243 104.532C112.087 102.798 113.979 101.119 115.917 99.498L116.559 100.265C114.636 101.874 112.758 103.54 110.928 105.261L110.243 104.532ZM78.9559 149.834C79.3198 148.955 79.693 148.082 80.0755 147.212L80.9908 147.615C80.6112 148.478 80.2409 149.345 79.8798 150.217C79.2927 151.634 78.7312 153.061 78.1954 154.496L77.2585 154.146C77.7984 152.7 78.3643 151.262 78.9559 149.834ZM84.1769 140.9L83.2861 140.446C84.4111 138.24 85.5977 136.068 86.8443 133.932L87.708 134.436C86.4709 136.556 85.2933 138.711 84.1769 140.9ZM91.6362 128.127C93.0116 126.053 94.4466 124.018 95.9394 122.025L95.139 121.426C93.6348 123.434 92.1887 125.484 90.8027 127.575L91.6362 128.127ZM105.605 110.564C103.887 112.378 102.224 114.239 100.616 116.144L99.8516 115.5C101.472 113.579 103.148 111.704 104.879 109.876L105.605 110.564ZM74.8407 161.234C74.1138 163.583 73.4536 165.95 72.8606 168.333L73.831 168.575C74.4195 166.21 75.0747 163.86 75.796 161.53L74.8407 161.234ZM71.2607 175.649L72.2433 175.835C71.787 178.251 71.3991 180.679 71.0804 183.118L70.0888 182.989C70.41 180.531 70.8009 178.084 71.2607 175.649ZM69.331 190.44C69.1494 192.929 69.0389 195.427 69 197.928L69.9999 197.944C70.0385 195.461 70.1482 192.983 70.3283 190.512L69.331 190.44Z" fill="#F7F7F7"/>
<path fill-rule="evenodd" clip-rule="evenodd" d="M161.158 106.226C173.472 101.125 186.671 98.5 200 98.5V99.5C186.802 99.5 173.734 102.1 161.54 107.15C149.347 112.201 138.268 119.603 128.936 128.936C119.603 138.268 112.201 149.347 107.15 161.54C102.1 173.734 99.5 186.802 99.5 200H98.5C98.5 186.671 101.125 173.472 106.226 161.158C111.327 148.843 118.804 137.654 128.229 128.229C137.654 118.804 148.843 111.327 161.158 106.226Z" fill="#F7FB68"/>
<path fill-rule="evenodd" clip-rule="evenodd" d="M161.923 108.074C173.995 103.074 186.933 100.5 200 100.5V101.5C187.065 101.5 174.256 104.048 162.306 108.998C150.355 113.948 139.497 121.203 130.35 130.35C121.203 139.497 113.948 150.355 108.998 162.306C104.048 174.256 101.5 187.065 101.5 200H100.5C100.5 186.933 103.074 173.995 108.074 161.923C113.074 149.851 120.403 138.882 129.643 129.643C138.882 120.403 149.851 113.074 161.923 108.074Z" fill="#F7FB68"/>
</svg>
