<svg width="100" height="100" viewBox="0 0 100 100" fill="none" xmlns="http://www.w3.org/2000/svg">
<path fill-rule="evenodd" clip-rule="evenodd" d="M69.3853 26.0896C79.0914 22.0693 89.4942 20 100 20V80C97.3736 80 94.7728 80.5173 92.3463 81.5224C89.9198 82.5275 87.715 84.0007 85.8579 85.8579C84.0007 87.715 82.5275 89.9198 81.5224 92.3463C80.5173 94.7728 80 97.3736 80 100H20C20 89.4943 22.0693 79.0914 26.0896 69.3853C30.11 59.6793 36.0028 50.8601 43.4315 43.4315C50.8601 36.0028 59.6793 30.11 69.3853 26.0896Z" fill="#646262"/>
<path fill-rule="evenodd" clip-rule="evenodd" d="M91.581 79.6747C94.2501 78.569 97.1109 78 100 78V79C97.2422 79 94.5115 79.5432 91.9636 80.5985C89.4158 81.6539 87.1008 83.2007 85.1508 85.1508C83.2007 87.1008 81.6539 89.4158 80.5985 91.9636C79.5432 94.5115 79 97.2422 79 100L78 100C78 97.1109 78.569 94.2501 79.6746 91.581C80.7803 88.9118 82.4008 86.4865 84.4437 84.4437C86.4865 82.4008 88.9118 80.7803 91.581 79.6747Z" fill="#F7F7F7"/>
<path fill-rule="evenodd" clip-rule="evenodd" d="M69.768 27.0135C79.3527 23.0434 89.6256 21 100 21V22C89.7569 22 79.6141 24.0175 70.1507 27.9374C60.6873 31.8573 52.0886 37.6027 44.8457 44.8457C37.6027 52.0886 31.8573 60.6873 27.9374 70.1507C24.0175 79.6141 22 89.7569 22 100H21C21 89.6256 23.0434 79.3527 27.0135 69.768C30.9836 60.1833 36.8027 51.4744 44.1386 44.1386C51.4744 36.8027 60.1833 30.9836 69.768 27.0135Z" fill="#F7F7F7"/>
<path fill-rule="evenodd" clip-rule="evenodd" d="M80.2918 52.4202C86.5401 49.8321 93.2369 48.5 100 48.5V49.5C93.3682 49.5 86.8014 50.8062 80.6745 53.3441C74.5475 55.8819 68.9805 59.6017 64.2911 64.2911C59.6017 68.9805 55.8819 74.5475 53.3441 80.6745C50.8062 86.8014 49.5 93.3682 49.5 100H48.5C48.5 93.2369 49.8321 86.5401 52.4202 80.2918C55.0083 74.0435 58.8018 68.3662 63.584 63.584C68.3662 58.8018 74.0435 55.0083 80.2918 52.4202Z" fill="#F7FB68"/>
<path fill-rule="evenodd" clip-rule="evenodd" d="M81.0572 54.268C87.0628 51.7804 93.4996 50.5 100 50.5V51.5C93.6309 51.5 87.3241 52.7545 81.4399 55.1918C75.5556 57.6292 70.209 61.2017 65.7053 65.7053C61.2017 70.209 57.6292 75.5556 55.1918 81.4399C52.7545 87.3242 51.5 93.6309 51.5 100H50.5C50.5 93.4996 51.7804 87.0628 54.268 81.0572C56.7556 75.0516 60.4017 69.5947 64.9982 64.9982C69.5947 60.4017 75.0516 56.7556 81.0572 54.268Z" fill="#F7FB68"/>
</svg>
