<svg width="100" height="100" viewBox="0 0 100 100" fill="none" xmlns="http://www.w3.org/2000/svg">
<rect x="96.1538" y="96.1538" width="96.1538" height="96.1538" transform="rotate(180 96.1538 96.1538)" fill="#B3B3B3"/>
<rect x="100" y="100" width="96.1538" height="96.1538" transform="rotate(180 100 100)" fill="#D9D9D9"/>
<path d="M100 80C97.3737 80 94.7731 80.5174 92.3467 81.5225C89.9202 82.5276 87.7146 84.0003 85.8574 85.8574C84.0003 87.7146 82.5276 89.9202 81.5225 92.3467C80.5174 94.7731 80 97.3737 80 100H20C20 89.4944 22.0695 79.0917 26.0898 69.3857C30.1102 59.6797 36.003 50.8603 43.4316 43.4316C50.8603 36.003 59.6797 30.1102 69.3857 26.0898C79.0917 22.0695 89.4944 20 100 20V80Z" fill="#646262"/>
<path d="M100 79C97.2423 79 94.5117 79.5433 91.9639 80.5986C89.416 81.654 87.1004 83.2004 85.1504 85.1504C83.2004 87.1004 81.654 89.416 80.5986 91.9639C79.5433 94.5117 79 97.2423 79 100H78C78 97.1109 78.5692 94.2502 79.6748 91.5811C80.7804 88.9119 82.4005 86.4862 84.4434 84.4434C86.4862 82.4005 88.9119 80.7804 91.5811 79.6748C94.2502 78.5692 97.1109 78 100 78V79Z" fill="#F7F7F7"/>
<path d="M100 22C89.7569 22 79.6138 24.0176 70.1504 27.9375C60.6871 31.8574 52.0886 37.6028 44.8457 44.8457C37.6028 52.0886 31.8574 60.6871 27.9375 70.1504C24.0176 79.6138 22 89.7569 22 100H21C21 89.6256 23.0436 79.3523 27.0137 69.7676C30.9838 60.183 36.803 51.4744 44.1387 44.1387C51.4744 36.803 60.183 30.9838 69.7676 27.0137C79.3523 23.0436 89.6256 21 100 21V22Z" fill="#F7F7F7"/>
<path d="M100 49.5C93.3684 49.5 86.8016 50.806 80.6748 53.3438C74.5479 55.8816 68.9804 59.6017 64.291 64.291C59.6017 68.9804 55.8816 74.5479 53.3438 80.6748C50.806 86.8016 49.5 93.3684 49.5 100H48.5C48.5 93.237 49.8319 86.5402 52.4199 80.292C55.008 74.0437 58.8018 68.3662 63.584 63.584C68.3662 58.8018 74.0437 55.008 80.292 52.4199C86.5402 49.8319 93.237 48.5 100 48.5V49.5Z" fill="#F7FB68"/>
<path d="M100 51.5C93.6309 51.5 87.3237 52.7541 81.4395 55.1914C75.5552 57.6288 70.2087 61.2015 65.7051 65.7051C61.2015 70.2087 57.6288 75.5552 55.1914 81.4395C52.7541 87.3237 51.5 93.6309 51.5 100H50.5C50.5 93.4998 51.7801 87.0631 54.2676 81.0576C56.7552 75.052 60.4015 69.5945 64.998 64.998C69.5945 60.4015 75.052 56.7552 81.0576 54.2676C87.0631 51.7801 93.4998 50.5 100 50.5V51.5Z" fill="#F7FB68"/>
</svg>
