<svg width="200" height="100" viewBox="0 0 200 100" fill="none" xmlns="http://www.w3.org/2000/svg">
<rect x="156.247" y="58.4852" width="11.65" height="11.65" rx="0.825" transform="rotate(-45 156.247 58.4852)" fill="#FFCE44" stroke="black" stroke-width="0.35"/>
<path d="M159.261 59.5V57.1826H159.732L160.14 58.2607C160.169 58.3408 160.206 58.4502 160.251 58.5889C160.296 58.7256 160.325 58.8145 160.339 58.8555H160.351C160.448 58.5723 160.518 58.374 160.559 58.2607L160.957 57.1826H161.435V59.5H161.054V58.4482C161.054 58.2725 161.067 58.0342 161.095 57.7334H161.083L160.916 58.2256L160.491 59.3682H160.204L159.785 58.2256L159.612 57.7305H159.598C159.629 58.0117 159.645 58.251 159.645 58.4482V59.5H159.261ZM161.953 59.5V57.1826H163.474V57.5137H162.34V58.1406H163.362V58.4658H162.34V59.1719H163.503V59.5H161.953ZM164.241 58.2461H164.728C164.858 58.2461 164.959 58.2139 165.029 58.1494C165.1 58.085 165.135 57.9922 165.135 57.8711C165.135 57.7637 165.099 57.6777 165.026 57.6133C164.954 57.5469 164.852 57.5137 164.719 57.5137H164.241V58.2461ZM163.854 59.5V57.1826H164.792C165.03 57.1826 165.213 57.2451 165.34 57.3701C165.469 57.4951 165.533 57.6514 165.533 57.8389C165.533 57.9971 165.498 58.126 165.428 58.2256C165.357 58.3252 165.276 58.3926 165.185 58.4277C165.259 58.4785 165.312 58.5322 165.343 58.5889C165.374 58.6455 165.4 58.7314 165.422 58.8467C165.469 59.0771 165.553 59.2949 165.674 59.5H165.243C165.147 59.3379 165.072 59.1299 165.018 58.876C164.996 58.7764 164.964 58.7012 164.921 58.6504C164.88 58.5996 164.814 58.5742 164.725 58.5742H164.241V59.5H163.854ZM165.82 58.3398C165.82 57.9863 165.915 57.6963 166.104 57.4697C166.294 57.2432 166.548 57.1299 166.866 57.1299C166.985 57.1299 167.095 57.1494 167.194 57.1885C167.296 57.2275 167.38 57.2783 167.446 57.3408C167.513 57.4014 167.565 57.46 167.604 57.5166C167.646 57.5713 167.679 57.627 167.704 57.6836L167.373 57.792C167.332 57.7295 167.294 57.6777 167.259 57.6367C167.226 57.5957 167.174 57.5566 167.104 57.5195C167.033 57.4805 166.955 57.4609 166.869 57.4609C166.666 57.4609 166.507 57.541 166.392 57.7012C166.276 57.8613 166.219 58.0742 166.219 58.3398C166.219 58.6113 166.277 58.8262 166.395 58.9844C166.512 59.1426 166.664 59.2217 166.852 59.2217C167.014 59.2217 167.141 59.1748 167.232 59.0811C167.324 58.9873 167.376 58.8682 167.388 58.7236C167.394 58.6357 167.396 58.5723 167.396 58.5332H166.828V58.2051H167.771V59.5H167.505L167.47 59.2627C167.343 59.4561 167.133 59.5527 166.84 59.5527C166.547 59.5527 166.304 59.4434 166.11 59.2246C165.917 59.0039 165.82 58.709 165.82 58.3398ZM168.193 59.5V57.1826H169.714V57.5137H168.58V58.1406H169.603V58.4658H168.58V59.1719H169.743V59.5H168.193Z" fill="black"/>
<rect x="172.723" y="79.4854" width="11.65" height="11.65" rx="0.825" transform="rotate(135 172.723 79.4854)" fill="#FFCE44" stroke="black" stroke-width="0.35"/>
<path d="M169.71 78.4706V80.788H169.238L168.831 79.7098C168.802 79.6298 168.764 79.5204 168.719 79.3817C168.675 79.245 168.645 79.1561 168.632 79.1151H168.62C168.522 79.3983 168.453 79.5966 168.412 79.7098L168.013 80.788H167.536V78.4706H167.917V79.5223C167.917 79.6981 167.903 79.9364 167.876 80.2372H167.887L168.054 79.745L168.479 78.6024H168.766L169.185 79.745L169.358 80.2401H169.373C169.342 79.9589 169.326 79.7196 169.326 79.5223V78.4706H169.71ZM167.017 78.4706V80.788H165.497V80.4569H166.631V79.83H165.608V79.5048H166.631V78.7987H165.468V78.4706H167.017ZM164.729 79.7245H164.243C164.112 79.7245 164.011 79.7567 163.941 79.8212C163.871 79.8856 163.836 79.9784 163.836 80.0995C163.836 80.2069 163.872 80.2928 163.944 80.3573C164.016 80.4237 164.119 80.4569 164.252 80.4569H164.729V79.7245ZM165.116 78.4706V80.788H164.178C163.94 80.788 163.758 80.7255 163.631 80.6005C163.502 80.4755 163.437 80.3192 163.437 80.1317C163.437 79.9735 163.472 79.8446 163.543 79.745C163.613 79.6454 163.694 79.578 163.786 79.5428C163.712 79.4921 163.659 79.4384 163.628 79.3817C163.596 79.3251 163.57 79.2391 163.549 79.1239C163.502 78.8934 163.418 78.6757 163.297 78.4706H163.727C163.823 78.6327 163.898 78.8407 163.953 79.0946C163.974 79.1942 164.007 79.2694 164.05 79.3202C164.091 79.371 164.156 79.3964 164.246 79.3964H164.729V78.4706H165.116ZM163.15 79.6307C163.15 79.9843 163.055 80.2743 162.866 80.5009C162.677 80.7274 162.423 80.8407 162.104 80.8407C161.985 80.8407 161.876 80.8212 161.776 80.7821C161.675 80.743 161.591 80.6923 161.524 80.6298C161.458 80.5692 161.405 80.5106 161.366 80.454C161.325 80.3993 161.292 80.3436 161.266 80.287L161.597 80.1786C161.638 80.2411 161.677 80.2928 161.712 80.3339C161.745 80.3749 161.797 80.4139 161.867 80.451C161.937 80.4901 162.015 80.5096 162.101 80.5096C162.304 80.5096 162.464 80.4296 162.579 80.2694C162.694 80.1093 162.752 79.8964 162.752 79.6307C162.752 79.3593 162.693 79.1444 162.576 78.9862C162.459 78.828 162.306 78.7489 162.119 78.7489C161.957 78.7489 161.83 78.7958 161.738 78.8895C161.646 78.9833 161.594 79.1024 161.583 79.2469C161.577 79.3348 161.574 79.3983 161.574 79.4374H162.142V79.7655H161.199V78.4706H161.466L161.501 78.7079C161.628 78.5145 161.838 78.4178 162.131 78.4178C162.424 78.4178 162.667 78.5272 162.86 78.746C163.053 78.9667 163.15 79.2616 163.15 79.6307ZM160.777 78.4706V80.788H159.257V80.4569H160.39V79.83H159.368V79.5048H160.39V78.7987H159.227V78.4706H160.777Z" fill="black"/>
<rect x="162.632" y="69.1924" width="12.65" height="12.65" rx="0.825" transform="rotate(135 162.632 69.1924)" fill="#FFCE44" stroke="black" stroke-width="0.35"/>
<line x1="155.755" y1="73.8848" x2="155.755" y2="64.3848" stroke="black" stroke-width="1.25"/>
<path d="M152.98 73.8848V71.7737L151.23 69.3848V64.3848" stroke="black" stroke-width="1.25"/>
<line x1="153.58" y1="65.6847" x2="153.58" y2="64.4847" stroke="black" stroke-width="0.6"/>
<path d="M153.505 67.7799V66.5799" stroke="black" stroke-width="0.6"/>
<path d="M153.489 69.7751V68.5751" stroke="black" stroke-width="0.6"/>
</svg>
