<svg width="200" height="100" viewBox="0 0 200 100" fill="none" xmlns="http://www.w3.org/2000/svg">
<rect width="200" height="100" fill="#646262"/>
<line x1="158.5" x2="158.5" y2="5" stroke="#F7F7F7"/>
<line x1="159" y1="4.5" x2="196" y2="4.5" stroke="#F7F7F7"/>
<line x1="195.5" y1="5" x2="195.5" y2="95" stroke="#F7F7F7"/>
<line x1="196" y1="95.5" x2="83" y2="95.5" stroke="#F7F7F7"/>
<line x1="21.5" y1="100" x2="21.5" y2="95" stroke="#F7F7F7"/>
<line x1="21" y1="95.5" x2="5" y2="95.5" stroke="#F7F7F7"/>
<line x1="4.5" y1="96" x2="4.5" y2="5" stroke="#F7F7F7"/>
<line x1="4" y1="4.5" x2="37" y2="4.5" stroke="#F7F7F7"/>
<path fill-rule="evenodd" clip-rule="evenodd" d="M78.3806 98.0866C78.1293 98.6932 78 99.3434 78 100H79C79 99.4747 79.1035 98.9546 79.3045 98.4693C79.5055 97.984 79.8001 97.543 80.1716 97.1716C80.543 96.8001 80.984 96.5055 81.4693 96.3045C81.9546 96.1035 82.4747 96 83 96V95C82.3434 95 81.6932 95.1293 81.0866 95.3806C80.48 95.6319 79.9288 96.0002 79.4645 96.4645C79.0002 96.9288 78.6319 97.48 78.3806 98.0866Z" fill="#F7F7F7"/>
<path fill-rule="evenodd" clip-rule="evenodd" d="M41.6194 1.91342C41.8707 1.30679 42 0.65661 42 0H41C41 0.525288 40.8965 1.04543 40.6955 1.53073C40.4945 2.01604 40.1999 2.45699 39.8284 2.82843C39.457 3.19986 39.016 3.4945 38.5307 3.69552C38.0454 3.89654 37.5253 4 37 4V5C37.6566 5 38.3068 4.87067 38.9134 4.6194C39.52 4.36812 40.0712 3.99983 40.5355 3.53553C40.9998 3.07124 41.3681 2.52005 41.6194 1.91342Z" fill="#F7F7F7"/>
<path fill-rule="evenodd" clip-rule="evenodd" d="M158.024 19.2988L158 5.99997L159 5.99817L159.023 19H159.025C159.025 19.1009 159.025 19.2015 159.024 19.3018L159.025 19.9982L159.011 19.9982C158.843 25.9103 157.151 30.8733 153.3 35.9882C149.253 41.3631 142.826 46.8993 133.322 53.9025L133.268 53.8298L82.0748 95.0933L81.4473 94.3147L133.141 52.6481L133.214 52.739C142.44 45.9134 148.615 40.5468 152.501 35.3867C156.371 30.2469 157.973 25.3061 158.024 19.2988Z" fill="#F7FB68"/>
<line x1="158.317" y1="7.48911" x2="194.526" y2="28.3941" stroke="#F7FB68"/>
<line x1="172.305" y1="5.47153" x2="194.439" y2="18.2507" stroke="#F7FB68"/>
<line x1="158.277" y1="17.567" x2="194.65" y2="38.567" stroke="#F7FB68"/>
<line x1="157.228" y1="26.6477" x2="194.623" y2="48.2377" stroke="#F7FB68"/>
<line x1="154.147" y1="34.7981" x2="194.66" y2="58.1881" stroke="#F7FB68"/>
<line x1="148.277" y1="41.5671" x2="194.575" y2="68.3169" stroke="#F7FB68"/>
<line x1="141.218" y1="47.671" x2="194.565" y2="78.471" stroke="#F7FB68"/>
<line x1="133.418" y1="53.326" x2="194.438" y2="88.556" stroke="#F7FB68"/>
<line x1="125.777" y1="58.967" x2="187.265" y2="94.467" stroke="#F7FB68"/>
<line x1="118.777" y1="64.567" x2="170.739" y2="94.567" stroke="#F7FB68"/>
<line x1="112.277" y1="70.567" x2="153.847" y2="94.567" stroke="#F7FB68"/>
<line x1="104.777" y1="76.317" x2="136.387" y2="94.567" stroke="#F7FB68"/>
<line x1="97.7773" y1="82.067" x2="119.428" y2="94.567" stroke="#F7FB68"/>
<line x1="90.2773" y1="87.567" x2="102.402" y2="94.567" stroke="#F7FB68"/>
<line x1="82" y1="94.5" x2="195" y2="94.5" stroke="#F7FB68"/>
<line x1="194.515" y1="6" x2="194.515" y2="94" stroke="#F7FB68"/>
<line x1="158" y1="5.5" x2="195" y2="5.5" stroke="#F7FB68"/>
<path fill-rule="evenodd" clip-rule="evenodd" d="M33.9518 16.0428L33.9517 16.0431C26.6006 37.8526 21.1397 54.054 21.0033 80.0237H21.0015L21.0014 80.5114C21.001 80.6812 21.0007 80.8514 21.0007 81.0221H21.0014L21 93.9999L22 94L22.0014 80.5123C22.0712 54.4292 27.5029 38.3116 34.8963 16.3728C36.046 12.9611 37.2432 9.40863 38.4751 5.656L37.5249 5.34412C36.2964 9.08657 35.101 12.6332 33.9518 16.0428Z" fill="#F7FB68"/>
<line x1="5.25" y1="83.5677" x2="21.488" y2="92.9427" stroke="#F7FB68"/>
<line x1="5.25" y1="73.5677" x2="21.488" y2="82.9427" stroke="#F7FB68"/>
<line x1="5.25" y1="63.5677" x2="21.488" y2="72.9427" stroke="#F7FB68"/>
<line x1="5.25" y1="53.5677" x2="22.1375" y2="63.3177" stroke="#F7FB68"/>
<line x1="5.25" y1="43.5677" x2="23.4365" y2="54.0677" stroke="#F7FB68"/>
<line x1="5.25" y1="33.5677" x2="25.4284" y2="45.2177" stroke="#F7FB68"/>
<line x1="5.25" y1="23.5677" x2="27.7667" y2="36.5677" stroke="#F7FB68"/>
<line x1="5.25" y1="13.5677" x2="30.3647" y2="28.0677" stroke="#F7FB68"/>
<line x1="8.38232" y1="5.33505" x2="33.196" y2="19.6612" stroke="#F7FB68"/>
<line x1="24.2422" y1="5.58042" x2="35.5433" y2="12.1051" stroke="#F7FB68"/>
<line x1="22" y1="94.5" x2="5" y2="94.5" stroke="#F7FB68"/>
<line x1="5.5" y1="94" x2="5.5" y2="5" stroke="#F7FB68"/>
<line x1="6" y1="5.5" x2="38.37" y2="5.5" stroke="#F7FB68"/>
<path fill-rule="evenodd" clip-rule="evenodd" d="M68.9447 4.07288C68.9472 4.05829 68.9496 4.04369 68.952 4.02909L68.9492 4.07288H68.9447ZM68.8166 4.82288C68.5482 6.34444 68.2432 7.77625 67.87 9.19487C67.6984 9.84713 67.5123 10.4971 67.3084 11.1522L68.2558 11.473C68.4668 10.7964 68.6595 10.1243 68.8371 9.44929C69.2324 7.94679 69.552 6.43204 69.8317 4.82288H68.8166ZM69.9582 4.07288C69.9622 4.04861 69.9661 4.02432 69.9701 4L69.9492 4.07288H69.9582ZM64.5922 18.0788C64.1167 19.1073 63.5908 20.1884 63.0069 21.3396C62.4337 22.3856 61.897 23.3593 61.3837 24.2901L62.2789 24.7377C62.7873 23.8156 63.3194 22.8503 63.8877 21.8132L63.8916 21.8062L63.8952 21.7991C64.4789 20.6483 65.0062 19.5649 65.4844 18.532L64.5922 18.0788ZM54 38.3534C55.1992 35.899 56.2353 33.8565 57.2146 31.985L58.0951 32.4591C57.1212 34.3206 56.0912 36.3512 54.8985 38.7924L54 38.3534Z" fill="#F7F7F7"/>
<path fill-rule="evenodd" clip-rule="evenodd" d="M129.005 4.80005C129.004 7.16815 128.953 9.39852 128.76 11.6505L129.758 11.706C129.953 9.42538 130.004 7.17295 130.006 4.80005H129.005ZM127.466 19.4288C127.567 19.0264 127.661 18.6293 127.749 18.2366L128.758 18.3039C128.659 18.7538 128.552 19.2093 128.436 19.6713C127.972 21.5284 127.322 23.2276 126.53 24.8149L125.508 24.6233C126.328 23.0241 126.995 21.3116 127.466 19.4288ZM119.993 32.3497L120.849 32.8943C119.75 34.1444 118.6 35.3717 117.434 36.6148L117.434 36.6148L117.434 36.6148L117.434 36.6156L117.433 36.6165C116.878 37.2085 116.32 37.8041 115.762 38.4074L115.031 37.7251C115.597 37.1124 116.16 36.5106 116.718 35.9154L116.718 35.915C117.844 34.712 118.946 33.5356 119.993 32.3497Z" fill="#F7F7F7"/>
<path fill-rule="evenodd" clip-rule="evenodd" d="M48.5 99V99.1975V100H49.5V99.1975H49.5C49.5 88.5321 52.9639 78.1505 59.378 69.5921L58.5755 69C52.0727 77.6768 48.5429 88.1906 48.5004 99H48.5ZM50.5 99.559V99H50.5032C50.6199 88.719 53.9532 78.7226 60.0493 70.3972L60.8583 70.9804C54.776 79.2871 51.5 89.2913 51.5 99.5589H51.5V100H50.5V99.559Z" fill="#F7FB68"/>
<path fill-rule="evenodd" clip-rule="evenodd" d="M100.499 0C100.499 10.486 97.1566 20.7028 90.9501 29.1861L91.7591 29.7699C98.0897 21.1169 101.499 10.6957 101.499 7.62939e-06L100.499 0ZM99.5258 0C99.5258 10.2729 96.2482 20.2822 90.1627 28.5931L89.321 27.9864C95.2714 19.8496 98.4759 10.0537 98.4759 1.14441e-05H50.5L50.5 0H99.5258Z" fill="#F7FB68"/>
<rect x="89.5195" y="27.7561" width="1" height="51.6663" transform="rotate(36.8855 89.5195 27.7561)" fill="#F7FB68"/>
<rect x="91.0898" y="28.9952" width="1" height="51.8095" transform="rotate(36.8676 91.0898 28.9952)" fill="#F7FB68"/>
</svg>
