<svg width="10" height="10" viewBox="0 0 10 10" fill="none" xmlns="http://www.w3.org/2000/svg">
<circle cx="5" cy="5" r="5" fill="#CD7F32"/>
<circle cx="5" cy="5" r="4.5" fill="white"/>
<circle cx="5" cy="5" r="4" fill="#CD7F32"/>
<path fill-rule="evenodd" clip-rule="evenodd" d="M4.15 2.75H3.25V7.5H4.15V5.71875H5.5C5.69698 5.71875 5.89204 5.68036 6.07403 5.60576C6.25601 5.53116 6.42137 5.42182 6.56066 5.28399C6.69995 5.14615 6.81044 4.98251 6.88582 4.80242C6.9612 4.62233 7 4.42931 7 4.23437C7 4.03944 6.9612 3.84642 6.88582 3.66633C6.81044 3.48624 6.69995 3.3226 6.56066 3.18476C6.42137 3.04693 6.25601 2.93759 6.07403 2.86299C5.89204 2.78839 5.69698 2.75 5.5 2.75H4.15ZM5.5 4.82812C5.57879 4.82812 5.65681 4.81277 5.72961 4.78293C5.80241 4.75309 5.86855 4.70935 5.92426 4.65422C5.97998 4.59908 6.02417 4.53363 6.05433 4.46159C6.08448 4.38956 6.1 4.31235 6.1 4.23438C6.1 4.1564 6.08448 4.07919 6.05433 4.00716C6.02417 3.93512 5.97998 3.86967 5.92426 3.81453C5.86855 3.7594 5.80241 3.71566 5.72961 3.68582C5.65681 3.65598 5.57879 3.64062 5.5 3.64062H4.15V4.82812H5.5Z" fill="white"/>
</svg>
