<svg width="24" height="100" viewBox="0 0 24 100" fill="none" xmlns="http://www.w3.org/2000/svg">
<rect width="24" height="100" fill="#646262"/>
<line y1="-0.5" x2="6" y2="-0.5" transform="matrix(1 2.31864e-09 2.31864e-09 -1 17 50)" stroke="#F7F7F7"/>
<line y1="-0.5" x2="11" y2="-0.5" transform="matrix(0 1 1 0 23 45)" stroke="#F7F7F7"/>
<line y1="-0.5" x2="3" y2="-0.5" transform="matrix(1 0 0 -1 8 50)" stroke="#F7F7F7"/>
<line x1="22.5" y1="10" x2="22.5" y2="5" stroke="#F7F7F7"/>
<line x1="22" y1="5.5" x2="21" y2="5.5" stroke="#F7F7F7"/>
<line y1="-0.5" x2="5" y2="-0.5" transform="matrix(0 1 1 0 23 90)" stroke="#F7F7F7"/>
<line y1="-0.5" x2="1" y2="-0.5" transform="matrix(-1 0 0 1 22 95)" stroke="#F7F7F7"/>
<line x1="22.5" y1="70" x2="22.5" y2="76" stroke="#F7F7F7"/>
<line x1="22.5" y1="25" x2="22.5" y2="31" stroke="#F7F7F7"/>
<line x1="1.5" x2="1.5" y2="100" stroke="#F7F7F7"/>
</svg>
