<svg width="70" height="70" viewBox="0 0 70 70" fill="none" xmlns="http://www.w3.org/2000/svg">
<rect width="70" height="70" fill="#2165E3"/>
<path d="M37.2109 22C38.8359 22 40.2891 22.1797 41.5703 22.5391C42.8516 22.8984 44.125 23.5391 45.3906 24.4609L44.1719 28.6797C43.0469 27.8047 41.9375 27.1797 40.8438 26.8047C39.7656 26.4141 38.6484 26.2188 37.4922 26.2188C35.3516 26.2188 33.5703 26.9688 32.1484 28.4688C30.7266 29.9531 30.0156 32.1875 30.0156 35.1719C30.0156 38 30.6641 40.2188 31.9609 41.8281C33.2578 43.4219 35.0391 44.2188 37.3047 44.2188C38.6328 44.2188 39.9688 43.9297 41.3125 43.3516C42.6562 42.7578 43.8125 41.9688 44.7812 40.9844L45.6484 45.625C44.5703 46.4844 43.1797 47.1797 41.4766 47.7109C39.7891 48.2422 38.1953 48.5078 36.6953 48.5078C33.0547 48.5078 30.1953 47.3516 28.1172 45.0391C26.0391 42.7109 25 39.5703 25 35.6172C25 32.6016 25.5625 30.0859 26.6875 28.0703C27.8125 26.0547 29.3047 24.5391 31.1641 23.5234C33.0234 22.5078 35.0391 22 37.2109 22Z" fill="white"/>
</svg>
