<svg width="100" height="100" viewBox="0 0 100 100" fill="none" xmlns="http://www.w3.org/2000/svg">
<rect x="1" y="1" width="98" height="98" stroke="white" stroke-width="2"/>
<path d="M61.25 70.8649C62.4875 70.8649 63.5469 70.4203 64.4281 69.5311C65.3094 68.6419 65.75 67.573 65.75 66.3243V36.8108H68V32.2703H56.75V30H43.25V32.2703H32V36.8108H34.25V66.3243C34.25 67.573 34.6906 68.6419 35.5719 69.5311C36.4531 70.4203 37.5125 70.8649 38.75 70.8649H61.25ZM38.75 36.8108H61.25V66.3243H38.75V36.8108ZM56.75 61.7838H52.25V41.3514H56.75V61.7838ZM47.75 61.7838H43.25V41.3514H47.75V61.7838Z" fill="white"/>
</svg>
