<svg width="100" height="100" viewBox="0 0 100 100" fill="none" xmlns="http://www.w3.org/2000/svg">
<rect width="100" height="100" fill="black"/>
<path d="M27.9375 9.04102C28.7911 9.09788 29.6141 9.18802 30.4062 9.3125C31.8646 9.54167 33.2917 9.98958 34.6875 10.6562L33.3438 16.2812C32.5104 15.3646 31.3646 14.6979 29.9062 14.2812C29.2543 14.095 28.5978 13.9526 27.9375 13.8496V22.5371C29.4964 23.2082 30.8716 23.8932 32.0625 24.5938C33.5 25.4271 34.6042 26.4167 35.375 27.5625C36.1667 28.6875 36.5625 30.1042 36.5625 31.8125C36.5625 33.8958 36.0104 35.6562 34.9062 37.0938C33.8021 38.5312 32.3542 39.625 30.5625 40.375C29.5065 40.8222 28.4023 41.1349 27.25 41.3154V46.6562H23.25V41.4551C21.5507 41.3616 19.9673 41.1175 18.5 40.7188C16.6042 40.1979 15.1042 39.4896 14 38.5938L15.6875 32.5312C16.875 33.7396 18.2708 34.7188 19.875 35.4688C20.9755 35.969 22.1005 36.297 23.25 36.4541V26.6875C20.4133 25.5043 18.2881 24.2757 16.875 23C15.375 21.6458 14.625 19.875 14.625 17.6875C14.625 16.2292 15.0521 14.8333 15.9062 13.5C16.7604 12.1667 18.0104 11.0833 19.6562 10.25C20.8848 9.61239 22.3223 9.21244 23.9688 9.05078V4H27.9375V9.04102ZM27.25 36.335C28.0451 36.1687 28.7432 35.9119 29.3438 35.5625C30.4896 34.8958 31.0625 33.8646 31.0625 32.4688C31.0625 31.7812 30.875 31.1771 30.5 30.6562C30.1458 30.1354 29.4479 29.5938 28.4062 29.0312C28.0723 28.8443 27.6867 28.6453 27.25 28.4326V36.335ZM23.9688 13.749C22.965 13.8839 22.1421 14.1657 21.5 14.5938C20.5833 15.1979 20.125 16.0417 20.125 17.125C20.125 17.6875 20.2917 18.1979 20.625 18.6562C20.9792 19.1146 21.6458 19.6146 22.625 20.1562C23.0048 20.3541 23.4537 20.5697 23.9688 20.8096V13.749Z" fill="white"/>
</svg>
