<svg width="35" height="35" viewBox="0 0 35 35" fill="none" xmlns="http://www.w3.org/2000/svg">
<path d="M18.8008 6.71484C19.3343 6.75038 19.8487 6.80502 20.3438 6.88281C21.2552 7.02604 22.1471 7.30599 23.0195 7.72266L22.1797 11.2383C21.6589 10.6654 20.9427 10.2487 20.0312 9.98828C19.6237 9.87185 19.2135 9.78215 18.8008 9.71777V15.1514C19.7746 15.5706 20.6349 15.9959 21.3789 16.4336C22.2773 16.9544 22.9674 17.5729 23.4492 18.2891C23.944 18.9922 24.1914 19.8776 24.1914 20.9453C24.1914 22.2474 23.8464 23.3477 23.1562 24.2461C22.4661 25.1445 21.5612 25.8281 20.4414 26.2969C19.7815 26.5764 19.0912 26.77 18.3711 26.8828V30.2227H15.8711V26.9717C14.809 26.9133 13.8194 26.7609 12.9023 26.5117C11.7174 26.1862 10.7799 25.7435 10.0898 25.1836L11.1445 21.3945C11.8867 22.1497 12.7591 22.7617 13.7617 23.2305C14.4494 23.5431 15.1528 23.7456 15.8711 23.8438V17.7393C14.0987 16.9999 12.7697 16.2346 11.8867 15.4375C10.9492 14.5911 10.4805 13.4844 10.4805 12.1172C10.4805 11.2057 10.7474 10.3333 11.2812 9.5C11.8151 8.66667 12.5964 7.98958 13.625 7.46875C14.3929 7.07024 15.2913 6.81978 16.3203 6.71875V3.5625H18.8008V6.71484ZM18.3711 23.7705C18.8679 23.6666 19.3044 23.5074 19.6797 23.2891C20.3958 22.8724 20.7539 22.2279 20.7539 21.3555C20.7539 20.9258 20.6367 20.5482 20.4023 20.2227C20.181 19.8971 19.7448 19.5586 19.0938 19.207C18.8852 19.0902 18.6438 18.9668 18.3711 18.834V23.7705ZM16.3203 9.6582C15.6931 9.74252 15.1786 9.91609 14.7773 10.1836C14.2044 10.5612 13.918 11.0885 13.918 11.7656C13.918 12.1172 14.0221 12.4362 14.2305 12.7227C14.4518 13.0091 14.8685 13.3216 15.4805 13.6602C15.7178 13.7838 15.9984 13.9184 16.3203 14.0684V9.6582Z" fill="white"/>
</svg>
