<svg width="70" height="70" viewBox="0 0 70 70" fill="none" xmlns="http://www.w3.org/2000/svg">
<rect width="70" height="70" fill="#02A741"/>
<path d="M33.7891 22C36.5234 22 38.7422 22.625 40.4453 23.875C42.1641 25.125 43.0234 27.0156 43.0234 29.5469C43.0234 31.4062 42.5625 32.9297 41.6406 34.1172C40.7344 35.2891 39.5391 36.1562 38.0547 36.7188C37.9314 36.766 37.8064 36.8083 37.6816 36.8516C38.0212 37.3225 38.4355 37.9026 38.9219 38.5938C39.5312 39.4375 40.1875 40.3438 40.8906 41.3125C41.5938 42.2812 42.2734 43.2266 42.9297 44.1484C43.6016 45.0547 44.1875 45.8438 44.6875 46.5156C45.2031 47.1719 45.5547 47.6094 45.7422 47.8281H39.5078L32.7363 37.5625H30.2734V40.1875C30.2734 41.9219 30.2891 43.4609 30.3203 44.8047C30.3516 46.1328 30.4219 47.1406 30.5312 47.8281H25C25.125 47.125 25.1953 46.1094 25.2109 44.7812C25.2422 43.4531 25.2578 41.9219 25.2578 40.1875V30.25C25.2578 28.5312 25.2422 26.9297 25.2109 25.4453C25.1953 23.9609 25.125 22.8672 25 22.1641C25 22.1641 25.4453 22.1484 26.3359 22.1172C27.2422 22.0859 28.3672 22.0625 29.7109 22.0469C31.0703 22.0156 32.4297 22 33.7891 22ZM33.1797 25.9609C32.4922 25.9609 31.9531 25.9688 31.5625 25.9844C31.1719 25.9844 30.7422 26 30.2734 26.0312V33.7656H32.9922C34.5391 33.7656 35.7578 33.4688 36.6484 32.875C37.5547 32.2656 38.0078 31.1875 38.0078 29.6406C38.0078 28.3125 37.5938 27.3672 36.7656 26.8047C35.9375 26.2422 34.7422 25.9609 33.1797 25.9609Z" fill="white"/>
</svg>
