<svg width="35" height="35" viewBox="0 0 35 35" fill="none" xmlns="http://www.w3.org/2000/svg">
<path d="M17.4842 9.76191C17.5863 9.54233 17.9098 9.58177 17.9562 9.81946L18.9923 15.1254C19.013 15.2317 19.0999 15.3126 19.2074 15.3257L24.5738 15.9799C24.8143 16.0093 24.8767 16.3291 24.665 16.4467L19.9389 19.0717C19.8442 19.1243 19.7941 19.2318 19.8149 19.3381L20.851 24.6441C20.8974 24.8818 20.6125 25.04 20.4353 24.875L16.4783 21.1914C16.399 21.1176 16.2812 21.1032 16.1865 21.1558L11.4604 23.7808C11.2487 23.8984 11.0102 23.6764 11.1124 23.4568L13.3929 18.5552C13.4386 18.457 13.4159 18.3406 13.3366 18.2668L9.37962 14.5831C9.20236 14.4181 9.33982 14.1227 9.58022 14.152L14.9467 14.8062C15.0542 14.8193 15.1579 14.7617 15.2036 14.6635L17.4842 9.76191Z" fill="white"/>
<path d="M12.1565 7.55474C12.3635 7.42901 12.6105 7.64161 12.5169 7.86499L11.9571 9.2016C11.9153 9.3015 11.9425 9.41698 12.0246 9.48764L13.1228 10.4331C13.3064 10.5911 13.1805 10.8916 12.9391 10.8717L11.495 10.7523C11.387 10.7434 11.2856 10.805 11.2438 10.9049L10.684 12.2415C10.5904 12.4649 10.2657 12.4381 10.2101 12.2023L9.87732 10.792C9.85245 10.6866 9.76253 10.6092 9.65459 10.6002L8.21041 10.4809C7.96906 10.4609 7.89423 10.1438 8.10122 10.0181L9.33973 9.26575C9.4323 9.20952 9.47813 9.10008 9.45326 8.99467L9.1205 7.5843C9.06488 7.34859 9.34338 7.17942 9.52692 7.33742L10.6251 8.28285C10.7072 8.35351 10.8255 8.36328 10.918 8.30705L12.1565 7.55474Z" fill="white"/>
<path d="M27.6188 22.0905C27.8593 22.0621 27.9957 22.358 27.8179 22.5224L26.7537 23.506C26.6742 23.5795 26.651 23.6959 26.6964 23.7942L27.303 25.1103C27.4044 25.3302 27.1651 25.5514 26.9538 25.433L25.6895 24.7249C25.595 24.672 25.4772 24.6859 25.3976 24.7594L24.3335 25.743C24.1556 25.9074 23.8713 25.7482 23.9186 25.5107L24.2014 24.0894C24.2225 23.9832 24.1728 23.8755 24.0783 23.8225L22.814 23.1144C22.6027 22.9961 22.6663 22.6765 22.9068 22.648L24.3459 22.4778C24.4535 22.465 24.5406 22.3845 24.5617 22.2783L24.8445 20.857C24.8918 20.6195 25.2153 20.5812 25.3167 20.8012L25.9233 22.1172C25.9687 22.2155 26.0722 22.2735 26.1798 22.2608L27.6188 22.0905Z" fill="white"/>
<path d="M9.92908 24.2518C10.0648 24.0512 10.3779 24.1414 10.386 24.3835L10.4081 25.0439C10.4118 25.1521 10.4847 25.2457 10.5888 25.2757L11.2237 25.4587C11.4564 25.5258 11.4673 25.8515 11.2396 25.934L10.6184 26.1591C10.5165 26.196 10.4501 26.2943 10.4537 26.4026L10.4758 27.063C10.4839 27.305 10.1776 27.416 10.0287 27.225L9.62266 26.7037C9.5561 26.6183 9.44209 26.5854 9.34026 26.6223L8.71902 26.8474C8.49132 26.93 8.29107 26.6729 8.42678 26.4723L8.79704 25.925C8.85773 25.8353 8.85376 25.7167 8.7872 25.6313L8.38111 25.11C8.23227 24.919 8.41487 24.6491 8.64757 24.7162L9.2825 24.8992C9.38657 24.9292 9.49812 24.8888 9.55881 24.7991L9.92908 24.2518Z" fill="white"/>
<path d="M22.9291 8.25176C23.0648 8.05117 23.3779 8.14143 23.386 8.38347L23.4081 9.04388C23.4118 9.15213 23.4847 9.24572 23.5888 9.27572L24.2237 9.45875C24.4564 9.52583 24.4673 9.85149 24.2396 9.93401L23.6184 10.1591C23.5165 10.196 23.4501 10.2943 23.4537 10.4026L23.4758 11.063C23.4839 11.305 23.1776 11.416 23.0287 11.225L22.6227 10.7037C22.5561 10.6183 22.4421 10.5854 22.3403 10.6223L21.719 10.8474C21.4913 10.93 21.2911 10.6729 21.4268 10.4723L21.797 9.92502C21.8577 9.83531 21.8538 9.71673 21.7872 9.63129L21.3811 9.11002C21.2323 8.91897 21.4149 8.64908 21.6476 8.71616L22.2825 8.89919C22.3866 8.92918 22.4981 8.88876 22.5588 8.79905L22.9291 8.25176Z" fill="white"/>
</svg>
