<svg width="35" height="35" viewBox="0 0 35 35" fill="none" xmlns="http://www.w3.org/2000/svg">
<path d="M17.5 11C19.654 11 21.4004 12.7465 21.4004 14.9004C21.4004 16.4284 20.521 17.7499 19.2412 18.3896C20.3111 18.6872 21.2976 19.2547 22.0967 20.0537C23.3157 21.2727 24 22.9265 24 24.6504H11C11 22.9265 11.6853 21.2727 12.9043 20.0537C13.7032 19.2549 14.6892 18.6872 15.7588 18.3896C14.4792 17.7498 13.6006 16.4282 13.6006 14.9004C13.6006 12.7466 15.3461 11.0001 17.5 11Z" fill="white"/>
<path d="M26.5479 10C28.3863 10 29.877 11.4908 29.877 13.3291C29.8769 14.6333 29.1257 15.7608 28.0332 16.3066C28.9466 16.5605 29.7885 17.0454 30.4707 17.7275C31.5112 18.7679 32.0957 20.1791 32.0957 21.6504H21C21 20.1791 21.5845 18.7679 22.625 17.7275C23.307 17.0456 24.1485 16.5606 25.0615 16.3066C23.9696 15.7606 23.2188 14.6329 23.2188 13.3291C23.2188 11.4908 24.7095 10.0001 26.5479 10Z" fill="white"/>
<path d="M8.54785 10C10.3863 10 11.877 11.4908 11.877 13.3291C11.8769 14.6333 11.1257 15.7608 10.0332 16.3066C10.9466 16.5605 11.7885 17.0454 12.4707 17.7275C13.5112 18.7679 14.0957 20.1791 14.0957 21.6504H3C3 20.1791 3.58455 18.7679 4.625 17.7275C5.30696 17.0456 6.14847 16.5606 7.06152 16.3066C5.9696 15.7606 5.21883 14.6329 5.21875 13.3291C5.21875 11.4908 6.70948 10.0001 8.54785 10Z" fill="white"/>
<path d="M11 24.65C11 24.7813 11.1681 24.9114 11.4948 25.0327C11.8214 25.154 12.3002 25.2643 12.9038 25.3571C13.5074 25.45 14.2239 25.5236 15.0126 25.5739C15.8012 25.6242 16.6464 25.65 17.5 25.65C18.3536 25.65 19.1988 25.6242 19.9874 25.5739C20.7761 25.5236 21.4926 25.45 22.0962 25.3571C22.6998 25.2643 23.1786 25.154 23.5052 25.0327C23.8319 24.9114 24 24.7813 24 24.65H17.5H11Z" fill="white"/>
<path d="M21.0996 21.6C21.0996 21.7313 21.2419 21.8613 21.5183 21.9827C21.7947 22.104 22.1998 22.2142 22.7105 22.3071C23.2212 22.3999 23.8276 22.4736 24.4949 22.5239C25.1621 22.5741 25.8773 22.6 26.5996 22.6C27.3219 22.6 28.0371 22.5741 28.7044 22.5239C29.3717 22.4736 29.978 22.3999 30.4887 22.3071C30.9994 22.2142 31.4045 22.104 31.6809 21.9827C31.9573 21.8613 32.0996 21.7313 32.0996 21.6H26.5996H21.0996Z" fill="white"/>
<path d="M3 21.6C3 21.7313 3.14226 21.8613 3.41866 21.9827C3.69506 22.104 4.10019 22.2142 4.61091 22.3071C5.12163 22.3999 5.72795 22.4736 6.39524 22.5239C7.06253 22.5741 7.77773 22.6 8.5 22.6C9.22227 22.6 9.93747 22.5741 10.6048 22.5239C11.272 22.4736 11.8784 22.3999 12.3891 22.3071C12.8998 22.2142 13.3049 22.104 13.5813 21.9827C13.8577 21.8613 14 21.7313 14 21.6H8.5H3Z" fill="white"/>
</svg>
