<svg width="41" height="44" viewBox="0 0 41 44" fill="none" xmlns="http://www.w3.org/2000/svg">
<path d="M14.5 32.5C17.5376 32.5 20 34.9624 20 38C20 41.0376 17.5376 43.5 14.5 43.5C11.4624 43.5 9 41.0376 9 38C9 34.9624 11.4624 32.5 14.5 32.5ZM31.5 32.5C34.5376 32.5 37 34.9624 37 38C37 41.0376 34.5376 43.5 31.5 43.5C28.4624 43.5 26 41.0376 26 38C26 34.9624 28.4624 32.5 31.5 32.5ZM14.5 35.5C13.1193 35.5 12 36.6193 12 38C12 39.3807 13.1193 40.5 14.5 40.5C15.8807 40.5 17 39.3807 17 38C17 36.6193 15.8807 35.5 14.5 35.5ZM31.5 35.5C30.1193 35.5 29 36.6193 29 38C29 39.3807 30.1193 40.5 31.5 40.5C32.8807 40.5 34 39.3807 34 38C34 36.6193 32.8807 35.5 31.5 35.5ZM7.5 10.5H17V13H8.5L12 27H33.5L37 13H28V10.5H40.5L35.5 29.5H10L5 10.5L3 2.5H0V0H5L7.5 10.5ZM21.5 2.5H23.5V15.5H28.2734L22.5 25.5L16.7266 15.5H21.5V2.5Z" fill="white"/>
</svg>
