<svg width="100" height="100" viewBox="0 0 100 100" fill="none" xmlns="http://www.w3.org/2000/svg">
<rect x="1" y="1" width="98" height="98" stroke="white" stroke-width="2"/>
<path d="M52.9375 34.041C53.7911 34.0979 54.6141 34.188 55.4062 34.3125C56.8646 34.5417 58.2917 34.9896 59.6875 35.6562L58.3438 41.2812C57.5104 40.3646 56.3646 39.6979 54.9062 39.2812C54.2543 39.095 53.5978 38.9526 52.9375 38.8496V47.5371C54.4964 48.2082 55.8716 48.8932 57.0625 49.5938C58.5 50.4271 59.6042 51.4167 60.375 52.5625C61.1667 53.6875 61.5625 55.1042 61.5625 56.8125C61.5625 58.8958 61.0104 60.6562 59.9062 62.0938C58.8021 63.5312 57.3542 64.625 55.5625 65.375C54.5065 65.8222 53.4023 66.1349 52.25 66.3154V71.6562H48.25V66.4551C46.5507 66.3616 44.9673 66.1175 43.5 65.7188C41.6042 65.1979 40.1042 64.4896 39 63.5938L40.6875 57.5312C41.875 58.7396 43.2708 59.7188 44.875 60.4688C45.9755 60.969 47.1005 61.297 48.25 61.4541V51.6875C45.4133 50.5043 43.2881 49.2757 41.875 48C40.375 46.6458 39.625 44.875 39.625 42.6875C39.625 41.2292 40.0521 39.8333 40.9062 38.5C41.7604 37.1667 43.0104 36.0833 44.6562 35.25C45.8848 34.6124 47.3223 34.2124 48.9688 34.0508V29H52.9375V34.041ZM52.25 61.335C53.0451 61.1687 53.7432 60.9119 54.3438 60.5625C55.4896 59.8958 56.0625 58.8646 56.0625 57.4688C56.0625 56.7812 55.875 56.1771 55.5 55.6562C55.1458 55.1354 54.4479 54.5938 53.4062 54.0312C53.0723 53.8443 52.6867 53.6453 52.25 53.4326V61.335ZM48.9688 38.749C47.965 38.8839 47.1421 39.1657 46.5 39.5938C45.5833 40.1979 45.125 41.0417 45.125 42.125C45.125 42.6875 45.2917 43.1979 45.625 43.6562C45.9792 44.1146 46.6458 44.6146 47.625 45.1562C48.0048 45.3541 48.4537 45.5697 48.9688 45.8096V38.749Z" fill="white"/>
</svg>
