<svg width="70" height="70" viewBox="0 0 70 70" fill="none" xmlns="http://www.w3.org/2000/svg">
<rect width="70" height="70" fill="#3DD06E"/>
<path d="M30.2734 37.8203C30.2734 39.7109 30.6172 41.2266 31.3047 42.3672C32.0078 43.5078 33.3359 44.0781 35.2891 44.0781C37.1953 44.0781 38.4922 43.5078 39.1797 42.3672C39.8672 41.2266 40.2109 39.7109 40.2109 37.8203V22H45.4844C45.375 22.7031 45.3047 23.7031 45.2734 25C45.2422 26.2812 45.2266 27.8359 45.2266 29.6641V38.6172C45.2266 41.4766 44.3906 43.7734 42.7188 45.5078C41.0625 47.2266 38.5859 48.0859 35.2891 48.0859C31.9609 48.0859 29.4531 47.2266 27.7656 45.5078C26.0938 43.7734 25.2578 41.4766 25.2578 38.6172V29.6641C25.2578 27.9297 25.2422 26.3984 25.2109 25.0703C25.1953 23.7266 25.125 22.7031 25 22H30.2734V37.8203Z" fill="white"/>
</svg>
