<svg width="42" height="30" viewBox="0 0 42 30" fill="none" xmlns="http://www.w3.org/2000/svg">
<path d="M41 15V15.6377C41.6402 16.9561 42 18.4359 42 20C42 25.5228 37.5228 30 32 30C26.4772 30 22 25.5228 22 20C22 18.178 22.4895 16.4712 23.3408 15H18.6592C19.5105 16.4712 20 18.178 20 20C20 25.5228 15.5228 30 10 30C4.47715 30 0 25.5228 0 20C0 18.4359 0.35979 16.9561 1 15.6377V15L7 5H8C8 4.46957 8.42173 3.96101 9.17188 3.58594C9.922 3.21092 10.9392 3 12 3C13.0608 3 14.078 3.21092 14.8281 3.58594C15.5783 3.96101 16 4.46957 16 5H18C18 4.20435 18.3163 3.44152 18.8789 2.87891C19.4415 2.3163 20.2044 2 21 2C21.7956 2 22.5585 2.3163 23.1211 2.87891C23.6837 3.44152 24 4.20435 24 5H26C26 4.46957 26.4217 3.96101 27.1719 3.58594C27.922 3.21092 28.9392 3 30 3C31.0608 3 32.078 3.21092 32.8281 3.58594C33.5783 3.96101 34 4.46957 34 5H35L41 15ZM10 12C5.58172 12 2 15.5817 2 20C2 24.4183 5.58172 28 10 28C14.4183 28 18 24.4183 18 20C18 15.5817 14.4183 12 10 12ZM32 12C27.5817 12 24 15.5817 24 20C24 24.4183 27.5817 28 32 28C36.4183 28 40 24.4183 40 20C40 15.5817 36.4183 12 32 12ZM6.94043 14.5029C7.17132 14.4751 7.39815 14.6126 7.47461 14.8418C7.55098 15.0709 7.45221 15.3163 7.25098 15.4326L7.1582 15.4746L6.91211 15.5635C6.36179 15.7812 5.96563 16.0661 5.67578 16.4199C5.34221 16.8272 5.11851 17.3647 4.99316 18.0859C4.94568 18.3577 4.68598 18.5394 4.41406 18.4922C4.14245 18.4445 3.95963 18.1858 4.00684 17.9141C4.152 17.0788 4.42863 16.3646 4.90234 15.7861C5.31875 15.2778 5.86465 14.9025 6.54297 14.6338L6.84277 14.5254L6.94043 14.5029ZM21 7C19.6193 7 18.5 7.67157 18.5 8.5C18.5 9.32843 19.6193 10 21 10C22.3807 10 23.5 9.32843 23.5 8.5C23.5 7.67157 22.3807 7 21 7ZM12 0C12.7956 4.00445e-08 13.5585 0.210901 14.1211 0.585938C14.6837 0.96101 15 1.46957 15 2H12.7324C12.7324 1.87051 12.6559 1.74589 12.5186 1.6543C12.3811 1.56269 12.1943 1.51172 12 1.51172C11.8057 1.51172 11.6189 1.56269 11.4814 1.6543C11.3441 1.74589 11.2676 1.87051 11.2676 2H9C9 1.46957 9.3163 0.96101 9.87891 0.585938C10.4415 0.210901 11.2044 0 12 0ZM30 0C30.7956 4.00445e-08 31.5585 0.210901 32.1211 0.585938C32.6837 0.96101 33 1.46957 33 2H30.7324C30.7324 1.87051 30.6559 1.74589 30.5186 1.6543C30.3811 1.56269 30.1943 1.51172 30 1.51172C29.8057 1.51172 29.6189 1.56269 29.4814 1.6543C29.3441 1.74589 29.2676 1.87051 29.2676 2H27C27 1.46957 27.3163 0.96101 27.8789 0.585938C28.4415 0.210901 29.2044 0 30 0Z" fill="white"/>
</svg>
