<svg width="50" height="50" viewBox="0 0 50 50" fill="none" xmlns="http://www.w3.org/2000/svg">
<rect width="50" height="50" fill="black"/>
<path d="M36.25 45.8649C37.4875 45.8649 38.5469 45.4203 39.4281 44.5311C40.3094 43.6419 40.75 42.573 40.75 41.3243V11.8108H43V7.27027H31.75V5H18.25V7.27027H7V11.8108H9.25V41.3243C9.25 42.573 9.69062 43.6419 10.5719 44.5311C11.4531 45.4203 12.5125 45.8649 13.75 45.8649H36.25ZM13.75 11.8108H36.25V41.3243H13.75V11.8108ZM31.75 36.7838H27.25V16.3514H31.75V36.7838ZM22.75 36.7838H18.25V16.3514H22.75V36.7838Z" fill="white"/>
</svg>
