<svg width="8" height="100" viewBox="0 0 8 100" fill="none" xmlns="http://www.w3.org/2000/svg">
<rect x="8" y="100" width="8" height="4" transform="rotate(180 8 100)" fill="#F7F7F7"/>
<rect x="8" y="92" width="8" height="4" transform="rotate(180 8 92)" fill="#F7F7F7"/>
<rect x="8" y="84" width="8" height="4" transform="rotate(180 8 84)" fill="#F7F7F7"/>
<rect x="8" y="76" width="8" height="4" transform="rotate(180 8 76)" fill="#F7F7F7"/>
<rect x="8" y="68" width="8" height="4" transform="rotate(180 8 68)" fill="#F7F7F7"/>
<rect x="8" y="60" width="8" height="4" transform="rotate(180 8 60)" fill="#F7F7F7"/>
<rect x="8" y="52" width="8" height="4" transform="rotate(180 8 52)" fill="#F7F7F7"/>
<rect x="8" y="44" width="8" height="4" transform="rotate(180 8 44)" fill="#F7F7F7"/>
<rect x="8" y="36" width="8" height="4" transform="rotate(180 8 36)" fill="#F7F7F7"/>
<rect x="8" y="28" width="8" height="4" transform="rotate(180 8 28)" fill="#F7F7F7"/>
<rect x="8" y="20" width="8" height="4" transform="rotate(180 8 20)" fill="#F7F7F7"/>
<rect x="8" y="12" width="8" height="4" transform="rotate(180 8 12)" fill="#F7F7F7"/>
<rect x="8" y="4" width="8" height="4" transform="rotate(180 8 4)" fill="#F7F7F7"/>
</svg>
