<svg width="8" height="104" viewBox="0 0 8 104" fill="none" xmlns="http://www.w3.org/2000/svg">
<rect x="8" y="104" width="8" height="4" transform="rotate(180 8 104)" fill="#F7F7F7"/>
<rect x="8" y="95.5" width="8" height="4" transform="rotate(180 8 95.5)" fill="#F7F7F7"/>
<rect x="8" y="87" width="8" height="4" transform="rotate(180 8 87)" fill="#F7F7F7"/>
<rect x="8" y="54" width="8" height="4" transform="rotate(180 8 54)" fill="#F7F7F7"/>
<rect x="8" y="46" width="8" height="4" transform="rotate(180 8 46)" fill="#F7F7F7"/>
<rect x="8" y="38" width="8" height="4" transform="rotate(180 8 38)" fill="#F7F7F7"/>
<rect x="8" y="29.5" width="8" height="4" transform="rotate(180 8 29.5)" fill="#F7F7F7"/>
<rect x="8" y="21" width="8" height="4" transform="rotate(180 8 21)" fill="#F7F7F7"/>
<rect x="8" y="12.5" width="8" height="4" transform="rotate(180 8 12.5)" fill="#F7F7F7"/>
<rect x="8" y="62" width="8" height="4" transform="rotate(180 8 62)" fill="#F7F7F7"/>
<rect x="8" y="70" width="8" height="4" transform="rotate(180 8 70)" fill="#F7F7F7"/>
<rect x="8" y="78.5" width="8" height="4" transform="rotate(180 8 78.5)" fill="#F7F7F7"/>
<rect x="8" y="4" width="8" height="4" transform="rotate(180 8 4)" fill="#F7F7F7"/>
</svg>
