<svg width="8" height="108" viewBox="0 0 8 108" fill="none" xmlns="http://www.w3.org/2000/svg">
<rect x="0.25" y="0.25" width="7.5" height="107.5" fill="#D9D9D9" stroke="#7A7A7A" stroke-width="0.5"/>
<rect width="8" height="0.5" transform="matrix(1 0 0 -1 0 8)" fill="#7A7A7A"/>
<rect width="8" height="0.5" transform="matrix(1 0 0 -1 0 16)" fill="#7A7A7A"/>
<rect width="8" height="0.5" transform="matrix(1 0 0 -1 0 24)" fill="#7A7A7A"/>
<rect width="8" height="0.5" transform="matrix(1 0 0 -1 0 32)" fill="#7A7A7A"/>
<rect width="8" height="0.5" transform="matrix(1 0 0 -1 0 40)" fill="#7A7A7A"/>
<rect width="8" height="0.5" transform="matrix(1 0 0 -1 0 48)" fill="#7A7A7A"/>
<rect width="8" height="0.5" transform="matrix(1 0 0 -1 0 56)" fill="#7A7A7A"/>
<rect width="8" height="0.5" transform="matrix(1 0 0 -1 0 63)" fill="#7A7A7A"/>
<rect width="8" height="0.5" transform="matrix(1 0 0 -1 0 70.5)" fill="#7A7A7A"/>
<rect width="8" height="0.5" transform="matrix(1 0 0 -1 0 78)" fill="#7A7A7A"/>
<rect width="8" height="0.5" transform="matrix(1 0 0 -1 0 85.5)" fill="#7A7A7A"/>
<rect width="8" height="0.5" transform="matrix(1 0 0 -1 0 93)" fill="#7A7A7A"/>
<rect width="8" height="0.5" transform="matrix(1 0 0 -1 0 100.5)" fill="#7A7A7A"/>
</svg>
