<svg width="100" height="100" viewBox="0 0 100 100" fill="none" xmlns="http://www.w3.org/2000/svg">
<path d="M50 50.0001L25 90.5V9.5L50 50.0001Z" fill="#C22A2A"/>
<path d="M50 50.0001L75 90.5V9.5L50 50.0001Z" fill="#D3CCCC"/>
<path d="M38 50H62L75.1147 90.5H24.8853L38 50Z" fill="#AAA6A6"/>
<path d="M62 50H38L24.8853 9.5H75.1147L62 50Z" fill="#CF5151"/>
<line x1="75" y1="9.5" x2="25" y2="9.5" stroke="black"/>
<line x1="25" y1="90.5" x2="75" y2="90.5" stroke="black"/>
<line x1="25" y1="14.5" x2="20" y2="14.5" stroke="black"/>
<line x1="25" y1="85.5" x2="20" y2="85.5" stroke="black"/>
<line x1="24.5" y1="91" x2="24.5" y2="86" stroke="black"/>
<line x1="20.5" y1="85" x2="20.5" y2="15" stroke="black"/>
<line x1="24.5" y1="9" x2="24.5" y2="14" stroke="black"/>
<rect x="21" y="15" width="4" height="70" fill="#C22A2A"/>
<line x1="75.5" y1="9" x2="75.5" y2="15" stroke="black"/>
<line x1="76" y1="14.5" x2="80" y2="14.5" stroke="black"/>
<line x1="79.5" y1="14" x2="79.5" y2="40" stroke="black"/>
<line x1="80" y1="40.5" x2="75" y2="40.5" stroke="black"/>
<line x1="75.5" y1="40" x2="75.5" y2="91" stroke="black"/>
<rect x="75" y="15" width="4" height="25" fill="#D3CCCC"/>
<rect x="22.875" y="64.125" width="11.75" height="5.75" rx="0.875" transform="rotate(90 22.875 64.125)" fill="#F8F7F4" stroke="black" stroke-width="0.25"/>
<rect x="21.5" y="66.25" width="3" height="3" transform="rotate(90 21.5 66.25)" fill="#41436D"/>
<circle cx="20" cy="72.75" r="0.875" transform="rotate(90 20 72.75)" fill="#E9E5D9" stroke="black" stroke-width="0.25"/>
<rect x="37.1559" y="44.2445" width="3.75" height="3.75" rx="0.875" transform="rotate(-16.873 37.1559 44.2445)" fill="#D07878" stroke="black" stroke-width="0.25"/>
<rect x="29.6494" y="39.7727" width="3.75" height="3.75" rx="0.875" transform="rotate(-17.4318 29.6494 39.7727)" fill="#D07878" stroke="black" stroke-width="0.25"/>
<rect x="70.041" y="70" width="2.95662" height="1.10305" rx="0.25" transform="rotate(70.6504 70.041 70)" fill="#726778"/>
<rect x="71.0518" y="27.3384" width="2.95662" height="1.10305" rx="0.25" transform="rotate(107.828 71.0518 27.3384)" fill="#726778"/>
<path d="M50 60V90H34V86.7857L50 60Z" fill="#938585"/>
<path d="M50 60V90H34V86.7857L50 60Z" fill="#938585"/>
<path d="M50 60V90H66V86.7857L50 60Z" fill="#A49D9D"/>
<path d="M50 60V90H66V86.7857L50 60Z" fill="#A49D9D"/>
<path d="M66.5 90V86.7758L65 84" stroke="black" stroke-width="0.5"/>
<path d="M33.5 90V86.7628L50 59L65 84" stroke="black" stroke-width="0.5"/>
<rect x="36.5166" y="68.5913" width="2.95662" height="1.10305" rx="0.25" transform="rotate(122.423 36.5166 68.5913)" fill="#726778"/>
</svg>
