<svg width="200" height="200" viewBox="0 0 200 200" fill="none" xmlns="http://www.w3.org/2000/svg">
<rect x="7.5" y="7.5" width="185" height="155" fill="#AAA5A5" stroke="black"/>
<mask id="path-2-inside-1_198_17855" fill="white">
<path fill-rule="evenodd" clip-rule="evenodd" d="M8 8H135.5V68H158H175V95H158V163H100V181H64V163V117.5H8V8Z"/>
</mask>
<path fill-rule="evenodd" clip-rule="evenodd" d="M8 8H135.5V68H158H175V95H158V163H100V181H64V163V117.5H8V8Z" fill="#D3CCCC"/>
<path d="M135.5 8H136V7.5H135.5V8ZM8 8V7.5H7.5V8H8ZM135.5 68H135V68.5H135.5V68ZM175 68H175.5V67.5H175V68ZM175 95V95.5H175.5V95H175ZM158 95V94.5H157.5V95H158ZM158 163V163.5H158.5V163H158ZM100 163V162.5H99.5V163H100ZM100 181V181.5H100.5V181H100ZM64 181H63.5V181.5H64V181ZM64 117.5H64.5V117H64V117.5ZM8 117.5H7.5V118H8V117.5ZM135.5 7.5H8V8.5H135.5V7.5ZM136 68V8H135V68H136ZM158 67.5H135.5V68.5H158V67.5ZM175 67.5H158V68.5H175V67.5ZM175.5 95V68H174.5V95H175.5ZM158 95.5H175V94.5H158V95.5ZM158.5 163V95H157.5V163H158.5ZM100 163.5H158V162.5H100V163.5ZM99.5 163V181H100.5V163H99.5ZM100 180.5H64V181.5H100V180.5ZM64.5 181V163H63.5V181H64.5ZM63.5 117.5V163H64.5V117.5H63.5ZM8 118H64V117H8V118ZM7.5 8V117.5H8.5V8H7.5Z" fill="black" mask="url(#path-2-inside-1_198_17855)"/>
<rect x="158.75" y="13.75" width="14.5" height="18.5" fill="#0166CB" stroke="black" stroke-width="0.5"/>
<rect x="71.75" y="35.25" width="14.5" height="18.5" transform="rotate(-90 71.75 35.25)" fill="#0166CB" stroke="black" stroke-width="0.5"/>
<circle cx="165.973" cy="21.05" r="5.56757" fill="#CECECE" stroke="#DFDFDF" stroke-width="0.5"/>
<circle cx="166" cy="20.9998" r="4.65405" fill="#2F3031"/>
<path d="M170.654 20.9998C170.654 20.7292 170.63 20.4592 170.584 20.1928L166 20.9998H170.654Z" fill="#A6A4A4"/>
<path d="M166 25.6538C166.271 25.6538 166.541 25.6302 166.807 25.5833L166 20.9998V25.6538Z" fill="#A6A4A4"/>
<path d="M164.864 25.5134C164.601 25.4473 164.345 25.3585 164.098 25.248L166 21.0002L164.864 25.5134Z" fill="#A6A4A4"/>
<path d="M164.353 16.6471C164.606 16.5514 164.867 16.4779 165.132 16.4275L166 20.9999L164.353 16.6471Z" fill="#A6A4A4"/>
<circle cx="166" cy="21" r="3.62838" fill="#B0ADAD" stroke="#4E4C4C" stroke-width="0.5"/>
<circle cx="79.9726" cy="28.05" r="5.56757" fill="#CECECE" stroke="#DFDFDF" stroke-width="0.5"/>
<circle cx="80" cy="27.9998" r="4.65405" fill="#2F3031"/>
<path d="M84.6541 27.9998C84.6541 27.7292 84.6305 27.4592 84.5836 27.1928L80 27.9998H84.6541Z" fill="#A6A4A4"/>
<path d="M80 32.6538C80.2705 32.6538 80.5405 32.6302 80.807 32.5833L80 27.9998V32.6538Z" fill="#A6A4A4"/>
<path d="M78.8635 32.5134C78.6012 32.4473 78.3451 32.3585 78.0982 32.248L80 28.0002L78.8635 32.5134Z" fill="#A6A4A4"/>
<path d="M78.3528 23.6471C78.6058 23.5514 78.8667 23.4779 79.1325 23.4275L80 27.9999L78.3528 23.6471Z" fill="#A6A4A4"/>
<circle cx="80" cy="28" r="3.62838" fill="#B0ADAD" stroke="#4E4C4C" stroke-width="0.5"/>
<rect x="163" y="32" width="6" height="12" fill="#3B8CDD"/>
<rect x="102" y="25" width="6" height="12" transform="rotate(90 102 25)" fill="#3B8CDD"/>
<path d="M98 79V85L74 88V82L98 79Z" fill="#0166CB"/>
<path d="M101.97 43H107.911L111 67H99L101.97 43Z" fill="#3B8CDD"/>
<rect x="159" y="51" width="6" height="12" transform="rotate(90 159 51)" fill="#0166CB"/>
<rect x="108" y="43" width="6" height="12" transform="rotate(180 108 43)" fill="#0166CB"/>
<rect x="112" y="107" width="6" height="28" transform="rotate(180 112 107)" fill="#0166CB"/>
<path d="M112 113V107L140 112V118L112 113Z" fill="#0166CB"/>
<path d="M112 79L106 79L105 67H111L112 79Z" fill="#0166CB"/>
<path d="M104 79H98L99 67H105L104 79Z" fill="#3B8CDD"/>
<rect x="185" y="51" width="6" height="12" transform="rotate(90 185 51)" fill="#0166CB"/>
<path d="M159 57C159.788 57 160.568 56.8448 161.296 56.5433C162.024 56.2417 162.685 55.7998 163.243 55.2426C163.8 54.6855 164.242 54.0241 164.543 53.2961C164.845 52.5681 165 51.7879 165 51L159 51V57Z" fill="#0166CB"/>
<path d="M108 31C108 30.2121 107.845 29.4319 107.543 28.7039C107.242 27.9759 106.8 27.3145 106.243 26.7574C105.685 26.2002 105.024 25.7583 104.296 25.4567C103.568 25.1552 102.788 25 102 25L102 31H108Z" fill="#0166CB"/>
<path d="M106 107C106 107.788 106.155 108.568 106.457 109.296C106.758 110.024 107.2 110.685 107.757 111.243C108.315 111.8 108.976 112.242 109.704 112.543C110.432 112.845 111.212 113 112 113L112 107H106Z" fill="#0166CB"/>
<path d="M98 85C98.7879 85 99.5681 84.8448 100.296 84.5433C101.024 84.2417 101.685 83.7998 102.243 83.2426C102.8 82.6855 103.242 82.0241 103.543 81.2961C103.845 80.5681 104 79.7879 104 79L98 79V85Z" fill="#0166CB"/>
<path d="M167 51C167 51.7879 167.155 52.5681 167.457 53.2961C167.758 54.0241 168.2 54.6855 168.757 55.2426C169.315 55.7998 169.976 56.2417 170.704 56.5433C171.432 56.8448 172.212 57 173 57L173 51H167Z" fill="#0166CB"/>
<path d="M173 51C173 49.9597 172.73 48.9373 172.215 48.0331L167 51H173Z" fill="#0166CB"/>
<path d="M159 51C159 49.9597 159.27 48.9373 159.785 48.0331L165 51H159Z" fill="#0166CB"/>
<path d="M163 44.0004L169 44.0004L164.99 51.0202L159.49 48.5199L163 44.0004Z" fill="#0166CB"/>
<path d="M169 43.974L163 43.974L167.01 50.9938L172.51 48.4935L169 43.974Z" fill="#0166CB"/>
<path d="M189 52C189 51.8687 188.897 51.7386 188.696 51.6173C188.494 51.496 188.2 51.3858 187.828 51.2929C187.457 51.2 187.016 51.1264 186.531 51.0761C186.045 51.0259 185.525 51 185 51L185 52H189Z" fill="#0166CB"/>
<path d="M143 52C143 51.8687 143.103 51.7386 143.304 51.6173C143.506 51.496 143.8 51.3858 144.172 51.2929C144.543 51.2 144.984 51.1264 145.469 51.0761C145.955 51.0259 146.475 51 147 51L147 52H143Z" fill="#0166CB"/>
<path d="M70 83C70 82.8687 70.1035 82.7386 70.3045 82.6173C70.5055 82.496 70.8001 82.3858 71.1716 82.2929C71.543 82.2 71.984 82.1264 72.4693 82.0761C72.9546 82.0259 73.4747 82 74 82L74 83H70Z" fill="#0166CB"/>
<rect x="185" y="52" width="4" height="5" fill="#3B8CDD"/>
<rect x="143" y="52" width="4" height="5" fill="#3B8CDD"/>
<rect x="144" y="118" width="4" height="5" transform="rotate(180 144 118)" fill="#3B8CDD"/>
<rect x="70" y="83" width="4" height="5" fill="#3B8CDD"/>
<path d="M189 57C189 56.8687 188.897 56.7386 188.696 56.6173C188.494 56.496 188.2 56.3858 187.828 56.2929C187.457 56.2 187.016 56.1264 186.531 56.0761C186.045 56.0259 185.525 56 185 56L185 57H189Z" fill="#0166CB"/>
<path d="M143 57C143 56.8687 143.103 56.7386 143.304 56.6173C143.506 56.496 143.8 56.3858 144.172 56.2929C144.543 56.2 144.984 56.1264 145.469 56.0761C145.955 56.0259 146.475 56 147 56L147 57H143Z" fill="#0166CB"/>
<path d="M70 88C70 87.8687 70.1035 87.7386 70.3045 87.6173C70.5055 87.496 70.8001 87.3858 71.1716 87.2929C71.543 87.2 71.984 87.1264 72.4693 87.0761C72.9546 87.0259 73.4747 87 74 87L74 88H70Z" fill="#C22A2A"/>
<path d="M70 88C70 87.8687 70.1035 87.7386 70.3045 87.6173C70.5055 87.496 70.8001 87.3858 71.1716 87.2929C71.543 87.2 71.984 87.1264 72.4693 87.0761C72.9546 87.0259 73.4747 87 74 87L74 88H70Z" fill="#0166CB"/>
<path d="M144 113C144 112.869 143.897 112.739 143.696 112.617C143.494 112.496 143.2 112.386 142.828 112.293C142.457 112.2 142.016 112.126 141.531 112.076C141.045 112.026 140.525 112 140 112L140 113H144Z" fill="#0166CB"/>
<path d="M144 118C144 117.869 143.897 117.739 143.696 117.617C143.494 117.496 143.2 117.386 142.828 117.293C142.457 117.2 142.016 117.126 141.531 117.076C141.045 117.026 140.525 117 140 117L140 118H144Z" fill="#0166CB"/>
<path d="M103.25 163.854L111.854 155.25H124.146L132.75 163.854V176.146L124.146 184.75H111.854L103.25 176.146V163.854Z" fill="#D3CCCC" stroke="black" stroke-width="0.5"/>
<circle cx="117.973" cy="170.05" r="5.56757" fill="#CECECE" stroke="#DFDFDF" stroke-width="0.5"/>
<circle cx="118" cy="170" r="4.65405" fill="#2F3031"/>
<path d="M122.654 170C122.654 169.729 122.63 169.459 122.584 169.193L118 170H122.654Z" fill="#A6A4A4"/>
<path d="M118 174.654C118.271 174.654 118.541 174.63 118.807 174.583L118 170V174.654Z" fill="#A6A4A4"/>
<path d="M116.864 174.513C116.601 174.447 116.345 174.359 116.098 174.248L118 170L116.864 174.513Z" fill="#A6A4A4"/>
<path d="M116.353 165.647C116.606 165.551 116.867 165.478 117.132 165.427L118 170L116.353 165.647Z" fill="#A6A4A4"/>
<circle cx="118" cy="170" r="3.62838" fill="#B0ADAD" stroke="#4E4C4C" stroke-width="0.5"/>
<path d="M158 162.5H131.5" stroke="black"/>
<path d="M105 162H99.5" stroke="black"/>
<circle cx="151" cy="177" r="8.75" fill="#0166CB" stroke="black" stroke-width="0.5"/>
<path d="M152.5 178.5C152.5 179.881 151 182 149 181C147.343 181 146 178.881 146 177.5C146 176.119 147.843 176 149.5 176C152.077 176 152.5 177.119 152.5 178.5Z" fill="#3B8CDD"/>
<circle cx="177" cy="177" r="8.75" fill="#0166CB" stroke="black" stroke-width="0.5"/>
<path d="M177.5 175.5C177.5 176.881 176 179 174 178C172.343 178 172 177.381 172 176C172 174.619 174.843 171 176.5 171C179.077 171 178 172 177.5 175.5Z" fill="#3B8CDD"/>
<path d="M151 162V168" stroke="black"/>
<path d="M177 162V168" stroke="black"/>
<line x1="174" y1="174.25" x2="166" y2="174.25" stroke="black" stroke-width="0.5"/>
<line x1="166.25" y1="174" x2="166.25" y2="192" stroke="black" stroke-width="0.5"/>
<line x1="151.25" y1="186" x2="151.25" y2="192" stroke="black" stroke-width="0.5"/>
<line x1="147" y1="177.25" x2="137" y2="177.25" stroke="black" stroke-width="0.5"/>
<line x1="137.25" y1="177" x2="137.25" y2="192" stroke="black" stroke-width="0.5"/>
<line x1="128" y1="182.5" x2="144" y2="182.5" stroke="black"/>
<line x1="137.5" y1="191.75" x2="166.5" y2="191.75" stroke="black" stroke-width="0.5"/>
<path d="M127 182H128V183H126L127 182Z" fill="black"/>
<path d="M144 182L144.5 183H144V182Z" fill="black"/>
<rect x="117.25" y="36.25" width="11.5" height="14.5" rx="0.75" fill="#3B8CDD" stroke="black" stroke-width="0.5"/>
<rect x="87.25" y="135.25" width="11.5" height="14.5" rx="0.75" fill="#3B8CDD" stroke="black" stroke-width="0.5"/>
<rect x="120.25" y="82.25" width="11.5" height="14.5" rx="0.75" fill="#0166CB" stroke="black" stroke-width="0.5"/>
<rect x="70.25" y="135.25" width="11.5" height="14.5" rx="0.75" fill="#0166CB" stroke="black" stroke-width="0.5"/>
<rect x="117.25" y="19.25" width="11.5" height="11.5" rx="0.75" fill="#3B8CDD" stroke="black" stroke-width="0.5"/>
<rect x="120.25" y="65.25" width="11.5" height="11.5" rx="0.75" fill="#0166CB" stroke="black" stroke-width="0.5"/>
<rect x="183.25" y="149.25" width="7.5" height="6.5" fill="#C4C1C2" stroke="black" stroke-width="0.5"/>
<rect x="187" y="147" width="4" height="2" fill="#393939"/>
<rect x="21.75" y="101.25" width="7.5" height="6.5" transform="rotate(90 21.75 101.25)" fill="#C4C1C2" stroke="black" stroke-width="0.5"/>
<rect x="24" y="105" width="4" height="2" transform="rotate(90 24 105)" fill="#393939"/>
<mask id="path-88-inside-2_198_17855" fill="white">
<path d="M74 76H76V80H74V76Z"/>
</mask>
<path d="M74 76H76V80H74V76Z" fill="#DFDFDF"/>
<path d="M75.75 76V80H76.25V76H75.75Z" fill="black" mask="url(#path-88-inside-2_198_17855)"/>
<mask id="path-90-inside-3_198_17855" fill="white">
<path d="M146 157V155H150V157H146Z"/>
</mask>
<path d="M146 157V155H150V157H146Z" fill="#DFDFDF"/>
<path d="M146 155.25H150V154.75H146V155.25Z" fill="black" mask="url(#path-90-inside-3_198_17855)"/>
<mask id="path-92-inside-4_198_17855" fill="white">
<path d="M69 171H71V175H69V171Z"/>
</mask>
<path d="M69 171H71V175H69V171Z" fill="#DFDFDF"/>
<path d="M70.75 171V175H71.25V171H70.75Z" fill="black" mask="url(#path-92-inside-4_198_17855)"/>
<mask id="path-94-inside-5_198_17855" fill="white">
<path d="M73 67H71V71H73V67Z"/>
</mask>
<path d="M73 67H71V71H73V67Z" fill="#DFDFDF"/>
<path d="M71.25 67V71H70.75V67H71.25Z" fill="black" mask="url(#path-94-inside-5_198_17855)"/>
<mask id="path-96-inside-6_198_17855" fill="white">
<path d="M168 93V91H164V93H168Z"/>
</mask>
<path d="M168 93V91H164V93H168Z" fill="#DFDFDF"/>
<path d="M168 91.25H164V90.75H168V91.25Z" fill="black" mask="url(#path-96-inside-6_198_17855)"/>
<rect x="186.75" y="99.25" width="45.5" height="21.5" rx="0.75" transform="rotate(90 186.75 99.25)" fill="#3B8CDD" stroke="black" stroke-width="0.5"/>
<rect x="58.75" y="154.75" width="45.5" height="21.5" rx="0.75" transform="rotate(180 58.75 154.75)" fill="#3B8CDD" stroke="black" stroke-width="0.5"/>
<circle cx="177.5" cy="105.5" r="5.375" transform="rotate(90 177.5 105.5)" fill="#D3CCCC" stroke="black" stroke-width="0.25"/>
<path d="M178.48 106.021C179.408 106.021 180.298 105.968 180.955 105.874C181.611 105.78 181.98 105.653 181.98 105.521C181.98 105.388 181.611 105.261 180.955 105.167C180.298 105.073 179.408 105.021 178.48 105.021L178.48 105.521V106.021Z" fill="#0166CB"/>
<path d="M177.547 106.637C178.011 107.441 178.502 108.185 178.912 108.706C179.321 109.228 179.616 109.483 179.731 109.417C179.846 109.351 179.771 108.968 179.524 108.353C179.277 107.737 178.877 106.94 178.413 106.137L177.98 106.387L177.547 106.637Z" fill="#0166CB"/>
<path d="M176.546 106.136C176.082 106.94 175.682 107.737 175.435 108.352C175.188 108.968 175.113 109.351 175.228 109.417C175.343 109.483 175.638 109.228 176.047 108.706C176.457 108.185 176.948 107.44 177.412 106.636L176.979 106.386L176.546 106.136Z" fill="#0166CB"/>
<path d="M176.481 105.017C175.553 105.014 174.662 105.063 174.006 105.155C173.349 105.246 172.98 105.372 172.979 105.505C172.979 105.637 173.347 105.766 174.003 105.862C174.659 105.958 175.549 106.014 176.478 106.017L176.479 105.517L176.481 105.017Z" fill="#0166CB"/>
<path d="M177.416 104.405C176.955 103.599 176.466 102.853 176.058 102.33C175.651 101.807 175.357 101.551 175.242 101.617C175.127 101.683 175.2 102.066 175.445 102.682C175.69 103.298 176.087 104.096 176.549 104.902L176.982 104.653L177.416 104.405Z" fill="#0166CB"/>
<path d="M178.415 104.908C178.882 104.106 179.284 103.31 179.533 102.696C179.783 102.081 179.858 101.699 179.744 101.632C179.629 101.565 179.334 101.82 178.922 102.34C178.511 102.86 178.018 103.603 177.55 104.405L177.982 104.657L178.415 104.908Z" fill="#0166CB"/>
<circle cx="177.479" cy="105.521" r="1.5" transform="rotate(30.2147 177.479 105.521)" fill="#7D7D7D"/>
<circle cx="177.479" cy="105.521" r="0.5" transform="rotate(30.2147 177.479 105.521)" fill="#616161"/>
<circle cx="177.5" cy="116.5" r="5.375" transform="rotate(90 177.5 116.5)" fill="#D3CCCC" stroke="black" stroke-width="0.25"/>
<path d="M178.48 117.021C179.408 117.021 180.298 116.968 180.955 116.874C181.611 116.78 181.98 116.653 181.98 116.521C181.98 116.388 181.611 116.261 180.955 116.167C180.298 116.073 179.408 116.021 178.48 116.021L178.48 116.521V117.021Z" fill="#0166CB"/>
<path d="M177.547 117.637C178.011 118.441 178.502 119.185 178.912 119.706C179.321 120.228 179.616 120.483 179.731 120.417C179.846 120.351 179.771 119.968 179.524 119.353C179.277 118.737 178.877 117.94 178.413 117.137L177.98 117.387L177.547 117.637Z" fill="#0166CB"/>
<path d="M176.546 117.136C176.082 117.94 175.682 118.737 175.435 119.352C175.188 119.968 175.113 120.351 175.228 120.417C175.343 120.483 175.638 120.228 176.047 119.706C176.457 119.185 176.948 118.44 177.412 117.636L176.979 117.386L176.546 117.136Z" fill="#0166CB"/>
<path d="M176.481 116.017C175.553 116.014 174.662 116.063 174.006 116.155C173.349 116.246 172.98 116.372 172.979 116.505C172.979 116.637 173.347 116.766 174.003 116.862C174.659 116.958 175.549 117.014 176.478 117.017L176.479 116.517L176.481 116.017Z" fill="#0166CB"/>
<path d="M177.416 115.405C176.955 114.599 176.466 113.853 176.058 113.33C175.651 112.807 175.357 112.551 175.242 112.617C175.127 112.683 175.2 113.066 175.445 113.682C175.69 114.298 176.087 115.096 176.549 115.902L176.982 115.653L177.416 115.405Z" fill="#0166CB"/>
<path d="M178.415 115.908C178.882 115.106 179.284 114.31 179.533 113.696C179.783 113.081 179.858 112.699 179.744 112.632C179.629 112.565 179.334 112.82 178.922 113.34C178.511 113.86 178.018 114.603 177.55 115.405L177.982 115.657L178.415 115.908Z" fill="#0166CB"/>
<circle cx="177.479" cy="116.521" r="1.5" transform="rotate(30.2147 177.479 116.521)" fill="#7D7D7D"/>
<circle cx="177.479" cy="116.521" r="0.5" transform="rotate(30.2147 177.479 116.521)" fill="#616161"/>
<rect x="174" y="123.269" width="1" height="2.78402" transform="rotate(135 174 123.269)" fill="black"/>
<rect x="173.259" y="120.058" width="1" height="2.74706" transform="rotate(45 173.259 120.058)" fill="black"/>
<path d="M167.024 117V118H165.024V117H167.024Z" fill="black"/>
<path d="M167 117.5C168 117.5 169.5 119.5 172 122" stroke="black"/>
<rect x="174" y="134.269" width="1" height="2.78402" transform="rotate(135 174 134.269)" fill="black"/>
<rect x="173.259" y="131.058" width="1" height="2.74706" transform="rotate(45 173.259 131.058)" fill="black"/>
<path d="M167.024 128V129H165.024V128H167.024Z" fill="black"/>
<path d="M167 128.5C168 128.5 169.5 130.5 172 133" stroke="black"/>
<rect x="174" y="112.269" width="1" height="2.78402" transform="rotate(135 174 112.269)" fill="black"/>
<rect x="173.259" y="109.058" width="1" height="2.74706" transform="rotate(45 173.259 109.058)" fill="black"/>
<path d="M167.024 106V107H165.024V106H167.024Z" fill="black"/>
<path d="M167 106.5C168 106.5 169.5 108.5 172 111" stroke="black"/>
<rect x="185" y="105" width="1" height="2" transform="rotate(90 185 105)" fill="black"/>
<rect x="185" y="106" width="22" height="0.5" transform="rotate(90 185 106)" fill="black"/>
<rect x="185" y="116" width="1" height="2" transform="rotate(90 185 116)" fill="black"/>
<circle cx="177.5" cy="127.5" r="5.375" transform="rotate(90 177.5 127.5)" fill="#D3CCCC" stroke="black" stroke-width="0.25"/>
<path d="M178.48 128.021C179.408 128.021 180.298 127.968 180.955 127.874C181.611 127.78 181.98 127.653 181.98 127.521C181.98 127.388 181.611 127.261 180.955 127.167C180.298 127.073 179.408 127.021 178.48 127.021L178.48 127.521V128.021Z" fill="#0166CB"/>
<path d="M177.547 128.637C178.011 129.441 178.502 130.185 178.912 130.706C179.321 131.228 179.616 131.483 179.731 131.417C179.846 131.351 179.771 130.968 179.524 130.353C179.277 129.737 178.877 128.94 178.413 128.137L177.98 128.387L177.547 128.637Z" fill="#0166CB"/>
<path d="M176.546 128.136C176.082 128.94 175.682 129.737 175.435 130.352C175.188 130.968 175.113 131.351 175.228 131.417C175.343 131.483 175.638 131.228 176.047 130.706C176.457 130.185 176.948 129.44 177.412 128.636L176.979 128.386L176.546 128.136Z" fill="#0166CB"/>
<path d="M176.481 127.017C175.553 127.014 174.662 127.063 174.006 127.155C173.349 127.246 172.98 127.372 172.979 127.505C172.979 127.637 173.347 127.766 174.003 127.862C174.659 127.958 175.549 128.014 176.478 128.017L176.479 127.517L176.481 127.017Z" fill="#0166CB"/>
<path d="M177.416 126.405C176.955 125.599 176.466 124.853 176.058 124.33C175.651 123.807 175.357 123.551 175.242 123.617C175.127 123.683 175.2 124.066 175.445 124.682C175.69 125.298 176.087 126.096 176.549 126.902L176.982 126.653L177.416 126.405Z" fill="#0166CB"/>
<path d="M178.415 126.908C178.882 126.106 179.284 125.31 179.533 124.696C179.783 124.081 179.858 123.699 179.744 123.632C179.629 123.565 179.334 123.82 178.922 124.34C178.511 124.86 178.018 125.603 177.55 126.405L177.982 126.657L178.415 126.908Z" fill="#0166CB"/>
<circle cx="177.479" cy="127.521" r="1.5" transform="rotate(30.2147 177.479 127.521)" fill="#7D7D7D"/>
<circle cx="177.479" cy="127.521" r="0.5" transform="rotate(30.2147 177.479 127.521)" fill="#616161"/>
<circle cx="177.5" cy="138.5" r="5.375" transform="rotate(90 177.5 138.5)" fill="#D3CCCC" stroke="black" stroke-width="0.25"/>
<path d="M178.48 139.021C179.408 139.021 180.298 138.968 180.955 138.874C181.611 138.78 181.98 138.653 181.98 138.521C181.98 138.388 181.611 138.261 180.955 138.167C180.298 138.073 179.408 138.021 178.48 138.021L178.48 138.521V139.021Z" fill="#0166CB"/>
<path d="M177.547 139.637C178.011 140.441 178.502 141.185 178.912 141.706C179.321 142.228 179.616 142.483 179.731 142.417C179.846 142.351 179.771 141.968 179.524 141.353C179.277 140.737 178.877 139.94 178.413 139.137L177.98 139.387L177.547 139.637Z" fill="#0166CB"/>
<path d="M176.546 139.136C176.082 139.94 175.682 140.737 175.435 141.352C175.188 141.968 175.113 142.351 175.228 142.417C175.343 142.483 175.638 142.228 176.047 141.706C176.457 141.185 176.948 140.44 177.412 139.636L176.979 139.386L176.546 139.136Z" fill="#0166CB"/>
<path d="M176.481 138.017C175.553 138.014 174.662 138.063 174.006 138.155C173.349 138.246 172.98 138.372 172.979 138.505C172.979 138.637 173.347 138.766 174.003 138.862C174.659 138.958 175.549 139.014 176.478 139.017L176.479 138.517L176.481 138.017Z" fill="#0166CB"/>
<path d="M177.416 137.405C176.955 136.599 176.466 135.853 176.058 135.33C175.651 134.807 175.357 134.551 175.242 134.617C175.127 134.683 175.2 135.066 175.445 135.682C175.69 136.298 176.087 137.096 176.549 137.902L176.982 137.653L177.416 137.405Z" fill="#0166CB"/>
<path d="M178.415 137.908C178.882 137.106 179.284 136.31 179.533 135.696C179.783 135.081 179.858 134.699 179.744 134.632C179.629 134.565 179.334 134.82 178.922 135.34C178.511 135.86 178.018 136.603 177.55 137.405L177.982 137.657L178.415 137.908Z" fill="#0166CB"/>
<circle cx="177.479" cy="138.521" r="1.5" transform="rotate(30.2147 177.479 138.521)" fill="#7D7D7D"/>
<circle cx="177.479" cy="138.521" r="0.5" transform="rotate(30.2147 177.479 138.521)" fill="#616161"/>
<rect x="185" y="127" width="1" height="2" transform="rotate(90 185 127)" fill="black"/>
<rect x="185" y="128" width="11" height="0.5" transform="rotate(90 185 128)" fill="black"/>
<rect x="185" y="138" width="1" height="2" transform="rotate(90 185 138)" fill="black"/>
<circle cx="52.5413" cy="145.476" r="5.375" transform="rotate(180 52.5413 145.476)" fill="#D3CCCC" stroke="black" stroke-width="0.25"/>
<path d="M52.0205 146.456C52.0205 147.384 52.0732 148.274 52.167 148.93C52.2607 149.587 52.3879 149.956 52.5205 149.956C52.6531 149.956 52.7803 149.587 52.8741 148.93C52.9678 148.274 53.0205 147.384 53.0205 146.456L52.5205 146.456H52.0205Z" fill="#0166CB"/>
<path d="M51.4047 145.523C50.6009 145.987 49.8565 146.478 49.3351 146.888C48.8137 147.297 48.558 147.592 48.6244 147.707C48.6907 147.822 49.0736 147.747 49.6888 147.5C50.3041 147.253 51.1012 146.853 51.905 146.389L51.6548 145.956L51.4047 145.523Z" fill="#0166CB"/>
<path d="M51.9049 144.522C51.1011 144.058 50.3039 143.658 49.6886 143.411C49.0734 143.164 48.6905 143.089 48.6241 143.204C48.5578 143.319 48.8135 143.614 49.3349 144.023C49.8564 144.433 50.6009 144.924 51.4047 145.388L51.6548 144.955L51.9049 144.522Z" fill="#0166CB"/>
<path d="M53.0242 144.457C53.0274 143.529 52.9778 142.638 52.8864 141.982C52.7949 141.325 52.669 140.956 52.5364 140.955C52.4038 140.955 52.2753 141.323 52.1792 141.979C52.0832 142.635 52.0274 143.525 52.0242 144.454L52.5242 144.455L53.0242 144.457Z" fill="#0166CB"/>
<path d="M53.637 145.392C54.4423 144.931 55.1885 144.442 55.7113 144.034C56.2342 143.627 56.4909 143.333 56.4249 143.218C56.359 143.103 55.9758 143.176 55.3597 143.421C54.7436 143.666 53.9451 144.063 53.1397 144.525L53.3884 144.958L53.637 145.392Z" fill="#0166CB"/>
<path d="M53.1331 146.39C53.9353 146.858 54.7311 147.26 55.3455 147.509C55.9599 147.759 56.3425 147.834 56.4093 147.72C56.476 147.605 56.2213 147.31 55.7013 146.898C55.1813 146.487 54.4385 145.993 53.6364 145.526L53.3848 145.958L53.1331 146.39Z" fill="#0166CB"/>
<circle cx="52.5207" cy="145.455" r="1.5" transform="rotate(120.215 52.5207 145.455)" fill="#7D7D7D"/>
<circle cx="52.5207" cy="145.455" r="0.5" transform="rotate(120.215 52.5207 145.455)" fill="#616161"/>
<circle cx="41.5413" cy="145.476" r="5.375" transform="rotate(180 41.5413 145.476)" fill="#D3CCCC" stroke="black" stroke-width="0.25"/>
<path d="M41.0205 146.456C41.0205 147.384 41.0732 148.274 41.167 148.93C41.2607 149.587 41.3879 149.956 41.5205 149.956C41.6531 149.956 41.7803 149.587 41.8741 148.93C41.9678 148.274 42.0205 147.384 42.0205 146.456L41.5205 146.456H41.0205Z" fill="#0166CB"/>
<path d="M40.4047 145.523C39.6009 145.987 38.8565 146.478 38.3351 146.888C37.8137 147.297 37.558 147.592 37.6244 147.707C37.6907 147.822 38.0736 147.747 38.6888 147.5C39.3041 147.253 40.1012 146.853 40.905 146.389L40.6548 145.956L40.4047 145.523Z" fill="#0166CB"/>
<path d="M40.9049 144.522C40.1011 144.058 39.3039 143.658 38.6886 143.411C38.0734 143.164 37.6905 143.089 37.6241 143.204C37.5578 143.319 37.8135 143.614 38.3349 144.023C38.8564 144.433 39.6009 144.924 40.4047 145.388L40.6548 144.955L40.9049 144.522Z" fill="#0166CB"/>
<path d="M42.0242 144.457C42.0274 143.529 41.9778 142.638 41.8864 141.982C41.7949 141.325 41.669 140.956 41.5364 140.955C41.4038 140.955 41.2753 141.323 41.1792 141.979C41.0832 142.635 41.0274 143.525 41.0242 144.454L41.5242 144.455L42.0242 144.457Z" fill="#0166CB"/>
<path d="M42.637 145.392C43.4423 144.931 44.1885 144.442 44.7113 144.034C45.2342 143.627 45.4909 143.333 45.4249 143.218C45.359 143.103 44.9758 143.176 44.3597 143.421C43.7436 143.666 42.9451 144.063 42.1397 144.525L42.3884 144.958L42.637 145.392Z" fill="#0166CB"/>
<path d="M42.1331 146.39C42.9353 146.858 43.7311 147.26 44.3455 147.509C44.9599 147.759 45.3425 147.834 45.4093 147.72C45.476 147.605 45.2213 147.31 44.7013 146.898C44.1813 146.487 43.4385 145.993 42.6364 145.526L42.3848 145.958L42.1331 146.39Z" fill="#0166CB"/>
<circle cx="41.5207" cy="145.455" r="1.5" transform="rotate(120.215 41.5207 145.455)" fill="#7D7D7D"/>
<circle cx="41.5207" cy="145.455" r="0.5" transform="rotate(120.215 41.5207 145.455)" fill="#616161"/>
<rect x="34.7725" y="141.976" width="1" height="2.78402" transform="rotate(-135 34.7725 141.976)" fill="black"/>
<rect x="37.9836" y="141.234" width="1" height="2.74706" transform="rotate(135 37.9836 141.234)" fill="black"/>
<path d="M41.0413 135H40.0413V133H41.0413V135Z" fill="black"/>
<path d="M40.5414 134.976C40.5414 135.976 38.5414 137.476 36.0414 139.976" stroke="black"/>
<rect x="23.7725" y="141.976" width="1" height="2.78402" transform="rotate(-135 23.7725 141.976)" fill="black"/>
<rect x="26.9836" y="141.234" width="1" height="2.74706" transform="rotate(135 26.9836 141.234)" fill="black"/>
<path d="M30.0413 135H29.0413V133H30.0413V135Z" fill="black"/>
<path d="M29.5414 134.976C29.5414 135.976 27.5414 137.476 25.0414 139.976" stroke="black"/>
<rect x="45.7725" y="141.976" width="1" height="2.78402" transform="rotate(-135 45.7725 141.976)" fill="black"/>
<rect x="48.9836" y="141.234" width="1" height="2.74706" transform="rotate(135 48.9836 141.234)" fill="black"/>
<path d="M52.0413 135H51.0413V133H52.0413V135Z" fill="black"/>
<path d="M51.5414 134.976C51.5414 135.976 49.5414 137.476 47.0414 139.976" stroke="black"/>
<rect x="53.0413" y="152.976" width="1" height="2" transform="rotate(180 53.0413 152.976)" fill="black"/>
<rect x="52.0413" y="152.976" width="22" height="0.5" transform="rotate(180 52.0413 152.976)" fill="black"/>
<rect x="42.0413" y="152.976" width="1" height="2" transform="rotate(180 42.0413 152.976)" fill="black"/>
<circle cx="30.5413" cy="145.476" r="5.375" transform="rotate(180 30.5413 145.476)" fill="#D3CCCC" stroke="black" stroke-width="0.25"/>
<path d="M30.0205 146.456C30.0205 147.384 30.0732 148.274 30.167 148.93C30.2607 149.587 30.3879 149.956 30.5205 149.956C30.6531 149.956 30.7803 149.587 30.8741 148.93C30.9678 148.274 31.0205 147.384 31.0205 146.456L30.5205 146.456H30.0205Z" fill="#0166CB"/>
<path d="M29.4047 145.523C28.6009 145.987 27.8565 146.478 27.3351 146.888C26.8137 147.297 26.558 147.592 26.6244 147.707C26.6907 147.822 27.0736 147.747 27.6888 147.5C28.3041 147.253 29.1012 146.853 29.905 146.389L29.6548 145.956L29.4047 145.523Z" fill="#0166CB"/>
<path d="M29.9049 144.522C29.1011 144.058 28.3039 143.658 27.6886 143.411C27.0734 143.164 26.6905 143.089 26.6241 143.204C26.5578 143.319 26.8135 143.614 27.3349 144.023C27.8564 144.433 28.6009 144.924 29.4047 145.388L29.6548 144.955L29.9049 144.522Z" fill="#0166CB"/>
<path d="M31.0242 144.457C31.0274 143.529 30.9778 142.638 30.8864 141.982C30.7949 141.325 30.669 140.956 30.5364 140.955C30.4038 140.955 30.2753 141.323 30.1792 141.979C30.0832 142.635 30.0274 143.525 30.0242 144.454L30.5242 144.455L31.0242 144.457Z" fill="#0166CB"/>
<path d="M31.637 145.392C32.4423 144.931 33.1885 144.442 33.7113 144.034C34.2342 143.627 34.4909 143.333 34.4249 143.218C34.359 143.103 33.9758 143.176 33.3597 143.421C32.7436 143.666 31.9451 144.063 31.1397 144.525L31.3884 144.958L31.637 145.392Z" fill="#0166CB"/>
<path d="M31.1331 146.39C31.9353 146.858 32.7311 147.26 33.3455 147.509C33.9599 147.759 34.3425 147.834 34.4093 147.72C34.476 147.605 34.2213 147.31 33.7013 146.898C33.1813 146.487 32.4385 145.993 31.6364 145.526L31.3848 145.958L31.1331 146.39Z" fill="#0166CB"/>
<circle cx="30.5207" cy="145.455" r="1.5" transform="rotate(120.215 30.5207 145.455)" fill="#7D7D7D"/>
<circle cx="30.5207" cy="145.455" r="0.5" transform="rotate(120.215 30.5207 145.455)" fill="#616161"/>
<circle cx="19.5413" cy="145.476" r="5.375" transform="rotate(180 19.5413 145.476)" fill="#D3CCCC" stroke="black" stroke-width="0.25"/>
<path d="M19.0205 146.456C19.0205 147.384 19.0732 148.274 19.167 148.93C19.2607 149.587 19.3879 149.956 19.5205 149.956C19.6531 149.956 19.7803 149.587 19.8741 148.93C19.9678 148.274 20.0205 147.384 20.0205 146.456L19.5205 146.456H19.0205Z" fill="#0166CB"/>
<path d="M18.4047 145.523C17.6009 145.987 16.8565 146.478 16.3351 146.888C15.8137 147.297 15.558 147.592 15.6244 147.707C15.6907 147.822 16.0736 147.747 16.6888 147.5C17.3041 147.253 18.1012 146.853 18.905 146.389L18.6548 145.956L18.4047 145.523Z" fill="#0166CB"/>
<path d="M18.9049 144.522C18.1011 144.058 17.3039 143.658 16.6886 143.411C16.0734 143.164 15.6905 143.089 15.6241 143.204C15.5578 143.319 15.8135 143.614 16.3349 144.023C16.8564 144.433 17.6009 144.924 18.4047 145.388L18.6548 144.955L18.9049 144.522Z" fill="#0166CB"/>
<path d="M20.0242 144.457C20.0274 143.529 19.9778 142.638 19.8864 141.982C19.7949 141.325 19.669 140.956 19.5364 140.955C19.4038 140.955 19.2753 141.323 19.1792 141.979C19.0832 142.635 19.0274 143.525 19.0242 144.454L19.5242 144.455L20.0242 144.457Z" fill="#0166CB"/>
<path d="M20.637 145.392C21.4423 144.931 22.1885 144.442 22.7113 144.034C23.2342 143.627 23.4909 143.333 23.4249 143.218C23.359 143.103 22.9758 143.176 22.3597 143.421C21.7436 143.666 20.9451 144.063 20.1397 144.525L20.3884 144.958L20.637 145.392Z" fill="#0166CB"/>
<path d="M20.1331 146.39C20.9353 146.858 21.7311 147.26 22.3455 147.509C22.9599 147.759 23.3425 147.834 23.4093 147.72C23.476 147.605 23.2213 147.31 22.7013 146.898C22.1813 146.487 21.4385 145.993 20.6364 145.526L20.3848 145.958L20.1331 146.39Z" fill="#0166CB"/>
<circle cx="19.5207" cy="145.455" r="1.5" transform="rotate(120.215 19.5207 145.455)" fill="#7D7D7D"/>
<circle cx="19.5207" cy="145.455" r="0.5" transform="rotate(120.215 19.5207 145.455)" fill="#616161"/>
<rect x="31.0413" y="152.976" width="1" height="2" transform="rotate(180 31.0413 152.976)" fill="black"/>
<rect x="30.0413" y="152.976" width="11" height="0.5" transform="rotate(180 30.0413 152.976)" fill="black"/>
<rect x="20.0413" y="152.976" width="1" height="2" transform="rotate(180 20.0413 152.976)" fill="black"/>
<line y1="-0.25" x2="23" y2="-0.25" transform="matrix(0 1 1 0 165 106)" stroke="black" stroke-width="0.5"/>
<line y1="-0.25" x2="23" y2="-0.25" transform="matrix(-1 0 0 1 52 133)" stroke="black" stroke-width="0.5"/>
<line x1="165" y1="128.5" x2="158" y2="128.5" stroke="black"/>
<path d="M160.203 127.125V131.875H158.125L158.125 127.125H160.203Z" fill="#D9D9D9" stroke="black" stroke-width="0.25"/>
<line x1="189.5" y1="147" x2="189.5" y2="138" stroke="black"/>
<line x1="185" y1="138.5" x2="189" y2="138.5" stroke="black"/>
<path d="M36 50L60 12V88L36 50Z" fill="#AAA6A6"/>
<path d="M36 50L12 88V12L36 50Z" fill="#3B8CDD"/>
<path d="M36 50L60 88H12L36 50Z" fill="#0166CB"/>
<path d="M36 50L60 12H12L36 50Z" fill="#D3CCCC"/>
<line y1="-0.25" x2="48" y2="-0.25" transform="matrix(1 0 0 -1 12 88)" stroke="black" stroke-width="0.5"/>
<line x1="12" y1="11.75" x2="60" y2="11.75" stroke="black" stroke-width="0.5"/>
<path d="M12 11.5L12 88.5" stroke="black" stroke-width="0.5"/>
<path d="M60 11.5V88.5" stroke="black" stroke-width="0.5"/>
<line x1="51.5" y1="133" x2="51.5" y2="117" stroke="black"/>
<path d="M52.875 119.203H48.125V117.125H52.875V119.203Z" fill="#D9D9D9" stroke="black" stroke-width="0.25"/>
<line x1="49.75" y1="117" x2="49.75" y2="107" stroke="black" stroke-width="0.5"/>
<line x1="24" y1="106.75" x2="50" y2="106.75" stroke="black" stroke-width="0.5"/>
<rect x="33.25" y="166.25" width="19.5" height="19.5" fill="#0166CB" stroke="black" stroke-width="0.5"/>
<circle cx="43" cy="176" r="7.875" fill="#AAA5A5" stroke="black" stroke-width="0.25"/>
<path d="M48 178C48 179.105 46.9676 180 45.7403 180C44.513 180 44 178.105 44 177C44 175.895 44.0686 175 45.2959 175C46.5232 175 48 176.895 48 178Z" fill="#3B8CDD"/>
<path d="M10.25 166.25H29.75V185.75H15.6315L10.25 177.922V166.25Z" fill="#0166CB" stroke="black" stroke-width="0.5"/>
<circle cx="20" cy="176" r="7.875" fill="#AAA5A5" stroke="black" stroke-width="0.25"/>
<path d="M18.4385 173.5C18.4385 174.605 16.9061 178.5 15.6788 178.5C14.4515 178.5 13.9385 176.605 13.9385 175.5C13.9385 174.395 14.4515 172.5 15.6788 172.5C16.9061 172.5 18.4385 172.396 18.4385 173.5Z" fill="#3B8CDD"/>
<line x1="53" y1="168.5" x2="64" y2="168.5" stroke="black"/>
<line x1="28" y1="176.5" x2="35" y2="176.5" stroke="black"/>
<path d="M51 168H53V169H51.5L51 168Z" fill="black"/>
<path d="M49 170L51 168L51.5 169L49.5 171L49 170Z" fill="black"/>
<path d="M48 170H50L49.5 171H49L48 170Z" fill="black"/>
</svg>
