<svg width="100" height="100" viewBox="0 0 100 100" fill="none" xmlns="http://www.w3.org/2000/svg">
<path d="M4 5L86 4.99951V83.9995H95V94.9995H4V5Z" fill="#AAA5A5"/>
<path fill-rule="evenodd" clip-rule="evenodd" d="M59 6H86V16V84H94V94H69V89H4V84V16V11H59V6Z" fill="#D3CCCC"/>
<line x1="4" y1="10.5" x2="59" y2="10.5" stroke="black"/>
<line x1="58.5" y1="10" x2="58.5" y2="5" stroke="black"/>
<line x1="59" y1="5.5" x2="87" y2="5.5" stroke="black"/>
<line x1="86.5" y1="6" x2="86.5" y2="84" stroke="black"/>
<line x1="87" y1="83.5" x2="95" y2="83.5" stroke="black"/>
<line x1="94.5" y1="84" x2="94.5" y2="95" stroke="black"/>
<line x1="94" y1="94.5" x2="68" y2="94.5" stroke="black"/>
<line x1="68.5" y1="94" x2="68.5" y2="89" stroke="black"/>
<line x1="4" y1="89.5" x2="68" y2="89.5" stroke="black"/>
<line x1="4.5" y1="11" x2="4.5" y2="89" stroke="black"/>
<rect x="62" y="13" width="21" height="36" fill="#D9D9D9"/>
<path d="M72.5 31L62 13H83L72.5 31Z" fill="#D3CCCC"/>
<path d="M72.5 31L62 49H83L72.5 31Z" fill="#C22A2A"/>
<line x1="61.75" y1="49" x2="61.75" y2="13" stroke="black" stroke-width="0.5"/>
<line y1="-0.25" x2="36" y2="-0.25" transform="matrix(0 -1 -1 0 83 49)" stroke="black" stroke-width="0.5"/>
<line y1="-0.25" x2="22" y2="-0.25" transform="matrix(1 0 0 -1 61.5 49)" stroke="black" stroke-width="0.5"/>
<line x1="61.5" y1="12.75" x2="83.5" y2="12.75" stroke="black" stroke-width="0.5"/>
<path d="M72.5 31V39L62 49V13L72.5 23V31Z" fill="#AAA5A5"/>
<path d="M72.5 31.0001V39L83 49.0001V13L72.5 23V31.0001Z" fill="#CF5151"/>
<rect x="59" y="6" width="16" height="6.5" fill="#D9CEB1"/>
<rect x="45" y="11" width="16.5" height="14" fill="#D9CEB1"/>
<path d="M16 19H30V11H53V33H16H12V25.5H16V19Z" fill="#D9CEB1"/>
<rect x="61" y="24" width="27" height="14" transform="rotate(90 61 24)" fill="#D9CEB1"/>
<rect x="51.125" y="33.125" width="7.75" height="8.75" fill="#DBE7E6" stroke="black" stroke-width="0.25"/>
<rect x="7.125" y="57.125" width="7.75" height="8.75" fill="#DBE7E6" stroke="black" stroke-width="0.25"/>
<rect x="87.875" y="85.125" width="7.75" height="8.75" transform="rotate(90 87.875 85.125)" fill="#DBE7E6" stroke="black" stroke-width="0.25"/>
<path d="M67.125 10.875H70.875V12.625H67.125V10.875Z" fill="#DBE7E6" stroke="black" stroke-width="0.25"/>
<path d="M76.125 49.375H80.875V52.125H76.125V49.375Z" fill="#DBE7E6" stroke="black" stroke-width="0.25"/>
<path d="M35.125 48.125H37.875V51.875H35.125V48.125Z" fill="#DBE7E6" stroke="black" stroke-width="0.25"/>
<path d="M37.125 38.2251H38.875V41.9751H37.125V38.2251Z" fill="#DBE7E6" stroke="black" stroke-width="0.25"/>
<rect x="39.625" y="46.125" width="10.75" height="3.75" rx="0.125" fill="#E7E9E1" stroke="black" stroke-width="0.25"/>
<ellipse cx="41" cy="48.625" rx="0.5" ry="0.625" fill="#979590"/>
<circle cx="43" cy="48.5" r="0.5" fill="#979590"/>
<ellipse cx="45" cy="48.625" rx="0.5" ry="0.625" transform="rotate(-21.4009 45 48.625)" fill="#979590"/>
<line x1="49.25" y1="47" x2="49.25" y2="45" stroke="#C22A2A" stroke-width="0.5"/>
<line x1="46.5" y1="44.75" x2="49.5" y2="44.75" stroke="#C22A2A" stroke-width="0.5"/>
<line x1="40.5" y1="44.75" x2="43.5" y2="44.75" stroke="#C22A2A" stroke-width="0.5"/>
<line x1="40.75" y1="45" x2="40.75" y2="47" stroke="#C22A2A" stroke-width="0.5"/>
<line x1="42.5" y1="44.75" x2="45.5" y2="44.75" stroke="#C22A2A" stroke-width="0.5"/>
<line x1="41" y1="45.875" x2="49" y2="45.875" stroke="#EFA7A7" stroke-width="0.25"/>
<line x1="44" y1="46.5" x2="44" y2="43" stroke="#C22A2A"/>
<line x1="43.625" y1="43" x2="43.625" y2="45.5" stroke="#EFA7A7" stroke-width="0.25"/>
<line x1="46" y1="46.5" x2="46" y2="43" stroke="#C22A2A"/>
<line x1="45.625" y1="43" x2="45.625" y2="45.5" stroke="#EFA7A7" stroke-width="0.25"/>
<line x1="42" y1="46.5" x2="42" y2="43" stroke="#C22A2A"/>
<line x1="41.625" y1="43" x2="41.625" y2="45.5" stroke="#EFA7A7" stroke-width="0.25"/>
<line x1="38" y1="49" x2="39.5" y2="49" stroke="black"/>
<path d="M46.5 46.5C46.5 46.5657 46.4871 46.6307 46.4619 46.6913C46.4368 46.752 46.4 46.8071 46.3536 46.8536C46.3071 46.9 46.252 46.9368 46.1913 46.9619C46.1307 46.9871 46.0657 47 46 47C45.9343 47 45.8693 46.9871 45.8087 46.9619C45.748 46.9368 45.6929 46.9 45.6464 46.8536C45.6 46.8071 45.5632 46.752 45.5381 46.6913C45.5129 46.6307 45.5 46.5657 45.5 46.5L46 46.5H46.5Z" fill="#C22A2A"/>
<path d="M44.5 46.5C44.5 46.5657 44.4871 46.6307 44.4619 46.6913C44.4368 46.752 44.4 46.8071 44.3536 46.8536C44.3071 46.9 44.252 46.9368 44.1913 46.9619C44.1307 46.9871 44.0657 47 44 47C43.9343 47 43.8693 46.9871 43.8087 46.9619C43.748 46.9368 43.6929 46.9 43.6464 46.8536C43.6 46.8071 43.5632 46.752 43.5381 46.6913C43.5129 46.6307 43.5 46.5657 43.5 46.5L44 46.5H44.5Z" fill="#C22A2A"/>
<path d="M42.5 46.5C42.5 46.5657 42.4871 46.6307 42.4619 46.6913C42.4368 46.752 42.4 46.8071 42.3536 46.8536C42.3071 46.9 42.252 46.9368 42.1913 46.9619C42.1307 46.9871 42.0657 47 42 47C41.9343 47 41.8693 46.9871 41.8087 46.9619C41.748 46.9368 41.6929 46.9 41.6464 46.8536C41.6 46.8071 41.5632 46.752 41.5381 46.6913C41.5129 46.6307 41.5 46.5657 41.5 46.5L42 46.5H42.5Z" fill="#C22A2A"/>
<rect x="39.5" y="23" width="9" height="1" fill="#CF5151"/>
<rect x="39.125" y="24.125" width="9.75" height="2.75" rx="0.125" fill="#E7E9E1" stroke="black" stroke-width="0.25"/>
<ellipse cx="40.882" cy="25.8856" rx="0.75" ry="0.5" transform="rotate(45.5725 40.882 25.8856)" fill="#909082"/>
<ellipse cx="42.8822" cy="25.8855" rx="0.75" ry="0.5" transform="rotate(53.2451 42.8822 25.8855)" fill="#909082"/>
<ellipse cx="44.7597" cy="25.7799" rx="0.6" ry="0.5" transform="rotate(53.2451 44.7597 25.7799)" fill="#909082"/>
<line x1="45.5" y1="27" x2="45.5" y2="31" stroke="#CF5151"/>
<line x1="41.5" y1="27" x2="41.5" y2="31" stroke="#CF5151"/>
<line x1="43.5" y1="27" x2="43.5" y2="31" stroke="#CF5151"/>
<line x1="47.5" y1="23" x2="47.5" y2="24.5" stroke="#C22A2A"/>
<path d="M48 24.5C48 24.6326 47.9473 24.7598 47.8536 24.8536C47.7598 24.9473 47.6326 25 47.5 25C47.3674 25 47.2402 24.9473 47.1464 24.8536C47.0527 24.7598 47 24.6326 47 24.5L47.5 24.5H48Z" fill="#C22A2A"/>
<path d="M45 24.5C45 24.6326 44.9473 24.7598 44.8536 24.8536C44.7598 24.9473 44.6326 25 44.5 25C44.3674 25 44.2402 24.9473 44.1464 24.8536C44.0527 24.7598 44 24.6326 44 24.5L44.5 24.5H45Z" fill="#C22A2A"/>
<path d="M43 24.5C43 24.6326 42.9473 24.7598 42.8536 24.8536C42.7598 24.9473 42.6326 25 42.5 25C42.3674 25 42.2402 24.9473 42.1464 24.8536C42.0527 24.7598 42 24.6326 42 24.5L42.5 24.5H43Z" fill="#C22A2A"/>
<path d="M41 24.5C41 24.6326 40.9473 24.7598 40.8536 24.8536C40.7598 24.9473 40.6326 25 40.5 25C40.3674 25 40.2402 24.9473 40.1464 24.8536C40.0527 24.7598 40 24.6326 40 24.5L40.5 24.5H41Z" fill="#C22A2A"/>
<line x1="44.5" y1="23" x2="44.5" y2="24.5" stroke="#C22A2A"/>
<line x1="42.5" y1="23" x2="42.5" y2="24.5" stroke="#C22A2A"/>
<line x1="40.5" y1="23" x2="40.5" y2="24.5" stroke="#C22A2A"/>
<line y1="-0.125" x2="8" y2="-0.125" transform="matrix(-1 0 0 1 48 24)" stroke="#C22A2A" stroke-width="0.25"/>
<path d="M44.5 26H45.5L46 27H45L44.5 26Z" fill="#CF5151"/>
<path d="M42.5 26H43.5L44 27H43L42.5 26Z" fill="#CF5151"/>
<path d="M40.5 26H41.5L42 27H41L40.5 26Z" fill="#CF5151"/>
<line y1="-0.125" x2="3" y2="-0.125" transform="matrix(0 1 1 0 46 28)" stroke="black" stroke-width="0.25"/>
<line y1="-0.125" x2="3" y2="-0.125" transform="matrix(0 1 1 0 44 28)" stroke="black" stroke-width="0.25"/>
<line y1="-0.125" x2="3" y2="-0.125" transform="matrix(0 1 1 0 42 28)" stroke="black" stroke-width="0.25"/>
<rect x="40.0205" y="36.125" width="6.75" height="2.75" rx="0.125" fill="#E7E9E1" stroke="black" stroke-width="0.25"/>
<rect x="46.8955" y="37" width="1.5" height="1.75" fill="#121520"/>
<path d="M41.3955 37.4998C41.3955 38.3282 41.1717 38.5 40.8955 38.5C40.6194 38.5 40.3955 38.3282 40.3955 37.4998C40.3955 36.6714 40.6194 36.5 40.8955 36.5C41.1717 36.5 41.3955 36.6714 41.3955 37.4998Z" fill="#979590"/>
<ellipse cx="43.531" cy="37.8297" rx="0.613784" ry="0.813328" transform="rotate(-1.54479 43.531 37.8297)" fill="#979590"/>
<path d="M45.9374 36.9985C45.9609 37.5503 45.7563 37.8201 45.4804 37.8319C45.2045 37.8436 44.9618 37.5929 44.9383 37.0411C44.9148 36.4893 45.2045 36.3507 45.4804 36.339C45.7563 36.3272 45.9139 36.4467 45.9374 36.9985Z" fill="#979590"/>
<line x1="39.8955" y1="37" x2="38.8955" y2="37" stroke="black"/>
<line x1="39.0884" y1="37.159" x2="38.1928" y2="38.2452" stroke="black" stroke-width="0.5"/>
<line x1="47.0398" y1="37.7959" x2="49.3108" y2="39.4014" stroke="black" stroke-width="0.5"/>
<line x1="46" y1="43" x2="46" y2="39" stroke="#C22A2A"/>
<line x1="44" y1="43" x2="44" y2="39" stroke="#C22A2A"/>
<line x1="42" y1="43" x2="42" y2="39" stroke="#C22A2A"/>
<path d="M45 37.5H46L46.5 39H45.5L45 37.5Z" fill="#C22A2A"/>
<path d="M43 38H44L44.5 39H43.5L43 38Z" fill="#C22A2A"/>
<path d="M40.5 38H41.5L42.5 39H41.5L40.5 38Z" fill="#C22A2A"/>
<path d="M47.5 38.5L48 38L50 39.5L51 40V40.5H50.5L49.5 40L47.5 38.5Z" fill="#121520"/>
<line x1="45.625" y1="39" x2="45.625" y2="43" stroke="#EFA7A7" stroke-width="0.25"/>
<line x1="43.625" y1="39" x2="43.625" y2="43" stroke="#EFA7A7" stroke-width="0.25"/>
<line x1="41.625" y1="39" x2="41.625" y2="43" stroke="#EFA7A7" stroke-width="0.25"/>
<line x1="45.5" y1="31" x2="45.5" y2="36.5" stroke="#CF5151"/>
<line x1="43.5" y1="31" x2="43.5" y2="37" stroke="#CF5151"/>
<line y1="-0.125" x2="5" y2="-0.125" transform="matrix(0 1 1 0 46 31)" stroke="black" stroke-width="0.25"/>
<line y1="-0.125" x2="5" y2="-0.125" transform="matrix(0 1 1 0 44 31)" stroke="black" stroke-width="0.25"/>
<line x1="41.5" y1="31" x2="41.5" y2="36" stroke="#CF5151"/>
<path d="M41 36H42L41.5 37H40.5L41 36Z" fill="#CF5151"/>
<line y1="-0.125" x2="5" y2="-0.125" transform="matrix(0 1 1 0 42 31)" stroke="black" stroke-width="0.25"/>
<rect x="10" y="40" width="1" height="13" fill="#CF5151"/>
<rect x="10.8" y="40" width="3.2" height="4.8" fill="#C22A2A"/>
<mask id="path-103-inside-1_197_17194" fill="white">
<path d="M10 41.25C10 41.1119 10.1119 41 10.25 41H12.15C12.2881 41 12.4 41.1119 12.4 41.25V43.95C12.4 44.0881 12.2881 44.2 12.15 44.2H10.25C10.1119 44.2 10 44.0881 10 43.95V41.25Z"/>
</mask>
<path d="M10 41.25C10 41.1119 10.1119 41 10.25 41H12.15C12.2881 41 12.4 41.1119 12.4 41.25V43.95C12.4 44.0881 12.2881 44.2 12.15 44.2H10.25C10.1119 44.2 10 44.0881 10 43.95V41.25Z" fill="#E7E9E1"/>
<path d="M10 41H12.4H10ZM12.4 44.2H10H12.4ZM10.25 44.2C9.97386 44.2 9.75 43.9761 9.75 43.7V41.5C9.75 41.2239 9.97386 41 10.25 41C10.25 41 10.25 41.1119 10.25 41.25V43.95C10.25 44.0881 10.25 44.2 10.25 44.2ZM12.4 41V44.2V41Z" fill="black" mask="url(#path-103-inside-1_197_17194)"/>
<mask id="path-105-inside-2_197_17194" fill="white">
<path d="M12.3999 41.5H13.9999V43.9H12.3999V41.5Z"/>
</mask>
<path d="M12.3999 41.5H13.9999V43.9H12.3999V41.5Z" fill="#9BA4A8"/>
<path d="M13.7499 41.5V43.9H14.2499V41.5H13.7499Z" fill="black" mask="url(#path-105-inside-2_197_17194)"/>
<line x1="13.8" y1="41.8848" x2="12.4" y2="41.8848" stroke="#787878" stroke-width="0.25"/>
<line x1="10.925" y1="42.3599" x2="10.925" y2="42.7599" stroke="#9BA4A8" stroke-width="0.25"/>
<line x1="11.7251" y1="42.3599" x2="11.7251" y2="42.7599" stroke="#9BA4A8" stroke-width="0.25"/>
<rect x="12.8" y="43.5" width="0.6" height="1.3" fill="#E7E9E1"/>
<rect width="3.2" height="4.8" transform="matrix(1 0 0 -1 10.8 48.7998)" fill="#C22A2A"/>
<mask id="path-112-inside-3_197_17194" fill="white">
<path d="M10 47.5498C10 47.6879 10.1119 47.7998 10.25 47.7998H12.15C12.2881 47.7998 12.4 47.6879 12.4 47.5498V44.8498C12.4 44.7117 12.2881 44.5998 12.15 44.5998H10.25C10.1119 44.5998 10 44.7117 10 44.8498V47.5498Z"/>
</mask>
<path d="M10 47.5498C10 47.6879 10.1119 47.7998 10.25 47.7998H12.15C12.2881 47.7998 12.4 47.6879 12.4 47.5498V44.8498C12.4 44.7117 12.2881 44.5998 12.15 44.5998H10.25C10.1119 44.5998 10 44.7117 10 44.8498V47.5498Z" fill="#E7E9E1"/>
<path d="M10 47.7998H12.4H10ZM12.4 44.5998H10H12.4ZM10.25 44.5998C9.97386 44.5998 9.75 44.8237 9.75 45.0998V47.2998C9.75 47.5759 9.97386 47.7998 10.25 47.7998C10.25 47.7998 10.25 47.6879 10.25 47.5498V44.8498C10.25 44.7117 10.25 44.5998 10.25 44.5998ZM12.4 47.7998V44.5998V47.7998Z" fill="black" mask="url(#path-112-inside-3_197_17194)"/>
<mask id="path-114-inside-4_197_17194" fill="white">
<path d="M12.3999 47.2998H13.9999V44.8998H12.3999V47.2998Z"/>
</mask>
<path d="M12.3999 47.2998H13.9999V44.8998H12.3999V47.2998Z" fill="#9BA4A8"/>
<path d="M13.7499 47.2998V44.8998H14.2499V47.2998H13.7499Z" fill="black" mask="url(#path-114-inside-4_197_17194)"/>
<line y1="-0.125" x2="1.4" y2="-0.125" transform="matrix(-1 0 0 1 13.8 47)" stroke="#787878" stroke-width="0.25"/>
<line y1="-0.125" x2="0.4" y2="-0.125" transform="matrix(0 -1 -1 0 10.8 46.3999)" stroke="#9BA4A8" stroke-width="0.25"/>
<line y1="-0.125" x2="0.4" y2="-0.125" transform="matrix(0 -1 -1 0 11.6001 46.3999)" stroke="#9BA4A8" stroke-width="0.25"/>
<rect width="0.6" height="1.3" transform="matrix(1 0 0 -1 12.8 45.2998)" fill="#E7E9E1"/>
<rect width="3.2" height="4.8" transform="matrix(1 0 0 -1 10.8 52.7998)" fill="#C22A2A"/>
<mask id="path-121-inside-5_197_17194" fill="white">
<path d="M10 51.5498C10 51.6879 10.1119 51.7998 10.25 51.7998H12.15C12.2881 51.7998 12.4 51.6879 12.4 51.5498V48.8498C12.4 48.7117 12.2881 48.5998 12.15 48.5998H10.25C10.1119 48.5998 10 48.7117 10 48.8498V51.5498Z"/>
</mask>
<path d="M10 51.5498C10 51.6879 10.1119 51.7998 10.25 51.7998H12.15C12.2881 51.7998 12.4 51.6879 12.4 51.5498V48.8498C12.4 48.7117 12.2881 48.5998 12.15 48.5998H10.25C10.1119 48.5998 10 48.7117 10 48.8498V51.5498Z" fill="#E7E9E1"/>
<path d="M10 51.7998H12.4H10ZM12.4 48.5998H10H12.4ZM10.25 48.5998C9.97386 48.5998 9.75 48.8237 9.75 49.0998V51.2998C9.75 51.5759 9.97386 51.7998 10.25 51.7998C10.25 51.7998 10.25 51.6879 10.25 51.5498V48.8498C10.25 48.7117 10.25 48.5998 10.25 48.5998ZM12.4 51.7998V48.5998V51.7998Z" fill="black" mask="url(#path-121-inside-5_197_17194)"/>
<mask id="path-123-inside-6_197_17194" fill="white">
<path d="M12.3999 51.2998H13.9999V48.8998H12.3999V51.2998Z"/>
</mask>
<path d="M12.3999 51.2998H13.9999V48.8998H12.3999V51.2998Z" fill="#9BA4A8"/>
<path d="M13.7499 51.2998V48.8998H14.2499V51.2998H13.7499Z" fill="black" mask="url(#path-123-inside-6_197_17194)"/>
<line y1="-0.125" x2="1.4" y2="-0.125" transform="matrix(-1 0 0 1 13.8 51)" stroke="#787878" stroke-width="0.25"/>
<line y1="-0.125" x2="0.4" y2="-0.125" transform="matrix(0 -1 -1 0 10.8 50.3999)" stroke="#9BA4A8" stroke-width="0.25"/>
<line y1="-0.125" x2="0.4" y2="-0.125" transform="matrix(0 -1 -1 0 11.6001 50.3999)" stroke="#9BA4A8" stroke-width="0.25"/>
<rect width="0.6" height="2.2" transform="matrix(1 0 0 -1 12.8 49.1997)" fill="#E7E9E1"/>
<path d="M11.9743 34.8897L10.1839 38.4705L10.1839 34.8897H11.9743Z" fill="#E7E9E1" stroke="black" stroke-width="0.25"/>
<path d="M11.4706 27L11.4706 29.8235H10.0588L11.4706 27Z" fill="#CF5151"/>
<mask id="path-131-inside-7_197_17194" fill="white">
<path d="M9.35303 33.353H10.7648V34.7648H9.35303V33.353Z"/>
</mask>
<path d="M9.35303 33.353H10.7648V34.7648H9.35303V33.353Z" fill="#E7E9E1"/>
<path d="M9.60303 34.7648V33.353H9.10303V34.7648H9.60303Z" fill="black" mask="url(#path-131-inside-7_197_17194)"/>
<rect x="9.47803" y="31.7134" width="1.16176" height="1.16176" fill="#E7E9E1" stroke="black" stroke-width="0.25"/>
<mask id="path-134-inside-8_197_17194" fill="white">
<path d="M9.35303 29.8237H10.7648V31.2355H9.35303V29.8237Z"/>
</mask>
<path d="M9.35303 29.8237H10.7648V31.2355H9.35303V29.8237Z" fill="#E7E9E1"/>
<path d="M9.35303 30.0737H10.7648V29.5737H9.35303V30.0737Z" fill="black" mask="url(#path-134-inside-8_197_17194)"/>
<rect x="11.4707" y="34.0586" width="0.352941" height="0.705882" fill="black"/>
<rect x="10.7646" y="30.5293" width="0.352941" height="2.82353" fill="black"/>
<path d="M10.7646 33.353H11.1176L11.8235 34.0589H11.4705L10.7646 33.353Z" fill="black"/>
<rect x="11.4707" y="27" width="0.352941" height="2.82353" fill="black"/>
<path d="M11.4705 29.8237H11.8235L11.1176 30.5296H10.7646L11.4705 29.8237Z" fill="black"/>
<rect x="12.8823" y="32.647" width="2.11765" height="0.352941" fill="#CF5151"/>
<rect x="12.8823" y="31.2354" width="2.11765" height="0.352941" fill="#CF5151"/>
<rect x="12.8823" y="29.8237" width="2.11765" height="0.352941" fill="#CF5151"/>
<path d="M11.1177 32.2939H12.1765V32.6469H11.1177V32.2939Z" fill="#CF5151"/>
<path d="M12.1765 32.6471L12.8824 33V32.6471L12.1765 32.2941V32.6471Z" fill="#CF5151"/>
<path d="M12.1765 29.1177H12.8824V29.8236V30.1765L12.5295 29.8236L12.1765 29.1177Z" fill="#CF5151"/>
<path d="M12.1765 31.2353V30.8823L12.8824 31.2353V31.5882L12.1765 31.2353Z" fill="#CF5151"/>
<path d="M11.1177 31.2353V30.8823H12.1765V31.2353H11.1177Z" fill="#CF5151"/>
<path d="M11.8235 28.4116L12.5294 28.7646L12.8823 29.1175H11.8235V28.4116Z" fill="#CF5151"/>
<rect width="0.352941" height="4.23529" transform="matrix(-1 0 0 1 9.35303 30.5293)" fill="#CF5151"/>
<rect x="25.2356" y="64.7595" width="4.15806" height="4.18572" transform="rotate(90 25.2356 64.7595)" fill="#E7E9E1" stroke="black" stroke-width="0.1"/>
<rect x="25.2356" y="70.0822" width="4.15806" height="4.18572" transform="rotate(90 25.2356 70.0822)" fill="#E7E9E1" stroke="black" stroke-width="0.1"/>
<rect x="25.2356" y="75.405" width="4.15806" height="4.18572" transform="rotate(90 25.2356 75.405)" fill="#E7E9E1" stroke="black" stroke-width="0.1"/>
<mask id="path-154-inside-9_197_17194" fill="white">
<path d="M51 61.5161V65.7742H47.7857V61.5161H51Z"/>
</mask>
<path d="M51 61.5161V65.7742H47.7857V61.5161H51Z" fill="#E7E9E1"/>
<path d="M50.75 61.5161V65.7742H51.25V61.5161H50.75Z" fill="black" mask="url(#path-154-inside-9_197_17194)"/>
<mask id="path-156-inside-10_197_17194" fill="white">
<path d="M51 72.1611V76.4192H47.7857V72.1611H51Z"/>
</mask>
<path d="M51 72.1611V76.4192H47.7857V72.1611H51Z" fill="#E7E9E1"/>
<path d="M47.7857 72.4111H51V71.9111H47.7857V72.4111Z" fill="black" mask="url(#path-156-inside-10_197_17194)"/>
<mask id="path-158-inside-11_197_17194" fill="white">
<path d="M51 77.4839V81.742H47.7857V77.4839H51Z"/>
</mask>
<path d="M51 77.4839V81.742H47.7857V77.4839H51Z" fill="#E7E9E1"/>
<path d="M47.7857 77.5839H51V77.3839H47.7857V77.5839Z" fill="black" mask="url(#path-158-inside-11_197_17194)"/>
<rect x="50.95" y="66.8889" width="4.15807" height="3.11429" transform="rotate(90 50.95 66.8889)" fill="#E7E9E1" stroke="black" stroke-width="0.1"/>
<path d="M31.7144 58.3228V60.4518L26.5001 60.5V58.3228H31.7144Z" fill="#C22A2A"/>
<rect x="25.2856" y="81.7417" width="2.12903" height="4.28572" transform="rotate(90 25.2856 81.7417)" fill="#C22A2A"/>
<mask id="path-163-inside-12_197_17194" fill="white">
<path d="M51 81.7417V83.8707H38.1429V81.7417H51Z"/>
</mask>
<path d="M51 81.7417V83.8707H38.1429V81.7417H51Z" fill="#C22A2A"/>
<path d="M51 83.6207H38.1429V84.1207H51V83.6207Z" fill="black" mask="url(#path-163-inside-12_197_17194)"/>
<rect x="40.2856" y="83.8711" width="2.12903" height="2.14286" transform="rotate(90 40.2856 83.8711)" fill="#CF5151"/>
<rect x="36" y="56.1934" width="21.2903" height="1.07143" transform="rotate(90 36 56.1934)" fill="#CF5151"/>
<rect x="36" y="78.0161" width="4.28572" height="1.06452" transform="rotate(180 36 78.0161)" fill="#CF5151"/>
<path d="M27.4285 63.7251V82.8864H26.357V63.7251H27.4285Z" fill="#C22A2A"/>
<rect x="31.7144" y="60.4517" width="21.2903" height="1.07143" transform="rotate(90 31.7144 60.4517)" fill="#C22A2A"/>
<line x1="25.2856" y1="66.5889" x2="44.5714" y2="66.5889" stroke="#C22A2A" stroke-width="0.5"/>
<line x1="25.2856" y1="71.9111" x2="44.5714" y2="71.9111" stroke="black" stroke-width="0.5"/>
<line x1="25.2856" y1="77.2339" x2="31.7142" y2="77.2339" stroke="#CF5151" stroke-width="0.5"/>
<line x1="35.9917" y1="77.5" x2="44.5799" y2="77.5" stroke="black" stroke-width="0.5"/>
<line x1="44.8215" y1="58.3228" x2="44.8215" y2="81.7421" stroke="#C22A2A" stroke-width="0.5"/>
<line x1="31.7144" y1="81.4917" x2="40.2858" y2="81.4917" stroke="black" stroke-width="0.5"/>
<line x1="25.2856" y1="83.3711" x2="27.4285" y2="83.3711" stroke="black"/>
<path d="M29.5715 83.8707L28.5001 84.9352L27.4287 83.8707V81.7417L29.5715 83.8707Z" fill="#CF5151"/>
<path d="M33.8572 81.7417V83.8707V84.9352H31.7143V81.7417H33.8572Z" fill="#C22A2A"/>
<path d="M38.1428 84.9356V86.0001L28.5 84.9356L29.5714 83.8711L38.1428 84.9356Z" fill="#CF5151"/>
<path d="M47.7856 68.9678V70.0324L44.9999 68.5V67.5L47.7856 68.9678Z" fill="#C22A2A"/>
<path d="M47.7856 75.355V76.4195H45.0587V75.355H47.7856Z" fill="black"/>
<line x1="49.1072" y1="76.4194" x2="49.1072" y2="77.4839" stroke="black" stroke-width="0.5"/>
<line x1="49.1072" y1="71.0967" x2="49.1072" y2="72.1612" stroke="black" stroke-width="0.5"/>
<line x1="49.1072" y1="65.7744" x2="49.1072" y2="66.8389" stroke="black" stroke-width="0.5"/>
<line x1="36" y1="64.4595" x2="40.2857" y2="64.4595" stroke="black" stroke-width="0.5"/>
<path d="M40.5356 60.4517V66.5" stroke="black" stroke-width="0.5"/>
<line x1="40.2856" y1="60.7017" x2="35.9999" y2="60.7017" stroke="black" stroke-width="0.5"/>
<path d="M44.5715 60.7017H40.7711" stroke="black" stroke-width="0.5"/>
<path d="M41.1072 61V57.2579" stroke="#CF5151" stroke-width="0.5"/>
<path d="M36 58.0728H40.9206" stroke="#CF5151" stroke-width="0.5"/>
<path d="M26.6072 58.3228V63.7408" stroke="black" stroke-width="0.5"/>
<line x1="23.1428" y1="69.2178" x2="22.0714" y2="69.2178" stroke="black" stroke-width="0.5"/>
<line x1="24.2144" y1="79.8628" x2="22.0715" y2="79.8628" stroke="black" stroke-width="0.5"/>
<line x1="23.1428" y1="74.5405" x2="22.0714" y2="74.5405" stroke="black" stroke-width="0.5"/>
<path d="M25.2856 80.6773V81.7418H24.2142V80.6773V79.6128L25.2856 80.6773Z" fill="#C22A2A"/>
<rect x="41.3572" y="72.1611" width="9.58064" height="1.07143" transform="rotate(90 41.3572 72.1611)" fill="#C22A2A"/>
<path d="M41.3572 66.8389V71.9001H40.2857V66.8389H41.3572Z" fill="black"/>
<rect x="31.7144" y="53" width="5.32258" height="2.14286" transform="rotate(90 31.7144 53)" fill="#C22A2A"/>
<path d="M26.3572 56.1934V57.2579L30.1072 58.0372V54.3496L26.3572 55.1289V56.1934Z" fill="#C22A2A"/>
<path d="M32.7856 57.2579V58.3224L31.7142 57.2579V56.1934L32.7856 57.2579Z" fill="#C22A2A"/>
<path d="M32.7856 57.2579V58.3224L31.7142 57.2579V56.1934L32.7856 57.2579Z" fill="#C22A2A"/>
<path d="M32.7856 54.0645V55.129L31.7142 54.0645V53L32.7856 54.0645Z" fill="#CF5151"/>
<path d="M32.7856 54.0645V55.129L31.7142 54.0645V53L32.7856 54.0645Z" fill="#CF5151"/>
<path d="M33.8572 58.3228H32.7857V57.2583L33.8572 58.3228Z" fill="#C22A2A"/>
<path d="M33.8572 58.3228H32.7857V57.2583L33.8572 58.3228Z" fill="#C22A2A"/>
<path d="M33.8572 55.129H32.7857V54.0645L33.8572 55.129Z" fill="#CF5151"/>
<path d="M33.8572 55.129H32.7857V54.0645L33.8572 55.129Z" fill="#CF5151"/>
<path d="M32.7856 59.3871H33.8571V60.4517L32.7856 59.3871Z" fill="#C22A2A"/>
<path d="M32.7856 59.3871H33.8571V60.4517L32.7856 59.3871Z" fill="#C22A2A"/>
<path d="M33.8572 58.3228V59.3873H32.7857V58.3228H33.8572Z" fill="#C22A2A"/>
<path d="M34.9286 55.1289L36 56.1934H33.8571L32.7857 55.1289H34.9286Z" fill="#CF5151"/>
<path d="M34.9285 59.3872V60.4517H33.857V59.3872H34.9285Z" fill="#C22A2A"/>
<line x1="44.5715" y1="58.0728" x2="48.8572" y2="58.0728" stroke="black" stroke-width="0.5"/>
<line x1="49.1072" y1="57.2583" x2="49.1072" y2="61.5164" stroke="black" stroke-width="0.5"/>
<line x1="22.6428" y1="64.7095" x2="22.6428" y2="55.1288" stroke="black"/>
<line x1="21" y1="56.7583" x2="26.3571" y2="56.7583" stroke="black"/>
<rect x="56.2356" y="64.7595" width="4.15806" height="4.18572" transform="rotate(90 56.2356 64.7595)" fill="#E7E9E1" stroke="black" stroke-width="0.1"/>
<rect x="56.2356" y="70.0822" width="4.15806" height="4.18572" transform="rotate(90 56.2356 70.0822)" fill="#E7E9E1" stroke="black" stroke-width="0.1"/>
<rect x="56.2356" y="75.405" width="4.15806" height="4.18572" transform="rotate(90 56.2356 75.405)" fill="#E7E9E1" stroke="black" stroke-width="0.1"/>
<mask id="path-215-inside-13_197_17194" fill="white">
<path d="M82 61.5161V65.7742H78.7857V61.5161H82Z"/>
</mask>
<path d="M82 61.5161V65.7742H78.7857V61.5161H82Z" fill="#E7E9E1"/>
<path d="M81.75 61.5161V65.7742H82.25V61.5161H81.75Z" fill="black" mask="url(#path-215-inside-13_197_17194)"/>
<mask id="path-217-inside-14_197_17194" fill="white">
<path d="M82 72.1611V76.4192H78.7857V72.1611H82Z"/>
</mask>
<path d="M82 72.1611V76.4192H78.7857V72.1611H82Z" fill="#E7E9E1"/>
<path d="M78.7857 72.4111H82V71.9111H78.7857V72.4111Z" fill="black" mask="url(#path-217-inside-14_197_17194)"/>
<mask id="path-219-inside-15_197_17194" fill="white">
<path d="M82 77.4839V81.742H78.7857V77.4839H82Z"/>
</mask>
<path d="M82 77.4839V81.742H78.7857V77.4839H82Z" fill="#E7E9E1"/>
<path d="M78.7857 77.5839H82V77.3839H78.7857V77.5839Z" fill="black" mask="url(#path-219-inside-15_197_17194)"/>
<rect x="81.95" y="66.8889" width="4.15807" height="3.11429" transform="rotate(90 81.95 66.8889)" fill="#E7E9E1" stroke="black" stroke-width="0.1"/>
<path d="M62.7144 58.3228V60.4518L57.5001 60.5V58.3228H62.7144Z" fill="#C22A2A"/>
<rect x="56.2856" y="81.7417" width="2.12903" height="4.28572" transform="rotate(90 56.2856 81.7417)" fill="#C22A2A"/>
<mask id="path-224-inside-16_197_17194" fill="white">
<path d="M82 81.7417V83.8707H69.1429V81.7417H82Z"/>
</mask>
<path d="M82 81.7417V83.8707H69.1429V81.7417H82Z" fill="#C22A2A"/>
<path d="M82 83.6207H69.1429V84.1207H82V83.6207Z" fill="black" mask="url(#path-224-inside-16_197_17194)"/>
<rect x="71.2856" y="83.8711" width="2.12903" height="2.14286" transform="rotate(90 71.2856 83.8711)" fill="#CF5151"/>
<rect x="67" y="56.1934" width="21.2903" height="1.07143" transform="rotate(90 67 56.1934)" fill="#CF5151"/>
<rect x="67" y="78.0161" width="4.28572" height="1.06452" transform="rotate(180 67 78.0161)" fill="#CF5151"/>
<path d="M58.4285 63.7251V82.8864H57.357V63.7251H58.4285Z" fill="#C22A2A"/>
<rect x="62.7144" y="60.4517" width="21.2903" height="1.07143" transform="rotate(90 62.7144 60.4517)" fill="#C22A2A"/>
<line x1="56.2856" y1="66.5889" x2="75.5714" y2="66.5889" stroke="#C22A2A" stroke-width="0.5"/>
<line x1="56.2856" y1="71.9111" x2="75.5714" y2="71.9111" stroke="black" stroke-width="0.5"/>
<line x1="56.2856" y1="77.2339" x2="62.7142" y2="77.2339" stroke="#CF5151" stroke-width="0.5"/>
<line x1="66.9917" y1="77.5" x2="75.5798" y2="77.5" stroke="black" stroke-width="0.5"/>
<line x1="75.8215" y1="58.3228" x2="75.8215" y2="81.7421" stroke="#C22A2A" stroke-width="0.5"/>
<line x1="62.7144" y1="81.4917" x2="71.2858" y2="81.4917" stroke="black" stroke-width="0.5"/>
<line x1="56.2856" y1="83.3711" x2="58.4285" y2="83.3711" stroke="black"/>
<path d="M60.5715 83.8707L59.5001 84.9352L58.4287 83.8707V81.7417L60.5715 83.8707Z" fill="#CF5151"/>
<path d="M64.8572 81.7417V83.8707V84.9352H62.7143V81.7417H64.8572Z" fill="#C22A2A"/>
<path d="M69.1428 84.9356V86.0001L59.5 84.9356L60.5714 83.8711L69.1428 84.9356Z" fill="#CF5151"/>
<path d="M78.7856 68.9678V70.0324L75.9999 68.5V67.5L78.7856 68.9678Z" fill="#C22A2A"/>
<path d="M78.7856 75.355V76.4195H76.0587V75.355H78.7856Z" fill="black"/>
<line x1="80.1072" y1="76.4194" x2="80.1072" y2="77.4839" stroke="black" stroke-width="0.5"/>
<line x1="80.1072" y1="71.0967" x2="80.1072" y2="72.1612" stroke="black" stroke-width="0.5"/>
<line x1="80.1072" y1="65.7744" x2="80.1072" y2="66.8389" stroke="black" stroke-width="0.5"/>
<line x1="67" y1="64.4595" x2="71.2857" y2="64.4595" stroke="black" stroke-width="0.5"/>
<path d="M71.5356 60.4517V66.5" stroke="black" stroke-width="0.5"/>
<line x1="71.2856" y1="60.7017" x2="66.9999" y2="60.7017" stroke="black" stroke-width="0.5"/>
<path d="M75.5715 60.7017H71.7711" stroke="black" stroke-width="0.5"/>
<path d="M72.1072 61V57.2579" stroke="#CF5151" stroke-width="0.5"/>
<path d="M67 58.0728H71.9206" stroke="#CF5151" stroke-width="0.5"/>
<path d="M57.6072 58.3228V63.7408" stroke="black" stroke-width="0.5"/>
<line x1="54.1428" y1="69.2178" x2="53.0714" y2="69.2178" stroke="black" stroke-width="0.5"/>
<line x1="55.2144" y1="79.8628" x2="53.0715" y2="79.8628" stroke="black" stroke-width="0.5"/>
<line x1="54.1428" y1="74.5405" x2="53.0714" y2="74.5405" stroke="black" stroke-width="0.5"/>
<path d="M56.2856 80.6773V81.7418H55.2142V80.6773V79.6128L56.2856 80.6773Z" fill="#C22A2A"/>
<rect x="72.3572" y="72.1611" width="9.58064" height="1.07143" transform="rotate(90 72.3572 72.1611)" fill="#C22A2A"/>
<path d="M72.3572 66.8389V71.9001H71.2857V66.8389H72.3572Z" fill="black"/>
<rect x="62.7144" y="53" width="5.32258" height="2.14286" transform="rotate(90 62.7144 53)" fill="#C22A2A"/>
<path d="M57.3572 56.1934V57.2579L61.1072 58.0372V54.3496L57.3572 55.1289V56.1934Z" fill="#C22A2A"/>
<path d="M63.7856 57.2579V58.3224L62.7142 57.2579V56.1934L63.7856 57.2579Z" fill="#C22A2A"/>
<path d="M63.7856 57.2579V58.3224L62.7142 57.2579V56.1934L63.7856 57.2579Z" fill="#C22A2A"/>
<path d="M63.7856 54.0645V55.129L62.7142 54.0645V53L63.7856 54.0645Z" fill="#CF5151"/>
<path d="M63.7856 54.0645V55.129L62.7142 54.0645V53L63.7856 54.0645Z" fill="#CF5151"/>
<path d="M64.8572 58.3228H63.7857V57.2583L64.8572 58.3228Z" fill="#C22A2A"/>
<path d="M64.8572 58.3228H63.7857V57.2583L64.8572 58.3228Z" fill="#C22A2A"/>
<path d="M64.8572 55.129H63.7857V54.0645L64.8572 55.129Z" fill="#CF5151"/>
<path d="M64.8572 55.129H63.7857V54.0645L64.8572 55.129Z" fill="#CF5151"/>
<path d="M63.7856 59.3871H64.8571V60.4517L63.7856 59.3871Z" fill="#C22A2A"/>
<path d="M63.7856 59.3871H64.8571V60.4517L63.7856 59.3871Z" fill="#C22A2A"/>
<path d="M64.8572 58.3228V59.3873H63.7857V58.3228H64.8572Z" fill="#C22A2A"/>
<path d="M65.9286 55.1289L67 56.1934H64.8571L63.7857 55.1289H65.9286Z" fill="#CF5151"/>
<path d="M65.9285 59.3872V60.4517H64.857V59.3872H65.9285Z" fill="#C22A2A"/>
<line x1="75.5715" y1="58.0728" x2="79.8572" y2="58.0728" stroke="black" stroke-width="0.5"/>
<line x1="80.1072" y1="57.2583" x2="80.1072" y2="61.5164" stroke="black" stroke-width="0.5"/>
<line x1="53.6428" y1="64.7095" x2="53.6428" y2="55.1288" stroke="black"/>
<line x1="52" y1="56.7583" x2="57.3571" y2="56.7583" stroke="black"/>
<rect x="21.55" y="35.05" width="1.9" height="1.9" fill="#E7E9E1" stroke="black" stroke-width="0.1"/>
<rect x="24.05" y="35.05" width="1.9" height="1.9" fill="#E7E9E1" stroke="black" stroke-width="0.1"/>
<rect x="26.55" y="35.05" width="1.9" height="1.9" fill="#E7E9E1" stroke="black" stroke-width="0.1"/>
<mask id="path-276-inside-17_197_17194" fill="white">
<path d="M20 23H22V24.5H20V23Z"/>
</mask>
<path d="M20 23H22V24.5H20V23Z" fill="#E7E9E1"/>
<path d="M20 23.25H22V22.75H20V23.25Z" fill="black" mask="url(#path-276-inside-17_197_17194)"/>
<mask id="path-278-inside-18_197_17194" fill="white">
<path d="M25 23H27V24.5H25V23Z"/>
</mask>
<path d="M25 23H27V24.5H25V23Z" fill="#E7E9E1"/>
<path d="M25.25 24.5V23H24.75V24.5H25.25Z" fill="black" mask="url(#path-278-inside-18_197_17194)"/>
<mask id="path-280-inside-19_197_17194" fill="white">
<path d="M27.5 23H29.5V24.5H27.5V23Z"/>
</mask>
<path d="M27.5 23H29.5V24.5H27.5V23Z" fill="#E7E9E1"/>
<path d="M27.6 24.5V23H27.4V24.5H27.6Z" fill="black" mask="url(#path-280-inside-19_197_17194)"/>
<rect x="22.55" y="23.05" width="1.9" height="1.4" fill="#E7E9E1" stroke="black" stroke-width="0.1"/>
<rect x="18.5" y="32" width="1" height="2" fill="#C22A2A"/>
<rect x="29.5" y="35" width="1" height="2" fill="#C22A2A"/>
<mask id="path-285-inside-20_197_17194" fill="white">
<path d="M29.5 23H30.5V29H29.5V23Z"/>
</mask>
<path d="M29.5 23H30.5V29H29.5V23Z" fill="#C22A2A"/>
<path d="M30.25 23V29H30.75V23H30.25Z" fill="black" mask="url(#path-285-inside-20_197_17194)"/>
<rect x="30.5" y="28" width="1" height="1" fill="#CF5151"/>
<rect x="17.5" y="30" width="10" height="0.5" fill="#CF5151"/>
<rect x="27.75" y="30" width="2" height="0.5" transform="rotate(90 27.75 30)" fill="#CF5151"/>
<rect x="20.5" y="34" width="9" height="0.5" fill="#C22A2A"/>
<rect x="19.5" y="32" width="10" height="0.5" fill="#C22A2A"/>
<line x1="22.25" y1="35" x2="22.25" y2="26" stroke="#C22A2A" stroke-width="0.5"/>
<line x1="24.75" y1="35" x2="24.75" y2="26" stroke="black" stroke-width="0.5"/>
<line x1="27.25" y1="35" x2="27.25" y2="32" stroke="#CF5151" stroke-width="0.5"/>
<line x1="27.375" y1="30.0039" x2="27.375" y2="25.9961" stroke="black" stroke-width="0.5"/>
<line x1="18.5" y1="25.75" x2="29.5" y2="25.75" stroke="#C22A2A" stroke-width="0.5"/>
<line x1="29.25" y1="32" x2="29.25" y2="28" stroke="black" stroke-width="0.5"/>
<line x1="30" y1="35" x2="30" y2="34" stroke="black"/>
<path d="M30.5 33L31 33.5L30.5 34H29.5L30.5 33Z" fill="#CF5151"/>
<path d="M29.5 31H30.5H31V32H29.5V31Z" fill="#C22A2A"/>
<path d="M31 29H31.5L31 33.5L30.5 33L31 29Z" fill="#CF5151"/>
<path d="M23.5 24.5H24L23.5 25.5H23L23.5 24.5Z" fill="#C22A2A"/>
<path d="M26.5 24.5H27V25.5H26.5V24.5Z" fill="black"/>
<line x1="27" y1="23.75" x2="27.5" y2="23.75" stroke="black" stroke-width="0.5"/>
<line x1="24.5" y1="23.75" x2="25" y2="23.75" stroke="black" stroke-width="0.5"/>
<line x1="22" y1="23.75" x2="22.5" y2="23.75" stroke="black" stroke-width="0.5"/>
<line x1="21.25" y1="30" x2="21.25" y2="28" stroke="black" stroke-width="0.5"/>
<line x1="19.5" y1="27.75" x2="21.5" y2="27.75" stroke="black" stroke-width="0.5"/>
<line x1="19.75" y1="28" x2="19.75" y2="30" stroke="black" stroke-width="0.5"/>
<line x1="19.75" y1="26" x2="19.75" y2="27.5" stroke="black" stroke-width="0.5"/>
<line x1="19.5" y1="27.75" x2="18" y2="27.75" stroke="#CF5151" stroke-width="0.5"/>
<line x1="18.25" y1="30" x2="18.25" y2="28" stroke="#CF5151" stroke-width="0.5"/>
<line x1="18.5" y1="34.25" x2="20.5" y2="34.25" stroke="black" stroke-width="0.5"/>
<line x1="23.75" y1="36" x2="23.75" y2="36.5" stroke="black" stroke-width="0.5"/>
<line x1="28.75" y1="35.5" x2="28.75" y2="36.5" stroke="black" stroke-width="0.5"/>
<line x1="26.25" y1="36" x2="26.25" y2="36.5" stroke="black" stroke-width="0.5"/>
<path d="M29 35H29.5V35.5H29H28.5L29 35Z" fill="#C22A2A"/>
<rect x="25" y="27.5" width="4.5" height="0.5" fill="#C22A2A"/>
<rect x="22.5" y="27.5" width="2" height="0.5" fill="black"/>
<rect x="16" y="32" width="2.5" height="1" fill="#C22A2A"/>
<path d="M17.5001 34.5H18.0001L18.3661 32.75H16.634L17.0001 34.5H17.5001Z" fill="#C22A2A"/>
<path d="M18 31.5H18.5L18 32H17.5L18 31.5Z" fill="#C22A2A"/>
<path d="M18 31.5H18.5L18 32H17.5L18 31.5Z" fill="#C22A2A"/>
<path d="M16.5 31.5H17L16.5 32H16L16.5 31.5Z" fill="#CF5151"/>
<path d="M16.5 31.5H17L16.5 32H16L16.5 31.5Z" fill="#CF5151"/>
<path d="M18.5 31V31.5H18L18.5 31Z" fill="#C22A2A"/>
<path d="M18.5 31V31.5H18L18.5 31Z" fill="#C22A2A"/>
<path d="M17 31V31.5H16.5L17 31Z" fill="#CF5151"/>
<path d="M17 31V31.5H16.5L17 31Z" fill="#CF5151"/>
<path d="M19 31.5V31H19.5L19 31.5Z" fill="#C22A2A"/>
<path d="M19 31.5V31H19.5L19 31.5Z" fill="#C22A2A"/>
<path d="M18.5 31H19V31.5H18.5V31Z" fill="#C22A2A"/>
<path d="M17 30.5L17.5 30V31L17 31.5V30.5Z" fill="#CF5151"/>
<path d="M19 30.5H19.5V31H19V30.5Z" fill="#C22A2A"/>
<line x1="18.25" y1="26" x2="18.25" y2="24" stroke="black" stroke-width="0.5"/>
<line x1="18" y1="23.75" x2="20" y2="23.75" stroke="black" stroke-width="0.5"/>
<line x1="21.5" y1="36.5" x2="17" y2="36.5" stroke="black"/>
<line x1="17.5" y1="37" x2="17.5" y2="34.5" stroke="black"/>
<rect x="21.55" y="51.05" width="1.9" height="1.9" fill="#E7E9E1" stroke="black" stroke-width="0.1"/>
<rect x="24.05" y="51.05" width="1.9" height="1.9" fill="#E7E9E1" stroke="black" stroke-width="0.1"/>
<rect x="26.55" y="51.05" width="1.9" height="1.9" fill="#E7E9E1" stroke="black" stroke-width="0.1"/>
<mask id="path-337-inside-21_197_17194" fill="white">
<path d="M20 39H22V40.5H20V39Z"/>
</mask>
<path d="M20 39H22V40.5H20V39Z" fill="#E7E9E1"/>
<path d="M20 39.25H22V38.75H20V39.25Z" fill="black" mask="url(#path-337-inside-21_197_17194)"/>
<mask id="path-339-inside-22_197_17194" fill="white">
<path d="M25 39H27V40.5H25V39Z"/>
</mask>
<path d="M25 39H27V40.5H25V39Z" fill="#E7E9E1"/>
<path d="M25.25 40.5V39H24.75V40.5H25.25Z" fill="black" mask="url(#path-339-inside-22_197_17194)"/>
<mask id="path-341-inside-23_197_17194" fill="white">
<path d="M27.5 39H29.5V40.5H27.5V39Z"/>
</mask>
<path d="M27.5 39H29.5V40.5H27.5V39Z" fill="#E7E9E1"/>
<path d="M27.6 40.5V39H27.4V40.5H27.6Z" fill="black" mask="url(#path-341-inside-23_197_17194)"/>
<rect x="22.55" y="39.05" width="1.9" height="1.4" fill="#E7E9E1" stroke="black" stroke-width="0.1"/>
<rect x="18.5" y="48" width="1" height="2" fill="#C22A2A"/>
<rect x="29.5" y="51" width="1" height="2" fill="#C22A2A"/>
<mask id="path-346-inside-24_197_17194" fill="white">
<path d="M29.5 39H30.5V45H29.5V39Z"/>
</mask>
<path d="M29.5 39H30.5V45H29.5V39Z" fill="#C22A2A"/>
<path d="M30.25 39V45H30.75V39H30.25Z" fill="black" mask="url(#path-346-inside-24_197_17194)"/>
<rect x="30.5" y="44" width="1" height="1" fill="#CF5151"/>
<rect x="17.5" y="46" width="10" height="0.5" fill="#CF5151"/>
<rect x="27.75" y="46" width="2" height="0.5" transform="rotate(90 27.75 46)" fill="#CF5151"/>
<rect x="20.5" y="50" width="9" height="0.5" fill="#C22A2A"/>
<rect x="19.5" y="48" width="10" height="0.5" fill="#C22A2A"/>
<line x1="22.25" y1="51" x2="22.25" y2="42" stroke="#C22A2A" stroke-width="0.5"/>
<line x1="24.75" y1="51" x2="24.75" y2="42" stroke="black" stroke-width="0.5"/>
<line x1="27.25" y1="51" x2="27.25" y2="48" stroke="#CF5151" stroke-width="0.5"/>
<line x1="27.375" y1="46.0039" x2="27.375" y2="41.9961" stroke="black" stroke-width="0.5"/>
<line x1="18.5" y1="41.75" x2="29.5" y2="41.75" stroke="#C22A2A" stroke-width="0.5"/>
<line x1="29.25" y1="48" x2="29.25" y2="44" stroke="black" stroke-width="0.5"/>
<line x1="30" y1="51" x2="30" y2="50" stroke="black"/>
<path d="M30.5 49L31 49.5L30.5 50H29.5L30.5 49Z" fill="#CF5151"/>
<path d="M29.5 47H30.5H31V48H29.5V47Z" fill="#C22A2A"/>
<path d="M31 45H31.5L31 49.5L30.5 49L31 45Z" fill="#CF5151"/>
<path d="M23.5 40.5H24L23.5 41.5H23L23.5 40.5Z" fill="#C22A2A"/>
<path d="M26.5 40.5H27V41.5H26.5V40.5Z" fill="black"/>
<line x1="27" y1="39.75" x2="27.5" y2="39.75" stroke="black" stroke-width="0.5"/>
<line x1="24.5" y1="39.75" x2="25" y2="39.75" stroke="black" stroke-width="0.5"/>
<line x1="22" y1="39.75" x2="22.5" y2="39.75" stroke="black" stroke-width="0.5"/>
<line x1="21.25" y1="46" x2="21.25" y2="44" stroke="black" stroke-width="0.5"/>
<line x1="19.5" y1="43.75" x2="21.5" y2="43.75" stroke="black" stroke-width="0.5"/>
<line x1="19.75" y1="44" x2="19.75" y2="46" stroke="black" stroke-width="0.5"/>
<line x1="19.75" y1="42" x2="19.75" y2="43.5" stroke="black" stroke-width="0.5"/>
<line x1="19.5" y1="43.75" x2="18" y2="43.75" stroke="#CF5151" stroke-width="0.5"/>
<line x1="18.25" y1="46" x2="18.25" y2="44" stroke="#CF5151" stroke-width="0.5"/>
<line x1="18.5" y1="50.25" x2="20.5" y2="50.25" stroke="black" stroke-width="0.5"/>
<line x1="23.75" y1="52" x2="23.75" y2="52.5" stroke="black" stroke-width="0.5"/>
<line x1="28.75" y1="51.5" x2="28.75" y2="52.5" stroke="black" stroke-width="0.5"/>
<line x1="26.25" y1="52" x2="26.25" y2="52.5" stroke="black" stroke-width="0.5"/>
<path d="M29 51H29.5V51.5H29H28.5L29 51Z" fill="#C22A2A"/>
<rect x="25" y="43.5" width="4.5" height="0.5" fill="#C22A2A"/>
<rect x="22.5" y="43.5" width="2" height="0.5" fill="black"/>
<rect x="16" y="48" width="2.5" height="1" fill="#C22A2A"/>
<path d="M17.5001 50.5H18.0001L18.3661 48.75H16.634L17.0001 50.5H17.5001Z" fill="#C22A2A"/>
<path d="M18 47.5H18.5L18 48H17.5L18 47.5Z" fill="#C22A2A"/>
<path d="M18 47.5H18.5L18 48H17.5L18 47.5Z" fill="#C22A2A"/>
<path d="M16.5 47.5H17L16.5 48H16L16.5 47.5Z" fill="#CF5151"/>
<path d="M16.5 47.5H17L16.5 48H16L16.5 47.5Z" fill="#CF5151"/>
<path d="M18.5 47V47.5H18L18.5 47Z" fill="#C22A2A"/>
<path d="M18.5 47V47.5H18L18.5 47Z" fill="#C22A2A"/>
<path d="M17 47V47.5H16.5L17 47Z" fill="#CF5151"/>
<path d="M17 47V47.5H16.5L17 47Z" fill="#CF5151"/>
<path d="M19 47.5V47H19.5L19 47.5Z" fill="#C22A2A"/>
<path d="M19 47.5V47H19.5L19 47.5Z" fill="#C22A2A"/>
<path d="M18.5 47H19V47.5H18.5V47Z" fill="#C22A2A"/>
<path d="M17 46.5L17.5 46V47L17 47.5V46.5Z" fill="#CF5151"/>
<path d="M19 46.5H19.5V47H19V46.5Z" fill="#C22A2A"/>
<line x1="18.25" y1="42" x2="18.25" y2="40" stroke="black" stroke-width="0.5"/>
<line x1="18" y1="39.75" x2="20" y2="39.75" stroke="black" stroke-width="0.5"/>
<line x1="21.5" y1="52.5" x2="17" y2="52.5" stroke="black"/>
<line x1="17.5" y1="53" x2="17.5" y2="50.5" stroke="black"/>
<rect x="15" y="31.2002" width="1" height="1.8" fill="#CF5151"/>
<rect x="15" y="29.7998" width="3" height="0.35" fill="#CF5151"/>
<rect x="30" y="50" width="5" height="1" fill="black"/>
<rect width="6.5" height="0.5" transform="matrix(1 0 0 -1 30.5 41)" fill="black"/>
<rect width="0.25" height="4" transform="matrix(-1 0 0 1 30.5 35)" fill="black"/>
<rect x="14" y="48" width="2" height="1" fill="#C22A2A"/>
<rect x="14" y="52" width="3" height="1" fill="black"/>
<rect x="14" y="50.5" width="0.5" height="1.5" fill="black"/>
<line y1="-0.25" x2="4" y2="-0.25" transform="matrix(-1 0 0 1 18 42)" stroke="black" stroke-width="0.5"/>
<line y1="-0.25" x2="4" y2="-0.25" transform="matrix(0 -1 -1 0 18 41)" stroke="black" stroke-width="0.5"/>
<path d="M51 81.7998H52V83.8998H51V81.7998Z" fill="#C22A2A"/>
<line x1="52" y1="56.75" x2="48.8" y2="56.75" stroke="black"/>
<line x1="22.6499" y1="53" x2="22.6499" y2="55.2" stroke="black"/>
<line x1="53.6001" y1="56" x2="53.6001" y2="42" stroke="black"/>
<line x1="80.1001" y1="58" x2="80.1001" y2="52" stroke="black" stroke-width="0.5"/>
<mask id="path-410-inside-25_197_17194" fill="white">
<path d="M82 81.7998H84V85.0498H82V81.7998Z"/>
</mask>
<path d="M82 81.7998H84V85.0498H82V81.7998Z" fill="#C22A2A"/>
<path d="M83.75 81.7998V85.0498H84.25V81.7998H83.75Z" fill="black" mask="url(#path-410-inside-25_197_17194)"/>
<rect x="15.125" y="12.125" width="32.75" height="3.75" fill="#DBE7E6" stroke="black" stroke-width="0.25"/>
<path d="M15 59L21 56.25V57.25L15 60V59Z" fill="black"/>
<mask id="path-414-inside-26_197_17194" fill="white">
<path d="M8 66H10V84H8V66Z"/>
</mask>
<path d="M8 66H10V84H8V66Z" fill="#C22A2A"/>
<path d="M8.25 84V66H7.75V84H8.25Z" fill="black" mask="url(#path-414-inside-26_197_17194)"/>
<mask id="path-416-inside-27_197_17194" fill="white">
<path d="M10 82H21V84H10V82Z"/>
</mask>
<path d="M10 82H21V84H10V82Z" fill="#C22A2A"/>
<path d="M21 83.75H10V84.25H21V83.75Z" fill="black" mask="url(#path-416-inside-27_197_17194)"/>
</svg>
