<svg width="200" height="100" viewBox="0 0 200 100" fill="none" xmlns="http://www.w3.org/2000/svg">
<rect x="96" y="20" width="46" height="60" fill="#646262"/>
<path d="M128 65L120.5 60.6699V69.3301L128 65ZM108 65.75H121.25V64.25H108V65.75Z" fill="#F7F7F7"/>
<path d="M114 35L121.5 39.3301V30.6699L114 35ZM134 34.25H120.75V35.75H134V34.25Z" fill="#F7F7F7"/>
<line x1="142" y1="78.5" x2="96" y2="78.5" stroke="#F7F7F7"/>
<line x1="142" y1="21.5" x2="96" y2="21.5" stroke="#F7F7F7"/>
<line x1="141.5" y1="79" x2="141.5" y2="80" stroke="#F7F7F7"/>
<line x1="141.5" y1="20" x2="141.5" y2="21" stroke="#F7F7F7"/>
<path fill-rule="evenodd" clip-rule="evenodd" d="M111 49C111 48.4477 111.448 48 112 48H141C141.552 48 142 48.4477 142 49V51C142 51.5523 141.552 52 141 52H112C111.448 52 111 51.5523 111 51V49ZM111.969 49.25C111.969 49.1119 112.081 49 112.219 49H115.189L116.59 51H112.219C112.081 51 111.969 50.8881 111.969 50.75V49.25ZM117.811 51H121.59L120.189 49H116.41L117.811 51ZM126.59 51H122.811L121.41 49H125.189L126.59 51ZM127.811 51H131.59L130.189 49H126.41L127.811 51ZM136.59 51H132.811L131.41 49H135.189L136.59 51ZM137.811 51H140.781C140.919 51 141.031 50.8881 141.031 50.75V49.25C141.031 49.1119 140.919 49 140.781 49H136.41L137.811 51Z" fill="#F7FB68"/>
</svg>
