<svg width="40" height="40" viewBox="0 0 40 40" fill="none" xmlns="http://www.w3.org/2000/svg">
<circle cx="20" cy="20" r="20" fill="#CD7F32"/>
<circle cx="20" cy="20" r="18" fill="white"/>
<circle cx="20" cy="20" r="16" fill="#CD7F32"/>
<path fill-rule="evenodd" clip-rule="evenodd" d="M16.6 11H13V30H16.6V22.875H22C22.7879 22.875 23.5681 22.7214 24.2961 22.423C25.0241 22.1246 25.6855 21.6873 26.2426 21.1359C26.7998 20.5846 27.2417 19.9301 27.5433 19.2097C27.8448 18.4893 28 17.7172 28 16.9375C28 16.1578 27.8448 15.3857 27.5433 14.6653C27.2417 13.9449 26.7998 13.2904 26.2426 12.7391C25.6855 12.1877 25.0241 11.7504 24.2961 11.452C23.5681 11.1536 22.7879 11 22 11H16.6ZM22 19.3125C22.3152 19.3125 22.6273 19.2511 22.9184 19.1317C23.2096 19.0124 23.4742 18.8374 23.6971 18.6169C23.9199 18.3963 24.0967 18.1345 24.2173 17.8464C24.3379 17.5582 24.4 17.2494 24.4 16.9375C24.4 16.6256 24.3379 16.3168 24.2173 16.0286C24.0967 15.7405 23.9199 15.4787 23.6971 15.2581C23.4742 15.0376 23.2096 14.8626 22.9184 14.7433C22.6273 14.6239 22.3152 14.5625 22 14.5625H16.6V19.3125H22Z" fill="white"/>
</svg>
