<svg width="200" height="100" viewBox="0 0 200 100" fill="none" xmlns="http://www.w3.org/2000/svg">
<rect x="96" y="20" width="26" height="60" fill="#646262"/>
<path d="M120 65L112.5 60.6699V69.3301L120 65ZM106 65.75H113.25V64.25H106V65.75Z" fill="#F7F7F7"/>
<path d="M106 35L113.5 39.3301V30.6699L106 35ZM120 34.25H112.75V35.75H120V34.25Z" fill="#F7F7F7"/>
<line x1="96" y1="21.5" x2="122" y2="21.5" stroke="#F7F7F7"/>
<line x1="96" y1="78.5" x2="122" y2="78.5" stroke="#F7F7F7"/>
<line x1="121.5" y1="79" x2="121.5" y2="80" stroke="#F7F7F7"/>
<line x1="121.5" y1="20" x2="121.5" y2="21" stroke="#F7F7F7"/>
<path fill-rule="evenodd" clip-rule="evenodd" d="M107 48C106.448 48 106 48.4477 106 49V51C106 51.5523 106.448 52 107 52H121C121.552 52 122 51.5523 122 51V49C122 48.4477 121.552 48 121 48H107ZM107.219 49C107.081 49 106.969 49.1119 106.969 49.25V50.75C106.969 50.8881 107.081 51 107.219 51H111.59L110.189 49H107.219ZM116.59 51H112.811L111.41 49H115.189L116.59 51ZM117.811 51H120.719C120.857 51 120.969 50.8881 120.969 50.75V49.25C120.969 49.1119 120.857 49 120.719 49H116.41L117.811 51Z" fill="#F7FB68"/>
</svg>
