<svg width="200" height="200" viewBox="0 0 200 200" fill="none" xmlns="http://www.w3.org/2000/svg">
<rect x="4" y="4" width="192" height="192" fill="#646262"/>
<path fill-rule="evenodd" clip-rule="evenodd" d="M104 4V44H105V4H104ZM167 4V44H168V4H167ZM146 44V4H147V44H146ZM125 4V44H126V4H125Z" fill="#F7F7F7"/>
<path fill-rule="evenodd" clip-rule="evenodd" d="M104 56V96H105V56H104ZM167 56V96H168V56H167ZM146 96V56H147V96H146ZM125 56V96H126V56H125Z" fill="#F7F7F7"/>
<path fill-rule="evenodd" clip-rule="evenodd" d="M104 156V196H105V156H104ZM167 156V196H168V156H167ZM146 196V156H147V196H146ZM125 156V196H126V156H125Z" fill="#F7F7F7"/>
<path fill-rule="evenodd" clip-rule="evenodd" d="M104 104V144H105V104H104ZM167 104V144H168V104H167ZM146 144V104H147V144H146ZM125 104V144H126V104H125Z" fill="#F7F7F7"/>
<path fill-rule="evenodd" clip-rule="evenodd" d="M188 96H189V89.817L194.839 93.9052C194.889 93.9405 194.944 93.9652 195 93.9798V96H196V78H190C188.895 78 188 78.8954 188 80V96ZM195 92.7974L189 88.5962V85.017L194.893 89.1429C194.927 89.1669 194.963 89.1859 195 89.2002V92.7974ZM189 80.2405V83.7962L195 87.9974V84.4417L189 80.2405ZM195 83.2209L189.334 79.2538C189.511 79.0959 189.744 79 190 79H194.5C194.776 79 195 79.2239 195 79.5V83.2209Z" fill="#F7FB68"/>
<rect x="188" y="95" width="8" height="1" fill="#F7FB68"/>
<path fill-rule="evenodd" clip-rule="evenodd" d="M188 4H189V10.183L194.839 6.09484C194.889 6.05952 194.944 6.03481 195 6.02024V4H196V22H190C188.895 22 188 21.1046 188 20V4ZM195 7.20257L189 11.4038V14.983L194.893 10.8571C194.927 10.8331 194.963 10.8141 195 10.7998V7.20257ZM189 19.7595V16.2038L195 12.0026V15.5583L189 19.7595ZM195 16.7791L189.334 20.7462C189.511 20.9041 189.744 21 190 21H194.5C194.776 21 195 20.7761 195 20.5V16.7791Z" fill="#F7FB68"/>
<rect width="8" height="1" transform="matrix(1 0 0 -1 188 5)" fill="#F7FB68"/>
<line x1="105" y1="95.5" x2="196" y2="95.5" stroke="#F7F7F7"/>
<line x1="105" y1="4.5" x2="196" y2="4.5" stroke="#F7F7F7"/>
<path fill-rule="evenodd" clip-rule="evenodd" d="M24 56V96H25V56H24ZM84 56V96H85V56H84ZM64 96V56H65V96H64ZM44 56V96H45V56H44Z" fill="#F7F7F7"/>
<path fill-rule="evenodd" clip-rule="evenodd" d="M24 156V196H25V156H24ZM84 156V196H85V156H84ZM64 196V156H65V196H64ZM44 156V196H45V156H44Z" fill="#F7F7F7"/>
<path fill-rule="evenodd" clip-rule="evenodd" d="M24 104V144H25V104H24ZM84 104V144H85V104H84ZM64 144V104H65V144H64ZM44 104V144H45V104H44Z" fill="#F7F7F7"/>
<path fill-rule="evenodd" clip-rule="evenodd" d="M24 4V44H25V4H24ZM84 4V44H85V4H84ZM64 44V4H65V44H64ZM44 4V44H45V4H44Z" fill="#F7F7F7"/>
<line x1="4.5" y1="4" x2="4.5" y2="96" stroke="#F7F7F7"/>
<line x1="104" y1="4.5" x2="5" y2="4.5" stroke="#F7F7F7"/>
<line x1="104" y1="95.5" x2="5" y2="95.5" stroke="#F7F7F7"/>
<line x1="4.5" y1="104" x2="4.5" y2="196" stroke="#F7F7F7"/>
<path fill-rule="evenodd" clip-rule="evenodd" d="M188 104H196V196H188V104ZM189 105H195V110.99L189.01 106.796L189 106.811V105ZM189 108.01V111.811L189.01 111.796L195 115.99V112.189L194.99 112.204L189 108.01ZM189 116.811V113.01L194.99 117.204L195 117.189V120.99L189.01 116.796L189 116.811ZM189 118.01V121.811L189.01 121.796L195 125.99V122.189L194.99 122.204L189 118.01ZM189 151.811V148.01L194.99 152.204L195 152.189V155.99L189.01 151.796L189 151.811ZM189 153.01V156.811L189.01 156.796L195 160.99V157.189L194.99 157.204L189 153.01ZM189 161.811V158.01L194.99 162.204L195 162.189V165.99L189.01 161.796L189 161.811ZM189 163.01V166.811L189.01 166.796L195 170.99V167.189L194.99 167.204L189 163.01ZM189.01 146.796L189 146.811V143.01L194.99 147.204L195 147.189V150.99L189.01 146.796ZM195 145.99V142.189L194.99 142.204L189 138.01V141.811L189.01 141.796L195 145.99ZM189.01 136.796L189 136.811V133.01L194.99 137.204L195 137.189V140.99L189.01 136.796ZM195 135.99V132.189L194.99 132.204L189 128.01V131.811L189.01 131.796L195 135.99ZM189.01 126.796L189 126.811V123.01L194.99 127.204L195 127.189V130.99L189.01 126.796ZM189 168.01V171.811L189.01 171.796L195 175.99V172.189L194.99 172.204L189 168.01ZM189 176.811V173.01L194.99 177.204L195 177.189V180.99L189.01 176.796L189 176.811ZM189 178.01V181.811L189.01 181.796L195 185.99V182.189L194.99 182.204L189 178.01ZM189 187.811V183.01L194.99 187.204L195 187.189V191.99L189.01 187.796L189 187.811ZM189 189.01V195H195V193.189L194.99 193.204L189 189.01Z" fill="#F7FB68"/>
<line x1="196" y1="104.5" x2="5" y2="104.5" stroke="#F7F7F7"/>
<line x1="196" y1="195.5" x2="5" y2="195.5" stroke="#F7F7F7"/>
<rect x="196" y="22" width="4" height="56" fill="#646262"/>
<rect x="196" y="21" width="4" height="1" fill="#F7F7F7"/>
<rect x="196" y="78" width="4" height="1" fill="#F7F7F7"/>
</svg>
