<svg width="200" height="100" viewBox="0 0 200 100" fill="none" xmlns="http://www.w3.org/2000/svg">
<rect x="4" y="4" width="192" height="92" fill="#646262"/>
<path fill-rule="evenodd" clip-rule="evenodd" d="M104 4V44H105V4H104ZM167 4V44H168V4H167ZM146 44V4H147V44H146ZM125 4V44H126V4H125Z" fill="#F7F7F7"/>
<path fill-rule="evenodd" clip-rule="evenodd" d="M104 56V96H105V56H104ZM167 56V96H168V56H167ZM146 96V56H147V96H146ZM125 56V96H126V56H125Z" fill="#F7F7F7"/>
<path fill-rule="evenodd" clip-rule="evenodd" d="M188 96H189V89.817L194.839 93.9052C194.889 93.9405 194.944 93.9652 195 93.9798V96H196V78H190C188.895 78 188 78.8954 188 80V96ZM195 92.7974L189 88.5962V85.017L194.893 89.1429C194.927 89.1669 194.963 89.1859 195 89.2002V92.7974ZM189 80.2405V83.7962L195 87.9974V84.4417L189 80.2405ZM195 83.2209L189.334 79.2538C189.511 79.0959 189.744 79 190 79H194.5C194.776 79 195 79.2239 195 79.5V83.2209Z" fill="#F7FB68"/>
<rect x="188" y="95" width="8" height="1" fill="#F7FB68"/>
<path fill-rule="evenodd" clip-rule="evenodd" d="M188 4H189V10.183L194.839 6.09484C194.889 6.05952 194.944 6.03481 195 6.02024V4H196V22H190C188.895 22 188 21.1046 188 20V4ZM195 7.20257L189 11.4038V14.983L194.893 10.8571C194.927 10.8331 194.963 10.8141 195 10.7998V7.20257ZM189 19.7595V16.2038L195 12.0026V15.5583L189 19.7595ZM195 16.7791L189.334 20.7462C189.511 20.9041 189.744 21 190 21H194.5C194.776 21 195 20.7761 195 20.5V16.7791Z" fill="#F7FB68"/>
<rect width="8" height="1" transform="matrix(1 0 0 -1 188 5)" fill="#F7FB68"/>
<line x1="105" y1="95.5" x2="196" y2="95.5" stroke="#F7F7F7"/>
<line x1="105" y1="4.5" x2="196" y2="4.5" stroke="#F7F7F7"/>
<path fill-rule="evenodd" clip-rule="evenodd" d="M24 56V96H25V56H24ZM84 56V96H85V56H84ZM64 96V56H65V96H64ZM44 56V96H45V56H44Z" fill="#F7F7F7"/>
<path fill-rule="evenodd" clip-rule="evenodd" d="M24 4V44H25V4H24ZM84 4V44H85V4H84ZM64 44V4H65V44H64ZM44 4V44H45V4H44Z" fill="#F7F7F7"/>
<line x1="4.5" y1="4" x2="4.5" y2="96" stroke="#F7F7F7"/>
<line x1="104" y1="4.5" x2="5" y2="4.5" stroke="#F7F7F7"/>
<line x1="104" y1="95.5" x2="5" y2="95.5" stroke="#F7F7F7"/>
<rect x="196" y="22" width="4" height="56" fill="#646262"/>
<rect x="196" y="21" width="4" height="1" fill="#F7F7F7"/>
<rect x="196" y="78" width="4" height="1" fill="#F7F7F7"/>
</svg>
