<svg width="70" height="70" viewBox="0 0 70 70" fill="none" xmlns="http://www.w3.org/2000/svg">
<rect x="1" y="1" width="68" height="68" fill="black" stroke="white" stroke-width="2"/>
<circle cx="31" cy="32" r="17" fill="white"/>
<circle cx="31" cy="32" r="13" fill="black"/>
<path d="M40 43.5745L43.8825 39L55.3033 48.6931C56.1455 49.4079 56.2487 50.67 55.534 51.5121L54.2398 53.037C53.5251 53.8791 52.263 53.9824 51.4208 53.2676L40 43.5745Z" fill="white"/>
<rect x="23" y="31" width="4" height="14" rx="0.5" fill="white"/>
<rect x="29" y="35" width="4" height="11" rx="0.5" fill="white"/>
<rect x="35" y="26" width="4" height="19" rx="0.5" fill="white"/>
<path d="M31 19C38.1797 19 44 24.8203 44 32C44 39.1797 38.1797 45 31 45C23.8203 45 18 39.1797 18 32C18 24.8203 23.8203 19 31 19ZM31 21C24.9249 21 20 25.9249 20 32C20 38.0751 24.9249 43 31 43C37.0751 43 42 38.0751 42 32C42 25.9249 37.0751 21 31 21Z" fill="black"/>
</svg>
