<svg width="70" height="70" viewBox="0 0 70 70" fill="none" xmlns="http://www.w3.org/2000/svg">
<rect x="0.5" y="0.5" width="69" height="69" fill="#505050" stroke="white"/>
<rect x="14" y="1" width="42" height="68" fill="white"/>
<rect x="52" y="2" width="2" height="66" fill="black"/>
<rect x="16" y="2" width="2" height="66" fill="black"/>
<path d="M36 66H34V59H36V66ZM36 12H34V5H36V12Z" fill="black"/>
<path d="M34.9961 42C36.2695 42 37.2969 42.332 38.0781 42.9961C38.8672 43.6523 39.2617 44.5508 39.2617 45.6914C39.2617 46.4023 39.0938 47.1055 38.7578 47.8008C38.4297 48.4961 38.0078 49.1602 37.4922 49.793C36.9844 50.418 36.4453 50.9961 35.875 51.5273C35.3047 52.0508 34.7773 52.5078 34.293 52.8984H36.625C37.4844 52.8984 38.1133 52.8906 38.5117 52.875C38.918 52.8594 39.2969 52.8203 39.6484 52.7578V55.043H31.0352V53.1094C31.6367 52.6797 32.2656 52.1836 32.9219 51.6211C33.5859 51.0586 34.2031 50.4609 34.7734 49.8281C35.3516 49.1953 35.8203 48.5625 36.1797 47.9297C36.5469 47.2891 36.7305 46.6875 36.7305 46.125C36.7305 45.6094 36.5703 45.1602 36.25 44.7773C35.9375 44.3867 35.4453 44.1914 34.7734 44.1914C34.2344 44.1914 33.6602 44.3438 33.0508 44.6484C32.4492 44.9531 31.9531 45.3438 31.5625 45.8203L31 43.7109C31.3984 43.2188 31.9766 42.8125 32.7344 42.4922C33.5 42.1641 34.2539 42 34.9961 42Z" fill="black"/>
<rect x="16" y="1" width="2" height="1" fill="black"/>
<rect x="52" y="1" width="2" height="1" fill="black"/>
<rect x="16" y="68" width="2" height="1" fill="black"/>
<rect x="52" y="68" width="2" height="1" fill="black"/>
<rect x="34" y="17" width="2" height="7" fill="black"/>
<path d="M50 37H45V38L46 39V39.5H42V39L43 38V37H27V38L28 39V39.5H24V39L25 38V37H20V35H50V37Z" fill="black"/>
<path d="M22.5 35.4997C29 27 41 27.0001 47.5 35.4997" stroke="black"/>
<path d="M43 31.5L45 32.5V35H43V31.5Z" fill="black"/>
<path d="M25 32.5L27 31.5V35H25V32.5Z" fill="black"/>
<rect x="29" y="30" width="1" height="5" fill="black"/>
<rect x="40" y="30" width="1" height="5" fill="black"/>
<rect x="37.2002" y="29" width="1" height="6" fill="black"/>
<rect x="31.7998" y="29" width="1" height="6" fill="black"/>
<rect x="34.5" y="29" width="1" height="6" fill="black"/>
</svg>
