<svg width="70" height="70" viewBox="0 0 70 70" fill="none" xmlns="http://www.w3.org/2000/svg">
<rect x="0.5" y="0.5" width="69" height="69" fill="#505050" stroke="white"/>
<rect x="14" y="1" width="42" height="68" fill="white"/>
<rect x="52" y="2" width="2" height="66" fill="black"/>
<rect x="16" y="2" width="2" height="66" fill="black"/>
<path d="M36 66H34V59H36V66ZM36 36H34V29H36V36ZM36 24H34V17H36V24ZM36 12H34V5H36V12Z" fill="black"/>
<path d="M34.4961 41C35.7695 41 36.7969 41.332 37.5781 41.9961C38.3672 42.6523 38.7617 43.5508 38.7617 44.6914C38.7617 45.4023 38.5938 46.1055 38.2578 46.8008C37.9297 47.4961 37.5078 48.1602 36.9922 48.793C36.4844 49.418 35.9453 49.9961 35.375 50.5273C34.8047 51.0508 34.2773 51.5078 33.793 51.8984H36.125C36.9844 51.8984 37.6133 51.8906 38.0117 51.875C38.418 51.8594 38.7969 51.8203 39.1484 51.7578V54.043H30.5352V52.1094C31.1367 51.6797 31.7656 51.1836 32.4219 50.6211C33.0859 50.0586 33.7031 49.4609 34.2734 48.8281C34.8516 48.1953 35.3203 47.5625 35.6797 46.9297C36.0469 46.2891 36.2305 45.6875 36.2305 45.125C36.2305 44.6094 36.0703 44.1602 35.75 43.7773C35.4375 43.3867 34.9453 43.1914 34.2734 43.1914C33.7344 43.1914 33.1602 43.3438 32.5508 43.6484C31.9492 43.9531 31.4531 44.3438 31.0625 44.8203L30.5 42.7109C30.8984 42.2188 31.4766 41.8125 32.2344 41.4922C33 41.1641 33.7539 41 34.4961 41Z" fill="black"/>
<rect x="16" y="1" width="2" height="1" fill="black"/>
<rect x="52" y="1" width="2" height="1" fill="black"/>
<rect x="16" y="68" width="2" height="1" fill="black"/>
<rect x="52" y="68" width="2" height="1" fill="black"/>
</svg>
