<svg width="35" height="35" viewBox="0 0 35 35" fill="none" xmlns="http://www.w3.org/2000/svg">
<rect x="0.5" y="0.5" width="34" height="34" fill="black" stroke="white"/>
<rect x="6" y="6" width="23" height="23" fill="white"/>
<path d="M6 23C6.78791 23 7.56796 23.1555 8.2959 23.457C9.02385 23.7586 9.68504 24.2007 10.2422 24.7578C10.7993 25.315 11.2414 25.9761 11.543 26.7041C11.8445 27.432 12 28.2121 12 29H6V23Z" fill="black"/>
<path d="M12 6C12 6.78791 11.8445 7.56796 11.543 8.2959C11.2414 9.02385 10.7993 9.68504 10.2422 10.2422C9.68504 10.7993 9.02385 11.2414 8.2959 11.543C7.56796 11.8445 6.78791 12 6 12V6H12Z" fill="black"/>
<path d="M29 12C28.2121 12 27.432 11.8445 26.7041 11.543C25.9761 11.2414 25.315 10.7993 24.7578 10.2422C24.2007 9.68504 23.7586 9.02385 23.457 8.2959C23.1555 7.56796 23 6.78791 23 6H29V12Z" fill="black"/>
<path d="M23 29C23 28.2121 23.1555 27.432 23.457 26.7041C23.7586 25.9761 24.2007 25.315 24.7578 24.7578C25.315 24.2007 25.9761 23.7586 26.7041 23.457C27.432 23.1555 28.2121 23 29 23V29H23Z" fill="black"/>
<path d="M6 15.5L11.0655 20.2266L12.6261 13.4765L6 15.5ZM19.5 29H20.1C20.1 23.5573 16.3786 18.4602 11.5161 16.1734L11.2608 16.7163L11.0054 17.2593C15.5103 19.378 18.9 24.0883 18.9 29H19.5Z" fill="black"/>
<path d="M29 19.5L23.9345 14.7734L22.3739 21.5235L29 19.5ZM15.5 6H14.9C14.9 11.4427 18.6214 16.5398 23.4839 18.8266L23.7392 18.2837L23.9946 17.7407C19.4897 15.622 16.1 10.9117 16.1 6H15.5Z" fill="black"/>
</svg>
