<svg width="70" height="70" viewBox="0 0 70 70" fill="none" xmlns="http://www.w3.org/2000/svg">
<rect x="0.5" y="0.5" width="69" height="69" fill="#505050" stroke="white"/>
<path d="M45.0625 22C48.0469 22 50.3281 22.9766 51.9062 24.9297C53.5 26.8672 54.2969 30.1719 54.2969 34.8438C54.2969 38.0781 53.8906 40.6406 53.0781 42.5312C52.2656 44.4219 51.1406 45.7734 49.7031 46.5859C48.2656 47.3984 46.6016 47.8047 44.7109 47.8047C42.8516 47.8047 41.2266 47.3984 39.8359 46.5859C38.4453 45.7734 37.3672 44.4453 36.6016 42.6016C35.8516 40.7578 35.4766 38.2891 35.4766 35.1953C35.4766 31.9766 35.8828 29.4062 36.6953 27.4844C37.5234 25.5469 38.6562 24.1484 40.0938 23.2891C41.5469 22.4297 43.2031 22 45.0625 22ZM26.3828 39.0391C26.3828 39.7891 26.3906 40.7031 26.4062 41.7812C26.4375 42.8438 26.4766 43.8828 26.5234 44.8984C26.5859 45.9141 26.6562 46.7422 26.7344 47.3828H21.5547V27.2969L16.6328 29.9688L16 25.3984L21.5547 22.1875H26.3828V39.0391ZM44.8984 26.0312C41.9609 26.0312 40.4922 28.9453 40.4922 34.7734C40.4922 40.7891 41.9609 43.7969 44.8984 43.7969C47.8203 43.7969 49.2812 40.9609 49.2812 35.2891C49.2812 32.1484 48.9297 29.8203 48.2266 28.3047C47.5234 26.7891 46.4141 26.0312 44.8984 26.0312Z" fill="white"/>
</svg>
