<svg width="70" height="70" viewBox="0 0 70 70" fill="none" xmlns="http://www.w3.org/2000/svg">
<rect x="-1" y="1" width="68" height="68" transform="matrix(-1 0 0 1 68 0)" fill="black" stroke="white" stroke-width="2"/>
<path d="M46.25 55.4324C47.4875 55.4324 48.5469 54.9878 49.4281 54.0986C50.3094 53.2095 50.75 52.1405 50.75 50.8919V21.3784H53V16.8378H41.75V14.5676H28.25V16.8378H17V21.3784H19.25V50.8919C19.25 52.1405 19.6906 53.2095 20.5719 54.0986C21.4531 54.9878 22.5125 55.4324 23.75 55.4324H46.25ZM23.75 21.3784H46.25V50.8919H23.75V21.3784ZM41.75 46.3513H37.25V25.9189H41.75V46.3513ZM32.75 46.3513H28.25V25.9189H32.75V46.3513Z" fill="white"/>
</svg>
