<svg width="70" height="70" viewBox="0 0 70 70" fill="none" xmlns="http://www.w3.org/2000/svg">
<rect x="0.5" y="0.5" width="69" height="69" fill="#505050" stroke="white"/>
<rect x="5" y="65" width="42" height="4" fill="white"/>
<rect x="5" y="5" width="60" height="60" fill="white"/>
<path d="M25.9961 55C27.2695 55 28.2969 55.332 29.0781 55.9961C29.8672 56.6523 30.2617 57.5508 30.2617 58.6914C30.2617 59.4023 30.0938 60.1055 29.7578 60.8008C29.4297 61.4961 29.0078 62.1602 28.4922 62.793C27.9844 63.418 27.4453 63.9961 26.875 64.5273C26.3047 65.0508 25.7773 65.5078 25.293 65.8984H27.625C28.4844 65.8984 29.1133 65.8906 29.5117 65.875C29.918 65.8594 30.2969 65.8203 30.6484 65.7578V68.043H22.0352V66.1094C22.6367 65.6797 23.2656 65.1836 23.9219 64.6211C24.5859 64.0586 25.2031 63.4609 25.7734 62.8281C26.3516 62.1953 26.8203 61.5625 27.1797 60.9297C27.5469 60.2891 27.7305 59.6875 27.7305 59.125C27.7305 58.6094 27.5703 58.1602 27.25 57.7773C26.9375 57.3867 26.4453 57.1914 25.7734 57.1914C25.2344 57.1914 24.6602 57.3438 24.0508 57.6484C23.4492 57.9531 22.9531 58.3438 22.5625 58.8203L22 56.7109C22.3984 56.2188 22.9766 55.8125 23.7344 55.4922C24.5 55.1641 25.2539 55 25.9961 55Z" fill="black"/>
<path d="M53.9961 27C55.2695 27 56.2969 27.332 57.0781 27.9961C57.8672 28.6523 58.2617 29.5508 58.2617 30.6914C58.2617 31.4023 58.0938 32.1055 57.7578 32.8008C57.4297 33.4961 57.0078 34.1602 56.4922 34.793C55.9844 35.418 55.4453 35.9961 54.875 36.5273C54.3047 37.0508 53.7773 37.5078 53.293 37.8984H55.625C56.4844 37.8984 57.1133 37.8906 57.5117 37.875C57.918 37.8594 58.2969 37.8203 58.6484 37.7578V40.043H50.0352V38.1094C50.6367 37.6797 51.2656 37.1836 51.9219 36.6211C52.5859 36.0586 53.2031 35.4609 53.7734 34.8281C54.3516 34.1953 54.8203 33.5625 55.1797 32.9297C55.5469 32.2891 55.7305 31.6875 55.7305 31.125C55.7305 30.6094 55.5703 30.1602 55.25 29.7773C54.9375 29.3867 54.4453 29.1914 53.7734 29.1914C53.2344 29.1914 52.6602 29.3438 52.0508 29.6484C51.4492 29.9531 50.9531 30.3438 50.5625 30.8203L50 28.7109C50.3984 28.2188 50.9766 27.8125 51.7344 27.4922C52.5 27.1641 53.2539 27 53.9961 27Z" fill="black"/>
<circle cx="23" cy="35" r="11" fill="black"/>
<circle cx="23" cy="35" r="9" fill="white"/>
<path d="M24.6748 29.75C25.1278 29.75 25.5766 29.8382 25.9951 30.0098C26.4136 30.1813 26.7939 30.433 27.1143 30.75C27.4346 31.067 27.6889 31.4433 27.8623 31.8574C28.0357 32.2716 28.125 32.7157 28.125 33.1641C28.125 33.6124 28.0357 34.0565 27.8623 34.4707C27.6889 34.8849 27.4346 35.2611 27.1143 35.5781C26.7939 35.8951 26.4136 36.1468 25.9951 36.3184C25.6289 36.4684 25.2398 36.555 24.8447 36.5742L24.6748 36.5781H21.5703V40.6748H19.5V29.75H24.6748ZM21.5703 31.7988V34.5293H24.6748L24.8105 34.5225C24.9453 34.5094 25.0776 34.4772 25.2031 34.4258C25.3704 34.3572 25.5224 34.2565 25.6504 34.1299C25.7785 34.0031 25.8808 33.8522 25.9502 33.6865C26.0195 33.5209 26.0547 33.3433 26.0547 33.1641C26.0547 32.9848 26.0195 32.8072 25.9502 32.6416C25.8808 32.4759 25.7785 32.325 25.6504 32.1982C25.5224 32.0716 25.3704 31.9709 25.2031 31.9023C25.0357 31.8338 24.856 31.7988 24.6748 31.7988H21.5703Z" fill="black"/>
<rect x="7" y="7" width="2" height="62" fill="black"/>
<rect x="61" y="7" width="2" height="56" fill="black"/>
<rect x="62" y="7" width="2" height="55" transform="rotate(90 62 7)" fill="black"/>
<rect x="44" y="61" width="17" height="2" fill="black"/>
<rect x="43" y="61" width="2" height="8" fill="black"/>
<path d="M41.6569 33.3518L43.8327 31.1759L45.1378 32.481L42.962 34.6569L45.1378 36.8327L43.8327 38.1378L41.6569 35.962L39.481 38.1378L38.1759 36.8327L40.3517 34.6569L38.1759 32.481L39.481 31.1759L41.6569 33.3518Z" fill="black"/>
</svg>
