<svg width="70" height="70" viewBox="0 0 70 70" fill="none" xmlns="http://www.w3.org/2000/svg">
<rect x="0.5" y="0.5" width="69" height="69" fill="#505050" stroke="white"/>
<rect x="1" y="1" width="68" height="68" fill="white"/>
<path d="M69 69H56C56 67.2929 56.336 65.6025 56.9893 64.0254C57.6426 62.4482 58.6005 61.0148 59.8076 59.8076C61.0148 58.6005 62.4482 57.6426 64.0254 56.9893C65.6025 56.336 67.2929 56 69 56V69Z" fill="#505050"/>
<path d="M1 69V56C2.70706 56 4.39748 56.336 5.97461 56.9893C7.55184 57.6426 8.98522 58.6005 10.1924 59.8076C11.3995 61.0148 12.3574 62.4482 13.0107 64.0254C13.664 65.6025 14 67.2929 14 69H1Z" fill="#505050"/>
<path d="M69 1V14C67.2929 14 65.6025 13.664 64.0254 13.0107C62.4482 12.3574 61.0148 11.3995 59.8076 10.1924C58.6005 8.98522 57.6426 7.55184 56.9893 5.97461C56.336 4.39748 56 2.70706 56 1H69Z" fill="#505050"/>
<path d="M1 1H14C14 2.70706 13.664 4.39748 13.0107 5.97461C12.3574 7.55184 11.3995 8.98522 10.1924 10.1924C8.98522 11.3995 7.55184 12.3574 5.97461 13.0107C4.39748 13.664 2.70706 14 1 14V1Z" fill="#505050"/>
<path d="M66.2148 36.7109H67.6211V38.6914H66.2148V41.5977H63.8828V38.6914H58V36.7109L63.5781 29H66.2148V36.7109ZM60.1445 36.7109H63.8828V31.7773L60.1445 36.7109Z" fill="black"/>
<path d="M23.9961 55C25.2695 55 26.2969 55.332 27.0781 55.9961C27.8672 56.6523 28.2617 57.5508 28.2617 58.6914C28.2617 59.4023 28.0938 60.1055 27.7578 60.8008C27.4297 61.4961 27.0078 62.1602 26.4922 62.793C25.9844 63.418 25.4453 63.9961 24.875 64.5273C24.3047 65.0508 23.7773 65.5078 23.293 65.8984H25.625C26.4844 65.8984 27.1133 65.8906 27.5117 65.875C27.918 65.8594 28.2969 65.8203 28.6484 65.7578V68.043H20.0352V66.1094C20.6367 65.6797 21.2656 65.1836 21.9219 64.6211C22.5859 64.0586 23.2031 63.4609 23.7734 62.8281C24.3516 62.1953 24.8203 61.5625 25.1797 60.9297C25.5469 60.2891 25.7305 59.6875 25.7305 59.125C25.7305 58.6094 25.5703 58.1602 25.25 57.7773C24.9375 57.3867 24.4453 57.1914 23.7734 57.1914C23.2344 57.1914 22.6602 57.3438 22.0508 57.6484C21.4492 57.9531 20.9531 58.3438 20.5625 58.8203L20 56.7109C20.3984 56.2188 20.9766 55.8125 21.7344 55.4922C22.5 55.1641 23.2539 55 23.9961 55ZM44.9961 55C46.2695 55 47.2969 55.332 48.0781 55.9961C48.8672 56.6523 49.2617 57.5508 49.2617 58.6914C49.2617 59.4023 49.0938 60.1055 48.7578 60.8008C48.4297 61.4961 48.0078 62.1602 47.4922 62.793C46.9844 63.418 46.4453 63.9961 45.875 64.5273C45.3047 65.0508 44.7773 65.5078 44.293 65.8984H46.625C47.4844 65.8984 48.1133 65.8906 48.5117 65.875C48.918 65.8594 49.2969 65.8203 49.6484 65.7578V68.043H41.0352V66.1094C41.6367 65.6797 42.2656 65.1836 42.9219 64.6211C43.5859 64.0586 44.2031 63.4609 44.7734 62.8281C45.3516 62.1953 45.8203 61.5625 46.1797 60.9297C46.5469 60.2891 46.7305 59.6875 46.7305 59.125C46.7305 58.6094 46.5703 58.1602 46.25 57.7773C45.9375 57.3867 45.4453 57.1914 44.7734 57.1914C44.2344 57.1914 43.6602 57.3438 43.0508 57.6484C42.4492 57.9531 41.9531 58.3438 41.5625 58.8203L41 56.7109C41.3984 56.2188 41.9766 55.8125 42.7344 55.4922C43.5 55.1641 44.2539 55 44.9961 55Z" fill="black"/>
<path d="M5.99609 39C7.26953 39 8.29688 39.332 9.07812 39.9961C9.86719 40.6523 10.2617 41.5508 10.2617 42.6914C10.2617 43.4023 10.0938 44.1055 9.75781 44.8008C9.42969 45.4961 9.00781 46.1602 8.49219 46.793C7.98438 47.418 7.44531 47.9961 6.875 48.5273C6.30469 49.0508 5.77734 49.5078 5.29297 49.8984H7.625C8.48438 49.8984 9.11328 49.8906 9.51172 49.875C9.91797 49.8594 10.2969 49.8203 10.6484 49.7578V52.043H2.03516V50.1094C2.63672 49.6797 3.26562 49.1836 3.92188 48.6211C4.58594 48.0586 5.20312 47.4609 5.77344 46.8281C6.35156 46.1953 6.82031 45.5625 7.17969 44.9297C7.54688 44.2891 7.73047 43.6875 7.73047 43.125C7.73047 42.6094 7.57031 42.1602 7.25 41.7773C6.9375 41.3867 6.44531 41.1914 5.77344 41.1914C5.23438 41.1914 4.66016 41.3438 4.05078 41.6484C3.44922 41.9531 2.95312 42.3438 2.5625 42.8203L2 40.7109C2.39844 40.2188 2.97656 39.8125 3.73438 39.4922C4.5 39.1641 5.25391 39 5.99609 39ZM5.99609 18C7.26953 18 8.29688 18.332 9.07812 18.9961C9.86719 19.6523 10.2617 20.5508 10.2617 21.6914C10.2617 22.4023 10.0938 23.1055 9.75781 23.8008C9.42969 24.4961 9.00781 25.1602 8.49219 25.793C7.98438 26.418 7.44531 26.9961 6.875 27.5273C6.30469 28.0508 5.77734 28.5078 5.29297 28.8984H7.625C8.48438 28.8984 9.11328 28.8906 9.51172 28.875C9.91797 28.8594 10.2969 28.8203 10.6484 28.7578V31.043H2.03516V29.1094C2.63672 28.6797 3.26562 28.1836 3.92188 27.6211C4.58594 27.0586 5.20312 26.4609 5.77344 25.8281C6.35156 25.1953 6.82031 24.5625 7.17969 23.9297C7.54688 23.2891 7.73047 22.6875 7.73047 22.125C7.73047 21.6094 7.57031 21.1602 7.25 20.7773C6.9375 20.3867 6.44531 20.1914 5.77344 20.1914C5.23438 20.1914 4.66016 20.3438 4.05078 20.6484C3.44922 20.9531 2.95312 21.3438 2.5625 21.8203L2 19.7109C2.39844 19.2188 2.97656 18.8125 3.73438 18.4922C4.5 18.1641 5.25391 18 5.99609 18Z" fill="black"/>
<path d="M23.9961 2C25.2695 2 26.2969 2.33203 27.0781 2.99609C27.8672 3.65234 28.2617 4.55078 28.2617 5.69141C28.2617 6.40234 28.0938 7.10547 27.7578 7.80078C27.4297 8.49609 27.0078 9.16016 26.4922 9.79297C25.9844 10.418 25.4453 10.9961 24.875 11.5273C24.3047 12.0508 23.7773 12.5078 23.293 12.8984H25.625C26.4844 12.8984 27.1133 12.8906 27.5117 12.875C27.918 12.8594 28.2969 12.8203 28.6484 12.7578V15.043H20.0352V13.1094C20.6367 12.6797 21.2656 12.1836 21.9219 11.6211C22.5859 11.0586 23.2031 10.4609 23.7734 9.82812C24.3516 9.19531 24.8203 8.5625 25.1797 7.92969C25.5469 7.28906 25.7305 6.6875 25.7305 6.125C25.7305 5.60938 25.5703 5.16016 25.25 4.77734C24.9375 4.38672 24.4453 4.19141 23.7734 4.19141C23.2344 4.19141 22.6602 4.34375 22.0508 4.64844C21.4492 4.95312 20.9531 5.34375 20.5625 5.82031L20 3.71094C20.3984 3.21875 20.9766 2.8125 21.7344 2.49219C22.5 2.16406 23.2539 2 23.9961 2ZM44.9961 2C46.2695 2 47.2969 2.33203 48.0781 2.99609C48.8672 3.65234 49.2617 4.55078 49.2617 5.69141C49.2617 6.40234 49.0938 7.10547 48.7578 7.80078C48.4297 8.49609 48.0078 9.16016 47.4922 9.79297C46.9844 10.418 46.4453 10.9961 45.875 11.5273C45.3047 12.0508 44.7773 12.5078 44.293 12.8984H46.625C47.4844 12.8984 48.1133 12.8906 48.5117 12.875C48.918 12.8594 49.2969 12.8203 49.6484 12.7578V15.043H41.0352V13.1094C41.6367 12.6797 42.2656 12.1836 42.9219 11.6211C43.5859 11.0586 44.2031 10.4609 44.7734 9.82812C45.3516 9.19531 45.8203 8.5625 46.1797 7.92969C46.5469 7.28906 46.7305 6.6875 46.7305 6.125C46.7305 5.60938 46.5703 5.16016 46.25 4.77734C45.9375 4.38672 45.4453 4.19141 44.7734 4.19141C44.2344 4.19141 43.6602 4.34375 43.0508 4.64844C42.4492 4.95312 41.9531 5.34375 41.5625 5.82031L41 3.71094C41.3984 3.21875 41.9766 2.8125 42.7344 2.49219C43.5 2.16406 44.2539 2 44.9961 2Z" fill="black"/>
</svg>
