<svg width="70" height="70" viewBox="0 0 70 70" fill="none" xmlns="http://www.w3.org/2000/svg">
<rect x="0.5" y="0.5" width="69" height="69" fill="#505050" stroke="white"/>
<path d="M34.0625 22C37.0469 22 39.3281 22.9766 40.9062 24.9297C42.5 26.8672 43.2969 30.1719 43.2969 34.8438C43.2969 38.0781 42.8906 40.6406 42.0781 42.5312C41.2656 44.4219 40.1406 45.7734 38.7031 46.5859C37.2656 47.3984 35.6016 47.8047 33.7109 47.8047C31.8516 47.8047 30.2266 47.3984 28.8359 46.5859C27.4453 45.7734 26.3672 44.4453 25.6016 42.6016C24.8516 40.7578 24.4766 38.2891 24.4766 35.1953C24.4766 31.9766 24.8828 29.4062 25.6953 27.4844C26.5234 25.5469 27.6562 24.1484 29.0938 23.2891C30.5469 22.4297 32.2031 22 34.0625 22ZM55.8594 22C58.8438 22 61.125 22.9766 62.7031 24.9297C64.2969 26.8672 65.0938 30.1719 65.0938 34.8438C65.0938 38.0781 64.6875 40.6406 63.875 42.5312C63.0625 44.4219 61.9375 45.7734 60.5 46.5859C59.0625 47.3984 57.3984 47.8047 55.5078 47.8047C53.6484 47.8047 52.0234 47.3984 50.6328 46.5859C49.2422 45.7734 48.1641 44.4453 47.3984 42.6016C46.6484 40.7578 46.2734 38.2891 46.2734 35.1953C46.2734 31.9766 46.6797 29.4062 47.4922 27.4844C48.3203 25.5469 49.4531 24.1484 50.8906 23.2891C52.3438 22.4297 54 22 55.8594 22ZM15.3828 39.0391C15.3828 39.7891 15.3906 40.7031 15.4062 41.7812C15.4375 42.8438 15.4766 43.8828 15.5234 44.8984C15.5859 45.9141 15.6562 46.7422 15.7344 47.3828H10.5547V27.2969L5.63281 29.9688L5 25.3984L10.5547 22.1875H15.3828V39.0391ZM33.8984 26.0312C30.9609 26.0312 29.4922 28.9453 29.4922 34.7734C29.4922 40.7891 30.9609 43.7969 33.8984 43.7969C36.8203 43.7969 38.2812 40.9609 38.2812 35.2891C38.2812 32.1484 37.9297 29.8203 37.2266 28.3047C36.5234 26.7891 35.4141 26.0312 33.8984 26.0312ZM55.6953 26.0312C52.7578 26.0312 51.2891 28.9453 51.2891 34.7734C51.2891 40.7891 52.7578 43.7969 55.6953 43.7969C58.6172 43.7969 60.0781 40.9609 60.0781 35.2891C60.0781 32.1484 59.7266 29.8203 59.0234 28.3047C58.3203 26.7891 57.2109 26.0312 55.6953 26.0312Z" fill="white"/>
</svg>
