<svg width="70" height="70" viewBox="0 0 70 70" fill="none" xmlns="http://www.w3.org/2000/svg">
<rect x="1" y="1" width="68" height="68" fill="#505050" stroke="white" stroke-width="2"/>
<path d="M46.5625 37.5469C46.5625 39.026 46.6458 40.2656 46.8125 41.2656C46.9792 42.2656 47.1875 43.0938 47.4375 43.75H44.2188C44.1354 43.5625 44.0312 43.2812 43.9062 42.9062C43.7812 42.5208 43.6719 42.1198 43.5781 41.7031C43.0469 42.4531 42.4427 43.0312 41.7656 43.4375C41.0885 43.8333 40.3438 44.0312 39.5312 44.0312C38.0833 44.0312 36.9115 43.5156 36.0156 42.4844C35.1198 41.4531 34.6719 40.0781 34.6719 38.3594C34.6719 36.974 34.9271 35.776 35.4375 34.7656C35.9583 33.7448 36.651 32.9583 37.5156 32.4062C38.3906 31.8438 39.3542 31.5625 40.4062 31.5625C40.8646 31.5625 41.3542 31.6667 41.875 31.875C42.3958 32.0729 42.8646 32.3021 43.2812 32.5625V29.2812C43.2812 28.3438 43.2604 27.5208 43.2188 26.8125C43.1771 26.0938 43.099 25.4896 42.9844 25H46.5625V37.5469ZM55.2031 31.5625C56.5156 31.5625 57.526 31.8594 58.2344 32.4531C58.9427 33.0365 59.4323 33.7812 59.7031 34.6875C59.9844 35.5938 60.125 36.5365 60.125 37.5156V38C60.1354 38.2083 60.1406 38.3698 60.1406 38.4844H52.5742C52.6484 39.4005 52.8875 40.0934 53.2969 40.5625C53.7969 41.125 54.5312 41.4062 55.5 41.4062C56.2708 41.4062 57.0208 41.3177 57.75 41.1406C58.4896 40.9635 59.224 40.6615 59.9531 40.2344L60.2031 42.875C59.3594 43.3021 58.5417 43.599 57.75 43.7656C56.9688 43.9427 56.1198 44.0312 55.2031 44.0312C54.1719 44.0312 53.2135 43.8021 52.3281 43.3438C51.4427 42.8854 50.724 42.2031 50.1719 41.2969C49.6302 40.3906 49.3594 39.276 49.3594 37.9531C49.3594 36.0156 49.8802 34.4688 50.9219 33.3125C51.974 32.1458 53.401 31.5625 55.2031 31.5625ZM13.5156 33.6719H20.4375V26.6406H23.9531C23.8594 27.1094 23.8021 27.7812 23.7812 28.6562C23.7708 29.5208 23.7656 30.5312 23.7656 31.6875V38.7188C23.7656 39.875 23.7708 40.8854 23.7812 41.75C23.8021 42.6146 23.8594 43.2812 23.9531 43.75H20.4375V36.3125H13.5156V43.75H10C10.0833 43.2812 10.1302 42.6146 10.1406 41.75C10.1615 40.8854 10.1719 39.875 10.1719 38.7188V31.6875C10.1719 30.5312 10.1615 29.5208 10.1406 28.6562C10.1302 27.7812 10.0833 27.1094 10 26.6406H13.5156V33.6719ZM31.3906 38.1875C31.3906 38.6875 31.3958 39.2969 31.4062 40.0156C31.4271 40.724 31.4531 41.4219 31.4844 42.1094C31.526 42.7865 31.5729 43.3333 31.625 43.75H28.1094V37.5469C28.1094 36.401 28.099 35.3125 28.0781 34.2812C28.0573 33.2396 28.0052 32.4115 27.9219 31.7969H31.3906V38.1875ZM40.4062 34.375C39.7917 34.375 39.2292 34.6979 38.7188 35.3438C38.2083 35.9792 37.9531 36.8698 37.9531 38.0156C37.9531 40.276 38.6927 41.4062 40.1719 41.4062C40.7969 41.4062 41.401 41.1615 41.9844 40.6719C42.5677 40.1823 43 39.6458 43.2812 39.0625V35.1094C42.7396 34.8385 42.2604 34.651 41.8438 34.5469C41.4375 34.4323 40.9583 34.375 40.4062 34.375ZM55.0469 34.0312C54.2031 34.0312 53.5729 34.3229 53.1562 34.9062C52.9137 35.2546 52.7462 35.7444 52.6484 36.375H57.1562C57.1562 35.5521 56.974 34.9583 56.6094 34.5938C56.2552 34.2188 55.7344 34.0312 55.0469 34.0312ZM29.75 25.4688C30.3438 25.4688 30.8333 25.6615 31.2188 26.0469C31.6042 26.4323 31.7969 26.9271 31.7969 27.5312C31.7969 28.1354 31.6042 28.6302 31.2188 29.0156C30.8333 29.3906 30.3438 29.5781 29.75 29.5781C29.1562 29.5781 28.6615 29.3906 28.2656 29.0156C27.8802 28.6302 27.6875 28.1354 27.6875 27.5312C27.6875 26.9271 27.8802 26.4323 28.2656 26.0469C28.6615 25.6615 29.1562 25.4688 29.75 25.4688Z" fill="white"/>
</svg>
