<svg width="70" height="70" viewBox="0 0 70 70" fill="none" xmlns="http://www.w3.org/2000/svg">
<rect x="0.5" y="0.5" width="69" height="69" fill="#505050" stroke="white"/>
<rect x="14" y="65" width="42" height="4" fill="white"/>
<rect x="5" y="5" width="60" height="60" fill="white"/>
<path d="M34.9961 55C36.2695 55 37.2969 55.332 38.0781 55.9961C38.8672 56.6523 39.2617 57.5508 39.2617 58.6914C39.2617 59.4023 39.0938 60.1055 38.7578 60.8008C38.4297 61.4961 38.0078 62.1602 37.4922 62.793C36.9844 63.418 36.4453 63.9961 35.875 64.5273C35.3047 65.0508 34.7773 65.5078 34.293 65.8984H36.625C37.4844 65.8984 38.1133 65.8906 38.5117 65.875C38.918 65.8594 39.2969 65.8203 39.6484 65.7578V68.043H31.0352V66.1094C31.6367 65.6797 32.2656 65.1836 32.9219 64.6211C33.5859 64.0586 34.2031 63.4609 34.7734 62.8281C35.3516 62.1953 35.8203 61.5625 36.1797 60.9297C36.5469 60.2891 36.7305 59.6875 36.7305 59.125C36.7305 58.6094 36.5703 58.1602 36.25 57.7773C35.9375 57.3867 35.4453 57.1914 34.7734 57.1914C34.2344 57.1914 33.6602 57.3438 33.0508 57.6484C32.4492 57.9531 31.9531 58.3438 31.5625 58.8203L31 56.7109C31.3984 56.2188 31.9766 55.8125 32.7344 55.4922C33.5 55.1641 34.2539 55 34.9961 55Z" fill="black"/>
<path d="M57.415 35.1562H58.8213V37.1367H57.415V40.043H55.083V37.1367H49.2002V35.1562L54.7783 27.4453H57.415V35.1562ZM51.3447 35.1562H55.083V30.2227L51.3447 35.1562Z" fill="black"/>
<circle cx="23" cy="35" r="11" fill="black"/>
<circle cx="23" cy="35" r="9" fill="white"/>
<path d="M24.6748 29.75C25.1278 29.75 25.5766 29.8382 25.9951 30.0098C26.4136 30.1813 26.7939 30.433 27.1143 30.75C27.4346 31.067 27.6889 31.4433 27.8623 31.8574C28.0357 32.2716 28.125 32.7157 28.125 33.1641C28.125 33.6124 28.0357 34.0565 27.8623 34.4707C27.6889 34.8849 27.4346 35.2611 27.1143 35.5781C26.7939 35.8951 26.4136 36.1468 25.9951 36.3184C25.6289 36.4684 25.2398 36.555 24.8447 36.5742L24.6748 36.5781H21.5703V40.6748H19.5V29.75H24.6748ZM21.5703 31.7988V34.5293H24.6748L24.8105 34.5225C24.9453 34.5094 25.0776 34.4772 25.2031 34.4258C25.3704 34.3572 25.5224 34.2565 25.6504 34.1299C25.7785 34.0031 25.8808 33.8522 25.9502 33.6865C26.0195 33.5209 26.0547 33.3433 26.0547 33.1641C26.0547 32.9848 26.0195 32.8072 25.9502 32.6416C25.8808 32.4759 25.7785 32.325 25.6504 32.1982C25.5224 32.0716 25.3704 31.9709 25.2031 31.9023C25.0357 31.8338 24.856 31.7988 24.6748 31.7988H21.5703Z" fill="black"/>
<rect x="7" y="7" width="2" height="56" fill="black"/>
<rect x="61" y="7" width="2" height="56" fill="black"/>
<rect x="62" y="7" width="2" height="55" transform="rotate(90 62 7)" fill="black"/>
<rect x="8" y="61" width="9" height="2" fill="black"/>
<rect x="16" y="61" width="2" height="8" fill="black"/>
<rect x="52" y="61" width="9" height="2" fill="black"/>
<rect x="52" y="61" width="2" height="8" fill="black"/>
<path d="M41.6569 33.3518L43.8327 31.1759L45.1378 32.481L42.962 34.6569L45.1378 36.8327L43.8327 38.1378L41.6569 35.962L39.481 38.1378L38.1759 36.8327L40.3517 34.6569L38.1759 32.481L39.481 31.1759L41.6569 33.3518Z" fill="black"/>
</svg>
