<svg width="70" height="70" viewBox="0 0 70 70" fill="none" xmlns="http://www.w3.org/2000/svg">
<rect x="1" y="1" width="68" height="68" fill="black" stroke="white" stroke-width="2"/>
<circle cx="24" cy="40" r="10" fill="white"/>
<circle cx="46" cy="40" r="10" fill="white"/>
<path d="M21 25H49L55 35H15L21 25Z" fill="white"/>
<path d="M30 25C30 24.4696 29.5786 23.9609 28.8284 23.5858C28.0783 23.2107 27.0609 23 26 23C24.9391 23 23.9217 23.2107 23.1716 23.5858C22.4214 23.9609 22 24.4696 22 25L26 25H30Z" fill="white"/>
<path d="M48 25C48 24.4696 47.5786 23.9609 46.8284 23.5858C46.0783 23.2107 45.0609 23 44 23C42.9391 23 41.9217 23.2107 41.1716 23.5858C40.4214 23.9609 40 24.4696 40 25L44 25H48Z" fill="white"/>
<path d="M38 25C38 24.2044 37.6839 23.4413 37.1213 22.8787C36.5587 22.3161 35.7956 22 35 22C34.2044 22 33.4413 22.3161 32.8787 22.8787C32.3161 23.4413 32 24.2044 32 25L35 25H38Z" fill="white"/>
<path d="M47 22C47 21.4696 46.6839 20.9609 46.1213 20.5858C45.5587 20.2107 44.7956 20 44 20C43.2044 20 42.4413 20.2107 41.8787 20.5858C41.3161 20.9609 41 21.4696 41 22L43.2673 22C43.2673 21.8705 43.3445 21.7462 43.4819 21.6546C43.6193 21.563 43.8057 21.5115 44 21.5115C44.1943 21.5115 44.3807 21.563 44.5181 21.6546C44.6555 21.7462 44.7327 21.8705 44.7327 22H47Z" fill="white"/>
<path d="M29 22C29 21.4696 28.6839 20.9609 28.1213 20.5858C27.5587 20.2107 26.7956 20 26 20C25.2044 20 24.4413 20.2107 23.8787 20.5858C23.3161 20.9609 23 21.4696 23 22L25.2673 22C25.2673 21.8705 25.3445 21.7462 25.4819 21.6546C25.6193 21.563 25.8057 21.5115 26 21.5115C26.1943 21.5115 26.3807 21.563 26.5181 21.6546C26.6555 21.7462 26.7327 21.8705 26.7327 22H29Z" fill="white"/>
<circle cx="46" cy="40" r="8" fill="black"/>
<circle cx="24" cy="40" r="8" fill="black"/>
<path d="M21.0003 35C19.5003 35.5 18.7709 36.4434 18.5004 38" stroke="white" stroke-linecap="round"/>
<ellipse cx="35" cy="28.5" rx="2.5" ry="1.5" fill="black"/>
</svg>
