<svg width="70" height="70" viewBox="0 0 70 70" fill="none" xmlns="http://www.w3.org/2000/svg">
<rect x="0.5" y="0.5" width="69" height="69" fill="#505050" stroke="white"/>
<rect x="14" y="1" width="42" height="68" fill="white"/>
<rect x="52" y="1" width="2" height="68" fill="black"/>
<rect x="16" y="1" width="2" height="68" fill="black"/>
<path d="M36 66H34V59H36V66ZM36 12H34V5H36V12Z" fill="black"/>
<path d="M36.2148 49.7109H37.6211V51.6914H36.2148V54.5977H33.8828V51.6914H28V49.7109L33.5781 42H36.2148V49.7109ZM30.1445 49.7109H33.8828V44.7773L30.1445 49.7109Z" fill="black"/>
<circle cx="35" cy="27" r="11" fill="black"/>
<circle cx="35" cy="27" r="9" fill="white"/>
<path d="M36.6748 21.75C37.1278 21.75 37.5766 21.8382 37.9951 22.0098C38.4136 22.1813 38.7939 22.433 39.1143 22.75C39.4346 23.067 39.6889 23.4433 39.8623 23.8574C40.0357 24.2716 40.125 24.7157 40.125 25.1641C40.125 25.6124 40.0357 26.0565 39.8623 26.4707C39.6889 26.8849 39.4346 27.2611 39.1143 27.5781C38.7939 27.8951 38.4136 28.1468 37.9951 28.3184C37.6289 28.4684 37.2398 28.555 36.8447 28.5742L36.6748 28.5781H33.5703V32.6748H31.5V21.75H36.6748ZM33.5703 23.7988V26.5293H36.6748L36.8105 26.5225C36.9453 26.5094 37.0776 26.4772 37.2031 26.4258C37.3704 26.3572 37.5224 26.2565 37.6504 26.1299C37.7785 26.0031 37.8808 25.8522 37.9502 25.6865C38.0195 25.5209 38.0547 25.3433 38.0547 25.1641C38.0547 24.9848 38.0195 24.8072 37.9502 24.6416C37.8808 24.4759 37.7785 24.325 37.6504 24.1982C37.5224 24.0716 37.3704 23.9709 37.2031 23.9023C37.0357 23.8338 36.856 23.7988 36.6748 23.7988H33.5703Z" fill="black"/>
</svg>
