<svg width="107" height="70" viewBox="0 0 107 70" fill="none" xmlns="http://www.w3.org/2000/svg">
<rect x="1" y="1" width="105" height="68" fill="black" stroke="white" stroke-width="2"/>
<path d="M82.1094 29.8438C83.4219 29.8438 84.5703 30.2266 85.5547 30.9922C86.539 31.7578 87.2969 32.8125 87.8281 34.1562C88.375 35.4843 88.6484 37.0079 88.6484 38.7266C88.6484 40.7265 88.2969 42.4688 87.5938 43.9531C86.8906 45.4218 85.9453 46.5547 84.7578 47.3516C83.5703 48.1484 82.2578 48.5469 80.8203 48.5469C79.8985 48.5469 79.0703 48.4062 78.3359 48.125C77.6016 47.8594 76.8203 47.4844 75.9922 47V50.75C75.9922 52.1562 76.0234 53.3125 76.0859 54.2188C76.1641 55.1406 76.2813 55.9766 76.4375 56.7266H71.0703V39.6172C71.0703 37.4298 71.0234 35.5625 70.9297 34.0156C70.8516 32.4688 70.6093 31.1953 70.2031 30.1953H75.0312C75.1562 30.4609 75.2813 30.8438 75.4062 31.3438C75.5469 31.8437 75.6563 32.461 75.7344 33.1953C76.5469 32.211 77.4922 31.4062 78.5703 30.7812C79.6641 30.1562 80.8438 29.8438 82.1094 29.8438ZM26.6797 22.0391C28.1641 22.0391 29.4922 22.1641 30.6641 22.4141C31.8516 22.6641 33.0703 23.0625 34.3203 23.6094L33.5234 28.2734C32.1485 27.5859 30.9453 27.0781 29.9141 26.75C28.8828 26.4219 27.7422 26.2578 26.4922 26.2578C25.3984 26.2578 24.5 26.5625 23.7969 27.1719C23.0938 27.7656 22.7422 28.4219 22.7422 29.1406C22.7422 29.6406 22.875 30.0782 23.1406 30.4531C23.4063 30.8281 23.9298 31.2032 24.7109 31.5781C25.5078 31.9375 26.6719 32.3594 28.2031 32.8438C30.5469 33.5625 32.3359 34.4922 33.5703 35.6328C34.8046 36.7734 35.4219 38.2735 35.4219 40.1328C35.4218 41.8202 34.9922 43.2969 34.1328 44.5625C33.2891 45.8124 32.1484 46.7891 30.7109 47.4922C29.2891 48.1953 27.7109 48.5469 25.9766 48.5469C24.1328 48.5469 22.4141 48.3281 20.8203 47.8906C19.2422 47.4531 17.9687 46.8906 17 46.2031L17.8906 41.375C19.1406 42.375 20.4453 43.1094 21.8047 43.5781C23.164 44.0312 24.5547 44.2578 25.9766 44.2578C27.1172 44.2578 28.1328 43.9531 29.0234 43.3438C29.9296 42.7344 30.3828 41.8671 30.3828 40.7422C30.3828 40.2422 30.2343 39.7812 29.9375 39.3594C29.6563 38.9375 29.0859 38.5078 28.2266 38.0703C27.3672 37.6328 26.0859 37.1484 24.3828 36.6172C22.5547 36.0391 21.1562 35.3984 20.1875 34.6953C19.2344 33.9922 18.5781 33.2109 18.2188 32.3516C17.875 31.4922 17.7031 30.539 17.7031 29.4922C17.7031 28.4454 18.0079 27.3437 18.6172 26.1875C19.2422 25.0313 20.211 24.0547 21.5234 23.2578C22.8516 22.4453 24.5703 22.0391 26.6797 22.0391ZM44.5625 36.7773L49.9766 30.1953H56.5625L48.1777 38.0479L57.1016 48.125H50.6328L44.5625 39.709V48.125H39.6406V28.2734C39.6406 26.3829 39.625 24.7265 39.5938 23.3047C39.5781 21.8673 39.5078 20.7656 39.3828 20H44.5625V36.7773ZM65.375 39.7812C65.375 40.5312 65.3828 41.4454 65.3984 42.5234C65.4297 43.5859 65.4688 44.6329 65.5156 45.6641C65.5781 46.6796 65.6484 47.5 65.7266 48.125H60.4531V38.8203C60.4531 37.1016 60.4375 35.4687 60.4062 33.9219C60.375 32.3595 60.2969 31.1172 60.1719 30.1953H65.375V39.7812ZM80.3516 34.0391C79.5703 34.0391 78.7734 34.3672 77.9609 35.0234C77.1485 35.6641 76.4922 36.6094 75.9922 37.8594V42.8516C76.8984 43.5234 77.5859 43.9688 78.0547 44.1875C78.5234 44.4062 79.0547 44.5156 79.6484 44.5156C80.7265 44.5156 81.6719 44.0468 82.4844 43.1094C83.3125 42.1563 83.7265 40.8749 83.7266 39.2656C83.7266 37.6719 83.4296 36.4062 82.8359 35.4688C82.2422 34.5156 81.4141 34.0391 80.3516 34.0391ZM62.9141 20.7031C63.8047 20.7031 64.5391 20.9922 65.1172 21.5703C65.6953 22.1484 65.9844 22.8907 65.9844 23.7969C65.9843 24.7031 65.6953 25.4453 65.1172 26.0234C64.5391 26.5859 63.8046 26.8672 62.9141 26.8672C62.0235 26.8672 61.2812 26.5859 60.6875 26.0234C60.1094 25.4453 59.8203 24.7031 59.8203 23.7969C59.8203 22.8907 60.1094 22.1484 60.6875 21.5703C61.2812 20.9922 62.0234 20.7031 62.9141 20.7031Z" fill="white"/>
</svg>
