<svg width="70" height="70" viewBox="0 0 70 70" fill="none" xmlns="http://www.w3.org/2000/svg">
<rect x="1" y="1" width="68" height="68" fill="black" stroke="white" stroke-width="2"/>
<path d="M28.7065 57.8856L27.791 50.5622C27.2952 50.3715 26.8279 50.1426 26.3893 49.8756C25.9507 49.6086 25.5216 49.3226 25.102 49.0174L18.2935 51.8781L12 41.0075L17.893 36.5448C17.8549 36.2778 17.8358 36.0203 17.8358 35.7724V34.2276C17.8358 33.9797 17.8549 33.7222 17.893 33.4552L12 28.9925L18.2935 18.1219L25.102 20.9826C25.5216 20.6775 25.9602 20.3914 26.4179 20.1244C26.8756 19.8574 27.3333 19.6285 27.791 19.4378L28.7065 12.1144H41.2935L42.209 19.4378C42.7048 19.6285 43.1721 19.8574 43.6107 20.1244C44.0493 20.3914 44.4784 20.6775 44.898 20.9826L51.7065 18.1219L58 28.9925L52.107 33.4552C52.1451 33.7222 52.1642 33.9797 52.1642 34.2276V35.7724C52.1642 36.0203 52.126 36.2778 52.0497 36.5448L57.9428 41.0075L51.6493 51.8781L44.898 49.0174C44.4784 49.3226 44.0398 49.6086 43.5821 49.8756C43.1244 50.1426 42.6667 50.3715 42.209 50.5622L41.2935 57.8856H28.7065ZM35.1144 43.01C37.3267 43.01 39.2148 42.228 40.7786 40.6642C42.3425 39.1003 43.1244 37.2123 43.1244 35C43.1244 32.7877 42.3425 30.8997 40.7786 29.3358C39.2148 27.772 37.3267 26.9901 35.1144 26.9901C32.864 26.9901 30.9664 27.772 29.4216 29.3358C27.8769 30.8997 27.1045 32.7877 27.1045 35C27.1045 37.2123 27.8769 39.1003 29.4216 40.6642C30.9664 42.228 32.864 43.01 35.1144 43.01Z" fill="white"/>
</svg>
