<svg width="70" height="70" viewBox="0 0 70 70" fill="none" xmlns="http://www.w3.org/2000/svg">
<rect x="0.5" y="0.5" width="69" height="69" fill="#505050" stroke="white"/>
<path d="M68 56C66.4243 56 64.864 56.3102 63.4082 56.9131C61.9523 57.5161 60.629 58.4003 59.5146 59.5146C58.4003 60.629 57.5161 61.9523 56.9131 63.4082C56.3102 64.864 56 66.4243 56 68H14C14 60.9086 15.3966 53.8865 18.1104 47.335C20.8241 40.7834 24.8021 34.8308 29.8164 29.8164C34.8308 24.8021 40.7834 20.8241 47.335 18.1104C53.8865 15.3966 60.9086 14 68 14V56Z" fill="white"/>
<path d="M68 18C61.4341 18 54.9324 19.2931 48.8662 21.8057C42.7999 24.3184 37.2875 28.0016 32.6445 32.6445C28.0016 37.2875 24.3184 42.7999 21.8057 48.8662C19.2931 54.9324 18 61.4341 18 68H16C16 61.1713 17.3448 54.4095 19.958 48.1006C22.5713 41.7917 26.4018 36.0591 31.2305 31.2305C36.0591 26.4018 41.7917 22.5713 48.1006 19.958C54.4095 17.3448 61.1713 16 68 16V18Z" fill="black"/>
<path d="M68 54C66.1616 54 64.3411 54.3619 62.6426 55.0654C60.944 55.769 59.4006 56.8006 58.1006 58.1006C56.8006 59.4006 55.769 60.944 55.0654 62.6426C54.3619 64.3411 54 66.1616 54 68H52C52 65.8989 52.4137 63.8182 53.2178 61.877C54.0218 59.9358 55.2008 58.1723 56.6865 56.6865C58.1723 55.2008 59.9358 54.0218 61.877 53.2178C63.8182 52.4137 65.8989 52 68 52V54Z" fill="black"/>
<rect x="68" y="14" width="1" height="42" fill="white"/>
<rect x="14" y="68" width="42" height="1" fill="white"/>
<rect x="52" y="68" width="2" height="1" fill="black"/>
<rect x="16" y="68" width="2" height="1" fill="black"/>
<rect x="69" y="16" width="2" height="1" transform="rotate(90 69 16)" fill="black"/>
<rect x="69" y="52" width="2" height="1" transform="rotate(90 69 52)" fill="black"/>
<path d="M69 36C67.2228 36 65.4531 36.146 63.707 36.4297L63.3906 34.4541C65.241 34.1536 67.1166 34 69 34V36Z" fill="black"/>
<path d="M36.416 63.7861C36.1408 65.5065 36 67.2497 36 69H34C34 67.1438 34.1495 65.2951 34.4414 63.4707L36.416 63.7861ZM34.8154 61.4932C34.8271 61.4398 34.8377 61.3863 34.8496 61.333L34.8701 61.2451C34.8514 61.3277 34.8336 61.4105 34.8154 61.4932ZM35.2314 59.7988C35.2432 59.7556 35.2546 59.7122 35.2666 59.6689L35.2871 59.5967C35.2683 59.664 35.2498 59.7314 35.2314 59.7988ZM39.7861 53.6562C39.3218 54.5403 38.8952 55.4454 38.5117 56.3711C38.071 57.4352 37.6884 58.52 37.3623 59.6201L35.4453 59.0518C35.7912 57.8852 36.1967 56.7348 36.6641 55.6064C37.0708 54.6245 37.5231 53.6643 38.0156 52.7266L39.7861 53.6562ZM43.7881 44.7236C43.695 44.8203 43.6027 44.9179 43.5107 45.0156C43.6027 44.9179 43.695 44.8204 43.7881 44.7236ZM44.1641 44.3389C44.1931 44.3096 44.2218 44.2801 44.251 44.251C44.2861 44.2158 44.3221 44.1815 44.3574 44.1465C44.2929 44.2105 44.2281 44.2744 44.1641 44.3389ZM46.9551 41.8154C46.8593 41.8931 46.7639 41.9712 46.6689 42.0498C46.7639 41.9711 46.8593 41.8931 46.9551 41.8154ZM58.1338 37.8418C57.5408 38.0486 56.9526 38.2708 56.3711 38.5117C54.965 39.0942 53.6047 39.7731 52.2979 40.54L51.2861 38.8154C52.6723 38.002 54.1151 37.2818 55.6064 36.6641C56.2228 36.4088 56.8462 36.1733 57.4746 35.9541L58.1338 37.8418ZM69 36C66.8261 36 64.6627 36.2143 62.541 36.6377L62.1504 34.6768C64.4004 34.2277 66.6945 34 69 34V36ZM58.1484 35.7246C58.0509 35.7564 57.9537 35.7896 57.8564 35.8223C57.9537 35.7896 58.0509 35.7564 58.1484 35.7246Z" fill="black"/>
<rect x="34" y="48" width="10" height="12" fill="white"/>
<rect x="49" y="35" width="10" height="10" fill="white"/>
<path d="M38.9961 48C40.2695 48 41.2969 48.332 42.0781 48.9961C42.8672 49.6523 43.2617 50.5508 43.2617 51.6914C43.2617 52.4023 43.0938 53.1055 42.7578 53.8008C42.4297 54.4961 42.0078 55.1602 41.4922 55.793C40.9844 56.418 40.4453 56.9961 39.875 57.5273C39.3047 58.0508 38.7773 58.5078 38.293 58.8984H40.625C41.4844 58.8984 42.1133 58.8906 42.5117 58.875C42.918 58.8594 43.2969 58.8203 43.6484 58.7578V61.043H35.0352V59.1094C35.6367 58.6797 36.2656 58.1836 36.9219 57.6211C37.5859 57.0586 38.2031 56.4609 38.7734 55.8281C39.3516 55.1953 39.8203 54.5625 40.1797 53.9297C40.5469 53.2891 40.7305 52.6875 40.7305 52.125C40.7305 51.6094 40.5703 51.1602 40.25 50.7773C39.9375 50.3867 39.4453 50.1914 38.7734 50.1914C38.2344 50.1914 37.6602 50.3438 37.0508 50.6484C36.4492 50.9531 35.9531 51.3438 35.5625 51.8203L35 49.7109C35.3984 49.2188 35.9766 48.8125 36.7344 48.4922C37.5 48.1641 38.2539 48 38.9961 48Z" fill="black"/>
<path d="M65 42H60V43L61 44V44.5H57V44L58 43V42H42V43L43 44V44.5H39V44L40 43V42H35V40H65V42Z" fill="black"/>
<path d="M37.5 40.4997C44 32 56 32.0001 62.5 40.4997" stroke="black"/>
<path d="M58 36.5L60 37.5V40H58V36.5Z" fill="black"/>
<path d="M40 37.5L42 36.5V40H40V37.5Z" fill="black"/>
<rect x="44" y="35" width="1" height="5" fill="black"/>
<rect x="55" y="35" width="1" height="5" fill="black"/>
<rect x="52.2002" y="34" width="1" height="6" fill="black"/>
<rect x="46.7998" y="34" width="1" height="6" fill="black"/>
<rect x="49.5" y="34" width="1" height="6" fill="black"/>
</svg>
