<svg width="35" height="35" viewBox="0 0 35 35" fill="none" xmlns="http://www.w3.org/2000/svg">
<rect x="0.5" y="0.5" width="34" height="34" fill="black" stroke="white"/>
<circle cx="17.5" cy="17.5" r="11" fill="white"/>
<circle cx="17.5" cy="17.5" r="9" fill="black"/>
<path d="M19.1748 12.25C19.6278 12.25 20.0766 12.3382 20.4951 12.5098C20.9136 12.6813 21.2939 12.933 21.6143 13.25C21.9346 13.567 22.1889 13.9433 22.3623 14.3574C22.5357 14.7716 22.625 15.2157 22.625 15.6641C22.625 16.1124 22.5357 16.5565 22.3623 16.9707C22.1889 17.3849 21.9346 17.7611 21.6143 18.0781C21.2939 18.3951 20.9136 18.6468 20.4951 18.8184C20.1289 18.9684 19.7398 19.055 19.3447 19.0742L19.1748 19.0781H16.0703V23.1748H14V12.25H19.1748ZM16.0703 14.2988V17.0293H19.1748L19.3105 17.0225C19.4453 17.0094 19.5776 16.9772 19.7031 16.9258C19.8704 16.8572 20.0224 16.7565 20.1504 16.6299C20.2785 16.5031 20.3808 16.3522 20.4502 16.1865C20.5195 16.0209 20.5547 15.8433 20.5547 15.6641C20.5547 15.4848 20.5195 15.3072 20.4502 15.1416C20.3808 14.9759 20.2785 14.825 20.1504 14.6982C20.0224 14.5716 19.8704 14.4709 19.7031 14.4023C19.5357 14.3338 19.356 14.2988 19.1748 14.2988H16.0703Z" fill="white"/>
</svg>
