<svg width="70" height="70" viewBox="0 0 70 70" fill="none" xmlns="http://www.w3.org/2000/svg">
<rect x="1" y="1" width="68" height="68" fill="black" stroke="white" stroke-width="2"/>
<path d="M27.5 45.5C30.5376 45.5 33 47.9624 33 51C33 54.0376 30.5376 56.5 27.5 56.5C24.4624 56.5 22 54.0376 22 51C22 47.9624 24.4624 45.5 27.5 45.5ZM44.5 45.5C47.5376 45.5 50 47.9624 50 51C50 54.0376 47.5376 56.5 44.5 56.5C41.4624 56.5 39 54.0376 39 51C39 47.9624 41.4624 45.5 44.5 45.5ZM27.5 48.5C26.1193 48.5 25 49.6193 25 51C25 52.3807 26.1193 53.5 27.5 53.5C28.8807 53.5 30 52.3807 30 51C30 49.6193 28.8807 48.5 27.5 48.5ZM44.5 48.5C43.1193 48.5 42 49.6193 42 51C42 52.3807 43.1193 53.5 44.5 53.5C45.8807 53.5 47 52.3807 47 51C47 49.6193 45.8807 48.5 44.5 48.5ZM20.5 23.5H34.5V15.5H36.5V23.5H53.5L48.5 42.5H23L18 23.5L16 15.5H13V13H18L20.5 23.5ZM25 40H46.5L50 26H36.5V28.5H41.2734L35.5 38.5L29.7266 28.5H34.5V26H21.5L25 40Z" fill="white"/>
<rect x="36.5" y="23" width="4.5" height="3" fill="black"/>
<rect x="30" y="23" width="4.5" height="3" fill="black"/>
</svg>
