<svg width="70" height="70" viewBox="0 0 70 70" fill="none" xmlns="http://www.w3.org/2000/svg">
<rect x="1" y="1" width="68" height="68" fill="black" stroke="white" stroke-width="2"/>
<path d="M54.9998 19V31M54.9998 31H42.9998M54.9998 31L45.7398 22.28C42.981 19.5195 39.3997 17.7304 35.5357 17.1823C31.6716 16.6342 27.7341 17.3568 24.3165 19.2413C20.8988 21.1257 18.1863 24.0699 16.5875 27.6301C14.9887 31.1904 14.5904 35.1738 15.4525 38.9801C16.3146 42.7864 18.3905 46.2094 21.3673 48.7333C24.3441 51.2572 28.0605 52.7452 31.9566 52.9732C35.8527 53.2011 39.7173 52.1566 42.9681 49.997C46.2189 47.8374 48.6797 44.6798 49.9798 41" stroke="white" stroke-width="4" stroke-linecap="round" stroke-linejoin="round"/>
</svg>
