<svg width="70" height="70" viewBox="0 0 70 70" fill="none" xmlns="http://www.w3.org/2000/svg">
<rect x="0.5" y="0.5" width="69" height="69" fill="#505050" stroke="white"/>
<rect x="14" y="1" width="42" height="68" fill="white"/>
<path d="M34.9961 53C36.2695 53 37.2969 53.332 38.0781 53.9961C38.8672 54.6523 39.2617 55.5508 39.2617 56.6914C39.2617 57.4023 39.0938 58.1055 38.7578 58.8008C38.4297 59.4961 38.0078 60.1602 37.4922 60.793C36.9844 61.418 36.4453 61.9961 35.875 62.5273C35.3047 63.0508 34.7773 63.5078 34.293 63.8984H36.625C37.4844 63.8984 38.1133 63.8906 38.5117 63.875C38.918 63.8594 39.2969 63.8203 39.6484 63.7578V66.043H31.0352V64.1094C31.6367 63.6797 32.2656 63.1836 32.9219 62.6211C33.5859 62.0586 34.2031 61.4609 34.7734 60.8281C35.3516 60.1953 35.8203 59.5625 36.1797 58.9297C36.5469 58.2891 36.7305 57.6875 36.7305 57.125C36.7305 56.6094 36.5703 56.1602 36.25 55.7773C35.9375 55.3867 35.4453 55.1914 34.7734 55.1914C34.2344 55.1914 33.6602 55.3438 33.0508 55.6484C32.4492 55.9531 31.9531 56.3438 31.5625 56.8203L31 54.7109C31.3984 54.2188 31.9766 53.8125 32.7344 53.4922C33.5 53.1641 34.2539 53 34.9961 53Z" fill="black"/>
<path d="M38.2148 11.7109H39.6211V13.6914H38.2148V16.5977H35.8828V13.6914H30V11.7109L35.5781 4H38.2148V11.7109ZM32.1445 11.7109H35.8828V6.77734L32.1445 11.7109Z" fill="black"/>
<rect x="16" y="1" width="2" height="68" fill="black"/>
<rect x="52" y="1" width="2" height="68" fill="black"/>
<rect x="67" y="24.0049" width="22" height="64" transform="rotate(90 67 24.0049)" fill="black"/>
<path d="M49.8262 28.4214C50.5761 28.4214 51.2989 28.4995 51.9941 28.6558C52.6894 28.8042 53.4434 29.1363 54.2559 29.6519L53.5059 31.7378C52.8888 31.3082 52.2636 30.9995 51.6309 30.812C51.0059 30.6245 50.3808 30.5308 49.7559 30.5308C48.5918 30.5308 47.6621 30.9292 46.9668 31.7261C46.2794 32.5229 45.9355 33.5895 45.9355 34.9253C45.9356 36.347 46.252 37.4723 46.8848 38.3003C47.5175 39.1204 48.3537 39.5308 49.3926 39.5308C49.9003 39.5308 50.3575 39.4878 50.7637 39.4019C51.1777 39.3081 51.6387 39.1362 52.1465 38.8862V36.5425H49.3809V34.5737H54.3848V40.105C53.4395 40.7377 52.584 41.1597 51.8184 41.3706C51.0606 41.5737 50.2753 41.6753 49.4629 41.6753C48.2911 41.6753 47.2519 41.4252 46.3457 40.9253C45.4396 40.4176 44.7246 39.679 44.2012 38.7104C43.6856 37.734 43.4278 36.5423 43.4277 35.1362C43.4277 33.7301 43.7052 32.5268 44.2598 31.5269C44.8223 30.5269 45.5879 29.7612 46.5566 29.23C47.5254 28.6909 48.6152 28.4214 49.8262 28.4214ZM8.57617 28.6323L11.5762 39.0503L14.5996 28.6323H17.6699L17.6934 29.2417C17.709 29.6479 17.7285 30.1912 17.752 30.8706C17.7754 31.5424 17.8027 32.2966 17.834 33.1323C17.8652 33.9681 17.9004 34.82 17.9395 35.687C17.9785 36.554 18.0176 37.3825 18.0566 38.1714C18.0957 38.9524 18.1348 39.6363 18.1738 40.2222C18.2129 40.8001 18.252 41.2144 18.291 41.4644H15.9121L15.7021 31.5112L12.877 41.4644H10.2871L7.44824 31.5054L7.2168 41.4644H4.83789C4.86913 41.2144 4.90431 40.8001 4.94336 40.2222C4.98241 39.6363 5.02149 38.9525 5.06055 38.1714C5.0996 37.3825 5.13868 36.554 5.17773 35.687C5.21679 34.82 5.25196 33.9681 5.2832 33.1323C5.32226 32.2966 5.35352 31.5424 5.37695 30.8706C5.40038 30.1912 5.41992 29.6479 5.43555 29.2417L5.45898 28.6323H8.57617ZM29.2598 30.6597H23.7871V33.7769H28.5918V35.7573H23.7871V39.4487H26.0605C26.8964 39.4487 27.5957 39.4409 28.1582 39.4253C28.7285 39.4097 29.1817 39.3745 29.5176 39.3198V41.4644H21.1504C21.2129 41.1129 21.248 40.6048 21.2559 39.9409C21.2715 39.277 21.2793 38.511 21.2793 37.644V32.4644C21.2793 31.5974 21.2715 30.8314 21.2559 30.1675C21.2481 29.4959 21.2128 28.9839 21.1504 28.6323H29.2598V30.6597ZM36.209 28.5503C37.5761 28.5503 38.6856 28.8628 39.5371 29.4878C40.3963 30.1128 40.8262 31.0583 40.8262 32.3237C40.8261 33.2532 40.5956 34.0152 40.1348 34.6089C39.6817 35.1947 39.0839 35.6285 38.3418 35.9097C38.28 35.9333 38.2169 35.9534 38.1543 35.9751C38.3242 36.2107 38.532 36.5012 38.7754 36.8472C39.08 37.2689 39.4083 37.7223 39.7598 38.2065C40.1112 38.6908 40.4513 39.1637 40.7793 39.6245C41.1151 40.0775 41.4083 40.4723 41.6582 40.8081C41.9159 41.136 42.0918 41.355 42.1855 41.4644H39.0684L35.6826 36.3315H34.4512V37.644C34.4512 38.511 34.459 39.2809 34.4746 39.9526C34.4902 40.6165 34.5254 41.1207 34.5801 41.4644H31.8145C31.8769 41.1129 31.9121 40.6048 31.9199 39.9409C31.9355 39.277 31.9434 38.511 31.9434 37.644V32.6753C31.9434 31.8161 31.9355 31.015 31.9199 30.2729C31.9121 29.5311 31.8769 28.9839 31.8145 28.6323L32.4824 28.6089C32.9355 28.5933 33.4981 28.5815 34.1699 28.5737C34.8496 28.5581 35.5293 28.5503 36.209 28.5503ZM65.002 30.6597H59.5293V33.7769H64.334V35.7573H59.5293V39.4487H61.8027C62.6386 39.4487 63.3379 39.4409 63.9004 39.4253C64.4706 39.4097 64.9239 39.3745 65.2598 39.3198V41.4644H56.8926C56.9551 41.1129 56.9902 40.6048 56.998 39.9409C57.0137 39.277 57.0215 38.511 57.0215 37.644V32.4644C57.0215 31.5974 57.0137 30.8314 56.998 30.1675C56.9902 29.4959 56.955 28.9839 56.8926 28.6323H65.002V30.6597ZM35.0957 30.5425C34.9004 30.5425 34.6855 30.5503 34.4512 30.5659V34.4331H35.8105C36.5839 34.4331 37.1934 34.2846 37.6387 33.9878C38.0917 33.6832 38.3183 33.1438 38.3184 32.3706C38.3184 31.7067 38.1111 31.2339 37.6973 30.9526C37.2832 30.6714 36.6855 30.5308 35.9043 30.5308C35.5606 30.5308 35.291 30.5347 35.0957 30.5425Z" fill="white"/>
</svg>
