<svg width="70" height="70" viewBox="0 0 70 70" fill="none" xmlns="http://www.w3.org/2000/svg">
<rect x="1" y="1" width="68" height="68" fill="black" stroke="white" stroke-width="2"/>
<rect x="10.5" y="10.5" width="24" height="24" fill="black" stroke="white"/>
<rect x="35" y="10" width="25" height="25" fill="white"/>
<rect x="-0.5" y="0.5" width="24" height="24" transform="matrix(-1 0 0 1 59 35)" fill="black" stroke="white"/>
<rect width="25" height="25" transform="matrix(-1 0 0 1 35 35)" fill="white"/>
<path d="M49.2119 39.2712C49.6386 39.2997 50.0503 39.3438 50.4463 39.406C51.1754 39.5206 51.8891 39.7446 52.5869 40.0779L51.915 42.8904C51.4984 42.4321 50.9254 42.0987 50.1963 41.8904C49.8704 41.7973 49.542 41.7261 49.2119 41.6746V46.0203C49.991 46.3557 50.6792 46.6965 51.2744 47.0466C51.9931 47.4633 52.5453 47.9581 52.9307 48.531C53.3265 49.0934 53.5244 49.802 53.5244 50.656C53.5244 51.6975 53.2482 52.5779 52.6963 53.2966C52.1443 54.0153 51.4201 54.5623 50.5244 54.9373C49.9966 55.1608 49.4441 55.3157 48.8682 55.406V58.0779H46.8682V55.4773C46.0185 55.4306 45.2268 55.3085 44.4932 55.1091C43.5453 54.8487 42.7952 54.4945 42.2432 54.0466L43.0869 51.0154C43.6807 51.6195 44.3786 52.1091 45.1807 52.4841C45.7308 52.7342 46.2935 52.8958 46.8682 52.9744V48.0916C45.4501 47.5 44.3871 46.8875 43.6807 46.2498C42.9307 45.5727 42.5557 44.6873 42.5557 43.5935C42.5557 42.8644 42.7693 42.1663 43.1963 41.4998C43.6234 40.8332 44.2485 40.2914 45.0713 39.8748C45.6856 39.556 46.4043 39.3559 47.2275 39.2751V36.7498H49.2119V39.2712ZM48.8682 52.9158C49.2655 52.8326 49.6149 52.7056 49.915 52.531C50.4877 52.1977 50.7744 51.6819 50.7744 50.9841C50.7744 50.6405 50.6806 50.3382 50.4932 50.0779C50.3161 49.8175 49.967 49.5466 49.4463 49.2654C49.2795 49.172 49.0862 49.0737 48.8682 48.9675V52.9158ZM47.2275 41.6267C46.7258 41.6941 46.3142 41.8327 45.9932 42.0466C45.5349 42.3487 45.3057 42.7707 45.3057 43.3123C45.3057 43.5935 45.389 43.8487 45.5557 44.0779C45.7327 44.307 46.0661 44.557 46.5557 44.8279C46.7455 44.9268 46.9701 45.0341 47.2275 45.1541V41.6267Z" fill="white"/>
</svg>
