<svg width="70" height="70" viewBox="0 0 70 70" fill="none" xmlns="http://www.w3.org/2000/svg">
<rect x="1" y="1" width="68" height="68" fill="#505050" stroke="white" stroke-width="2"/>
<path d="M11.4531 26.3594C12.4427 26.3594 13.3281 26.4427 14.1094 26.6094C14.901 26.776 15.7135 27.0417 16.5469 27.4062L16.0156 30.5156C15.099 30.0573 14.2969 29.7188 13.6094 29.5C12.9219 29.2812 12.1615 29.1719 11.3281 29.1719C10.599 29.1719 10 29.375 9.53125 29.7812C9.0625 30.1771 8.82812 30.6146 8.82812 31.0938C8.82812 31.4271 8.91667 31.7188 9.09375 31.9688C9.27083 32.2188 9.61979 32.4688 10.1406 32.7188C10.6719 32.9583 11.4479 33.2396 12.4688 33.5625C14.0312 34.0417 15.224 34.6615 16.0469 35.4219C16.8698 36.1823 17.2812 37.1823 17.2812 38.4219C17.2812 39.5469 16.9948 40.5312 16.4219 41.375C15.8594 42.2083 15.099 42.8594 14.1406 43.3281C13.1927 43.7969 12.1406 44.0312 10.9844 44.0312C9.75521 44.0312 8.60938 43.8854 7.54688 43.5938C6.49479 43.3021 5.64583 42.9271 5 42.4688L5.59375 39.25C6.42708 39.9167 7.29688 40.4062 8.20312 40.7188C9.10938 41.0208 10.0365 41.1719 10.9844 41.1719C11.7448 41.1719 12.4219 40.9688 13.0156 40.5625C13.6198 40.1562 13.9219 39.5781 13.9219 38.8281C13.9219 38.4948 13.8229 38.1875 13.625 37.9062C13.4375 37.625 13.0573 37.3385 12.4844 37.0469C11.9115 36.7552 11.0573 36.4323 9.92188 36.0781C8.70312 35.6927 7.77083 35.2656 7.125 34.7969C6.48958 34.3281 6.05208 33.8073 5.8125 33.2344C5.58333 32.6615 5.46875 32.026 5.46875 31.3281C5.46875 30.6302 5.67188 29.8958 6.07812 29.125C6.49479 28.3542 7.14062 27.7031 8.01562 27.1719C8.90104 26.6302 10.0469 26.3594 11.4531 26.3594ZM39.8906 31.5625C41.5469 31.5625 42.8958 32.099 43.9375 33.1719C44.9896 34.2448 45.5156 35.7917 45.5156 37.8125C45.5156 39.1562 45.2448 40.2917 44.7031 41.2188C44.1719 42.1354 43.4635 42.8333 42.5781 43.3125C41.6927 43.7917 40.7188 44.0312 39.6562 44.0312C38.0104 44.0312 36.6615 43.5 35.6094 42.4375C34.5573 41.3646 34.0312 39.8229 34.0312 37.8125C34.0312 36.4688 34.2969 35.3333 34.8281 34.4062C35.3698 33.4792 36.0833 32.776 36.9688 32.2969C37.8646 31.8073 38.8385 31.5625 39.8906 31.5625ZM23.375 33.7969C23.9479 33.0573 24.6406 32.5 25.4531 32.125C26.276 31.75 27.1042 31.5625 27.9375 31.5625C30.3229 31.5625 31.5156 33.1875 31.5156 36.4375V43.75H28.2344V37.3125C28.2344 36.1667 28.0885 35.401 27.7969 35.0156C27.5052 34.6302 27.0469 34.4375 26.4219 34.4375C25.7552 34.4375 25.1302 34.7083 24.5469 35.25C23.974 35.7812 23.5833 36.349 23.375 36.9531V43.75H20.0938V30.5156C20.0938 29.2552 20.0833 28.151 20.0625 27.2031C20.0521 26.2448 20.0052 25.5104 19.9219 25H23.375V33.7969ZM52.2031 40.4219L54.3594 31.7969H57.1719L59.3438 40.4219L61.1875 31.7969H64.5625C64.2917 32.6823 64.0677 33.4219 63.8906 34.0156C63.724 34.6094 63.5365 35.2604 63.3281 35.9688L61.1562 43.75H57.7656L55.7656 35.6094L53.7812 43.75H50.375L48.2188 35.9688C48.0417 35.3438 47.8594 34.7188 47.6719 34.0938C47.4844 33.4583 47.2552 32.6927 46.9844 31.7969H50.3594L52.2031 40.4219ZM39.7812 34.2031C39.0208 34.2031 38.4167 34.526 37.9688 35.1719C37.5312 35.8073 37.3125 36.6875 37.3125 37.8125C37.3125 38.9271 37.5208 39.8073 37.9375 40.4531C38.3646 41.0885 38.9792 41.4062 39.7812 41.4062C40.5312 41.4062 41.125 41.0885 41.5625 40.4531C42.0104 39.8073 42.2344 38.9271 42.2344 37.8125C42.2344 36.6875 42.026 35.8073 41.6094 35.1719C41.1927 34.526 40.5833 34.2031 39.7812 34.2031Z" fill="white"/>
</svg>
