<svg width="70" height="70" viewBox="0 0 70 70" fill="none" xmlns="http://www.w3.org/2000/svg">
<rect x="0.5" y="0.5" width="69" height="69" fill="#505050" stroke="white"/>
<rect x="1" y="1" width="68" height="68" fill="white"/>
<path d="M69 69H56C56 67.2929 56.336 65.6025 56.9893 64.0254C57.6426 62.4482 58.6005 61.0148 59.8076 59.8076C61.0148 58.6005 62.4482 57.6426 64.0254 56.9893C65.6025 56.336 67.2929 56 69 56V69Z" fill="#505050"/>
<path d="M1 69V56C2.70706 56 4.39748 56.336 5.97461 56.9893C7.55184 57.6426 8.98522 58.6005 10.1924 59.8076C11.3995 61.0148 12.3574 62.4482 13.0107 64.0254C13.664 65.6025 14 67.2929 14 69H1Z" fill="#505050"/>
<path d="M69 1V14C67.2929 14 65.6025 13.664 64.0254 13.0107C62.4482 12.3574 61.0148 11.3995 59.8076 10.1924C58.6005 8.98522 57.6426 7.55184 56.9893 5.97461C56.336 4.39748 56 2.70706 56 1H69Z" fill="#505050"/>
<path d="M1 1H14C14 2.70706 13.664 4.39748 13.0107 5.97461C12.3574 7.55184 11.3995 8.98522 10.1924 10.1924C8.98522 11.3995 7.55184 12.3574 5.97461 13.0107C4.39748 13.664 2.70706 14 1 14V1Z" fill="#505050"/>
<path d="M37.2148 63.7109H38.6211V65.6914H37.2148V68.5977H34.8828V65.6914H29V63.7109L34.5781 56H37.2148V63.7109ZM31.1445 63.7109H34.8828V58.7773L31.1445 63.7109Z" fill="black"/>
<path d="M37.2148 9.71094H38.6211V11.6914H37.2148V14.5977H34.8828V11.6914H29V9.71094L34.5781 2H37.2148V9.71094ZM31.1445 9.71094H34.8828V4.77734L31.1445 9.71094Z" fill="black"/>
<path d="M10.2148 36.7109H11.6211V38.6914H10.2148V41.5977H7.88281V38.6914H2V36.7109L7.57812 29H10.2148V36.7109ZM4.14453 36.7109H7.88281V31.7773L4.14453 36.7109Z" fill="black"/>
<path d="M66.2148 36.7109H67.6211V38.6914H66.2148V41.5977H63.8828V38.6914H58V36.7109L63.5781 29H66.2148V36.7109ZM60.1445 36.7109H63.8828V31.7773L60.1445 36.7109Z" fill="black"/>
</svg>
