<svg width="35" height="35" viewBox="0 0 35 35" fill="none" xmlns="http://www.w3.org/2000/svg">
<circle cx="17.5" cy="17.5" r="16.5" fill="black" stroke="white" stroke-width="2"/>
<path d="M18.9717 20.9238C18.9717 21.3926 18.9766 21.9639 18.9863 22.6377C19.0059 23.3018 19.0303 23.9561 19.0596 24.6006C19.0986 25.2354 19.1426 25.748 19.1914 26.1387H15.8955V20.3232C15.8955 19.249 15.8857 18.2285 15.8662 17.2617C15.8467 16.2852 15.7979 15.5088 15.7197 14.9326H18.9717V20.9238ZM17.4336 9C17.9902 9 18.4492 9.18066 18.8105 9.54199C19.1719 9.90332 19.3525 10.3672 19.3525 10.9336C19.3525 11.5 19.1719 11.9639 18.8105 12.3252C18.4492 12.6768 17.9902 12.8525 17.4336 12.8525C16.877 12.8525 16.4131 12.6768 16.042 12.3252C15.6807 11.9639 15.5 11.5 15.5 10.9336C15.5 10.3672 15.6807 9.90332 16.042 9.54199C16.4131 9.18066 16.877 9 17.4336 9Z" fill="white"/>
</svg>
