<svg width="70" height="70" viewBox="0 0 70 70" fill="none" xmlns="http://www.w3.org/2000/svg">
<rect x="1" y="1" width="68" height="68" fill="black" stroke="white" stroke-width="2"/>
<path d="M50.3987 17.4386C51.166 16.6441 52.4322 16.6221 53.2267 17.3894L57.5425 21.5576C58.337 22.325 58.359 23.5911 57.5917 24.3856L31.193 51.719L24.0001 44.772L50.3987 17.4386Z" fill="white"/>
<path d="M12.9091 37.575C12.1438 36.7195 12.254 35.3968 13.1503 34.6798L17.5453 31.1638C18.3649 30.5081 19.5519 30.5976 20.264 31.3686L33.9127 46.1482C34.6275 46.9222 34.6192 48.1181 33.8938 48.8821L29.7921 53.2024C28.9873 54.05 27.6304 54.03 26.8511 53.1589L12.9091 37.575Z" fill="white"/>
</svg>
