<svg width="70" height="70" viewBox="0 0 70 70" fill="none" xmlns="http://www.w3.org/2000/svg">
<rect x="0.5" y="0.5" width="69" height="69" fill="#505050" stroke="white"/>
<rect x="14" y="1" width="42" height="68" fill="white"/>
<rect x="52" y="2" width="2" height="66" fill="black"/>
<rect x="16" y="2" width="2" height="66" fill="black"/>
<path d="M36 66H34V59H36V66ZM36 12H34V5H36V12Z" fill="black"/>
<path d="M34.4961 41C35.7695 41 36.7969 41.332 37.5781 41.9961C38.3672 42.6523 38.7617 43.5508 38.7617 44.6914C38.7617 45.4023 38.5938 46.1055 38.2578 46.8008C37.9297 47.4961 37.5078 48.1602 36.9922 48.793C36.4844 49.418 35.9453 49.9961 35.375 50.5273C34.8047 51.0508 34.2773 51.5078 33.793 51.8984H36.125C36.9844 51.8984 37.6133 51.8906 38.0117 51.875C38.418 51.8594 38.7969 51.8203 39.1484 51.7578V54.043H30.5352V52.1094C31.1367 51.6797 31.7656 51.1836 32.4219 50.6211C33.0859 50.0586 33.7031 49.4609 34.2734 48.8281C34.8516 48.1953 35.3203 47.5625 35.6797 46.9297C36.0469 46.2891 36.2305 45.6875 36.2305 45.125C36.2305 44.6094 36.0703 44.1602 35.75 43.7773C35.4375 43.3867 34.9453 43.1914 34.2734 43.1914C33.7344 43.1914 33.1602 43.3438 32.5508 43.6484C31.9492 43.9531 31.4531 44.3438 31.0625 44.8203L30.5 42.7109C30.8984 42.2188 31.4766 41.8125 32.2344 41.4922C33 41.1641 33.7539 41 34.4961 41Z" fill="black"/>
<rect x="16" y="1" width="2" height="1" fill="black"/>
<rect x="52" y="1" width="2" height="1" fill="black"/>
<rect x="16" y="68" width="2" height="1" fill="black"/>
<rect x="52" y="68" width="2" height="1" fill="black"/>
<circle cx="35" cy="27" r="11" fill="black"/>
<circle cx="35" cy="27" r="9" fill="white"/>
<path d="M36.6748 21.75C37.1278 21.75 37.5766 21.8382 37.9951 22.0098C38.4136 22.1813 38.7939 22.433 39.1143 22.75C39.4346 23.067 39.6889 23.4433 39.8623 23.8574C40.0357 24.2716 40.125 24.7157 40.125 25.1641C40.125 25.6124 40.0357 26.0565 39.8623 26.4707C39.6889 26.8849 39.4346 27.2611 39.1143 27.5781C38.7939 27.8951 38.4136 28.1468 37.9951 28.3184C37.6289 28.4684 37.2398 28.555 36.8447 28.5742L36.6748 28.5781H33.5703V32.6748H31.5V21.75H36.6748ZM33.5703 23.7988V26.5293H36.6748L36.8105 26.5225C36.9453 26.5094 37.0776 26.4772 37.2031 26.4258C37.3704 26.3572 37.5224 26.2565 37.6504 26.1299C37.7785 26.0031 37.8808 25.8522 37.9502 25.6865C38.0195 25.5209 38.0547 25.3433 38.0547 25.1641C38.0547 24.9848 38.0195 24.8072 37.9502 24.6416C37.8808 24.4759 37.7785 24.325 37.6504 24.1982C37.5224 24.0716 37.3704 23.9709 37.2031 23.9023C37.0357 23.8338 36.856 23.7988 36.6748 23.7988H33.5703Z" fill="black"/>
</svg>
