<svg width="70" height="70" viewBox="0 0 70 70" fill="none" xmlns="http://www.w3.org/2000/svg">
<path d="M69 1V69H1V1H69Z" fill="black" stroke="white" stroke-width="2"/>
<rect x="13" y="33" width="44" height="2" fill="white"/>
<rect x="40" y="25" width="14" height="8" fill="white"/>
<rect x="40" y="14" width="9" height="11" fill="white"/>
<rect x="33" y="20" width="6" height="13" fill="white"/>
<rect x="31" y="10" width="5" height="15" fill="white"/>
<rect x="22" y="14" width="7" height="11" fill="white"/>
<rect x="16" y="21" width="10" height="12" fill="white"/>
<rect x="27" y="26" width="5" height="7" fill="white"/>
<path d="M24.6571 39.2927C25.0477 38.9025 25.6808 38.9023 26.0712 39.2927C26.4615 39.6832 26.4614 40.3163 26.0712 40.7068L21.4139 45.364H44.9999V45.3816C46.8064 45.5022 48.5154 46.2722 49.8036 47.5603C51.21 48.9668 51.9999 50.875 51.9999 52.864C51.9998 54.8531 51.2101 56.7613 49.8036 58.1677C48.5155 59.4558 46.8063 60.2239 44.9999 60.3445V60.364H23.9999V58.364H44.4999C45.9585 58.364 47.3571 57.7841 48.3886 56.7527C49.42 55.7213 49.9998 54.3226 49.9999 52.864C49.9999 51.4054 49.4199 50.0068 48.3886 48.9754C47.4215 48.0083 46.1318 47.4383 44.7723 47.3709L44.4999 47.364H21.4139L26.0712 52.0213C26.4613 52.4118 26.4616 53.0449 26.0712 53.4353C25.6808 53.8256 25.0476 53.8254 24.6571 53.4353L18.2929 47.0711C17.9024 46.6806 17.9024 46.0475 18.2929 45.657L24.6571 39.2927Z" fill="white"/>
</svg>
