<svg width="70" height="70" viewBox="0 0 70 70" fill="none" xmlns="http://www.w3.org/2000/svg">
<rect x="0.5" y="0.5" width="69" height="69" fill="#505050" stroke="white"/>
<rect x="1" y="1" width="68" height="68" fill="white"/>
<path d="M69 69H56C56 67.2929 56.336 65.6025 56.9893 64.0254C57.6426 62.4482 58.6005 61.0148 59.8076 59.8076C61.0148 58.6005 62.4482 57.6426 64.0254 56.9893C65.6025 56.336 67.2929 56 69 56V69Z" fill="#505050"/>
<path d="M1 69V56C2.70706 56 4.39748 56.336 5.97461 56.9893C7.55184 57.6426 8.98522 58.6005 10.1924 59.8076C11.3995 61.0148 12.3574 62.4482 13.0107 64.0254C13.664 65.6025 14 67.2929 14 69H1Z" fill="#505050"/>
<path d="M69 1V14C67.2929 14 65.6025 13.664 64.0254 13.0107C62.4482 12.3574 61.0148 11.3995 59.8076 10.1924C58.6005 8.98522 57.6426 7.55184 56.9893 5.97461C56.336 4.39748 56 2.70706 56 1H69Z" fill="#505050"/>
<path d="M1 1H14C14 2.70706 13.664 4.39748 13.0107 5.97461C12.3574 7.55184 11.3995 8.98522 10.1924 10.1924C8.98522 11.3995 7.55184 12.3574 5.97461 13.0107C4.39748 13.664 2.70706 14 1 14V1Z" fill="#505050"/>
<path d="M5.99609 28C7.26953 28 8.29688 28.332 9.07812 28.9961C9.86719 29.6523 10.2617 30.5508 10.2617 31.6914C10.2617 32.4023 10.0938 33.1055 9.75781 33.8008C9.42969 34.4961 9.00781 35.1602 8.49219 35.793C7.98438 36.418 7.44531 36.9961 6.875 37.5273C6.30469 38.0508 5.77734 38.5078 5.29297 38.8984H7.625C8.48438 38.8984 9.11328 38.8906 9.51172 38.875C9.91797 38.8594 10.2969 38.8203 10.6484 38.7578V41.043H2.03516V39.1094C2.63672 38.6797 3.26562 38.1836 3.92188 37.6211C4.58594 37.0586 5.20312 36.4609 5.77344 35.8281C6.35156 35.1953 6.82031 34.5625 7.17969 33.9297C7.54688 33.2891 7.73047 32.6875 7.73047 32.125C7.73047 31.6094 7.57031 31.1602 7.25 30.7773C6.9375 30.3867 6.44531 30.1914 5.77344 30.1914C5.23438 30.1914 4.66016 30.3438 4.05078 30.6484C3.44922 30.9531 2.95312 31.3438 2.5625 31.8203L2 29.7109C2.39844 29.2188 2.97656 28.8125 3.73438 28.4922C4.5 28.1641 5.25391 28 5.99609 28Z" fill="black"/>
<path d="M62.9961 28C64.2695 28 65.2969 28.332 66.0781 28.9961C66.8672 29.6523 67.2617 30.5508 67.2617 31.6914C67.2617 32.4023 67.0938 33.1055 66.7578 33.8008C66.4297 34.4961 66.0078 35.1602 65.4922 35.793C64.9844 36.418 64.4453 36.9961 63.875 37.5273C63.3047 38.0508 62.7773 38.5078 62.293 38.8984H64.625C65.4844 38.8984 66.1133 38.8906 66.5117 38.875C66.918 38.8594 67.2969 38.8203 67.6484 38.7578V41.043H59.0352V39.1094C59.6367 38.6797 60.2656 38.1836 60.9219 37.6211C61.5859 37.0586 62.2031 36.4609 62.7734 35.8281C63.3516 35.1953 63.8203 34.5625 64.1797 33.9297C64.5469 33.2891 64.7305 32.6875 64.7305 32.125C64.7305 31.6094 64.5703 31.1602 64.25 30.7773C63.9375 30.3867 63.4453 30.1914 62.7734 30.1914C62.2344 30.1914 61.6602 30.3438 61.0508 30.6484C60.4492 30.9531 59.9531 31.3438 59.5625 31.8203L59 29.7109C59.3984 29.2188 59.9766 28.8125 60.7344 28.4922C61.5 28.1641 62.2539 28 62.9961 28Z" fill="black"/>
<path d="M37.2148 62.7109H38.6211V64.6914H37.2148V67.5977H34.8828V64.6914H29V62.7109L34.5781 55H37.2148V62.7109ZM31.1445 62.7109H34.8828V57.7773L31.1445 62.7109Z" fill="black"/>
<path d="M37.2148 9.71094H38.6211V11.6914H37.2148V14.5977H34.8828V11.6914H29V9.71094L34.5781 2H37.2148V9.71094ZM31.1445 9.71094H34.8828V4.77734L31.1445 9.71094Z" fill="black"/>
</svg>
