<svg width="70" height="70" viewBox="0 0 70 70" fill="none" xmlns="http://www.w3.org/2000/svg">
<rect x="0.5" y="0.5" width="69" height="69" fill="#505050" stroke="white"/>
<rect x="1" y="1" width="68" height="68" fill="white"/>
<path d="M69 69H56C56 67.2929 56.336 65.6025 56.9893 64.0254C57.6426 62.4482 58.6005 61.0148 59.8076 59.8076C61.0148 58.6005 62.4482 57.6426 64.0254 56.9893C65.6025 56.336 67.2929 56 69 56V69Z" fill="#505050"/>
<path d="M1 69V56C2.70706 56 4.39748 56.336 5.97461 56.9893C7.55184 57.6426 8.98522 58.6005 10.1924 59.8076C11.3995 61.0148 12.3574 62.4482 13.0107 64.0254C13.664 65.6025 14 67.2929 14 69H1Z" fill="#505050"/>
<path d="M69 1V14C67.2929 14 65.6025 13.664 64.0254 13.0107C62.4482 12.3574 61.0148 11.3995 59.8076 10.1924C58.6005 8.98522 57.6426 7.55184 56.9893 5.97461C56.336 4.39748 56 2.70706 56 1H69Z" fill="#505050"/>
<path d="M1 1H14C14 2.70706 13.664 4.39748 13.0107 5.97461C12.3574 7.55184 11.3995 8.98522 10.1924 10.1924C8.98522 11.3995 7.55184 12.3574 5.97461 13.0107C4.39748 13.664 2.70706 14 1 14V1Z" fill="#505050"/>
<path d="M37.2148 9.71094H38.6211V11.6914H37.2148V14.5977H34.8828V11.6914H29V9.71094L34.5781 2H37.2148V9.71094ZM31.1445 9.71094H34.8828V4.77734L31.1445 9.71094Z" fill="black"/>
<path d="M10.2148 36.7109H11.6211V38.6914H10.2148V41.5977H7.88281V38.6914H2V36.7109L7.57812 29H10.2148V36.7109ZM4.14453 36.7109H7.88281V31.7773L4.14453 36.7109Z" fill="black"/>
<path d="M66.2148 36.7109H67.6211V38.6914H66.2148V41.5977H63.8828V38.6914H58V36.7109L63.5781 29H66.2148V36.7109ZM60.1445 36.7109H63.8828V31.7773L60.1445 36.7109Z" fill="black"/>
<path d="M23.9961 55C25.2695 55 26.2969 55.332 27.0781 55.9961C27.8672 56.6523 28.2617 57.5508 28.2617 58.6914C28.2617 59.4023 28.0938 60.1055 27.7578 60.8008C27.4297 61.4961 27.0078 62.1602 26.4922 62.793C25.9844 63.418 25.4453 63.9961 24.875 64.5273C24.3047 65.0508 23.7773 65.5078 23.293 65.8984H25.625C26.4844 65.8984 27.1133 65.8906 27.5117 65.875C27.918 65.8594 28.2969 65.8203 28.6484 65.7578V68.043H20.0352V66.1094C20.6367 65.6797 21.2656 65.1836 21.9219 64.6211C22.5859 64.0586 23.2031 63.4609 23.7734 62.8281C24.3516 62.1953 24.8203 61.5625 25.1797 60.9297C25.5469 60.2891 25.7305 59.6875 25.7305 59.125C25.7305 58.6094 25.5703 58.1602 25.25 57.7773C24.9375 57.3867 24.4453 57.1914 23.7734 57.1914C23.2344 57.1914 22.6602 57.3438 22.0508 57.6484C21.4492 57.9531 20.9531 58.3438 20.5625 58.8203L20 56.7109C20.3984 56.2188 20.9766 55.8125 21.7344 55.4922C22.5 55.1641 23.2539 55 23.9961 55ZM44.9961 55C46.2695 55 47.2969 55.332 48.0781 55.9961C48.8672 56.6523 49.2617 57.5508 49.2617 58.6914C49.2617 59.4023 49.0938 60.1055 48.7578 60.8008C48.4297 61.4961 48.0078 62.1602 47.4922 62.793C46.9844 63.418 46.4453 63.9961 45.875 64.5273C45.3047 65.0508 44.7773 65.5078 44.293 65.8984H46.625C47.4844 65.8984 48.1133 65.8906 48.5117 65.875C48.918 65.8594 49.2969 65.8203 49.6484 65.7578V68.043H41.0352V66.1094C41.6367 65.6797 42.2656 65.1836 42.9219 64.6211C43.5859 64.0586 44.2031 63.4609 44.7734 62.8281C45.3516 62.1953 45.8203 61.5625 46.1797 60.9297C46.5469 60.2891 46.7305 59.6875 46.7305 59.125C46.7305 58.6094 46.5703 58.1602 46.25 57.7773C45.9375 57.3867 45.4453 57.1914 44.7734 57.1914C44.2344 57.1914 43.6602 57.3438 43.0508 57.6484C42.4492 57.9531 41.9531 58.3438 41.5625 58.8203L41 56.7109C41.3984 56.2188 41.9766 55.8125 42.7344 55.4922C43.5 55.1641 44.2539 55 44.9961 55Z" fill="black"/>
</svg>
