<svg width="70" height="70" viewBox="0 0 70 70" fill="none" xmlns="http://www.w3.org/2000/svg">
<rect x="1" y="1" width="68" height="68" fill="black" stroke="white" stroke-width="2"/>
<path d="M7.64062 42C7.71875 41.5605 7.7627 40.9258 7.77246 40.0957C7.79199 39.2656 7.80176 38.3086 7.80176 37.2246V31.0137C7.80176 29.9395 7.79199 28.9385 7.77246 28.0107C7.7627 27.083 7.71875 26.3994 7.64062 25.96C7.64062 25.96 7.91895 25.9502 8.47559 25.9307C9.04199 25.9111 9.74512 25.8965 10.585 25.8867C11.4346 25.8672 12.2842 25.8574 13.1338 25.8574C14.8428 25.8574 16.2295 26.248 17.2939 27.0293C18.3682 27.8105 18.9053 28.9922 18.9053 30.5742C18.9053 31.7363 18.6172 32.6885 18.041 33.4307C17.4746 34.1631 16.7275 34.7051 15.7998 35.0566C14.8818 35.4082 13.9004 35.584 12.8555 35.584H10.9365V37.2246C10.9365 38.3086 10.9463 39.2705 10.9658 40.1104C10.9854 40.9404 11.0293 41.5703 11.0977 42H7.64062ZM16.708 42L12.1084 35.0273L15.082 34.4561C15.082 34.4561 15.1992 34.6221 15.4336 34.9541C15.668 35.2764 15.9707 35.7012 16.3418 36.2285C16.7227 36.7559 17.1328 37.3223 17.5723 37.9277C18.0117 38.5332 18.4365 39.124 18.8467 39.7002C19.2666 40.2666 19.6328 40.7598 19.9453 41.1797C20.2676 41.5898 20.4873 41.8633 20.6045 42H16.708ZM10.9365 33.2109H12.6357C13.6025 33.2109 14.3643 33.0254 14.9209 32.6543C15.4873 32.2734 15.7705 31.5996 15.7705 30.6328C15.7705 29.8027 15.5117 29.2119 14.9941 28.8604C14.4766 28.5088 13.7295 28.333 12.7529 28.333C12.3232 28.333 11.9863 28.3379 11.7422 28.3477C11.498 28.3477 11.2295 28.3574 10.9365 28.377V33.2109ZM23.8125 46.2773V24.4219H26.1123V46.2773H23.8125ZM37.0547 42.2637C34.7793 42.2637 32.9922 41.541 31.6934 40.0957C30.3945 38.6406 29.7451 36.6777 29.7451 34.207C29.7451 32.3223 30.0967 30.75 30.7998 29.4902C31.5029 28.2305 32.4355 27.2832 33.5977 26.6484C34.7598 26.0137 36.0195 25.6963 37.377 25.6963C38.3926 25.6963 39.3008 25.8086 40.1016 26.0332C40.9023 26.2578 41.6982 26.6582 42.4893 27.2344L41.7275 29.8711C41.0244 29.3242 40.3311 28.9336 39.6475 28.6992C38.9736 28.4551 38.2754 28.333 37.5527 28.333C36.2148 28.333 35.1016 28.8018 34.2129 29.7393C33.3242 30.667 32.8799 32.0635 32.8799 33.9287C32.8799 35.6963 33.2852 37.083 34.0957 38.0889C34.9062 39.085 36.0195 39.583 37.4355 39.583C38.2656 39.583 39.1006 39.4023 39.9404 39.041C40.7803 38.6699 41.5029 38.1768 42.1084 37.5615L42.6504 40.4619C41.9766 40.999 41.1074 41.4336 40.043 41.7656C38.9883 42.0977 37.9922 42.2637 37.0547 42.2637ZM46.6055 46.2773V24.4219H48.9053V46.2773H46.6055ZM52.9775 42V39.7588H55.6143V28.2158H52.9775V25.96H61.3857V28.2158H58.749V39.7588H61.3857V42H52.9775Z" fill="white"/>
</svg>
