<svg width="70" height="70" viewBox="0 0 70 70" fill="none" xmlns="http://www.w3.org/2000/svg">
<rect x="0.5" y="0.5" width="69" height="69" fill="#505050" stroke="white"/>
<path d="M68 56C66.4243 56 64.864 56.3102 63.4082 56.9131C61.9523 57.5161 60.629 58.4003 59.5146 59.5146C58.4003 60.629 57.5161 61.9523 56.9131 63.4082C56.3102 64.864 56 66.4243 56 68H14C14 60.9086 15.3966 53.8865 18.1104 47.335C20.8241 40.7834 24.8021 34.8308 29.8164 29.8164C34.8308 24.8021 40.7834 20.8241 47.335 18.1104C53.8865 15.3966 60.9086 14 68 14V56Z" fill="white"/>
<path d="M68 18C61.4341 18 54.9324 19.2931 48.8662 21.8057C42.7999 24.3184 37.2875 28.0016 32.6445 32.6445C28.0016 37.2875 24.3184 42.7999 21.8057 48.8662C19.2931 54.9324 18 61.4341 18 68H16C16 61.1713 17.3448 54.4095 19.958 48.1006C22.5713 41.7917 26.4018 36.0591 31.2305 31.2305C36.0591 26.4018 41.7917 22.5713 48.1006 19.958C54.4095 17.3448 61.1713 16 68 16V18Z" fill="black"/>
<path d="M68 54C66.1616 54 64.3411 54.3619 62.6426 55.0654C60.944 55.769 59.4006 56.8006 58.1006 58.1006C56.8006 59.4006 55.769 60.944 55.0654 62.6426C54.3619 64.3411 54 66.1616 54 68H52C52 65.8989 52.4137 63.8182 53.2178 61.877C54.0218 59.9358 55.2008 58.1723 56.6865 56.6865C58.1723 55.2008 59.9358 54.0218 61.877 53.2178C63.8182 52.4137 65.8989 52 68 52V54Z" fill="black"/>
<path d="M44.9961 39C46.2695 39 47.2969 39.332 48.0781 39.9961C48.8672 40.6523 49.2617 41.5508 49.2617 42.6914C49.2617 43.4023 49.0938 44.1055 48.7578 44.8008C48.4297 45.4961 48.0078 46.1602 47.4922 46.793C46.9844 47.418 46.4453 47.9961 45.875 48.5273C45.3047 49.0508 44.7773 49.5078 44.293 49.8984H46.625C47.4844 49.8984 48.1133 49.8906 48.5117 49.875C48.918 49.8594 49.2969 49.8203 49.6484 49.7578V52.043H41.0352V50.1094C41.6367 49.6797 42.2656 49.1836 42.9219 48.6211C43.5859 48.0586 44.2031 47.4609 44.7734 46.8281C45.3516 46.1953 45.8203 45.5625 46.1797 44.9297C46.5469 44.2891 46.7305 43.6875 46.7305 43.125C46.7305 42.6094 46.5703 42.1602 46.25 41.7773C45.9375 41.3867 45.4453 41.1914 44.7734 41.1914C44.2344 41.1914 43.6602 41.3438 43.0508 41.6484C42.4492 41.9531 41.9531 42.3438 41.5625 42.8203L41 40.7109C41.3984 40.2188 41.9766 39.8125 42.7344 39.4922C43.5 39.1641 44.2539 39 44.9961 39Z" fill="black"/>
<path d="M35.416 62.7861C35.1408 64.5065 35 66.2497 35 68H33C33 66.1438 33.1495 64.2951 33.4414 62.4707L35.416 62.7861ZM33.8154 60.4932C33.8271 60.4398 33.8377 60.3863 33.8496 60.333L33.8701 60.2451C33.8514 60.3277 33.8336 60.4105 33.8154 60.4932ZM34.2314 58.7988C34.2432 58.7556 34.2546 58.7122 34.2666 58.6689L34.2871 58.5967C34.2683 58.664 34.2498 58.7314 34.2314 58.7988ZM38.7861 52.6562C38.3218 53.5403 37.8952 54.4454 37.5117 55.3711C37.071 56.4352 36.6884 57.52 36.3623 58.6201L34.4453 58.0518C34.7912 56.8852 35.1967 55.7348 35.6641 54.6064C36.0708 53.6245 36.5231 52.6643 37.0156 51.7266L38.7861 52.6562ZM42.7881 43.7236C42.695 43.8203 42.6027 43.9179 42.5107 44.0156C42.6027 43.9179 42.695 43.8204 42.7881 43.7236ZM43.1641 43.3389C43.1931 43.3096 43.2218 43.2801 43.251 43.251C43.2861 43.2158 43.3221 43.1815 43.3574 43.1465C43.2929 43.2105 43.2281 43.2744 43.1641 43.3389ZM45.9551 40.8154C45.8593 40.8931 45.7639 40.9712 45.6689 41.0498C45.7639 40.9711 45.8593 40.8931 45.9551 40.8154ZM57.1338 36.8418C56.5408 37.0486 55.9526 37.2708 55.3711 37.5117C53.965 38.0942 52.6047 38.7731 51.2979 39.54L50.2861 37.8154C51.6723 37.002 53.1151 36.2818 54.6064 35.6641C55.2228 35.4088 55.8462 35.1733 56.4746 34.9541L57.1338 36.8418ZM68 35C65.8261 35 63.6627 35.2143 61.541 35.6377L61.1504 33.6768C63.4004 33.2277 65.6945 33 68 33V35ZM57.1484 34.7246C57.0509 34.7564 56.9537 34.7896 56.8564 34.8223C56.9537 34.7896 57.0509 34.7564 57.1484 34.7246Z" fill="black"/>
<rect x="68" y="14" width="1" height="42" fill="white"/>
<rect x="14" y="68" width="42" height="1" fill="white"/>
<rect x="52" y="68" width="2" height="1" fill="black"/>
<rect x="16" y="68" width="2" height="1" fill="black"/>
<rect x="69" y="16" width="2" height="1" transform="rotate(90 69 16)" fill="black"/>
<rect x="69" y="52" width="2" height="1" transform="rotate(90 69 52)" fill="black"/>
</svg>
