<svg width="71" height="70" viewBox="0 0 71 70" fill="none" xmlns="http://www.w3.org/2000/svg">
<rect x="0.5" y="0.5" width="69" height="69" fill="#505050" stroke="white"/>
<path d="M69 14V56H1L69 14Z" fill="white"/>
<path d="M52.9961 37C54.2695 37 55.2969 37.332 56.0781 37.9961C56.8672 38.6523 57.2617 39.5508 57.2617 40.6914C57.2617 41.4023 57.0938 42.1055 56.7578 42.8008C56.4297 43.4961 56.0078 44.1602 55.4922 44.793C54.9844 45.418 54.4453 45.9961 53.875 46.5273C53.3047 47.0508 52.7773 47.5078 52.293 47.8984H54.625C55.4844 47.8984 56.1133 47.8906 56.5117 47.875C56.918 47.8594 57.2969 47.8203 57.6484 47.7578V50.043H49.0352V48.1094C49.6367 47.6797 50.2656 47.1836 50.9219 46.6211C51.5859 46.0586 52.2031 45.4609 52.7734 44.8281C53.3516 44.1953 53.8203 43.5625 54.1797 42.9297C54.5469 42.2891 54.7305 41.6875 54.7305 41.125C54.7305 40.6094 54.5703 40.1602 54.25 39.7773C53.9375 39.3867 53.4453 39.1914 52.7734 39.1914C52.2344 39.1914 51.6602 39.3438 51.0508 39.6484C50.4492 39.9531 49.9531 40.3438 49.5625 40.8203L49 38.7109C49.3984 38.2188 49.9766 37.8125 50.7344 37.4922C51.5 37.1641 52.2539 37 52.9961 37Z" fill="black"/>
<rect x="3" y="56" width="6" height="2" fill="#505050"/>
<rect x="69" y="15" width="1" height="4" fill="white"/>
<path d="M63 21.7326L67 19V56H63V21.7326Z" fill="black"/>
<path d="M39 35.383L43 34V56H39V35.383Z" fill="black"/>
<rect x="37" y="54" width="8" height="2" fill="black"/>
<rect x="61" y="54" width="8" height="2" fill="black"/>
<path d="M15 51.1L19 49V56H15V51.1Z" fill="black"/>
<rect x="19" y="54" width="2" height="2" fill="black"/>
<rect x="13" y="55" width="2" height="1" fill="black"/>
<rect x="1" y="56" width="68" height="2" fill="white"/>
<path d="M3.44238 56.9766L69.4996 15.9999L69.9851 17.9978L4.49768 58.6755L3.44238 56.9766Z" fill="black"/>
<rect x="3" y="57" width="5" height="1" fill="white"/>
<rect x="3" y="58" width="4" height="1" fill="#505050"/>
<rect x="69" y="16" width="1" height="3" fill="white"/>
</svg>
