<svg width="200" height="200" viewBox="0 0 200 200" fill="none" xmlns="http://www.w3.org/2000/svg">
<g clip-path="url(#clip0_194_15292)">
<path d="M200 0H0V200H200V0Z" fill="#646262"/>
<path d="M5 83.9999L11 80.5359V87.4639L5 83.9999ZM16 84.5999H10.4V83.3999H16V84.5999Z" fill="#F7F7F7"/>
<path d="M5 56L11 52.5359V59.464L5 56ZM16 56.6H10.4V55.4H16V56.6Z" fill="#F7F7F7"/>
<path d="M16 144L10 140.536V147.464L16 144ZM5 144.6H10.6V143.4H5V144.6Z" fill="#F7F7F7"/>
<path d="M16 116L10 112.536V119.464L16 116ZM5 116.6H10.6V115.4H5V116.6Z" fill="#F7F7F7"/>
<path d="M184 83.9999L190 80.5359V87.4639L184 83.9999ZM195 84.5999H189.4V83.3999H195V84.5999Z" fill="#F7F7F7"/>
<path d="M184 56L190 52.5359V59.464L184 56ZM195 56.6H189.4V55.4H195V56.6Z" fill="#F7F7F7"/>
<path d="M195 144L189 140.536V147.464L195 144ZM184 144.6H189.6V143.4H184V144.6Z" fill="#F7F7F7"/>
<path d="M195 116L189 112.536V119.464L195 116ZM184 116.6H189.6V115.4H184V116.6Z" fill="#F7F7F7"/>
<path d="M83.9999 16L80.5359 10H87.4639L83.9999 16ZM84.5999 5V10.6H83.3999V5H84.5999Z" fill="#F7F7F7"/>
<path d="M56 16L52.5359 10H59.4641L56 16ZM56.6 5V10.6H55.4V5H56.6Z" fill="#F7F7F7"/>
<path d="M144 5L140.536 11H147.464L144 5ZM144.6 16V10.4H143.4V16H144.6Z" fill="#F7F7F7"/>
<path d="M116 5L112.536 11H119.464L116 5ZM116.6 16V10.4H115.4V16H116.6Z" fill="#F7F7F7"/>
<path d="M83.9999 195L80.5359 189H87.4639L83.9999 195ZM84.5999 184V189.6H83.3999V184H84.5999Z" fill="#F7F7F7"/>
<path d="M56 195L52.5359 189H59.4641L56 195ZM56.6 184V189.6H55.4V184H56.6Z" fill="#F7F7F7"/>
<path d="M144 184L140.536 190H147.464L144 184ZM144.6 195V189.4H143.4V195H144.6Z" fill="#F7F7F7"/>
<path d="M116 184L112.536 190H119.464L116 184ZM116.6 195V189.4H115.4V195H116.6Z" fill="#F7F7F7"/>
<path d="M0 41C5.3842 41 10.7157 39.9395 15.69 37.8791C20.6644 35.8186 25.1842 32.7986 28.9914 28.9914C32.7986 25.1842 35.8186 20.6644 37.8791 15.69C39.9395 10.7157 41 5.3842 41 0H0V41Z" fill="#F7FB68"/>
<path d="M0 40.5C5.3185 40.5 10.585 39.4524 15.4987 37.4171C20.4124 35.3818 24.8771 32.3986 28.6378 28.6378C32.3986 24.8771 35.3818 20.4124 37.4171 15.4987C39.4524 10.585 40.5 5.3185 40.5 0H0V40.5Z" fill="#BFBDBD"/>
<path d="M41 0.5H0" stroke="#F7F7F7"/>
<path d="M0.5 1V41" stroke="#F7F7F7"/>
<path d="M41 200C41 194.616 39.9395 189.284 37.8791 184.31C35.8186 179.336 32.7986 174.816 28.9914 171.009C25.1842 167.201 20.6644 164.181 15.69 162.121C10.7157 160.06 5.3842 159 0 159V200H41Z" fill="#F7FB68"/>
<path d="M40.5 200C40.5 194.681 39.4524 189.415 37.4171 184.501C35.3818 179.588 32.3986 175.123 28.6378 171.362C24.8771 167.601 20.4124 164.618 15.4987 162.583C10.585 160.548 5.3185 159.5 0 159.5V200H40.5Z" fill="#BFBDBD"/>
<path d="M0.5 159V200" stroke="#F7F7F7"/>
<path d="M1 199.5H41" stroke="#F7F7F7"/>
<path d="M200 159C194.616 159 189.284 160.06 184.31 162.121C179.336 164.181 174.816 167.201 171.009 171.009C167.201 174.816 164.181 179.336 162.121 184.31C160.06 189.284 159 194.616 159 200H200V159Z" fill="#F7FB68"/>
<path d="M200 159.5C194.681 159.5 189.415 160.548 184.501 162.583C179.588 164.618 175.123 167.601 171.362 171.362C167.601 175.123 164.618 179.588 162.583 184.501C160.548 189.415 159.5 194.681 159.5 200H200V159.5Z" fill="#BFBDBD"/>
<path d="M159 199.5H200" stroke="#F7F7F7"/>
<path d="M199.5 199V159" stroke="#F7F7F7"/>
<path d="M159 0C159 5.3842 160.06 10.7157 162.121 15.69C164.181 20.6644 167.201 25.1842 171.009 28.9914C174.816 32.7986 179.336 35.8186 184.31 37.8791C189.284 39.9395 194.616 41 200 41V0H159Z" fill="#F7FB68"/>
<path d="M159.5 0C159.5 5.3185 160.548 10.585 162.583 15.4987C164.618 20.4124 167.601 24.8771 171.362 28.6378C175.123 32.3986 179.588 35.3818 184.501 37.4171C189.415 39.4524 194.681 40.5 200 40.5V0H159.5Z" fill="#BFBDBD"/>
<path d="M199.5 41V0" stroke="#F7F7F7"/>
<path d="M199 0.5H159" stroke="#F7F7F7"/>
<path fill-rule="evenodd" clip-rule="evenodd" d="M161.197 16.0727C159.086 10.977 158 5.5155 158 0H159C159 5.3842 160.06 10.7157 162.121 15.69C164.181 20.6644 167.201 25.1842 171.009 28.9914C174.816 32.7986 179.336 35.8186 184.31 37.8791C189.284 39.9395 194.616 41 200 41V42C194.484 42 189.023 40.9136 183.927 38.8029C178.832 36.6922 174.202 33.5985 170.302 29.6985C166.401 25.7984 163.308 21.1684 161.197 16.0727Z" fill="#F7F7F7"/>
<path fill-rule="evenodd" clip-rule="evenodd" d="M38.8029 183.927C40.9136 189.023 42 194.484 42 200H41C41 194.616 39.9395 189.284 37.8791 184.31C35.8186 179.336 32.7986 174.816 28.9914 171.009C25.1842 167.201 20.6644 164.181 15.69 162.121C10.7157 160.06 5.3842 159 0 159V158C5.5155 158 10.977 159.086 16.0727 161.197C21.1684 163.308 25.7984 166.401 29.6985 170.302C33.5985 174.202 36.6922 178.832 38.8029 183.927Z" fill="#F7F7F7"/>
<path fill-rule="evenodd" clip-rule="evenodd" d="M183.927 161.197C189.023 159.086 194.484 158 200 158V159C194.616 159 189.284 160.06 184.31 162.121C179.336 164.181 174.816 167.201 171.009 171.009C167.201 174.816 164.181 179.336 162.121 184.31C160.06 189.284 159 194.616 159 200H158C158 194.484 159.086 189.023 161.197 183.927C163.308 178.832 166.401 174.202 170.302 170.302C174.202 166.401 178.832 163.308 183.927 161.197Z" fill="#F7F7F7"/>
<path fill-rule="evenodd" clip-rule="evenodd" d="M16.0727 38.8029C10.977 40.9136 5.5155 42 0 42V41C5.3842 41 10.7157 39.9395 15.69 37.8791C20.6644 35.8186 25.1842 32.7986 28.9914 28.9914C32.7986 25.1842 35.8186 20.6644 37.8791 15.69C39.9395 10.7157 41 5.3842 41 0H42C42 5.5155 40.9136 10.977 38.8029 16.0727C36.6922 21.1684 33.5985 25.7984 29.6985 29.6985C25.7984 33.5985 21.1684 36.6922 16.0727 38.8029Z" fill="#F7F7F7"/>
<path d="M200 158H0V200H200V158Z" fill="#646262"/>
<path d="M164 184L160.536 190H167.464L164 184ZM164.6 195V189.4H163.4V195H164.6Z" fill="#F7F7F7"/>
<path d="M136 195L132.536 189H139.464L136 195ZM136.6 184V189.6H135.4V184H136.6Z" fill="#F7F7F7"/>
<path d="M64 184L60.5359 190H67.4641L64 184ZM64.6 195V189.4H63.4V195H64.6Z" fill="#F7F7F7"/>
<path d="M36 195L32.5359 189H39.4641L36 195ZM36.6 184V189.6H35.4V184H36.6Z" fill="#F7F7F7"/>
<path fill-rule="evenodd" clip-rule="evenodd" d="M115.556 184.444C119.682 188.569 122 194.165 122 200H121C121 194.43 118.788 189.089 114.849 185.151C110.911 181.212 105.57 179 100 179C94.43 179 89.089 181.212 85.151 185.151C81.212 189.089 79 194.43 79 200H78C78 194.165 80.318 188.569 84.444 184.444C88.569 180.318 94.165 178 100 178C105.835 178 111.431 180.318 115.556 184.444Z" fill="#F7F7F7"/>
<path d="M121 200C121 194.43 118.788 189.089 114.849 185.151C110.911 181.212 105.57 179 100 179C94.43 179 89.089 181.212 85.151 185.151C81.212 189.089 79 194.43 79 200H100H121Z" fill="#F7FB68"/>
<path d="M120.5 200C120.5 194.563 118.34 189.349 114.496 185.504C110.651 181.66 105.437 179.5 100 179.5C94.563 179.5 89.349 181.66 85.504 185.504C81.66 189.349 79.5 194.563 79.5 200H100H120.5Z" fill="#BFBDBD"/>
<path d="M79 199.5H121" stroke="#F7F7F7"/>
<path fill-rule="evenodd" clip-rule="evenodd" d="M191.581 161.197C194.25 159.086 197.111 158 200 158V159C197.242 159 194.511 160.06 191.964 162.121C189.416 164.181 187.101 167.201 185.151 171.009C183.201 174.816 181.654 179.336 180.599 184.31C179.543 189.284 179 194.616 179 200H178C178 194.484 178.569 189.023 179.675 183.927C180.78 178.832 182.401 174.202 184.444 170.302C186.487 166.401 188.912 163.308 191.581 161.197Z" fill="#F7F7F7"/>
<path d="M200 159C197.242 159 194.511 160.06 191.964 162.121C189.416 164.181 187.101 167.201 185.151 171.009C183.201 174.816 181.654 179.336 180.599 184.31C179.543 189.284 179 194.616 179 200H200V159Z" fill="#F7FB68"/>
<path d="M200 159.5C197.308 159.5 194.642 160.548 192.155 162.583C189.668 164.618 187.408 167.601 185.504 171.362C183.601 175.123 182.091 179.588 181.06 184.501C180.03 189.415 179.5 194.681 179.5 200H200V159.5Z" fill="#BFBDBD"/>
<path d="M199.5 159V200" stroke="#F7F7F7"/>
<path d="M199 199.5H179" stroke="#F7F7F7"/>
<path d="M0 159C2.7578 159 5.4885 160.06 8.0364 162.121C10.5842 164.181 12.8992 167.201 14.8492 171.009C16.7993 174.816 18.3461 179.336 19.4015 184.31C20.4568 189.284 21 194.616 21 200H0V159Z" fill="#F7FB68"/>
<path d="M0 159.5C2.6921 159.5 5.3578 160.548 7.845 162.583C10.3322 164.618 12.5921 167.601 14.4957 171.362C16.3993 175.123 17.9093 179.588 18.9395 184.501C19.9698 189.415 20.5 194.681 20.5 200H0V159.5Z" fill="#BFBDBD"/>
<path d="M0.5 159V200" stroke="#F7F7F7"/>
<path d="M1 199.5H21" stroke="#F7F7F7"/>
<path fill-rule="evenodd" clip-rule="evenodd" d="M8.419 161.197C5.7499 159.086 2.8891 158 0 158V159C2.7578 159 5.4885 160.06 8.0364 162.121C10.5842 164.181 12.8992 167.201 14.8492 171.009C16.7993 174.816 18.3461 179.336 19.4015 184.31C20.4568 189.284 21 194.616 21 200H22C22 194.484 21.431 189.023 20.3253 183.927C19.2197 178.832 17.5992 174.202 15.5563 170.302C13.5135 166.401 11.0882 163.308 8.419 161.197Z" fill="#F7F7F7"/>
<path d="M0 42L200 42V0L0 0V42Z" fill="#646262"/>
<path d="M36 16L39.4641 10H32.5359L36 16ZM35.4 5V10.6H36.6V5H35.4Z" fill="#F7F7F7"/>
<path d="M64 5L67.4641 11H60.5359L64 5ZM63.4 16V10.4H64.6V16H63.4Z" fill="#F7F7F7"/>
<path d="M136 16L139.464 10H132.536L136 16ZM135.4 5V10.6H136.6V5H135.4Z" fill="#F7F7F7"/>
<path d="M164 5L167.464 11H160.536L164 5ZM163.4 16V10.4H164.6V16H163.4Z" fill="#F7F7F7"/>
<path fill-rule="evenodd" clip-rule="evenodd" d="M84.444 15.5563C80.318 11.4305 78 5.8348 78 0H79C79 5.5695 81.212 10.911 85.151 14.8492C89.089 18.7875 94.43 21 100 21C105.57 21 110.911 18.7875 114.849 14.8492C118.788 10.911 121 5.5695 121 0H122C122 5.8348 119.682 11.4306 115.556 15.5564C111.431 19.6822 105.835 22 100 22C94.165 22 88.569 19.6821 84.444 15.5563Z" fill="#F7F7F7"/>
<path d="M79 0C79 5.5695 81.212 10.911 85.151 14.8492C89.089 18.7875 94.43 21 100 21C105.57 21 110.911 18.7875 114.849 14.8492C118.788 10.911 121 5.5695 121 0H100H79Z" fill="#F7FB68"/>
<path d="M79.5 0C79.5 5.4369 81.66 10.6512 85.504 14.4957C89.349 18.3402 94.563 20.5 100 20.5C105.437 20.5 110.651 18.3402 114.496 14.4957C118.34 10.6512 120.5 5.4369 120.5 0H100H79.5Z" fill="#BFBDBD"/>
<path d="M121 0.5H79" stroke="#F7F7F7"/>
<path fill-rule="evenodd" clip-rule="evenodd" d="M8.419 38.8029C5.7499 40.9136 2.8891 42 0 42V41C2.7578 41 5.4885 39.9395 8.0364 37.8791C10.5842 35.8186 12.8992 32.7986 14.8492 28.9914C16.7993 25.1842 18.3461 20.6644 19.4015 15.69C20.4568 10.7157 21 5.3842 21 0H22C22 5.5155 21.431 10.977 20.3253 16.0727C19.2197 21.1684 17.5992 25.7984 15.5563 29.6985C13.5135 33.5985 11.0882 36.6922 8.419 38.8029Z" fill="#F7F7F7"/>
<path d="M0 41C2.7578 41 5.4885 39.9395 8.0364 37.8791C10.5842 35.8186 12.8992 32.7986 14.8492 28.9914C16.7993 25.1842 18.3461 20.6644 19.4015 15.69C20.4568 10.7157 21 5.3842 21 0H0V41Z" fill="#F7FB68"/>
<path d="M0 40.5C2.6921 40.5 5.3578 39.4524 7.845 37.4171C10.3322 35.3818 12.5921 32.3986 14.4957 28.6378C16.3993 24.8771 17.9093 20.4124 18.9395 15.4987C19.9698 10.585 20.5 5.3185 20.5 0H0V40.5Z" fill="#BFBDBD"/>
<path d="M0.5 41V0" stroke="#F7F7F7"/>
<path d="M1 0.5H21" stroke="#F7F7F7"/>
<path d="M200 41C197.242 41 194.511 39.9395 191.964 37.8791C189.416 35.8186 187.101 32.7986 185.151 28.9914C183.201 25.1842 181.654 20.6644 180.599 15.69C179.543 10.7157 179 5.3842 179 0H200V41Z" fill="#F7FB68"/>
<path d="M200 40.5C197.308 40.5 194.642 39.4524 192.155 37.4171C189.668 35.3818 187.408 32.3986 185.504 28.6378C183.601 24.8771 182.091 20.4124 181.06 15.4987C180.03 10.585 179.5 5.3185 179.5 0H200V40.5Z" fill="#BFBDBD"/>
<path d="M199.5 41V0" stroke="#F7F7F7"/>
<path d="M199 0.5H179" stroke="#F7F7F7"/>
<path fill-rule="evenodd" clip-rule="evenodd" d="M191.581 38.8029C194.25 40.9136 197.111 42 200 42V41C197.242 41 194.511 39.9395 191.964 37.8791C189.416 35.8186 187.101 32.7986 185.151 28.9914C183.201 25.1842 181.654 20.6644 180.599 15.69C179.543 10.7157 179 5.3842 179 0H178C178 5.5155 178.569 10.977 179.675 16.0727C180.78 21.1684 182.401 25.7984 184.444 29.6985C186.487 33.5985 188.912 36.6922 191.581 38.8029Z" fill="#F7F7F7"/>
<path d="M22 0V21.5V100V200H0V0H22Z" fill="#646262"/>
<path d="M16 164L10 160.536V167.464L16 164ZM5 164.6H10.6V163.4H5V164.6Z" fill="#F7F7F7"/>
<path d="M5 136L11 132.536V139.464L5 136ZM16 136.6H10.4V135.4H16V136.6Z" fill="#F7F7F7"/>
<path d="M16 63.9999L10 60.5359V67.4639L16 63.9999ZM5 64.5999H10.6V63.3999H5V64.5999Z" fill="#F7F7F7"/>
<path d="M5 36L11 32.5359V39.4641L5 36ZM16 36.6H10.4V35.4H16V36.6Z" fill="#F7F7F7"/>
<path fill-rule="evenodd" clip-rule="evenodd" d="M15.5563 115.556C11.4305 119.682 5.8348 122 0 122V121C5.5695 121 10.911 118.788 14.8492 114.849C18.7875 110.911 21 105.57 21 100C21 94.43 18.7875 89.089 14.8492 85.151C10.911 81.212 5.5695 79 0 79V78C5.8348 78 11.4306 80.318 15.5564 84.444C19.6822 88.569 22 94.165 22 100C22 105.835 19.6821 111.431 15.5563 115.556Z" fill="#F7F7F7"/>
<path d="M0 121C5.5695 121 10.911 118.788 14.8492 114.849C18.7875 110.911 21 105.57 21 100C21 94.43 18.7875 89.089 14.8492 85.151C10.911 81.212 5.5695 79 0 79V100V121Z" fill="#F7FB68"/>
<path d="M0 120.5C5.4369 120.5 10.6512 118.34 14.4957 114.496C18.3402 110.651 20.5 105.437 20.5 100C20.5 94.563 18.3402 89.349 14.4957 85.504C10.6512 81.66 5.4369 79.5 0 79.5V100V120.5Z" fill="#BFBDBD"/>
<path d="M0.5 79V121" stroke="#F7F7F7"/>
<path fill-rule="evenodd" clip-rule="evenodd" d="M20.3253 191.581C21.431 194.25 22 197.111 22 200H21C21 197.242 20.4568 194.511 19.4015 191.964C18.3461 189.416 16.7993 187.101 14.8492 185.151C12.8992 183.201 10.5842 181.654 8.0364 180.599C5.4885 179.543 2.7578 179 0 179V178C2.8891 178 5.7499 178.569 8.419 179.675C11.0882 180.78 13.5135 182.401 15.5563 184.444C17.5992 186.487 19.2197 188.912 20.3253 191.581Z" fill="#F7F7F7"/>
<path d="M21 200C21 197.242 20.4568 194.511 19.4015 191.964C18.3461 189.416 16.7993 187.101 14.8492 185.151C12.8992 183.201 10.5842 181.654 8.0364 180.599C5.4885 179.543 2.7578 179 0 179V200H21Z" fill="#F7FB68"/>
<path d="M20.5 200C20.5 197.308 19.9698 194.642 18.9395 192.155C17.9093 189.668 16.3993 187.408 14.4957 185.504C12.5921 183.601 10.3322 182.091 7.845 181.06C5.3578 180.03 2.6921 179.5 0 179.5V200H20.5Z" fill="#BFBDBD"/>
<path d="M0.5 179V200" stroke="#F7F7F7"/>
<path d="M1 199.5H21" stroke="#F7F7F7"/>
<path d="M0 21C2.7578 21 5.4885 20.4568 8.0364 19.4015C10.5842 18.3461 12.8992 16.7993 14.8492 14.8492C16.7993 12.8992 18.3461 10.5842 19.4015 8.0364C20.4568 5.4885 21 2.7578 21 0H0V21Z" fill="#F7FB68"/>
<path d="M0 20.5C2.6921 20.5 5.3578 19.9698 7.845 18.9395C10.3322 17.9093 12.5921 16.3993 14.4957 14.4957C16.3993 12.5921 17.9093 10.3322 18.9395 7.845C19.9698 5.3578 20.5 2.6921 20.5 0H0V20.5Z" fill="#BFBDBD"/>
<path d="M21 0.5H0" stroke="#F7F7F7"/>
<path d="M0.5 1V21" stroke="#F7F7F7"/>
<path fill-rule="evenodd" clip-rule="evenodd" d="M8.419 20.3253C5.7499 21.431 2.8891 22 0 22V21C2.7578 21 5.4885 20.4568 8.0364 19.4015C10.5842 18.3461 12.8992 16.7993 14.8492 14.8492C16.7993 12.8992 18.3461 10.5842 19.4015 8.0364C20.4568 5.4885 21 2.7578 21 0H22C22 2.8891 21.431 5.7499 20.3254 8.419C19.2197 11.0882 17.5992 13.5135 15.5563 15.5563C13.5135 17.5992 11.0882 19.2197 8.419 20.3253Z" fill="#F7F7F7"/>
<path d="M178 200V178.5V100V0H200V200H178Z" fill="#646262"/>
<path d="M184 36L190 39.4641V32.5359L184 36ZM195 35.4H189.4V36.6H195V35.4Z" fill="#F7F7F7"/>
<path d="M195 63.9999L189 67.4639V60.5359L195 63.9999ZM184 63.3999H189.6V64.5999H184V63.3999Z" fill="#F7F7F7"/>
<path d="M184 136L190 139.464V132.536L184 136ZM195 135.4H189.4V136.6H195V135.4Z" fill="#F7F7F7"/>
<path d="M195 164L189 167.464V160.536L195 164ZM184 163.4H189.6V164.6H184V163.4Z" fill="#F7F7F7"/>
<path fill-rule="evenodd" clip-rule="evenodd" d="M184.444 84.444C188.569 80.318 194.165 78 200 78V79C194.43 79 189.089 81.212 185.151 85.151C181.212 89.089 179 94.43 179 100C179 105.57 181.212 110.911 185.151 114.849C189.089 118.788 194.43 121 200 121V122C194.165 122 188.569 119.682 184.444 115.556C180.318 111.431 178 105.835 178 100C178 94.165 180.318 88.569 184.444 84.444Z" fill="#F7F7F7"/>
<path d="M200 79C194.43 79 189.089 81.212 185.151 85.151C181.212 89.089 179 94.43 179 100C179 105.57 181.212 110.911 185.151 114.849C189.089 118.788 194.43 121 200 121V100V79Z" fill="#F7FB68"/>
<path d="M200 79.5C194.563 79.5 189.349 81.66 185.504 85.504C181.66 89.349 179.5 94.563 179.5 100C179.5 105.437 181.66 110.651 185.504 114.496C189.349 118.34 194.563 120.5 200 120.5V100V79.5Z" fill="#BFBDBD"/>
<path d="M199.5 121V79" stroke="#F7F7F7"/>
<path fill-rule="evenodd" clip-rule="evenodd" d="M179.675 8.419C178.569 5.7499 178 2.8891 178 0H179C179 2.7578 179.543 5.4885 180.599 8.0364C181.654 10.5842 183.201 12.8992 185.151 14.8492C187.101 16.7993 189.416 18.3461 191.964 19.4015C194.511 20.4568 197.242 21 200 21V22C197.111 22 194.25 21.431 191.581 20.3254C188.912 19.2197 186.487 17.5992 184.444 15.5563C182.401 13.5135 180.78 11.0882 179.675 8.419Z" fill="#F7F7F7"/>
<path d="M179 0C179 2.7578 179.543 5.4885 180.599 8.0364C181.654 10.5842 183.201 12.8992 185.151 14.8492C187.101 16.7993 189.416 18.3461 191.964 19.4015C194.511 20.4568 197.242 21 200 21V0H179Z" fill="#F7FB68"/>
<path d="M179.5 0C179.5 2.6921 180.03 5.3578 181.06 7.845C182.091 10.3322 183.601 12.5921 185.504 14.4957C187.408 16.3993 189.668 17.9093 192.155 18.9395C194.642 19.9698 197.308 20.5 200 20.5V0H179.5Z" fill="#BFBDBD"/>
<path d="M199.5 21V0" stroke="#F7F7F7"/>
<path d="M199 0.5H179" stroke="#F7F7F7"/>
<path d="M200 179C197.242 179 194.511 179.543 191.964 180.599C189.416 181.654 187.101 183.201 185.151 185.151C183.201 187.101 181.654 189.416 180.599 191.964C179.543 194.511 179 197.242 179 200H200V179Z" fill="#F7FB68"/>
<path d="M200 179.5C197.308 179.5 194.642 180.03 192.155 181.06C189.668 182.091 187.408 183.601 185.504 185.504C183.601 187.408 182.091 189.668 181.06 192.155C180.03 194.642 179.5 197.308 179.5 200H200V179.5Z" fill="#BFBDBD"/>
<path d="M179 199.5H200" stroke="#F7F7F7"/>
<path d="M199.5 199V179" stroke="#F7F7F7"/>
<path fill-rule="evenodd" clip-rule="evenodd" d="M191.581 179.675C194.25 178.569 197.111 178 200 178V179C197.242 179 194.511 179.543 191.964 180.599C189.416 181.654 187.101 183.201 185.151 185.151C183.201 187.101 181.654 189.416 180.599 191.964C179.543 194.511 179 197.242 179 200H178C178 197.111 178.569 194.25 179.675 191.581C180.78 188.912 182.401 186.487 184.444 184.444C186.487 182.401 188.912 180.78 191.581 179.675Z" fill="#F7F7F7"/>
</g>
<defs>
<clipPath id="clip0_194_15292">
<rect width="200" height="200" fill="white"/>
</clipPath>
</defs>
</svg>
