<svg width="200" height="100" viewBox="0 0 200 100" fill="none" xmlns="http://www.w3.org/2000/svg">
<g clip-path="url(#clip0_194_15285)">
<path d="M200 0H0V100H200V0Z" fill="#646262"/>
<path fill-rule="evenodd" clip-rule="evenodd" d="M20.3253 91.581C21.431 94.25 22 97.111 22 100H21C21 97.242 20.4568 94.511 19.4015 91.964C18.3461 89.416 16.7993 87.101 14.8492 85.151C12.8992 83.201 10.5842 81.654 8.0364 80.599C5.4885 79.543 2.7578 79 0 79V78C2.8891 78 5.7499 78.569 8.419 79.675C11.0882 80.78 13.5135 82.401 15.5563 84.444C17.5992 86.487 19.2197 88.912 20.3253 91.581Z" fill="#F7F7F7"/>
<path d="M5 36L11 39.4641V32.5359L5 36ZM16 35.4H10.4V36.6H16V35.4Z" fill="#F7F7F7"/>
<path d="M16 64L10 67.4641V60.5359L16 64ZM5 63.4H10.6V64.6H5V63.4Z" fill="#F7F7F7"/>
<path d="M63.9999 84L60.5359 90H67.4639L63.9999 84ZM64.5999 95V89.4H63.3999V95H64.5999Z" fill="#F7F7F7"/>
<path d="M36 95L32.5359 89H39.4641L36 95ZM36.6 84V89.6H35.4V84H36.6Z" fill="#F7F7F7"/>
<path d="M21 100C21 97.242 20.4568 94.511 19.4015 91.964C18.3461 89.416 16.7993 87.101 14.8492 85.151C12.8992 83.201 10.5842 81.654 8.0364 80.599C5.4885 79.543 2.7578 79 0 79V100H21Z" fill="#F7FB68"/>
<path d="M20.5 100C20.5 97.308 19.9698 94.642 18.9395 92.155C17.9093 89.668 16.3993 87.408 14.4957 85.504C12.5921 83.601 10.3322 82.091 7.845 81.06C5.3578 80.03 2.6921 79.5 0 79.5V100H20.5Z" fill="#BFBDBD"/>
<path d="M0.5 79V100" stroke="#F7F7F7"/>
<path d="M1 99.5H21" stroke="#F7F7F7"/>
<path fill-rule="evenodd" clip-rule="evenodd" d="M115.556 84.444C119.682 88.569 122 94.165 122 100H121C121 94.43 118.788 89.089 114.849 85.151C110.911 81.212 105.57 79 100 79C94.43 79 89.089 81.212 85.151 85.151C81.212 89.089 79 94.43 79 100H78C78 94.165 80.318 88.569 84.444 84.444C88.569 80.318 94.165 78 100 78C105.835 78 111.431 80.318 115.556 84.444Z" fill="#F7F7F7"/>
<path d="M121 100C121 94.43 118.788 89.089 114.849 85.151C110.911 81.212 105.57 79 100 79C94.43 79 89.089 81.212 85.151 85.151C81.212 89.089 79 94.43 79 100H100H121Z" fill="#F7FB68"/>
<path d="M120.5 100C120.5 94.563 118.34 89.349 114.496 85.504C110.651 81.66 105.437 79.5 100 79.5C94.563 79.5 89.349 81.66 85.504 85.504C81.66 89.349 79.5 94.563 79.5 100H100H120.5Z" fill="#BFBDBD"/>
<path d="M79 99.5H121" stroke="#F7F7F7"/>
<path fill-rule="evenodd" clip-rule="evenodd" d="M38.8029 8.419C40.9136 5.7499 42 2.8891 42 0H41C41 2.7578 39.9395 5.4885 37.8791 8.0364C35.8186 10.5842 32.7986 12.8992 28.9914 14.8492C25.1842 16.7993 20.6644 18.3461 15.69 19.4015C10.7157 20.4568 5.3842 21 0 21V22C5.5155 22 10.977 21.431 16.0727 20.3253C21.1684 19.2197 25.7984 17.5992 29.6985 15.5563C33.5985 13.5135 36.6922 11.0882 38.8029 8.419Z" fill="#F7F7F7"/>
<path d="M41 0C41 2.7578 39.9395 5.4885 37.8791 8.0364C35.8186 10.5842 32.7986 12.8992 28.9914 14.8492C25.1842 16.7993 20.6644 18.3461 15.69 19.4015C10.7157 20.4568 5.3842 21 0 21V0H41Z" fill="#F7FB68"/>
<path d="M40.5 0C40.5 2.6921 39.4524 5.3578 37.4171 7.845C35.3818 10.3322 32.3986 12.5921 28.6378 14.4957C24.8771 16.3993 20.4124 17.9093 15.4987 18.9395C10.585 19.9698 5.3185 20.5 0 20.5V0H40.5Z" fill="#BFBDBD"/>
<path d="M41 0.5H0" stroke="#F7F7F7"/>
<path d="M0.5 1V21" stroke="#F7F7F7"/>
<path d="M83.9999 16L80.5359 10H87.4639L83.9999 16ZM84.5999 5V10.6H83.3999V5H84.5999Z" fill="#F7F7F7"/>
<path d="M56 16L52.5359 10H59.464L56 16ZM56.6 5V10.6H55.4V5H56.6Z" fill="#F7F7F7"/>
<path d="M144 5L140.536 11H147.464L144 5ZM144.6 16V10.4H143.4V16H144.6Z" fill="#F7F7F7"/>
<path d="M116 5L112.536 11H119.464L116 5ZM116.6 16V10.4H115.4V16H116.6Z" fill="#F7F7F7"/>
<path d="M184 36L190 39.4641V32.5359L184 36ZM195 35.4H189.4V36.6H195V35.4Z" fill="#F7F7F7"/>
<path d="M195 64L189 67.4641V60.5359L195 64ZM184 63.4H189.6V64.6H184V63.4Z" fill="#F7F7F7"/>
<path d="M159 0C159 2.7578 160.06 5.4885 162.121 8.0364C164.181 10.5842 167.201 12.8992 171.009 14.8492C174.816 16.7993 179.336 18.3461 184.31 19.4015C189.284 20.4568 194.616 21 200 21V0H159Z" fill="#F7FB68"/>
<path d="M159.5 0C159.5 2.6921 160.548 5.3578 162.583 7.845C164.618 10.3322 167.601 12.5921 171.362 14.4957C175.123 16.3993 179.588 17.9093 184.501 18.9395C189.415 19.9698 194.681 20.5 200 20.5V0H159.5Z" fill="#BFBDBD"/>
<path d="M159 0.5H200" stroke="#F7F7F7"/>
<path d="M199.5 1V21" stroke="#F7F7F7"/>
<path fill-rule="evenodd" clip-rule="evenodd" d="M191.581 79.675C194.25 78.569 197.111 78 200 78V79C197.242 79 194.511 79.543 191.964 80.599C189.416 81.654 187.101 83.201 185.151 85.151C183.201 87.101 181.654 89.416 180.599 91.964C179.543 94.511 179 97.242 179 100H178C178 97.111 178.569 94.25 179.675 91.581C180.78 88.912 182.401 86.487 184.444 84.444C186.487 82.401 188.912 80.78 191.581 79.675Z" fill="#F7F7F7"/>
<path d="M200 79C197.242 79 194.511 79.543 191.964 80.599C189.416 81.654 187.101 83.201 185.151 85.151C183.201 87.101 181.654 89.416 180.599 91.964C179.543 94.511 179 97.242 179 100H200V79Z" fill="#F7FB68"/>
<path d="M200 79.5C197.308 79.5 194.642 80.03 192.155 81.06C189.668 82.091 187.408 83.601 185.504 85.504C183.601 87.408 182.091 89.668 181.06 92.155C180.03 94.642 179.5 97.308 179.5 100H200V79.5Z" fill="#BFBDBD"/>
<path d="M179 99.5H200" stroke="#F7F7F7"/>
<path d="M199.5 99V79" stroke="#F7F7F7"/>
<path d="M164 84L160.536 90H167.464L164 84ZM164.6 95V89.4H163.4V95H164.6Z" fill="#F7F7F7"/>
<path d="M136 95L132.536 89H139.464L136 95ZM136.6 84V89.6H135.4V84H136.6Z" fill="#F7F7F7"/>
<path fill-rule="evenodd" clip-rule="evenodd" d="M161.197 8.419C159.086 5.7499 158 2.8891 158 0H159C159 2.7578 160.06 5.4885 162.121 8.0364C164.181 10.5842 167.201 12.8992 171.009 14.8492C174.816 16.7993 179.336 18.3461 184.31 19.4015C189.284 20.4568 194.616 21 200 21V22C194.484 22 189.023 21.431 183.927 20.3253C178.832 19.2197 174.202 17.5992 170.302 15.5563C166.401 13.5135 163.308 11.0882 161.197 8.419Z" fill="#F7F7F7"/>
<path fill-rule="evenodd" clip-rule="evenodd" d="M161.197 8.419C159.086 5.7499 158 2.8891 158 0H159C159 2.7578 160.06 5.4885 162.121 8.0364C164.181 10.5842 167.201 12.8992 171.009 14.8492C174.816 16.7993 179.336 18.3461 184.31 19.4015C189.284 20.4568 194.616 21 200 21V22C194.484 22 189.023 21.431 183.927 20.3253C178.832 19.2197 174.202 17.5992 170.302 15.5563C166.401 13.5135 163.308 11.0882 161.197 8.419Z" fill="#F7F7F7"/>
</g>
<defs>
<clipPath id="clip0_194_15285">
<rect width="200" height="100" fill="white"/>
</clipPath>
</defs>
</svg>
