<svg width="100" height="100" viewBox="0 0 100 100" fill="none" xmlns="http://www.w3.org/2000/svg">
<g clip-path="url(#clip0_194_15283)">
<path d="M100 0H0V100H100V0Z" fill="#646262"/>
<path fill-rule="evenodd" clip-rule="evenodd" d="M20.3253 91.581C21.431 94.25 22 97.111 22 100H21C21 97.242 20.4568 94.511 19.4015 91.964C18.3461 89.416 16.7993 87.101 14.8492 85.151C12.8992 83.201 10.5842 81.654 8.0364 80.599C5.4885 79.543 2.7578 79 0 79V78C2.8891 78 5.7499 78.569 8.419 79.675C11.0882 80.78 13.5135 82.401 15.5563 84.444C17.5992 86.487 19.2197 88.912 20.3253 91.581Z" fill="#F7F7F7"/>
<path fill-rule="evenodd" clip-rule="evenodd" d="M79.675 8.419C78.569 5.7499 78 2.8891 78 0H79C79 2.7578 79.543 5.4885 80.599 8.0364C81.654 10.5842 83.201 12.8992 85.151 14.8492C87.101 16.7993 89.416 18.3461 91.964 19.4015C94.511 20.4568 97.242 21 100 21V22C97.111 22 94.25 21.431 91.581 20.3254C88.912 19.2197 86.487 17.5992 84.444 15.5563C82.401 13.5135 80.78 11.0882 79.675 8.419Z" fill="#F7F7F7"/>
<path fill-rule="evenodd" clip-rule="evenodd" d="M91.581 79.675C94.25 78.569 97.111 78 100 78V79C97.242 79 94.511 79.543 91.964 80.599C89.416 81.654 87.101 83.201 85.151 85.151C83.201 87.101 81.654 89.416 80.599 91.964C79.543 94.511 79 97.242 79 100H78C78 97.111 78.569 94.25 79.675 91.581C80.78 88.912 82.401 86.487 84.444 84.444C86.487 82.401 88.912 80.78 91.581 79.675Z" fill="#F7F7F7"/>
<path fill-rule="evenodd" clip-rule="evenodd" d="M8.419 20.3253C5.7499 21.431 2.8891 22 0 22V21C2.7578 21 5.4885 20.4568 8.0364 19.4015C10.5842 18.3461 12.8992 16.7993 14.8492 14.8492C16.7993 12.8992 18.3461 10.5842 19.4015 8.0364C20.4568 5.4885 21 2.7578 21 0H22C22 2.8891 21.431 5.7499 20.3254 8.419C19.2197 11.0882 17.5992 13.5135 15.5563 15.5563C13.5135 17.5992 11.0882 19.2197 8.419 20.3253Z" fill="#F7F7F7"/>
<path d="M84 36L90 39.4641V32.5359L84 36ZM95 35.4H89.4V36.6H95V35.4Z" fill="#F7F7F7"/>
<path d="M95 64L89 67.4641V60.5359L95 64ZM84 63.4H89.6V64.6H84V63.4Z" fill="#F7F7F7"/>
<path d="M5 36L11 39.4641V32.5359L5 36ZM16 35.4H10.4V36.6H16V35.4Z" fill="#F7F7F7"/>
<path d="M16 64L10 67.4641V60.5359L16 64ZM5 63.4H10.6V64.6H5V63.4Z" fill="#F7F7F7"/>
<path d="M64 84L60.5359 90H67.4641L64 84ZM64.6 95V89.4H63.4V95H64.6Z" fill="#F7F7F7"/>
<path d="M36 95L32.5359 89H39.4641L36 95ZM36.6 84V89.6H35.4V84H36.6Z" fill="#F7F7F7"/>
<path d="M64 5L60.5359 11H67.4641L64 5ZM64.6 16V10.4H63.4V16H64.6Z" fill="#F7F7F7"/>
<path d="M36 16L32.5359 10H39.4641L36 16ZM36.6 5V10.6H35.4V5H36.6Z" fill="#F7F7F7"/>
<path d="M79 0C79 2.7578 79.543 5.4885 80.599 8.0364C81.654 10.5842 83.201 12.8992 85.151 14.8492C87.101 16.7993 89.416 18.3461 91.964 19.4015C94.511 20.4568 97.242 21 100 21V0H79Z" fill="#F7FB68"/>
<path d="M79.5 0C79.5 2.6921 80.03 5.3578 81.06 7.845C82.091 10.3322 83.601 12.5921 85.504 14.4957C87.408 16.3993 89.668 17.9093 92.155 18.9395C94.642 19.9698 97.308 20.5 100 20.5V0H79.5Z" fill="#BFBDBD"/>
<path d="M99.5 21V0" stroke="#F7F7F7"/>
<path d="M99 0.5H79" stroke="#F7F7F7"/>
<path d="M100 79C97.242 79 94.511 79.543 91.964 80.599C89.416 81.654 87.101 83.201 85.151 85.151C83.201 87.101 81.654 89.416 80.599 91.964C79.543 94.511 79 97.242 79 100H100V79Z" fill="#F7FB68"/>
<path d="M100 79.5C97.308 79.5 94.642 80.03 92.155 81.06C89.668 82.091 87.408 83.601 85.504 85.504C83.601 87.408 82.091 89.668 81.06 92.155C80.03 94.642 79.5 97.308 79.5 100H100V79.5Z" fill="#BFBDBD"/>
<path d="M79 99.5H100" stroke="#F7F7F7"/>
<path d="M99.5 99V79" stroke="#F7F7F7"/>
<path d="M21 100C21 97.242 20.4568 94.511 19.4015 91.964C18.3461 89.416 16.7993 87.101 14.8492 85.151C12.8992 83.201 10.5842 81.654 8.0364 80.599C5.4885 79.543 2.7578 79 0 79V100H21Z" fill="#F7FB68"/>
<path d="M20.5 100C20.5 97.308 19.9698 94.642 18.9395 92.155C17.9093 89.668 16.3993 87.408 14.4957 85.504C12.5921 83.601 10.3322 82.091 7.845 81.06C5.3578 80.03 2.6921 79.5 0 79.5V100H20.5Z" fill="#BFBDBD"/>
<path d="M0.5 79V100" stroke="#F7F7F7"/>
<path d="M1 99.5H21" stroke="#F7F7F7"/>
<path d="M0 21C2.7578 21 5.4885 20.4568 8.0364 19.4015C10.5842 18.3461 12.8992 16.7993 14.8492 14.8492C16.7993 12.8992 18.3461 10.5842 19.4015 8.0364C20.4568 5.4885 21 2.7578 21 0H0V21Z" fill="#F7FB68"/>
<path d="M0 20.5C2.6921 20.5 5.3578 19.9698 7.845 18.9395C10.3322 17.9093 12.5921 16.3993 14.4957 14.4957C16.3993 12.5921 17.9093 10.3322 18.9395 7.845C19.9698 5.3578 20.5 2.6921 20.5 0H0V20.5Z" fill="#BFBDBD"/>
<path d="M21 0.5H0" stroke="#F7F7F7"/>
<path d="M0.5 1V21" stroke="#F7F7F7"/>
</g>
<defs>
<clipPath id="clip0_194_15283">
<rect width="100" height="100" fill="white"/>
</clipPath>
</defs>
</svg>
