<svg width="200" height="100" viewBox="0 0 200 100" fill="none" xmlns="http://www.w3.org/2000/svg">
<g clip-path="url(#clip0_194_15284)">
<path d="M200 0H0V100H200V0Z" fill="#646262"/>
<path d="M5 36L11 39.4641V32.5359L5 36ZM16 35.4H10.4V36.6H16V35.4Z" fill="#F7F7F7"/>
<path d="M16 64L10 67.4641V60.5359L16 64ZM5 63.4H10.6V64.6H5V63.4Z" fill="#F7F7F7"/>
<path fill-rule="evenodd" clip-rule="evenodd" d="M38.8029 8.419C40.9136 5.7499 42 2.8891 42 0H41C41 2.7578 39.9395 5.4885 37.8791 8.0364C35.8186 10.5842 32.7986 12.8992 28.9914 14.8492C25.1842 16.7993 20.6644 18.3461 15.69 19.4015C10.7157 20.4568 5.3842 21 0 21V22C5.5155 22 10.977 21.431 16.0727 20.3253C21.1684 19.2197 25.7984 17.5992 29.6985 15.5563C33.5985 13.5135 36.6922 11.0882 38.8029 8.419Z" fill="#F7F7F7"/>
<path d="M41 100C41 97.242 39.9395 94.511 37.8791 91.964C35.8186 89.416 32.7986 87.101 28.9914 85.151C25.1842 83.201 20.6644 81.654 15.69 80.599C10.7157 79.543 5.3842 79 0 79V100H41Z" fill="#F7FB68"/>
<path d="M40.5 100C40.5 97.308 39.4524 94.642 37.4171 92.155C35.3818 89.668 32.3986 87.408 28.6378 85.504C24.8771 83.601 20.4124 82.091 15.4987 81.06C10.585 80.03 5.3185 79.5 0 79.5V100H40.5Z" fill="#BFBDBD"/>
<path d="M41 99.5H0" stroke="#F7F7F7"/>
<path d="M0.5 99V79" stroke="#F7F7F7"/>
<path d="M41 0C41 2.7578 39.9395 5.4885 37.8791 8.0364C35.8186 10.5842 32.7986 12.8992 28.9914 14.8492C25.1842 16.7993 20.6644 18.3461 15.69 19.4015C10.7157 20.4568 5.3842 21 0 21V0H41Z" fill="#F7FB68"/>
<path d="M40.5 0C40.5 2.6921 39.4524 5.3578 37.4171 7.845C35.3818 10.3322 32.3986 12.5921 28.6378 14.4957C24.8771 16.3993 20.4124 17.9093 15.4987 18.9395C10.585 19.9698 5.3185 20.5 0 20.5V0H40.5Z" fill="#BFBDBD"/>
<path d="M41 0.5H0" stroke="#F7F7F7"/>
<path d="M0.5 1V21" stroke="#F7F7F7"/>
<path d="M83.9999 16L80.5359 10H87.4639L83.9999 16ZM84.5999 5V10.6H83.3999V5H84.5999Z" fill="#F7F7F7"/>
<path d="M56 16L52.5359 10H59.464L56 16ZM56.6 5V10.6H55.4V5H56.6Z" fill="#F7F7F7"/>
<path d="M144 5L140.536 11H147.464L144 5ZM144.6 16V10.4H143.4V16H144.6Z" fill="#F7F7F7"/>
<path d="M116 5L112.536 11H119.464L116 5ZM116.6 16V10.4H115.4V16H116.6Z" fill="#F7F7F7"/>
<path d="M83.9999 95L80.5359 89H87.4639L83.9999 95ZM84.5999 84V89.6H83.3999V84H84.5999Z" fill="#F7F7F7"/>
<path d="M56 95L52.5359 89H59.464L56 95ZM56.6 84V89.6H55.4V84H56.6Z" fill="#F7F7F7"/>
<path d="M144 84L140.536 90H147.464L144 84ZM144.6 95V89.4H143.4V95H144.6Z" fill="#F7F7F7"/>
<path d="M116 84L112.536 90H119.464L116 84ZM116.6 95V89.4H115.4V95H116.6Z" fill="#F7F7F7"/>
<path d="M184 36L190 39.4641V32.5359L184 36ZM195 35.4H189.4V36.6H195V35.4Z" fill="#F7F7F7"/>
<path d="M195 64L189 67.4641V60.5359L195 64ZM184 63.4H189.6V64.6H184V63.4Z" fill="#F7F7F7"/>
<path d="M159 0C159 2.7578 160.06 5.4885 162.121 8.0364C164.181 10.5842 167.201 12.8992 171.009 14.8492C174.816 16.7993 179.336 18.3461 184.31 19.4015C189.284 20.4568 194.616 21 200 21V0H159Z" fill="#F7FB68"/>
<path d="M159.5 0C159.5 2.6921 160.548 5.3578 162.583 7.845C164.618 10.3322 167.601 12.5921 171.362 14.4957C175.123 16.3993 179.588 17.9093 184.501 18.9395C189.415 19.9698 194.681 20.5 200 20.5V0H159.5Z" fill="#BFBDBD"/>
<path d="M159 0.5H200" stroke="#F7F7F7"/>
<path d="M199.5 1V21" stroke="#F7F7F7"/>
<path d="M159 100C159 97.242 160.06 94.511 162.121 91.964C164.181 89.416 167.201 87.101 171.009 85.151C174.816 83.201 179.336 81.654 184.31 80.599C189.284 79.543 194.616 79 200 79V100H159Z" fill="#F7FB68"/>
<path d="M159.5 100C159.5 97.308 160.548 94.642 162.583 92.155C164.618 89.668 167.601 87.408 171.362 85.504C175.123 83.601 179.588 82.091 184.501 81.06C189.415 80.03 194.681 79.5 200 79.5V100H159.5Z" fill="#BFBDBD"/>
<path d="M159 99.5H200" stroke="#F7F7F7"/>
<path d="M199.5 99V79" stroke="#F7F7F7"/>
<path fill-rule="evenodd" clip-rule="evenodd" d="M161.197 8.419C159.086 5.7499 158 2.8891 158 0H159C159 2.7578 160.06 5.4885 162.121 8.0364C164.181 10.5842 167.201 12.8992 171.009 14.8492C174.816 16.7993 179.336 18.3461 184.31 19.4015C189.284 20.4568 194.616 21 200 21V22C194.484 22 189.023 21.431 183.927 20.3253C178.832 19.2197 174.202 17.5992 170.302 15.5563C166.401 13.5135 163.308 11.0882 161.197 8.419Z" fill="#F7F7F7"/>
<path fill-rule="evenodd" clip-rule="evenodd" d="M161.197 8.419C159.086 5.7499 158 2.8891 158 0H159C159 2.7578 160.06 5.4885 162.121 8.0364C164.181 10.5842 167.201 12.8992 171.009 14.8492C174.816 16.7993 179.336 18.3461 184.31 19.4015C189.284 20.4568 194.616 21 200 21V22C194.484 22 189.023 21.431 183.927 20.3253C178.832 19.2197 174.202 17.5992 170.302 15.5563C166.401 13.5135 163.308 11.0882 161.197 8.419Z" fill="#F7F7F7"/>
<path fill-rule="evenodd" clip-rule="evenodd" d="M161.197 91.581C159.086 94.25 158 97.111 158 100H159C159 97.242 160.06 94.511 162.121 91.964C164.181 89.416 167.201 87.101 171.009 85.151C174.816 83.201 179.336 81.654 184.31 80.599C189.284 79.543 194.616 79 200 79V78C194.484 78 189.023 78.569 183.927 79.675C178.832 80.78 174.202 82.401 170.302 84.444C166.401 86.487 163.308 88.912 161.197 91.581Z" fill="#F7F7F7"/>
<path fill-rule="evenodd" clip-rule="evenodd" d="M38.8029 91.581C40.9136 94.25 42 97.111 42 100H41C41 97.242 39.9395 94.511 37.8791 91.964C35.8186 89.416 32.7986 87.101 28.9914 85.151C25.1842 83.201 20.6644 81.654 15.69 80.599C10.7157 79.543 5.3842 79 0 79V78C5.5155 78 10.977 78.569 16.0727 79.675C21.1684 80.78 25.7984 82.401 29.6985 84.444C33.5985 86.487 36.6922 88.912 38.8029 91.581Z" fill="#F7F7F7"/>
</g>
<defs>
<clipPath id="clip0_194_15284">
<rect width="200" height="100" fill="white"/>
</clipPath>
</defs>
</svg>
