<svg width="200" height="200" viewBox="0 0 200 200" fill="none" xmlns="http://www.w3.org/2000/svg">
<g clip-path="url(#clip0_194_15289)">
<path d="M200 0H0V200H200V0Z" fill="#646262"/>
<path d="M5 84L11 80.536V87.464L5 84ZM16 84.6H10.4V83.4H16V84.6Z" fill="#F7F7F7"/>
<path d="M5 56L11 52.5359V59.4641L5 56ZM16 56.6H10.4V55.4H16V56.6Z" fill="#F7F7F7"/>
<path d="M16 144L10 140.536V147.464L16 144ZM5 144.6H10.6V143.4H5V144.6Z" fill="#F7F7F7"/>
<path d="M16 116L10 112.536V119.464L16 116ZM5 116.6H10.6V115.4H5V116.6Z" fill="#F7F7F7"/>
<path d="M184 84L190 80.536V87.464L184 84ZM195 84.6H189.4V83.4H195V84.6Z" fill="#F7F7F7"/>
<path d="M184 56L190 52.5359V59.4641L184 56ZM195 56.6H189.4V55.4H195V56.6Z" fill="#F7F7F7"/>
<path d="M195 144L189 140.536V147.464L195 144ZM184 144.6H189.6V143.4H184V144.6Z" fill="#F7F7F7"/>
<path d="M195 116L189 112.536V119.464L195 116ZM184 116.6H189.6V115.4H184V116.6Z" fill="#F7F7F7"/>
<path d="M83.9999 16L80.5359 10H87.4639L83.9999 16ZM84.5999 5V10.6H83.3999V5H84.5999Z" fill="#F7F7F7"/>
<path d="M56 16L52.5359 10H59.464L56 16ZM56.6 5V10.6H55.4V5H56.6Z" fill="#F7F7F7"/>
<path d="M144 5L140.536 11H147.464L144 5ZM144.6 16V10.4H143.4V16H144.6Z" fill="#F7F7F7"/>
<path d="M116 5L112.536 11H119.464L116 5ZM116.6 16V10.4H115.4V16H116.6Z" fill="#F7F7F7"/>
<path d="M83.9999 195L80.5359 189H87.4639L83.9999 195ZM84.5999 184V189.6H83.3999V184H84.5999Z" fill="#F7F7F7"/>
<path d="M56 195L52.5359 189H59.464L56 195ZM56.6 184V189.6H55.4V184H56.6Z" fill="#F7F7F7"/>
<path d="M144 184L140.536 190H147.464L144 184ZM144.6 195V189.4H143.4V195H144.6Z" fill="#F7F7F7"/>
<path d="M116 184L112.536 190H119.464L116 184ZM116.6 195V189.4H115.4V195H116.6Z" fill="#F7F7F7"/>
<path d="M0 41C5.3842 41 10.7157 39.9395 15.69 37.8791C20.6644 35.8186 25.1842 32.7986 28.9914 28.9914C32.7986 25.1842 35.8186 20.6644 37.8791 15.69C39.9395 10.7157 41 5.3842 41 0H0V41Z" fill="#F7FB68"/>
<path d="M0 40.5C5.3185 40.5 10.585 39.4524 15.4987 37.4171C20.4124 35.3818 24.8771 32.3986 28.6378 28.6378C32.3986 24.8771 35.3818 20.4124 37.4171 15.4987C39.4524 10.585 40.5 5.3185 40.5 0H0V40.5Z" fill="#BFBDBD"/>
<path d="M41 0.5H0" stroke="#F7F7F7"/>
<path d="M0.5 1V41" stroke="#F7F7F7"/>
<path d="M200 159C194.616 159 189.284 160.06 184.31 162.121C179.336 164.181 174.816 167.201 171.009 171.009C167.201 174.816 164.181 179.336 162.121 184.31C160.06 189.284 159 194.616 159 200H200V159Z" fill="#F7FB68"/>
<path d="M200 159.5C194.681 159.5 189.415 160.548 184.501 162.583C179.588 164.618 175.123 167.601 171.362 171.362C167.601 175.123 164.618 179.588 162.583 184.501C160.548 189.415 159.5 194.681 159.5 200H200V159.5Z" fill="#BFBDBD"/>
<path d="M159 199.5H200" stroke="#F7F7F7"/>
<path d="M199.5 199V159" stroke="#F7F7F7"/>
<path d="M159 0C159 5.3842 160.06 10.7157 162.121 15.69C164.181 20.6644 167.201 25.1842 171.009 28.9914C174.816 32.7986 179.336 35.8186 184.31 37.8791C189.284 39.9395 194.616 41 200 41V0H159Z" fill="#F7FB68"/>
<path d="M159.5 0C159.5 5.3185 160.548 10.585 162.583 15.4987C164.618 20.4124 167.601 24.8771 171.362 28.6378C175.123 32.3986 179.588 35.3818 184.501 37.4171C189.415 39.4524 194.681 40.5 200 40.5V0H159.5Z" fill="#BFBDBD"/>
<path d="M199.5 41V0" stroke="#F7F7F7"/>
<path d="M199 0.5H159" stroke="#F7F7F7"/>
<path fill-rule="evenodd" clip-rule="evenodd" d="M161.197 16.0727C159.086 10.977 158 5.5155 158 0H159C159 5.3842 160.06 10.7157 162.121 15.69C164.181 20.6644 167.201 25.1842 171.009 28.9914C174.816 32.7986 179.336 35.8186 184.31 37.8791C189.284 39.9395 194.616 41 200 41V42C194.484 42 189.023 40.9136 183.927 38.8029C178.832 36.6922 174.202 33.5985 170.302 29.6985C166.401 25.7984 163.308 21.1684 161.197 16.0727Z" fill="#F7F7F7"/>
<path fill-rule="evenodd" clip-rule="evenodd" d="M183.927 161.197C189.023 159.086 194.484 158 200 158V159C194.616 159 189.284 160.06 184.31 162.121C179.336 164.181 174.816 167.201 171.009 171.009C167.201 174.816 164.181 179.336 162.121 184.31C160.06 189.284 159 194.616 159 200H158C158 194.484 159.086 189.023 161.197 183.927C163.308 178.832 166.401 174.202 170.302 170.302C174.202 166.401 178.832 163.308 183.927 161.197Z" fill="#F7F7F7"/>
<path fill-rule="evenodd" clip-rule="evenodd" d="M16.0727 38.8029C10.977 40.9136 5.5155 42 0 42V41C5.3842 41 10.7157 39.9395 15.69 37.8791C20.6644 35.8186 25.1842 32.7986 28.9914 28.9914C32.7986 25.1842 35.8186 20.6644 37.8791 15.69C39.9395 10.7157 41 5.3842 41 0H42C42 5.5155 40.9136 10.977 38.8029 16.0727C36.6922 21.1684 33.5985 25.7984 29.6985 29.6985C25.7984 33.5985 21.1684 36.6922 16.0727 38.8029Z" fill="#F7F7F7"/>
<path d="M0 178H100.152L100 158H200V200H0V178Z" fill="#646262"/>
<path d="M164 184L160.536 190H167.464L164 184ZM164.6 195V189.4H163.4V195H164.6Z" fill="#F7F7F7"/>
<path d="M136 195L132.536 189H139.464L136 195ZM136.6 184V189.6H135.4V184H136.6Z" fill="#F7F7F7"/>
<path d="M63.9999 184L60.5359 190H67.4639L63.9999 184ZM64.5999 195V189.4H63.3999V195H64.5999Z" fill="#F7F7F7"/>
<path d="M36 195L32.5359 189H39.4641L36 195ZM36.6 184V189.6H35.4V184H36.6Z" fill="#F7F7F7"/>
<path fill-rule="evenodd" clip-rule="evenodd" d="M115.556 184.444C119.682 188.569 122 194.165 122 200H121C121 194.43 118.788 189.089 114.849 185.151C110.911 181.212 105.57 179 100 179C94.43 179 89.089 181.212 85.151 185.151C81.212 189.089 79 194.43 79 200H78C78 194.165 80.318 188.569 84.444 184.444C88.569 180.318 94.165 178 100 178C105.835 178 111.431 180.318 115.556 184.444Z" fill="#F7F7F7"/>
<path d="M121 200C121 194.43 118.788 189.089 114.849 185.151C110.911 181.212 105.57 179 100 179C94.43 179 89.089 181.212 85.151 185.151C81.212 189.089 79 194.43 79 200H100H121Z" fill="#F7FB68"/>
<path d="M120.5 200C120.5 194.563 118.34 189.349 114.496 185.504C110.651 181.66 105.437 179.5 100 179.5C94.563 179.5 89.349 181.66 85.504 185.504C81.66 189.349 79.5 194.563 79.5 200H100H120.5Z" fill="#BFBDBD"/>
<path d="M79 199.5H121" stroke="#F7F7F7"/>
<path fill-rule="evenodd" clip-rule="evenodd" d="M191.581 161.197C194.25 159.086 197.111 158 200 158V159C197.242 159 194.511 160.06 191.964 162.121C189.416 164.181 187.101 167.201 185.151 171.009C183.201 174.816 181.654 179.336 180.599 184.31C179.543 189.284 179 194.616 179 200H178C178 194.484 178.569 189.023 179.675 183.927C180.78 178.832 182.401 174.202 184.444 170.302C186.487 166.401 188.912 163.308 191.581 161.197Z" fill="#F7F7F7"/>
<path d="M200 159C197.242 159 194.511 160.06 191.964 162.121C189.416 164.181 187.101 167.201 185.151 171.009C183.201 174.816 181.654 179.336 180.599 184.31C179.543 189.284 179 194.616 179 200H200V159Z" fill="#F7FB68"/>
<path d="M200 159.5C197.308 159.5 194.642 160.548 192.155 162.583C189.668 164.618 187.408 167.601 185.504 171.362C183.601 175.123 182.091 179.588 181.06 184.501C180.03 189.415 179.5 194.681 179.5 200H200V159.5Z" fill="#BFBDBD"/>
<path d="M199.5 159V200" stroke="#F7F7F7"/>
<path d="M199 199.5H179" stroke="#F7F7F7"/>
<path fill-rule="evenodd" clip-rule="evenodd" d="M20.3253 191.581C21.431 194.25 22 197.111 22 200H21C21 197.242 20.4568 194.511 19.4015 191.964C18.3461 189.416 16.7993 187.101 14.8492 185.151C12.8992 183.201 10.5842 181.654 8.0364 180.599C5.4885 179.543 2.7578 179 0 179V178C2.8891 178 5.7499 178.569 8.419 179.675C11.0882 180.78 13.5135 182.401 15.5563 184.444C17.5992 186.487 19.2197 188.912 20.3253 191.581Z" fill="#F7F7F7"/>
<path d="M21 200C21 197.242 20.4568 194.511 19.4015 191.964C18.3461 189.416 16.7993 187.101 14.8492 185.151C12.8992 183.201 10.5842 181.654 8.0364 180.599C5.4885 179.543 2.7578 179 0 179V200H21Z" fill="#F7FB68"/>
<path d="M20.5 200C20.5 197.308 19.9698 194.642 18.9395 192.155C17.9093 189.668 16.3993 187.408 14.4957 185.504C12.5921 183.601 10.3322 182.091 7.845 181.06C5.3578 180.03 2.6921 179.5 0 179.5V200H20.5Z" fill="#BFBDBD"/>
<path d="M0.5 179V200" stroke="#F7F7F7"/>
<path d="M1 199.5H21" stroke="#F7F7F7"/>
<path d="M42 0V100H22V200H0V0H42Z" fill="#646262"/>
<path d="M16 164L10 160.536V167.464L16 164ZM5 164.6H10.6V163.4H5V164.6Z" fill="#F7F7F7"/>
<path d="M5 136L11 132.536V139.464L5 136ZM16 136.6H10.4V135.4H16V136.6Z" fill="#F7F7F7"/>
<path d="M16 64L10 60.5359V67.4641L16 64ZM5 64.6H10.6V63.4H5V64.6Z" fill="#F7F7F7"/>
<path d="M5 36L11 32.5359V39.4641L5 36ZM16 36.6H10.4V35.4H16V36.6Z" fill="#F7F7F7"/>
<path fill-rule="evenodd" clip-rule="evenodd" d="M15.5563 115.556C11.4305 119.682 5.8348 122 0 122V121C5.5695 121 10.911 118.788 14.8492 114.849C18.7875 110.911 21 105.57 21 100C21 94.43 18.7875 89.089 14.8492 85.151C10.911 81.212 5.5695 79 0 79V78C5.8348 78 11.4306 80.318 15.5564 84.444C19.6822 88.569 22 94.165 22 100C22 105.835 19.6821 111.431 15.5563 115.556Z" fill="#F7F7F7"/>
<path d="M0 121C5.5695 121 10.911 118.788 14.8492 114.849C18.7875 110.911 21 105.57 21 100C21 94.43 18.7875 89.089 14.8492 85.151C10.911 81.212 5.5695 79 0 79V100V121Z" fill="#F7FB68"/>
<path d="M0 120.5C5.4369 120.5 10.6512 118.34 14.4957 114.496C18.3402 110.651 20.5 105.437 20.5 100C20.5 94.563 18.3402 89.349 14.4957 85.504C10.6512 81.66 5.4369 79.5 0 79.5V100V120.5Z" fill="#BFBDBD"/>
<path d="M0.5 79V121" stroke="#F7F7F7"/>
<path d="M41 0C41 2.7578 39.9395 5.4885 37.8791 8.0364C35.8186 10.5842 32.7986 12.8992 28.9914 14.8492C25.1842 16.7993 20.6644 18.3461 15.69 19.4015C10.7157 20.4568 5.3842 21 0 21V0H41Z" fill="#F7FB68"/>
<path d="M40.5 0C40.5 2.6921 39.4524 5.3578 37.4171 7.845C35.3818 10.3322 32.3986 12.5921 28.6378 14.4957C24.8771 16.3993 20.4124 17.9093 15.4987 18.9395C10.585 19.9698 5.3185 20.5 0 20.5V0H40.5Z" fill="#BFBDBD"/>
<path d="M41 0.5H0" stroke="#F7F7F7"/>
<path d="M0.5 1V21" stroke="#F7F7F7"/>
<path fill-rule="evenodd" clip-rule="evenodd" d="M38.8029 8.419C40.9136 5.7499 42 2.8891 42 0H41C41 2.7578 39.9395 5.4885 37.8791 8.0364C35.8186 10.5842 32.7986 12.8992 28.9914 14.8492C25.1842 16.7993 20.6644 18.3461 15.69 19.4015C10.7157 20.4568 5.3842 21 0 21V22C5.5155 22 10.977 21.431 16.0727 20.3253C21.1684 19.2197 25.7984 17.5992 29.6985 15.5563C33.5985 13.5135 36.6922 11.0882 38.8029 8.419Z" fill="#F7F7F7"/>
<path fill-rule="evenodd" clip-rule="evenodd" d="M20.3253 191.581C21.431 194.25 22 197.111 22 200H21C21 197.242 20.4568 194.511 19.4015 191.964C18.3461 189.416 16.7993 187.101 14.8492 185.151C12.8992 183.201 10.5842 181.654 8.0364 180.599C5.4885 179.543 2.7578 179 0 179V178C2.8891 178 5.7499 178.569 8.419 179.675C11.0882 180.78 13.5135 182.401 15.5563 184.444C17.5992 186.487 19.2197 188.912 20.3253 191.581Z" fill="#F7F7F7"/>
<path d="M21 200C21 197.242 20.4568 194.511 19.4015 191.964C18.3461 189.416 16.7993 187.101 14.8492 185.151C12.8992 183.201 10.5842 181.654 8.0364 180.599C5.4885 179.543 2.7578 179 0 179V200H21Z" fill="#F7FB68"/>
<path d="M20.5 200C20.5 197.308 19.9698 194.642 18.9395 192.155C17.9093 189.668 16.3993 187.408 14.4957 185.504C12.5921 183.601 10.3322 182.091 7.845 181.06C5.3578 180.03 2.6921 179.5 0 179.5V200H20.5Z" fill="#BFBDBD"/>
<path d="M0.5 179V200" stroke="#F7F7F7"/>
<path d="M1 199.5H21" stroke="#F7F7F7"/>
</g>
<defs>
<clipPath id="clip0_194_15289">
<rect width="200" height="200" fill="white"/>
</clipPath>
</defs>
</svg>
