<svg width="200" height="200" viewBox="0 0 200 200" fill="none" xmlns="http://www.w3.org/2000/svg">
<g clip-path="url(#clip0_194_15287)">
<path d="M200 0H0V200H200V0Z" fill="#646262"/>
<path d="M5 84L11 80.5359V87.4641L5 84ZM16 84.6H10.4V83.4H16V84.6Z" fill="#F7F7F7"/>
<path d="M5 56L11 52.5359V59.4641L5 56ZM16 56.6H10.4V55.4H16V56.6Z" fill="#F7F7F7"/>
<path d="M16 144L10 140.536V147.464L16 144ZM5 144.6H10.6V143.4H5V144.6Z" fill="#F7F7F7"/>
<path d="M16 116L10 112.536V119.464L16 116ZM5 116.6H10.6V115.4H5V116.6Z" fill="#F7F7F7"/>
<path d="M184 84L190 80.5359V87.4641L184 84ZM195 84.6H189.4V83.4H195V84.6Z" fill="#F7F7F7"/>
<path d="M184 56L190 52.5359V59.4641L184 56ZM195 56.6H189.4V55.4H195V56.6Z" fill="#F7F7F7"/>
<path d="M195 144L189 140.536V147.464L195 144ZM184 144.6H189.6V143.4H184V144.6Z" fill="#F7F7F7"/>
<path d="M195 116L189 112.536V119.464L195 116ZM184 116.6H189.6V115.4H184V116.6Z" fill="#F7F7F7"/>
<path d="M83.9999 16L80.5359 10H87.4639L83.9999 16ZM84.5999 5V10.6H83.3999V5H84.5999Z" fill="#F7F7F7"/>
<path d="M56 16L52.5359 10H59.4641L56 16ZM56.6 5V10.6H55.4V5H56.6Z" fill="#F7F7F7"/>
<path d="M144 5L140.536 11H147.464L144 5ZM144.6 16V10.4H143.4V16H144.6Z" fill="#F7F7F7"/>
<path d="M116 5L112.536 11H119.464L116 5ZM116.6 16V10.4H115.4V16H116.6Z" fill="#F7F7F7"/>
<path d="M83.9999 195L80.5359 189H87.4639L83.9999 195ZM84.5999 184V189.6H83.3999V184H84.5999Z" fill="#F7F7F7"/>
<path d="M56 195L52.5359 189H59.4641L56 195ZM56.6 184V189.6H55.4V184H56.6Z" fill="#F7F7F7"/>
<path d="M144 184L140.536 190H147.464L144 184ZM144.6 195V189.4H143.4V195H144.6Z" fill="#F7F7F7"/>
<path d="M116 184L112.536 190H119.464L116 184ZM116.6 195V189.4H115.4V195H116.6Z" fill="#F7F7F7"/>
<path d="M0 41C5.3842 41 10.7157 39.9395 15.69 37.8791C20.6644 35.8186 25.1842 32.7986 28.9914 28.9914C32.7986 25.1842 35.8186 20.6644 37.8791 15.69C39.9395 10.7157 41 5.3842 41 0L0 3.12805e-06V41Z" fill="#F7FB68"/>
<path d="M0 40.5C5.3185 40.5 10.585 39.4524 15.4987 37.4171C20.4124 35.3818 24.8771 32.3986 28.6378 28.6378C32.3986 24.8771 35.3818 20.4124 37.4171 15.4987C39.4524 10.585 40.5 5.31854 40.5 0L0 3.0899e-06V40.5Z" fill="#BFBDBD"/>
<path d="M41 0.5H0" stroke="#F7F7F7"/>
<path d="M0.5 1V41" stroke="#F7F7F7"/>
<path d="M41 200C41 194.616 39.9395 189.284 37.8791 184.31C35.8186 179.336 32.7986 174.816 28.9914 171.009C25.1842 167.201 20.6644 164.181 15.69 162.121C10.7157 160.06 5.3842 159 0 159V200H41Z" fill="#F7FB68"/>
<path d="M40.5 200C40.5 194.681 39.4524 189.415 37.4171 184.501C35.3818 179.588 32.3986 175.123 28.6378 171.362C24.8771 167.601 20.4124 164.618 15.4987 162.583C10.585 160.548 5.3185 159.5 0 159.5V200H40.5Z" fill="#BFBDBD"/>
<path d="M0.5 159V200" stroke="#F7F7F7"/>
<path d="M1 199.5H41" stroke="#F7F7F7"/>
<path d="M200 159C194.616 159 189.284 160.06 184.31 162.121C179.336 164.181 174.816 167.201 171.009 171.009C167.201 174.816 164.181 179.336 162.121 184.31C160.06 189.284 159 194.616 159 200H200V159Z" fill="#F7FB68"/>
<path d="M200 159.5C194.681 159.5 189.415 160.548 184.501 162.583C179.588 164.618 175.123 167.601 171.362 171.362C167.601 175.123 164.618 179.588 162.583 184.501C160.548 189.415 159.5 194.681 159.5 200H200V159.5Z" fill="#BFBDBD"/>
<path d="M159 199.5H200" stroke="#F7F7F7"/>
<path d="M199.5 199V159" stroke="#F7F7F7"/>
<path d="M159 0C159 5.3842 160.06 10.7157 162.121 15.69C164.181 20.6644 167.201 25.1842 171.009 28.9914C174.816 32.7986 179.336 35.8186 184.31 37.8791C189.284 39.9395 194.616 41 200 41V0H159Z" fill="#F7FB68"/>
<path d="M159.5 0C159.5 5.31853 160.548 10.585 162.583 15.4987C164.618 20.4124 167.601 24.8771 171.362 28.6378C175.123 32.3986 179.588 35.3818 184.501 37.4171C189.415 39.4524 194.681 40.5 200 40.5V0H159.5Z" fill="#BFBDBD"/>
<path d="M199.5 41V0" stroke="#F7F7F7"/>
<path d="M199 0.5H159" stroke="#F7F7F7"/>
<path fill-rule="evenodd" clip-rule="evenodd" d="M161.197 16.0727C159.086 10.977 158 5.51552 158 0H159C159 5.3842 160.06 10.7157 162.121 15.69C164.181 20.6644 167.201 25.1842 171.009 28.9914C174.816 32.7986 179.336 35.8186 184.31 37.8791C189.284 39.9395 194.616 41 200 41V42C194.484 42 189.023 40.9136 183.927 38.8029C178.832 36.6922 174.202 33.5985 170.302 29.6985C166.401 25.7984 163.308 21.1684 161.197 16.0727Z" fill="#F7F7F7"/>
<path fill-rule="evenodd" clip-rule="evenodd" d="M38.8029 183.927C40.9136 189.023 42 194.484 42 200H41C41 194.616 39.9395 189.284 37.8791 184.31C35.8186 179.336 32.7986 174.816 28.9914 171.009C25.1842 167.201 20.6644 164.181 15.69 162.121C10.7157 160.06 5.3842 159 0 159V158C5.5155 158 10.977 159.086 16.0727 161.197C21.1684 163.308 25.7984 166.401 29.6985 170.302C33.5985 174.202 36.6922 178.832 38.8029 183.927Z" fill="#F7F7F7"/>
<path fill-rule="evenodd" clip-rule="evenodd" d="M183.927 161.197C189.023 159.086 194.484 158 200 158V159C194.616 159 189.284 160.06 184.31 162.121C179.336 164.181 174.816 167.201 171.009 171.009C167.201 174.816 164.181 179.336 162.121 184.31C160.06 189.284 159 194.616 159 200H158C158 194.484 159.086 189.023 161.197 183.927C163.308 178.832 166.401 174.202 170.302 170.302C174.202 166.401 178.832 163.308 183.927 161.197Z" fill="#F7F7F7"/>
<path fill-rule="evenodd" clip-rule="evenodd" d="M16.0727 38.8029C10.977 40.9136 5.5155 42 0 42V41C5.3842 41 10.7157 39.9395 15.69 37.8791C20.6644 35.8186 25.1842 32.7986 28.9914 28.9914C32.7986 25.1842 35.8186 20.6644 37.8791 15.69C39.9395 10.7157 41 5.38419 41 0H42C42 5.51552 40.9136 10.977 38.8029 16.0727C36.6922 21.1684 33.5985 25.7984 29.6985 29.6985C25.7984 33.5985 21.1684 36.6922 16.0727 38.8029Z" fill="#F7F7F7"/>
</g>
<defs>
<clipPath id="clip0_194_15287">
<rect width="200" height="200" fill="white"/>
</clipPath>
</defs>
</svg>
