<svg width="200" height="100" viewBox="0 0 200 100" fill="none" xmlns="http://www.w3.org/2000/svg">
<g clip-path="url(#clip0_194_15286)">
<path d="M200 0H0V100H200V0Z" fill="#646262"/>
<path fill-rule="evenodd" clip-rule="evenodd" d="M20.3253 91.581C21.431 94.25 22 97.111 22 100H21C21 97.242 20.4568 94.511 19.4015 91.964C18.3461 89.416 16.7993 87.101 14.8492 85.151C12.8992 83.201 10.5842 81.654 8.0364 80.599C5.4885 79.543 2.7578 79 0 79V78C2.8891 78 5.7499 78.569 8.419 79.675C11.0882 80.78 13.5135 82.401 15.5563 84.444C17.5992 86.487 19.2197 88.912 20.3253 91.581Z" fill="#F7F7F7"/>
<path d="M5 36L11 39.4641V32.5359L5 36ZM16 35.4H10.4V36.6H16V35.4Z" fill="#F7F7F7"/>
<path d="M16 64L10 67.4641V60.5359L16 64ZM5 63.4H10.6V64.6H5V63.4Z" fill="#F7F7F7"/>
<path d="M63.9999 84L60.5359 90H67.4639L63.9999 84ZM64.5999 95V89.4H63.3999V95H64.5999Z" fill="#F7F7F7"/>
<path d="M36 95L32.5359 89H39.4641L36 95ZM36.6 84V89.6H35.4V84H36.6Z" fill="#F7F7F7"/>
<path d="M63.9999 5L60.5359 11H67.4639L63.9999 5ZM64.5999 16V10.4H63.3999V16H64.5999Z" fill="#F7F7F7"/>
<path d="M36 16L32.5359 10H39.4641L36 16ZM36.6 5V10.6H35.4V5H36.6Z" fill="#F7F7F7"/>
<path d="M21 100C21 97.242 20.4568 94.511 19.4015 91.964C18.3461 89.416 16.7993 87.101 14.8492 85.151C12.8992 83.201 10.5842 81.654 8.0364 80.599C5.4885 79.543 2.7578 79 0 79V100H21Z" fill="#F7FB68"/>
<path d="M20.5 100C20.5 97.308 19.9698 94.642 18.9395 92.155C17.9093 89.668 16.3993 87.408 14.4957 85.504C12.5921 83.601 10.3322 82.091 7.845 81.06C5.3578 80.03 2.6921 79.5 0 79.5V100H20.5Z" fill="#BFBDBD"/>
<path d="M0.5 79V100" stroke="#F7F7F7"/>
<path d="M1 99.5H21" stroke="#F7F7F7"/>
<path d="M0 21C2.7578 21 5.4885 20.4568 8.0364 19.4015C10.5842 18.3461 12.8992 16.7993 14.8492 14.8492C16.7993 12.8992 18.3461 10.5842 19.4015 8.0364C20.4568 5.4885 21 2.7578 21 0H0V21Z" fill="#F7FB68"/>
<path d="M0 20.5C2.6921 20.5 5.3578 19.9698 7.845 18.9395C10.3322 17.9093 12.5921 16.3993 14.4957 14.4957C16.3993 12.5921 17.9093 10.3322 18.9395 7.845C19.9698 5.3578 20.5 2.6921 20.5 0H0V20.5Z" fill="#BFBDBD"/>
<path d="M21 0.5H0" stroke="#F7F7F7"/>
<path d="M0.5 1V21" stroke="#F7F7F7"/>
<path d="M179 0C179 2.7578 179.543 5.4885 180.599 8.0364C181.654 10.5842 183.201 12.8992 185.151 14.8492C187.101 16.7993 189.416 18.3461 191.964 19.4015C194.511 20.4568 197.242 21 200 21V0H179Z" fill="#F7FB68"/>
<path d="M179.5 0C179.5 2.6921 180.03 5.3578 181.06 7.845C182.091 10.3322 183.601 12.5921 185.504 14.4957C187.408 16.3993 189.668 17.9093 192.155 18.9395C194.642 19.9698 197.308 20.5 200 20.5V0H179.5Z" fill="#BFBDBD"/>
<path d="M199.5 21V0" stroke="#F7F7F7"/>
<path d="M199 0.5H179" stroke="#F7F7F7"/>
<path fill-rule="evenodd" clip-rule="evenodd" d="M115.556 84.444C119.682 88.569 122 94.165 122 100H121C121 94.43 118.788 89.089 114.849 85.151C110.911 81.212 105.57 79 100 79C94.43 79 89.089 81.212 85.151 85.151C81.212 89.089 79 94.43 79 100H78C78 94.165 80.318 88.569 84.444 84.444C88.569 80.318 94.165 78 100 78C105.835 78 111.431 80.318 115.556 84.444Z" fill="#F7F7F7"/>
<path fill-rule="evenodd" clip-rule="evenodd" d="M116.556 15.5563C120.682 11.4305 123 5.8348 123 0H122C122 5.5695 119.788 10.911 115.849 14.8492C111.911 18.7875 106.57 21 101 21C95.43 21 90.089 18.7875 86.151 14.8492C82.212 10.911 80 5.5695 80 0H79C79 5.8348 81.318 11.4306 85.444 15.5564C89.569 19.6822 95.165 22 101 22C106.835 22 112.431 19.6821 116.556 15.5563Z" fill="#F7F7F7"/>
<path d="M121 100C121 94.43 118.788 89.089 114.849 85.151C110.911 81.212 105.57 79 100 79C94.43 79 89.089 81.212 85.151 85.151C81.212 89.089 79 94.43 79 100H100H121Z" fill="#F7FB68"/>
<path d="M120.5 100C120.5 94.563 118.34 89.349 114.496 85.504C110.651 81.66 105.437 79.5 100 79.5C94.563 79.5 89.349 81.66 85.504 85.504C81.66 89.349 79.5 94.563 79.5 100H100H120.5Z" fill="#BFBDBD"/>
<path d="M79 99.5H121" stroke="#F7F7F7"/>
<path d="M122 0C122 5.5695 119.788 10.911 115.849 14.8492C111.911 18.7875 106.57 21 101 21C95.43 21 90.089 18.7875 86.151 14.8492C82.212 10.911 80 5.5695 80 0H101H122Z" fill="#F7FB68"/>
<path d="M121.5 0C121.5 5.4369 119.34 10.6512 115.496 14.4957C111.651 18.3402 106.437 20.5 101 20.5C95.563 20.5 90.349 18.3402 86.504 14.4957C82.66 10.6512 80.5 5.4369 80.5 0H101H121.5Z" fill="#BFBDBD"/>
<path d="M80 0.5H122" stroke="#F7F7F7"/>
<path d="M184 36L190 39.4641V32.5359L184 36ZM195 35.4H189.4V36.6H195V35.4Z" fill="#F7F7F7"/>
<path d="M195 64L189 67.4641V60.5359L195 64ZM184 63.4H189.6V64.6H184V63.4Z" fill="#F7F7F7"/>
<path fill-rule="evenodd" clip-rule="evenodd" d="M191.581 79.675C194.25 78.569 197.111 78 200 78V79C197.242 79 194.511 79.543 191.964 80.599C189.416 81.654 187.101 83.201 185.151 85.151C183.201 87.101 181.654 89.416 180.599 91.964C179.543 94.511 179 97.242 179 100H178C178 97.111 178.569 94.25 179.675 91.581C180.78 88.912 182.401 86.487 184.444 84.444C186.487 82.401 188.912 80.78 191.581 79.675Z" fill="#F7F7F7"/>
<path fill-rule="evenodd" clip-rule="evenodd" d="M179.675 8.419C178.569 5.7499 178 2.8891 178 0H179C179 2.7578 179.543 5.4885 180.599 8.0364C181.654 10.5842 183.201 12.8992 185.151 14.8492C187.101 16.7993 189.416 18.3461 191.964 19.4015C194.511 20.4568 197.242 21 200 21V22C197.111 22 194.25 21.431 191.581 20.3254C188.912 19.2197 186.487 17.5992 184.444 15.5563C182.401 13.5135 180.78 11.0882 179.675 8.419Z" fill="#F7F7F7"/>
<path fill-rule="evenodd" clip-rule="evenodd" d="M8.419 20.3253C5.7499 21.431 2.8891 22 0 22V21C2.7578 21 5.4885 20.4568 8.0364 19.4015C10.5842 18.3461 12.8992 16.7993 14.8492 14.8492C16.7993 12.8992 18.3461 10.5842 19.4015 8.0364C20.4568 5.4885 21 2.7578 21 0H22C22 2.8891 21.431 5.7499 20.3254 8.419C19.2197 11.0882 17.5992 13.5135 15.5563 15.5563C13.5135 17.5992 11.0882 19.2197 8.419 20.3253Z" fill="#F7F7F7"/>
<path d="M200 79C197.242 79 194.511 79.543 191.964 80.599C189.416 81.654 187.101 83.201 185.151 85.151C183.201 87.101 181.654 89.416 180.599 91.964C179.543 94.511 179 97.242 179 100H200V79Z" fill="#F7FB68"/>
<path d="M200 79.5C197.308 79.5 194.642 80.03 192.155 81.06C189.668 82.091 187.408 83.601 185.504 85.504C183.601 87.408 182.091 89.668 181.06 92.155C180.03 94.642 179.5 97.308 179.5 100H200V79.5Z" fill="#BFBDBD"/>
<path d="M179 99.5H200" stroke="#F7F7F7"/>
<path d="M199.5 99V79" stroke="#F7F7F7"/>
<path d="M164 84L160.536 90H167.464L164 84ZM164.6 95V89.4H163.4V95H164.6Z" fill="#F7F7F7"/>
<path d="M136 95L132.536 89H139.464L136 95ZM136.6 84V89.6H135.4V84H136.6Z" fill="#F7F7F7"/>
<path d="M164 5L160.536 11H167.464L164 5ZM164.6 16V10.4H163.4V16H164.6Z" fill="#F7F7F7"/>
<path d="M136 16L132.536 10H139.464L136 16ZM136.6 5V10.6H135.4V5H136.6Z" fill="#F7F7F7"/>
</g>
<defs>
<clipPath id="clip0_194_15286">
<rect width="200" height="100" fill="white"/>
</clipPath>
</defs>
</svg>
