<svg width="16" height="16" viewBox="0 0 16 16" fill="none" xmlns="http://www.w3.org/2000/svg">
<path d="M4.56 0H10.64L15.2 4.56V10.64L10.64 15.2H4.56L0 10.64V4.56L4.56 0Z" fill="black"/>
<path d="M0.275098 4.67246L4.67259 0.274976H10.5276L14.9251 4.67246V10.5275L10.5276 14.925H4.67259L0.275098 10.5275V4.67246Z" fill="#CD0202" stroke="#FFFDFC" stroke-width="0.35"/>
<path d="M1.13184 8.6748L1.69824 8.48438C1.78939 8.64714 1.92122 8.7806 2.09375 8.88477C2.26628 8.98568 2.45671 9.03613 2.66504 9.03613C2.87988 9.03613 3.05241 8.98405 3.18262 8.87988C3.31283 8.77572 3.37793 8.64062 3.37793 8.47461C3.37793 8.29883 3.30794 8.16211 3.16797 8.06445C3.03125 7.9668 2.82943 7.8724 2.5625 7.78125C2.18164 7.6543 1.92448 7.55339 1.79102 7.47852C1.44271 7.27995 1.26855 6.99186 1.26855 6.61426C1.26855 6.29525 1.39388 6.03809 1.64453 5.84277C1.89518 5.64746 2.22233 5.5498 2.62598 5.5498C2.95801 5.5498 3.24121 5.62793 3.47559 5.78418C3.71322 5.93717 3.88574 6.13411 3.99316 6.375L3.45117 6.55566C3.24284 6.25293 2.96615 6.10156 2.62109 6.10156C2.40951 6.10156 2.24186 6.14876 2.11816 6.24316C1.99447 6.33757 1.93262 6.46126 1.93262 6.61426C1.93262 6.65983 1.9375 6.70378 1.94727 6.74609C1.95703 6.78516 1.97656 6.82259 2.00586 6.8584C2.03516 6.89421 2.0612 6.92513 2.08398 6.95117C2.10677 6.97721 2.14421 7.00488 2.19629 7.03418C2.24837 7.06348 2.28906 7.08626 2.31836 7.10254C2.35091 7.11882 2.40299 7.13997 2.47461 7.16602C2.54622 7.19206 2.59668 7.20996 2.62598 7.21973C2.65853 7.22949 2.71712 7.24902 2.80176 7.27832C2.88639 7.30436 2.94336 7.32227 2.97266 7.33203C3.1224 7.38086 3.25423 7.43294 3.36816 7.48828C3.4821 7.54362 3.59277 7.61523 3.7002 7.70312C3.81087 7.78776 3.89551 7.89355 3.9541 8.02051C4.0127 8.14746 4.04199 8.29069 4.04199 8.4502C4.04199 8.81152 3.91178 9.09147 3.65137 9.29004C3.39421 9.48861 3.06055 9.58789 2.65039 9.58789C2.29557 9.58789 1.9847 9.50651 1.71777 9.34375C1.45085 9.17773 1.25553 8.95475 1.13184 8.6748ZM4.16406 6.18945V5.6377H7.03516V6.18945H5.92188V9.5H5.27734V6.18945H4.16406ZM7.21582 7.57129C7.21582 6.96582 7.36719 6.47754 7.66992 6.10645C7.97266 5.73535 8.37467 5.5498 8.87598 5.5498C9.37728 5.5498 9.77767 5.73535 10.0771 6.10645C10.3799 6.47428 10.5312 6.96257 10.5312 7.57129C10.5312 8.18001 10.3799 8.66829 10.0771 9.03613C9.77441 9.40397 9.37402 9.58789 8.87598 9.58789C8.37467 9.58789 7.97266 9.40397 7.66992 9.03613C7.36719 8.66829 7.21582 8.18001 7.21582 7.57129ZM7.87988 7.57129C7.87988 8.02376 7.96777 8.38184 8.14355 8.64551C8.32259 8.90592 8.56673 9.03613 8.87598 9.03613C9.18197 9.03613 9.42285 8.90592 9.59863 8.64551C9.77767 8.38509 9.86719 8.02702 9.86719 7.57129C9.86719 7.12207 9.7793 6.76562 9.60352 6.50195C9.43099 6.23503 9.18848 6.10156 8.87598 6.10156C8.56673 6.10156 8.32259 6.23503 8.14355 6.50195C7.96777 6.76562 7.87988 7.12207 7.87988 7.57129ZM11.1709 9.5V5.6377H12.6797C13.0833 5.6377 13.3975 5.74674 13.6221 5.96484C13.8499 6.17969 13.9639 6.46452 13.9639 6.81934C13.9639 7.18392 13.8467 7.47201 13.6123 7.68359C13.3812 7.89518 13.0736 8.00098 12.6895 8.00098H11.8154V9.5H11.1709ZM11.8154 7.4541H12.6016C12.8229 7.4541 12.9954 7.40039 13.1191 7.29297C13.2428 7.18555 13.3047 7.02767 13.3047 6.81934C13.3047 6.61426 13.2445 6.45801 13.124 6.35059C13.0036 6.24316 12.8278 6.18945 12.5967 6.18945H11.8154V7.4541Z" fill="white"/>
</svg>
