<svg width="18" height="21" viewBox="0 0 18 21" fill="none" xmlns="http://www.w3.org/2000/svg">
<rect x="0.05" y="6.05" width="17.9" height="14.9" rx="0.95" fill="#F7FB68" stroke="black" stroke-width="0.1"/>
<rect x="1" y="7" width="8" height="13" fill="#181C1F"/>
<rect x="9" y="7" width="8" height="13" fill="#181C1F"/>
<circle cx="13" cy="10.5" r="2.45" fill="#E3EA31" stroke="black" stroke-width="0.1"/>
<circle cx="13" cy="16.5" r="2.45" fill="#60D331" stroke="black" stroke-width="0.1"/>
<path d="M5 0.05H13C13.5247 0.05 13.95 0.47533 13.95 1V5.95H4.05V1C4.05 0.47533 4.47533 0.05 5 0.05Z" fill="#F7FB68" stroke="black" stroke-width="0.1"/>
<rect x="5" y="1" width="8" height="6" fill="#181C1F"/>
<circle cx="9" cy="4.5" r="2.45" fill="#D10F11" stroke="black" stroke-width="0.1"/>
<circle cx="5" cy="16.5" r="2.45" fill="#3F403E" stroke="black" stroke-width="0.1"/>
<mask id="path-10-inside-1_194_15241" fill="white">
<path fill-rule="evenodd" clip-rule="evenodd" d="M4.5 14.4L2.75 16.5L4.5 18.6H5.42356C5.50887 18.6 5.55501 18.5001 5.49966 18.4351L4.27624 17H7.15V16H4.27624L5.49966 14.5649C5.55501 14.5 5.50887 14.4 5.42356 14.4H4.5Z"/>
</mask>
<path fill-rule="evenodd" clip-rule="evenodd" d="M4.5 14.4L2.75 16.5L4.5 18.6H5.42356C5.50887 18.6 5.55501 18.5001 5.49966 18.4351L4.27624 17H7.15V16H4.27624L5.49966 14.5649C5.55501 14.5 5.50887 14.4 5.42356 14.4H4.5Z" fill="#60D331"/>
<path d="M2.75 16.5L2.59636 16.372L2.48966 16.5L2.59636 16.6281L2.75 16.5ZM4.5 14.4V14.2H4.40633L4.34636 14.272L4.5 14.4ZM4.5 18.6L4.34636 18.7281L4.40633 18.8H4.5V18.6ZM5.49966 18.4351L5.65187 18.3054L5.65187 18.3054L5.49966 18.4351ZM4.27624 17V16.8H3.84294L4.12404 17.1298L4.27624 17ZM7.15 17V17.2H7.35V17H7.15ZM7.15 16H7.35V15.8H7.15V16ZM4.27624 16L4.12404 15.8703L3.84294 16.2H4.27624V16ZM5.49966 14.5649L5.65187 14.6946L5.65187 14.6946L5.49966 14.5649ZM2.90364 16.6281L4.65364 14.5281L4.34636 14.272L2.59636 16.372L2.90364 16.6281ZM4.65364 18.472L2.90364 16.372L2.59636 16.6281L4.34636 18.7281L4.65364 18.472ZM5.42356 18.4H4.5V18.8H5.42356V18.4ZM5.34746 18.5649C5.29212 18.5 5.33825 18.4 5.42356 18.4V18.8C5.67949 18.8 5.8179 18.5002 5.65187 18.3054L5.34746 18.5649ZM4.12404 17.1298L5.34746 18.5649L5.65187 18.3054L4.42844 16.8703L4.12404 17.1298ZM7.15 16.8H4.27624V17.2H7.15V16.8ZM6.95 16V17H7.35V16H6.95ZM4.27624 16.2H7.15V15.8H4.27624V16.2ZM5.34746 14.4351L4.12404 15.8703L4.42844 16.1298L5.65187 14.6946L5.34746 14.4351ZM5.42356 14.6C5.33825 14.6 5.29212 14.5001 5.34746 14.4352L5.65187 14.6946C5.8179 14.4999 5.67949 14.2 5.42356 14.2V14.6ZM4.5 14.6H5.42356V14.2H4.5V14.6Z" fill="white" mask="url(#path-10-inside-1_194_15241)"/>
<circle cx="5" cy="10.5" r="2.45" fill="#3F403E" stroke="black" stroke-width="0.1"/>
<mask id="path-13-inside-2_194_15241" fill="white">
<path fill-rule="evenodd" clip-rule="evenodd" d="M4.5 8.40002L2.75 10.5L4.5 12.6H5.42356C5.50887 12.6 5.55501 12.5001 5.49966 12.4351L4.27624 11H7.15V10H4.27624L5.49966 8.5649C5.55501 8.49998 5.50887 8.40002 5.42356 8.40002H4.5Z"/>
</mask>
<path fill-rule="evenodd" clip-rule="evenodd" d="M4.5 8.40002L2.75 10.5L4.5 12.6H5.42356C5.50887 12.6 5.55501 12.5001 5.49966 12.4351L4.27624 11H7.15V10H4.27624L5.49966 8.5649C5.55501 8.49998 5.50887 8.40002 5.42356 8.40002H4.5Z" fill="#E3EA31"/>
<path d="M2.75 10.5L2.59636 10.372L2.48966 10.5L2.59636 10.6281L2.75 10.5ZM4.5 8.40002V8.20002H4.40633L4.34636 8.27199L4.5 8.40002ZM4.5 12.6L4.34636 12.7281L4.40633 12.8H4.5V12.6ZM5.49966 12.4351L5.65187 12.3054L5.65187 12.3054L5.49966 12.4351ZM4.27624 11V10.8H3.84294L4.12404 11.1298L4.27624 11ZM7.15 11V11.2H7.35V11H7.15ZM7.15 10H7.35V9.80002H7.15V10ZM4.27624 10L4.12404 9.87028L3.84294 10.2H4.27624V10ZM5.49966 8.5649L5.65187 8.69465L5.65187 8.69465L5.49966 8.5649ZM2.90364 10.6281L4.65364 8.52806L4.34636 8.27199L2.59636 10.372L2.90364 10.6281ZM4.65364 12.472L2.90364 10.372L2.59636 10.6281L4.34636 12.7281L4.65364 12.472ZM5.42356 12.4H4.5V12.8H5.42356V12.4ZM5.34746 12.5649C5.29212 12.5 5.33825 12.4 5.42356 12.4V12.8C5.67949 12.8 5.8179 12.5002 5.65187 12.3054L5.34746 12.5649ZM4.12404 11.1298L5.34746 12.5649L5.65187 12.3054L4.42844 10.8703L4.12404 11.1298ZM7.15 10.8H4.27624V11.2H7.15V10.8ZM6.95 10V11H7.35V10H6.95ZM4.27624 10.2H7.15V9.80002H4.27624V10.2ZM5.34746 8.43515L4.12404 9.87028L4.42844 10.1298L5.65187 8.69465L5.34746 8.43515ZM5.42356 8.60002C5.33825 8.60002 5.29212 8.50007 5.34746 8.43515L5.65187 8.69465C5.8179 8.49989 5.67949 8.20002 5.42356 8.20002V8.60002ZM4.5 8.60002H5.42356V8.20002H4.5V8.60002Z" fill="white" mask="url(#path-13-inside-2_194_15241)"/>
<rect x="13" y="5" width="0.9" height="2" fill="#F7FB68"/>
<rect x="4.1001" y="5" width="0.9" height="2" fill="#F7FB68"/>
</svg>
