<svg width="10" height="27" viewBox="0 0 10 27" fill="none" xmlns="http://www.w3.org/2000/svg">
<rect x="0.05" y="0.05" width="9.9" height="26.9" rx="0.95" fill="#F7FB68" stroke="black" stroke-width="0.1"/>
<rect x="1" y="1" width="8" height="25" fill="#181C1F"/>
<circle cx="5" cy="4.5" r="2.45" fill="#D10F11" stroke="black" stroke-width="0.1"/>
<circle cx="5" cy="10.5" r="2.45" fill="#E3EA31" stroke="black" stroke-width="0.1"/>
<circle cx="5" cy="16.5" r="2.45" fill="#60D331" stroke="black" stroke-width="0.1"/>
<circle cx="5" cy="22.5" r="2.45" fill="#3F403E" stroke="black" stroke-width="0.1"/>
<mask id="path-7-inside-1_194_15319" fill="white">
<path fill-rule="evenodd" clip-rule="evenodd" d="M4.5 20.4L2.75 22.5L4.5 24.6H5.42356C5.50887 24.6 5.55501 24.5001 5.49966 24.4351L4.27624 23H7.15V22H4.27624L5.49966 20.5649C5.55501 20.5 5.50887 20.4 5.42356 20.4H4.5Z"/>
</mask>
<path fill-rule="evenodd" clip-rule="evenodd" d="M4.5 20.4L2.75 22.5L4.5 24.6H5.42356C5.50887 24.6 5.55501 24.5001 5.49966 24.4351L4.27624 23H7.15V22H4.27624L5.49966 20.5649C5.55501 20.5 5.50887 20.4 5.42356 20.4H4.5Z" fill="#60D331"/>
<path d="M2.75 22.5L2.59636 22.372L2.48966 22.5L2.59636 22.6281L2.75 22.5ZM4.5 20.4V20.2H4.40633L4.34636 20.272L4.5 20.4ZM4.5 24.6L4.34636 24.7281L4.40633 24.8H4.5V24.6ZM5.49966 24.4351L5.65187 24.3054L5.65187 24.3054L5.49966 24.4351ZM4.27624 23V22.8H3.84294L4.12404 23.1298L4.27624 23ZM7.15 23V23.2H7.35V23H7.15ZM7.15 22H7.35V21.8H7.15V22ZM4.27624 22L4.12404 21.8703L3.84294 22.2H4.27624V22ZM5.49966 20.5649L5.65187 20.6946L5.65187 20.6946L5.49966 20.5649ZM2.90364 22.6281L4.65364 20.5281L4.34636 20.272L2.59636 22.372L2.90364 22.6281ZM4.65364 24.472L2.90364 22.372L2.59636 22.6281L4.34636 24.7281L4.65364 24.472ZM5.42356 24.4H4.5V24.8H5.42356V24.4ZM5.34746 24.5649C5.29212 24.5 5.33825 24.4 5.42356 24.4V24.8C5.67949 24.8 5.8179 24.5002 5.65187 24.3054L5.34746 24.5649ZM4.12404 23.1298L5.34746 24.5649L5.65187 24.3054L4.42844 22.8703L4.12404 23.1298ZM7.15 22.8H4.27624V23.2H7.15V22.8ZM6.95 22V23H7.35V22H6.95ZM4.27624 22.2H7.15V21.8H4.27624V22.2ZM5.34746 20.4351L4.12404 21.8703L4.42844 22.1298L5.65187 20.6946L5.34746 20.4351ZM5.42356 20.6C5.33825 20.6 5.29212 20.5001 5.34746 20.4352L5.65187 20.6946C5.8179 20.4999 5.67949 20.2 5.42356 20.2V20.6ZM4.5 20.6H5.42356V20.2H4.5V20.6Z" fill="white" mask="url(#path-7-inside-1_194_15319)"/>
</svg>
