<svg width="200" height="100" viewBox="0 0 200 100" fill="none" xmlns="http://www.w3.org/2000/svg">
<rect x="20" width="140" height="100" fill="#646262"/>
<line x1="99" x2="99" y2="100" stroke="#F7FB68"/>
<line x1="101" x2="101" y2="100" stroke="#F7FB68"/>
<path fill-rule="evenodd" clip-rule="evenodd" d="M130 12V5H129V12H130ZM129 26V19H130V26H129ZM130 40V33H129V40H130ZM129 54V47H130V54H129ZM130 68V61H129V68H130ZM129 82V75H130V82H129ZM130 89V96H129V89H130Z" fill="#F7F7F7"/>
<path fill-rule="evenodd" clip-rule="evenodd" d="M71 12V5H70V12H71ZM70 26V19H71V26H70ZM71 40V33H70V40H71ZM70 54V47H71V54H70ZM71 68V61H70V68H71ZM70 82V75H71V82H70ZM71 89V96H70V89H71Z" fill="#F7F7F7"/>
<line x1="158.5" x2="158.5" y2="100" stroke="#F7F7F7"/>
<line x1="21.5" x2="21.5" y2="100" stroke="#F7F7F7"/>
<line x1="42.5" y1="10" x2="42.5" y2="5" stroke="#F7F7F7"/>
<line x1="42" y1="5.5" x2="41" y2="5.5" stroke="#F7F7F7"/>
<line x1="42.5" y1="25" x2="42.5" y2="31" stroke="#F7F7F7"/>
<line y1="-0.5" x2="6" y2="-0.5" transform="matrix(1 2.31864e-09 2.31864e-09 -1 37 50)" stroke="#F7F7F7"/>
<line y1="-0.5" x2="11" y2="-0.5" transform="matrix(0 1 1 0 43 45)" stroke="#F7F7F7"/>
<line y1="-0.5" x2="3" y2="-0.5" transform="matrix(1 0 0 -1 28 50)" stroke="#F7F7F7"/>
<line x1="42.5" y1="70" x2="42.5" y2="76" stroke="#F7F7F7"/>
<line y1="-0.5" x2="5" y2="-0.5" transform="matrix(0 1 1 0 43 90)" stroke="#F7F7F7"/>
<line y1="-0.5" x2="1" y2="-0.5" transform="matrix(-1 0 0 1 42 95)" stroke="#F7F7F7"/>
</svg>
