<svg width="100" height="100" viewBox="0 0 100 100" fill="none" xmlns="http://www.w3.org/2000/svg">
<rect x="4" width="92" height="100" fill="#646262"/>
<line x1="49" x2="49" y2="100" stroke="#F7FB68"/>
<line x1="51" x2="51" y2="100" stroke="#F7FB68"/>
<line x1="79" y1="50.5" x2="73" y2="50.5" stroke="#F7F7F7"/>
<line x1="73.5" y1="45" x2="73.5" y2="56" stroke="#F7F7F7"/>
<line x1="88" y1="50.5" x2="85" y2="50.5" stroke="#F7F7F7"/>
<line y1="-0.5" x2="6" y2="-0.5" transform="matrix(1 2.31864e-09 2.31864e-09 -1 21 50)" stroke="#F7F7F7"/>
<line y1="-0.5" x2="11" y2="-0.5" transform="matrix(0 1 1 0 27 45)" stroke="#F7F7F7"/>
<line y1="-0.5" x2="3" y2="-0.5" transform="matrix(1 0 0 -1 12 50)" stroke="#F7F7F7"/>
<line x1="73.5" y1="90" x2="73.5" y2="95" stroke="#F7F7F7"/>
<line x1="74" y1="94.5" x2="75" y2="94.5" stroke="#F7F7F7"/>
<line y1="-0.5" x2="5" y2="-0.5" transform="matrix(0 -1 -1 0 73 10)" stroke="#F7F7F7"/>
<line y1="-0.5" x2="1" y2="-0.5" transform="matrix(1 0 0 -1 74 5)" stroke="#F7F7F7"/>
<line x1="26.5" y1="10" x2="26.5" y2="5" stroke="#F7F7F7"/>
<line x1="26" y1="5.5" x2="25" y2="5.5" stroke="#F7F7F7"/>
<line y1="-0.5" x2="5" y2="-0.5" transform="matrix(0 1 1 0 27 90)" stroke="#F7F7F7"/>
<line y1="-0.5" x2="1" y2="-0.5" transform="matrix(-1 0 0 1 26 95)" stroke="#F7F7F7"/>
<line x1="73.5" y1="70" x2="73.5" y2="76" stroke="#F7F7F7"/>
<line x1="26.5" y1="70" x2="26.5" y2="76" stroke="#F7F7F7"/>
<line x1="73.5" y1="25" x2="73.5" y2="31" stroke="#F7F7F7"/>
<line x1="26.5" y1="25" x2="26.5" y2="31" stroke="#F7F7F7"/>
<line x1="94.5" x2="94.5" y2="100" stroke="#F7F7F7"/>
<line x1="5.5" x2="5.5" y2="100" stroke="#F7F7F7"/>
</svg>
