<svg width="8" height="100" viewBox="0 0 8 100" fill="none" xmlns="http://www.w3.org/2000/svg">
<rect width="8" height="10" fill="#D9D9D9"/>
<path d="M0.25 0L0.25 10" stroke="#7A7A7A" stroke-width="0.5"/>
<line y1="-0.25" x2="10" y2="-0.25" transform="matrix(0 1 1 0 8 0)" stroke="#7A7A7A" stroke-width="0.5"/>
<line y1="-0.125" x2="8" y2="-0.125" transform="matrix(1 0 0 -1 0 0)" stroke="#7A7A7A" stroke-width="0.25"/>
<line y1="9.875" x2="8" y2="9.875" stroke="#7A7A7A" stroke-width="0.25"/>
<rect y="10" width="8" height="10" fill="#D9D9D9"/>
<path d="M0.25 10L0.25 20" stroke="#7A7A7A" stroke-width="0.5"/>
<line y1="-0.25" x2="10" y2="-0.25" transform="matrix(0 1 1 0 8 10)" stroke="#7A7A7A" stroke-width="0.5"/>
<line y1="-0.125" x2="8" y2="-0.125" transform="matrix(1 0 0 -1 0 10)" stroke="#7A7A7A" stroke-width="0.25"/>
<line y1="19.875" x2="8" y2="19.875" stroke="#7A7A7A" stroke-width="0.25"/>
<rect y="80" width="8" height="10" fill="#D9D9D9"/>
<path d="M0.25 80L0.25 90" stroke="#7A7A7A" stroke-width="0.5"/>
<line y1="-0.25" x2="10" y2="-0.25" transform="matrix(0 1 1 0 8 80)" stroke="#7A7A7A" stroke-width="0.5"/>
<line y1="-0.125" x2="8" y2="-0.125" transform="matrix(1 0 0 -1 0 80)" stroke="#7A7A7A" stroke-width="0.25"/>
<line y1="89.875" x2="8" y2="89.875" stroke="#7A7A7A" stroke-width="0.25"/>
<rect y="90" width="8" height="10" fill="#D9D9D9"/>
<path d="M0.25 90L0.25 100" stroke="#7A7A7A" stroke-width="0.5"/>
<line y1="-0.25" x2="10" y2="-0.25" transform="matrix(0 1 1 0 8 90)" stroke="#7A7A7A" stroke-width="0.5"/>
<line y1="-0.125" x2="8" y2="-0.125" transform="matrix(1 0 0 -1 0 90)" stroke="#7A7A7A" stroke-width="0.25"/>
<line y1="99.875" x2="8" y2="99.875" stroke="#7A7A7A" stroke-width="0.25"/>
<rect y="60" width="8" height="10" fill="#D9D9D9"/>
<path d="M0.25 60L0.25 70" stroke="#7A7A7A" stroke-width="0.5"/>
<line y1="-0.25" x2="10" y2="-0.25" transform="matrix(0 1 1 0 8 60)" stroke="#7A7A7A" stroke-width="0.5"/>
<line y1="-0.125" x2="8" y2="-0.125" transform="matrix(1 0 0 -1 0 60)" stroke="#7A7A7A" stroke-width="0.25"/>
<line y1="69.875" x2="8" y2="69.875" stroke="#7A7A7A" stroke-width="0.25"/>
<rect y="70" width="8" height="10" fill="#D9D9D9"/>
<path d="M0.25 70L0.25 80" stroke="#7A7A7A" stroke-width="0.5"/>
<line y1="-0.25" x2="10" y2="-0.25" transform="matrix(0 1 1 0 8 70)" stroke="#7A7A7A" stroke-width="0.5"/>
<line y1="-0.125" x2="8" y2="-0.125" transform="matrix(1 0 0 -1 0 70)" stroke="#7A7A7A" stroke-width="0.25"/>
<line y1="79.875" x2="8" y2="79.875" stroke="#7A7A7A" stroke-width="0.25"/>
<rect y="40" width="8" height="10" fill="#D9D9D9"/>
<path d="M0.25 40L0.25 50" stroke="#7A7A7A" stroke-width="0.5"/>
<line y1="-0.25" x2="10" y2="-0.25" transform="matrix(0 1 1 0 8 40)" stroke="#7A7A7A" stroke-width="0.5"/>
<line y1="-0.125" x2="8" y2="-0.125" transform="matrix(1 0 0 -1 0 40)" stroke="#7A7A7A" stroke-width="0.25"/>
<line y1="49.875" x2="8" y2="49.875" stroke="#7A7A7A" stroke-width="0.25"/>
<rect y="50" width="8" height="10" fill="#D9D9D9"/>
<path d="M0.25 50L0.25 60" stroke="#7A7A7A" stroke-width="0.5"/>
<line y1="-0.25" x2="10" y2="-0.25" transform="matrix(0 1 1 0 8 50)" stroke="#7A7A7A" stroke-width="0.5"/>
<line y1="-0.125" x2="8" y2="-0.125" transform="matrix(1 0 0 -1 0 50)" stroke="#7A7A7A" stroke-width="0.25"/>
<line y1="59.875" x2="8" y2="59.875" stroke="#7A7A7A" stroke-width="0.25"/>
<rect y="20" width="8" height="10" fill="#D9D9D9"/>
<path d="M0.25 20L0.25 30" stroke="#7A7A7A" stroke-width="0.5"/>
<line y1="-0.25" x2="10" y2="-0.25" transform="matrix(0 1 1 0 8 20)" stroke="#7A7A7A" stroke-width="0.5"/>
<line y1="-0.125" x2="8" y2="-0.125" transform="matrix(1 0 0 -1 0 20)" stroke="#7A7A7A" stroke-width="0.25"/>
<line y1="29.875" x2="8" y2="29.875" stroke="#7A7A7A" stroke-width="0.25"/>
<rect y="30" width="8" height="10" fill="#D9D9D9"/>
<path d="M0.25 30L0.25 40" stroke="#7A7A7A" stroke-width="0.5"/>
<line y1="-0.25" x2="10" y2="-0.25" transform="matrix(0 1 1 0 8 30)" stroke="#7A7A7A" stroke-width="0.5"/>
<line y1="-0.125" x2="8" y2="-0.125" transform="matrix(1 0 0 -1 0 30)" stroke="#7A7A7A" stroke-width="0.25"/>
<line y1="39.875" x2="8" y2="39.875" stroke="#7A7A7A" stroke-width="0.25"/>
</svg>
